<svg width="163" height="162" viewBox="0 0 163 162" fill="none" xmlns="http://www.w3.org/2000/svg">
<path d="M141.208 101.752V110.066C141.208 116.062 136.343 119.295 130.355 119.295H36.0648C30.0693 119.295 25.2185 116.062 25.2185 110.066V99.0623C28.2234 106.854 32.8954 108.134 32.8954 108.134L125.611 107.798C127.451 108.427 129.421 108.577 131.335 108.234C133.249 107.891 135.044 107.067 136.551 105.838C137.818 104.181 139.401 102.793 141.208 101.752Z" fill="#DCDCEF"/>
<path opacity="0.2" d="M130.355 26.2497L56.0331 27.881C56.1261 27.838 52.5059 26.2926 52.5989 26.2497C61.5421 21.8997 76.6168 15.4678 92.9793 15.5179C114.593 15.5966 121.118 21.3345 130.355 26.2497Z" fill="url(#paint0_linear_55_38)"/>
<path opacity="0.2" d="M141.208 73.835V39.8222C141.209 39.3701 141.18 38.9184 141.122 38.47C151.661 53.7235 141.208 73.835 141.208 73.835Z" fill="#8AB7FF"/>
<path opacity="0.2" d="M78.1621 119.295C55.568 139.7 36.0504 134.319 36.0504 134.319C16.1893 128.653 12.891 103.555 12.6621 89.3602C12.3963 78.1739 15.4754 67.1628 21.5051 57.737C22.669 55.9484 23.9067 54.2384 25.2184 52.6072V110.087C25.2184 116.082 28.302 119.173 34.2975 119.173L78.1621 119.295Z" fill="url(#paint1_linear_55_38)"/>
<path opacity="0.2" d="M126.778 135.865C99.7836 139.256 106.473 119.495 106.473 119.495H128.595C134.133 119.495 142.732 115.918 141.659 109.944C141.388 108.56 141.237 107.155 141.209 105.744V99.062C147.562 98.1391 150.366 102.732 150.366 102.732C155.825 111.826 152.284 119.653 147.383 125.205C142.036 131.141 134.712 134.931 126.778 135.865Z" fill="url(#paint2_linear_55_38)"/>
<path d="M130.355 27.345H36.072C30.0778 27.345 25.2185 32.2042 25.2185 38.1985V108.442C25.2185 114.436 30.0778 119.295 36.072 119.295H130.355C136.349 119.295 141.208 114.436 141.208 108.442V38.1985C141.208 32.2042 136.349 27.345 130.355 27.345Z" stroke="url(#paint3_linear_55_38)" stroke-width="3" stroke-miterlimit="10"/>
<path opacity="0.2" d="M141.209 101.752V110.066C141.209 116.062 136.343 119.295 130.355 119.295L40.2075 119.188C34.212 119.188 25.2473 116.062 25.2473 110.066V99.0623C25.4763 99.6489 25.7052 100.2 25.9628 100.715C27.0376 102.954 28.7285 104.839 30.8372 106.151C32.9459 107.462 35.3848 108.146 37.868 108.12L125.654 107.798C127.289 108.352 129.027 108.535 130.741 108.335C133.409 107.945 135.856 106.631 137.653 104.621C138.678 103.482 139.878 102.513 141.209 101.752Z" fill="url(#paint4_linear_55_38)"/>
<path d="M141.208 40.6663H24.5032" stroke="url(#paint5_linear_55_38)" stroke-width="3" stroke-miterlimit="10"/>
<path d="M36.0078 36.316C37.2603 36.316 38.2757 35.3006 38.2757 34.048C38.2757 32.7954 37.2603 31.78 36.0078 31.78C34.7552 31.78 33.7397 32.7954 33.7397 34.048C33.7397 35.3006 34.7552 36.316 36.0078 36.316Z" fill="url(#paint6_linear_55_38)"/>
<path d="M44.3068 36.316C45.5594 36.316 46.5748 35.3006 46.5748 34.048C46.5748 32.7954 45.5594 31.78 44.3068 31.78C43.0542 31.78 42.0388 32.7954 42.0388 34.048C42.0388 35.3006 43.0542 36.316 44.3068 36.316Z" stroke="url(#paint7_linear_55_38)" stroke-width="2" stroke-miterlimit="10"/>
<path d="M52.5991 36.316C53.8516 36.316 54.867 35.3006 54.867 34.048C54.867 32.7954 53.8516 31.78 52.5991 31.78C51.3465 31.78 50.3311 32.7954 50.3311 34.048C50.3311 35.3006 51.3465 36.316 52.5991 36.316Z" stroke="url(#paint8_linear_55_38)" stroke-width="2" stroke-miterlimit="10"/>
<path d="M103.561 63.9333H62.0788C59.5183 63.9333 57.4426 66.009 57.4426 68.5695V75.8457C57.4426 78.4062 59.5183 80.4819 62.0788 80.4819H103.561C106.121 80.4819 108.197 78.4062 108.197 75.8457V68.5695C108.197 66.009 106.121 63.9333 103.561 63.9333Z" fill="url(#paint9_linear_55_38)"/>
<path d="M99.7692 48.4434H66.4361C65.3179 48.4434 64.4114 49.3483 64.4114 50.4645C64.4114 51.5808 65.3179 52.4857 66.4361 52.4857H99.7692C100.887 52.4857 101.794 51.5808 101.794 50.4645C101.794 49.3483 100.887 48.4434 99.7692 48.4434Z" fill="#BCD6FF"/>
<path d="M89.0877 55.3616H55.3825C54.7898 55.3616 54.3093 55.8421 54.3093 56.4348C54.3093 57.0275 54.7898 57.5079 55.3825 57.5079H89.0877C89.6804 57.5079 90.1609 57.0275 90.1609 56.4348C90.1609 55.8421 89.6804 55.3616 89.0877 55.3616Z" fill="#BCD6FF"/>
<path d="M110.78 55.3616H96.8644C96.2717 55.3616 95.7913 55.8421 95.7913 56.4348C95.7913 57.0275 96.2717 57.5079 96.8644 57.5079H110.78C111.373 57.5079 111.853 57.0275 111.853 56.4348C111.853 55.8421 111.373 55.3616 110.78 55.3616Z" fill="#BCD6FF"/>
<path d="M52.5918 94.2397V89.4246C52.5918 88.8193 52.8323 88.2388 53.2603 87.8108C53.6883 87.3828 54.2688 87.1423 54.8741 87.1423H111.395C112 87.1423 112.581 87.3828 113.009 87.8108C113.437 88.2388 113.677 88.8193 113.677 89.4246V94.254" stroke="url(#paint10_linear_55_38)" stroke-width="3" stroke-miterlimit="10"/>
<path d="M83.1706 80.4817L83.0991 94.6978" stroke="url(#paint11_linear_55_38)" stroke-width="3" stroke-miterlimit="10"/>
<path d="M59.3103 94.24H44.8151C42.2546 94.24 40.179 96.3157 40.179 98.8762V106.152C40.179 108.713 42.2546 110.789 44.8151 110.789H59.3103C61.8707 110.789 63.9464 108.713 63.9464 106.152V98.8762C63.9464 96.3157 61.8707 94.24 59.3103 94.24Z" fill="white" stroke="url(#paint12_linear_55_38)" stroke-width="2" stroke-miterlimit="10"/>
<path d="M59.2531 99.2622H44.8724C44.4773 99.2622 44.157 99.5825 44.157 99.9777C44.157 100.373 44.4773 100.693 44.8724 100.693H59.2531C59.6482 100.693 59.9686 100.373 59.9686 99.9777C59.9686 99.5825 59.6482 99.2622 59.2531 99.2622Z" fill="#716EB7"/>
<path d="M53.6439 104.334H44.8724C44.4773 104.334 44.157 104.655 44.157 105.05C44.157 105.445 44.4773 105.765 44.8724 105.765H53.6439C54.0391 105.765 54.3594 105.445 54.3594 105.05C54.3594 104.655 54.0391 104.334 53.6439 104.334Z" fill="#716EB7"/>
<path d="M90.1035 94.24H75.6083C73.0479 94.24 70.9722 96.3157 70.9722 98.8762V106.152C70.9722 108.713 73.0479 110.789 75.6083 110.789H90.1035C92.6639 110.789 94.7396 108.713 94.7396 106.152V98.8762C94.7396 96.3157 92.6639 94.24 90.1035 94.24Z" fill="white" stroke="url(#paint13_linear_55_38)" stroke-width="2" stroke-miterlimit="10"/>
<path d="M90.0463 99.2622H75.6657C75.2705 99.2622 74.9502 99.5825 74.9502 99.9777C74.9502 100.373 75.2705 100.693 75.6657 100.693H90.0463C90.4415 100.693 90.7618 100.373 90.7618 99.9777C90.7618 99.5825 90.4415 99.2622 90.0463 99.2622Z" fill="#716EB7"/>
<path d="M84.4372 104.334H75.6657C75.2705 104.334 74.9502 104.655 74.9502 105.05C74.9502 105.445 75.2705 105.765 75.6657 105.765H84.4372C84.8323 105.765 85.1526 105.445 85.1526 105.05C85.1526 104.655 84.8323 104.334 84.4372 104.334Z" fill="#716EB7"/>
<path d="M120.889 94.24H106.394C103.834 94.24 101.758 96.3157 101.758 98.8762V106.152C101.758 108.713 103.834 110.789 106.394 110.789H120.889C123.45 110.789 125.526 108.713 125.526 106.152V98.8762C125.526 96.3157 123.45 94.24 120.889 94.24Z" fill="white" stroke="url(#paint14_linear_55_38)" stroke-width="2" stroke-miterlimit="10"/>
<path d="M120.832 99.2622H106.451C106.056 99.2622 105.736 99.5825 105.736 99.9777C105.736 100.373 106.056 100.693 106.451 100.693H120.832C121.227 100.693 121.547 100.373 121.547 99.9777C121.547 99.5825 121.227 99.2622 120.832 99.2622Z" fill="#716EB7"/>
<path d="M115.223 104.334H106.451C106.056 104.334 105.736 104.655 105.736 105.05C105.736 105.445 106.056 105.765 106.451 105.765H115.223C115.618 105.765 115.938 105.445 115.938 105.05C115.938 104.655 115.618 104.334 115.223 104.334Z" fill="#716EB7"/>
<path d="M20.2605 13.6074C21.8924 13.6074 23.2153 12.2845 23.2153 10.6526C23.2153 9.02068 21.8924 7.69775 20.2605 7.69775C18.6286 7.69775 17.3057 9.02068 17.3057 10.6526C17.3057 12.2845 18.6286 13.6074 20.2605 13.6074Z" stroke="url(#paint15_linear_55_38)" stroke-width="2" stroke-miterlimit="10"/>
<path d="M4.85669 116.698C6.48861 116.698 7.81153 115.375 7.81153 113.743C7.81153 112.111 6.48861 110.788 4.85669 110.788C3.22478 110.788 1.90186 112.111 1.90186 113.743C1.90186 115.375 3.22478 116.698 4.85669 116.698Z" stroke="url(#paint16_linear_55_38)" stroke-width="2" stroke-miterlimit="10"/>
<path d="M124.51 142.168C126.142 142.168 127.465 140.845 127.465 139.213C127.465 137.581 126.142 136.258 124.51 136.258C122.878 136.258 121.555 137.581 121.555 139.213C121.555 140.845 122.878 142.168 124.51 142.168Z" fill="#5181C1"/>
<path d="M150.166 86.3914C151.798 86.3914 153.121 85.0684 153.121 83.4365C153.121 81.8046 151.798 80.4817 150.166 80.4817C148.534 80.4817 147.211 81.8046 147.211 83.4365C147.211 85.0684 148.534 86.3914 150.166 86.3914Z" fill="#5181C1"/>
<path d="M37.2239 148.078C38.8558 148.078 40.1787 146.755 40.1787 145.123C40.1787 143.491 38.8558 142.168 37.2239 142.168C35.592 142.168 34.269 143.491 34.269 145.123C34.269 146.755 35.592 148.078 37.2239 148.078Z" fill="url(#paint17_linear_55_38)"/>
<path d="M80.0515 16.5698C81.6834 16.5698 83.0064 15.2469 83.0064 13.615C83.0064 11.9831 81.6834 10.6602 80.0515 10.6602C78.4196 10.6602 77.0967 11.9831 77.0967 13.615C77.0967 15.2469 78.4196 16.5698 80.0515 16.5698Z" fill="#5181C1"/>
<path d="M124.66 3.51265L126.184 0.607902C126.231 0.516453 126.303 0.439847 126.392 0.386396C126.48 0.332945 126.581 0.304688 126.684 0.304688C126.788 0.304688 126.889 0.332945 126.977 0.386396C127.065 0.439847 127.137 0.516453 127.185 0.607902L128.695 3.46973C128.739 3.54914 128.8 3.61763 128.874 3.67005L130.841 5.0008C130.921 5.05195 130.987 5.12233 131.032 5.20547C131.078 5.2886 131.101 5.38183 131.101 5.47658C131.101 5.57133 131.078 5.66456 131.032 5.7477C130.987 5.83083 130.921 5.90121 130.841 5.95236L128.917 7.13286C128.83 7.19099 128.758 7.26962 128.709 7.36181L127.2 10.3667C127.151 10.4579 127.078 10.5342 126.989 10.5873C126.9 10.6405 126.799 10.6686 126.695 10.6686C126.592 10.6686 126.49 10.6405 126.401 10.5873C126.312 10.5342 126.24 10.4579 126.191 10.3667L124.674 7.5049C124.631 7.42933 124.572 7.36355 124.502 7.31173L122.578 5.93805C122.502 5.88606 122.441 5.81659 122.398 5.73558C122.356 5.65458 122.334 5.56447 122.334 5.473C122.334 5.38153 122.356 5.29143 122.398 5.21043C122.441 5.12943 122.502 5.05995 122.578 5.00796L124.488 3.71298C124.561 3.6611 124.62 3.59235 124.66 3.51265Z" fill="#5181C1"/>
<path d="M10.6092 70.2358L12.1331 67.331C12.1809 67.2396 12.2529 67.163 12.3412 67.1095C12.4295 67.0561 12.5307 67.0278 12.6339 67.0278C12.7371 67.0278 12.8383 67.0561 12.9266 67.1095C13.0149 67.163 13.0869 67.2396 13.1347 67.331L14.6443 70.1929C14.6885 70.2742 14.7525 70.3431 14.8304 70.3932L16.7907 71.7239C16.8705 71.7751 16.9361 71.8455 16.9815 71.9286C17.027 72.0118 17.0508 72.105 17.0508 72.1997C17.0508 72.2945 17.027 72.3877 16.9815 72.4708C16.9361 72.554 16.8705 72.6244 16.7907 72.6755L14.8661 73.856C14.7792 73.9141 14.708 73.9928 14.6586 74.085L13.149 77.0899C13.1001 77.1811 13.0274 77.2573 12.9385 77.3105C12.8497 77.3636 12.7481 77.3917 12.6446 77.3917C12.5411 77.3917 12.4396 77.3636 12.3507 77.3105C12.2619 77.2573 12.1892 77.1811 12.1402 77.0899L10.6235 74.228C10.5802 74.1525 10.5217 74.0867 10.4518 74.0349L8.52718 72.6612C8.45336 72.609 8.39314 72.5398 8.35158 72.4595C8.31002 72.3792 8.28833 72.2901 8.28833 72.1997C8.28833 72.1093 8.31002 72.0202 8.35158 71.9399C8.39314 71.8596 8.45336 71.7905 8.52718 71.7383L10.4375 70.4361C10.5101 70.3842 10.569 70.3155 10.6092 70.2358Z" fill="#764FAC"/>
<path d="M155.46 50.6184L156.991 47.7136C157.039 47.6222 157.111 47.5456 157.199 47.4921C157.288 47.4387 157.389 47.4104 157.492 47.4104C157.595 47.4104 157.697 47.4387 157.785 47.4921C157.873 47.5456 157.945 47.6222 157.993 47.7136L159.495 50.5754C159.539 50.6589 159.603 50.7301 159.681 50.7829L161.642 52.1065C161.722 52.1577 161.787 52.228 161.833 52.3112C161.878 52.3943 161.902 52.4875 161.902 52.5823C161.902 52.677 161.878 52.7703 161.833 52.8534C161.787 52.9365 161.722 53.0069 161.642 53.0581L159.71 54.2386C159.623 54.2967 159.552 54.3753 159.503 54.4675L157.993 57.4724C157.947 57.566 157.876 57.6448 157.787 57.7C157.699 57.7551 157.596 57.7843 157.492 57.7843C157.388 57.7843 157.286 57.7551 157.197 57.7C157.109 57.6448 157.037 57.566 156.991 57.4724L155.467 54.6106C155.424 54.5329 155.366 54.4648 155.296 54.4103L153.371 53.0438C153.296 52.9918 153.234 52.9223 153.192 52.8413C153.149 52.7603 153.127 52.6702 153.127 52.5787C153.127 52.4872 153.149 52.3971 153.192 52.3161C153.234 52.2351 153.296 52.1657 153.371 52.1137L155.281 50.8115C155.356 50.7625 155.417 50.6963 155.46 50.6184Z" stroke="#764FAC" stroke-width="2" stroke-miterlimit="10"/>
<path d="M93.7451 153.58L95.2762 150.675C95.3241 150.583 95.396 150.507 95.4843 150.453C95.5726 150.4 95.6738 150.372 95.777 150.372C95.8802 150.372 95.9815 150.4 96.0697 150.453C96.158 150.507 96.23 150.583 96.2778 150.675L97.7803 153.537C97.8243 153.62 97.8882 153.691 97.9663 153.744L99.9338 155.068C100.014 155.119 100.079 155.189 100.125 155.272C100.17 155.355 100.194 155.449 100.194 155.543C100.194 155.638 100.17 155.731 100.125 155.815C100.079 155.898 100.014 155.968 99.9338 156.019L98.0093 157.207C97.9175 157.258 97.8429 157.335 97.7946 157.429L96.285 160.434C96.239 160.527 96.1677 160.606 96.0792 160.661C95.9907 160.716 95.8885 160.745 95.7842 160.745C95.6799 160.745 95.5777 160.716 95.4892 160.661C95.4007 160.606 95.3294 160.527 95.2834 160.434L93.7594 157.572C93.7181 157.495 93.6593 157.429 93.5877 157.379L91.6631 156.005C91.5879 155.953 91.5264 155.883 91.4839 155.802C91.4414 155.721 91.4192 155.631 91.4192 155.54C91.4192 155.448 91.4414 155.358 91.4839 155.277C91.5264 155.196 91.5879 155.127 91.6631 155.075L93.5734 153.773C93.644 153.722 93.7026 153.656 93.7451 153.58V153.58Z" stroke="#764FAC" stroke-width="2" stroke-miterlimit="10"/>
<defs>
<linearGradient id="paint0_linear_55_38" x1="91.476" y1="15.5176" x2="91.476" y2="27.881" gradientUnits="userSpaceOnUse">
<stop stop-color="#8AB7FF"/>
<stop offset="1" stop-color="#E9BCFA"/>
</linearGradient>
<linearGradient id="paint1_linear_55_38" x1="45.4042" y1="52.6072" x2="45.4042" y2="134.961" gradientUnits="userSpaceOnUse">
<stop stop-color="#8AB7FF"/>
<stop offset="1" stop-color="#E9BCFA"/>
</linearGradient>
<linearGradient id="paint2_linear_55_38" x1="129.429" y1="98.9395" x2="129.429" y2="136.256" gradientUnits="userSpaceOnUse">
<stop stop-color="#8AB7FF"/>
<stop offset="1" stop-color="#E9BCFA"/>
</linearGradient>
<linearGradient id="paint3_linear_55_38" x1="144.988" y1="61.1996" x2="23.7912" y2="74.2723" gradientUnits="userSpaceOnUse">
<stop stop-color="#E191FF"/>
<stop offset="1" stop-color="#9240FC"/>
</linearGradient>
<linearGradient id="paint4_linear_55_38" x1="144.987" y1="106.512" x2="46.1487" y2="154.95" gradientUnits="userSpaceOnUse">
<stop stop-color="#E199FC"/>
<stop offset="1" stop-color="#9240FC"/>
</linearGradient>
<linearGradient id="paint5_linear_55_38" x1="145.011" y1="41.0344" x2="143.785" y2="53.2734" gradientUnits="userSpaceOnUse">
<stop stop-color="#E191FF"/>
<stop offset="1" stop-color="#9240FC"/>
</linearGradient>
<linearGradient id="paint6_linear_55_38" x1="38.4236" y1="33.4501" x2="33.6636" y2="33.8571" gradientUnits="userSpaceOnUse">
<stop stop-color="#E199FC"/>
<stop offset="1" stop-color="#9240FC"/>
</linearGradient>
<linearGradient id="paint7_linear_55_38" x1="46.7226" y1="33.4501" x2="41.9627" y2="33.8571" gradientUnits="userSpaceOnUse">
<stop stop-color="#E199FC"/>
<stop offset="1" stop-color="#9240FC"/>
</linearGradient>
<linearGradient id="paint8_linear_55_38" x1="55.0148" y1="33.4501" x2="50.2549" y2="33.8571" gradientUnits="userSpaceOnUse">
<stop stop-color="#E199FC"/>
<stop offset="1" stop-color="#9240FC"/>
</linearGradient>
<linearGradient id="paint9_linear_55_38" x1="109.851" y1="70.0262" x2="59.6536" y2="83.1908" gradientUnits="userSpaceOnUse">
<stop stop-color="#E199FC"/>
<stop offset="1" stop-color="#9240FC"/>
</linearGradient>
<linearGradient id="paint10_linear_55_38" x1="115.668" y1="89.7607" x2="73.7244" y2="120.567" gradientUnits="userSpaceOnUse">
<stop stop-color="#E199FC"/>
<stop offset="1" stop-color="#9240FC"/>
</linearGradient>
<linearGradient id="paint11_linear_55_38" x1="83.173" y1="85.7158" x2="83.0974" y2="85.7159" gradientUnits="userSpaceOnUse">
<stop offset="1" stop-color="#9240FC"/>
</linearGradient>
<linearGradient id="paint12_linear_55_38" x1="64.7209" y1="100.333" x2="39.9708" y2="103.372" gradientUnits="userSpaceOnUse">
<stop stop-color="#E199FC"/>
<stop offset="1" stop-color="#9240FC"/>
</linearGradient>
<linearGradient id="paint13_linear_55_38" x1="95.5141" y1="100.333" x2="70.7641" y2="103.372" gradientUnits="userSpaceOnUse">
<stop stop-color="#E199FC"/>
<stop offset="1" stop-color="#9240FC"/>
</linearGradient>
<linearGradient id="paint14_linear_55_38" x1="126.3" y1="100.333" x2="101.55" y2="103.372" gradientUnits="userSpaceOnUse">
<stop stop-color="#E199FC"/>
<stop offset="1" stop-color="#9240FC"/>
</linearGradient>
<linearGradient id="paint15_linear_55_38" x1="23.4079" y1="9.8736" x2="17.2064" y2="10.4039" gradientUnits="userSpaceOnUse">
<stop stop-color="#E199FC"/>
<stop offset="1" stop-color="#9240FC"/>
</linearGradient>
<linearGradient id="paint16_linear_55_38" x1="8.0041" y1="112.964" x2="1.80264" y2="113.494" gradientUnits="userSpaceOnUse">
<stop stop-color="#E199FC"/>
<stop offset="1" stop-color="#9240FC"/>
</linearGradient>
<linearGradient id="paint17_linear_55_38" x1="40.3713" y1="144.344" x2="34.1698" y2="144.874" gradientUnits="userSpaceOnUse">
<stop stop-color="#E199FC"/>
<stop offset="1" stop-color="#9240FC"/>
</linearGradient>
</defs>
</svg>
