<svg width="31" height="31" viewBox="0 0 31 31" fill="none" xmlns="http://www.w3.org/2000/svg">
<g clip-path="url(#clip0_271_100)">
<path opacity="0.4" d="M27.0766 7.5417L23.3479 3.81299L16.4048 10.8143L20.1342 14.5434L27.0766 7.5417Z" fill="url(#paint0_linear_271_100)"/>
<path opacity="0.4" d="M13.0642 16.733C12.7623 17.4578 13.4902 18.1847 14.2146 17.8819L18.678 15.573L15.3711 12.2661L13.0642 16.733Z" fill="url(#paint1_linear_271_100)"/>
<path opacity="0.4" d="M30.4415 4.1769C30.7848 3.83357 30.7848 3.27716 30.4415 2.93384L27.9559 0.44841C27.6125 0.105087 27.0561 0.105087 26.7128 0.44841L24.5908 2.57037L28.3193 6.29909L30.4415 4.1769Z" fill="url(#paint2_linear_271_100)"/>
<path d="M3.33594 24.8589H4.21484V29.312C4.21484 29.6672 4.42862 29.9883 4.75729 30.1238C5.08116 30.2591 5.46134 30.187 5.71517 29.9334L10.7897 24.8589H21.0313C22.4851 24.8589 23.668 23.676 23.668 22.2221V13.4956L20.8955 16.268C20.6536 16.5102 20.3712 16.7006 20.0544 16.8336L15.0222 19.4428C14.5647 19.6404 14.2213 19.7099 13.8711 19.7099C13.6095 19.7099 13.3573 19.6596 13.1135 19.5854H6.85156C6.36565 19.5854 5.97266 19.1922 5.97266 18.7065C5.97266 18.2206 6.36565 17.8276 6.85156 17.8276H11.3022C11.1287 17.2522 11.2031 16.629 11.4422 16.057L14.1545 10.7895C14.2316 10.5947 14.4223 10.3114 14.6635 10.0704L17.4531 7.28076H3.33594C1.88208 7.28076 0.699219 8.46362 0.699219 9.91748V22.2221C0.699219 23.676 1.88208 24.8589 3.33594 24.8589Z" fill="url(#paint3_linear_271_100)"/>
</g>
<defs>
<linearGradient id="paint0_linear_271_100" x1="27.4244" y1="7.76376" x2="16.2247" y2="8.71619" gradientUnits="userSpaceOnUse">
<stop stop-color="#E199FC"/>
<stop offset="1" stop-color="#9240FC"/>
</linearGradient>
<linearGradient id="paint1_linear_271_100" x1="18.8632" y1="14.3597" x2="12.8987" y2="14.8695" gradientUnits="userSpaceOnUse">
<stop stop-color="#E199FC"/>
<stop offset="1" stop-color="#9240FC"/>
</linearGradient>
<linearGradient id="paint2_linear_271_100" x1="30.898" y1="2.43984" x2="24.4883" y2="2.98794" gradientUnits="userSpaceOnUse">
<stop stop-color="#E199FC"/>
<stop offset="1" stop-color="#9240FC"/>
</linearGradient>
<linearGradient id="paint3_linear_271_100" x1="24.4164" y1="15.7159" x2="0.314489" y2="17.7821" gradientUnits="userSpaceOnUse">
<stop stop-color="#E199FC"/>
<stop offset="1" stop-color="#9240FC"/>
</linearGradient>
<clipPath id="clip0_271_100">
<rect width="30" height="30" fill="white" transform="translate(0.699219 0.190918)"/>
</clipPath>
</defs>
</svg>
