<svg width="31" height="31" viewBox="0 0 31 31" fill="none" xmlns="http://www.w3.org/2000/svg">
<path d="M7.00399 19.0424L8.56016 20.5986L11.2178 17.9151C8.66415 14.8713 8.12085 10.8502 9.30786 7.44545L12.8441 10.9817C12.814 14.5371 15.7087 17.6444 19.4856 17.6444C21.7029 17.6443 23.6695 16.5521 24.8765 14.8776L20.8616 10.8626L18.0774 13.6469L7.72312 3.29263V5.64038H5.90728L5.90734 0.192871H11.3548V2.00865L9.0071 2.00871L18.0774 11.079L20.8616 8.29459L25.7569 13.1899C26.5598 10.8946 26.0713 8.19551 24.1821 6.30631C21.7617 3.88604 17.9599 3.73097 15.3632 5.79461L12.4274 2.85876C16.6564 -0.817461 23.0732 -0.650162 27.1059 3.38245C29.1412 5.41782 30.2621 8.12409 30.2621 11.0026C30.2621 16.9449 25.4278 21.7794 19.4856 21.7794C16.8947 21.7794 14.4438 20.8709 12.4957 19.2053L9.84408 21.8826L11.4065 23.4452L4.66495 30.1869L0.262207 25.7842L7.00399 19.0424Z" fill="url(#paint0_linear_271_91)"/>
<path opacity="0.4" d="M15.7041 24.7417H30.2307V26.5575H15.7041V24.7417Z" fill="url(#paint1_linear_271_91)"/>
<path opacity="0.4" d="M10.2563 28.3735H21.1514V30.1893H10.2563V28.3735Z" fill="url(#paint2_linear_271_91)"/>
<defs>
<linearGradient id="paint0_linear_271_91" x1="31.2397" y1="11.2362" x2="-0.241377" y2="13.9286" gradientUnits="userSpaceOnUse">
<stop stop-color="#E199FC"/>
<stop offset="1" stop-color="#9240FC"/>
</linearGradient>
<linearGradient id="paint1_linear_271_91" x1="30.7041" y1="25.4103" x2="20.2437" y2="32.5659" gradientUnits="userSpaceOnUse">
<stop stop-color="#E199FC"/>
<stop offset="1" stop-color="#9240FC"/>
</linearGradient>
<linearGradient id="paint2_linear_271_91" x1="21.5064" y1="29.0421" x2="12.3897" y2="33.7195" gradientUnits="userSpaceOnUse">
<stop stop-color="#E199FC"/>
<stop offset="1" stop-color="#9240FC"/>
</linearGradient>
</defs>
</svg>
