<svg width="31" height="25" viewBox="0 0 31 25" fill="none" xmlns="http://www.w3.org/2000/svg">
<path d="M15.4999 18.7575C16.9814 18.7575 18.1867 17.5522 18.1867 16.0707C18.1867 14.5891 16.9814 13.3838 15.4999 13.3838C14.0183 13.3838 12.813 14.5891 12.813 16.0706C12.813 17.5521 14.0183 18.7575 15.4999 18.7575Z" fill="url(#paint0_linear_271_113)"/>
<path opacity="0.4" d="M30.4998 5.46857V0.190918H0.499756V5.46857H30.4998ZM5.77671 3.70801H4.01749V1.9502H5.77671V3.70801ZM9.29515 3.70801H7.53593V1.9502H9.29515V3.70801ZM12.8136 3.70801H11.0544V1.9502H12.8136V3.70801Z" fill="url(#paint1_linear_271_113)"/>
<path d="M0.499756 7.22656V24.9134H30.4998V7.22656H0.499756ZM23.4636 11.6734H26.982V13.4312H23.4636V11.6734ZM23.4636 15.1918H26.982V16.9496H23.4636V15.1918ZM23.4636 18.7103H26.982V20.4681H23.4636V18.7103ZM9.29515 15.1918H11.1427C11.2583 14.6179 11.4849 14.084 11.7989 13.6128L10.4909 12.3049L11.7339 11.0619L13.0418 12.3699C13.513 12.0559 14.047 11.8293 14.6208 11.7137V9.86615H16.3787V11.7137C16.9525 11.8293 17.4865 12.0559 17.9577 12.3699L19.2656 11.0619L20.5086 12.3049L19.2007 13.6128C19.5147 14.084 19.7412 14.618 19.8568 15.1919H21.7044V16.9497H19.8568C19.7412 17.5235 19.5146 18.0576 19.2007 18.5287L20.5086 19.8366L19.2656 21.0795L17.9577 19.7717C17.4866 20.0856 16.9526 20.3122 16.3787 20.4279V22.2754H14.6208V20.4279C14.047 20.3122 13.513 20.0857 13.0418 19.7717L11.7339 21.0795L10.4909 19.8366L11.7989 18.5287C11.4849 18.0575 11.2583 17.5235 11.1427 16.9496H9.29509V15.1918H9.29515ZM4.01749 11.6734H7.53593V13.4312H4.01749V11.6734ZM4.01749 15.1918H7.53593V16.9496H4.01749V15.1918ZM4.01749 18.7103H7.53593V20.4681H4.01749V18.7103Z" fill="url(#paint2_linear_271_113)"/>
<defs>
<linearGradient id="paint0_linear_271_113" x1="18.3618" y1="15.3623" x2="12.7228" y2="15.8445" gradientUnits="userSpaceOnUse">
<stop stop-color="#E199FC"/>
<stop offset="1" stop-color="#9240FC"/>
</linearGradient>
<linearGradient id="paint1_linear_271_113" x1="31.4773" y1="2.13406" x2="5.8261" y2="14.6021" gradientUnits="userSpaceOnUse">
<stop stop-color="#E199FC"/>
<stop offset="1" stop-color="#9240FC"/>
</linearGradient>
<linearGradient id="paint2_linear_271_113" x1="31.4773" y1="13.7386" x2="0.419235" y2="18.2431" gradientUnits="userSpaceOnUse">
<stop stop-color="#E199FC"/>
<stop offset="1" stop-color="#9240FC"/>
</linearGradient>
</defs>
</svg>
