<svg width="31" height="31" viewBox="0 0 31 31" fill="none" xmlns="http://www.w3.org/2000/svg">
<g clip-path="url(#clip0_271_68)">
<path d="M17.7245 12.3785C16.7745 12.791 15.8983 13.3298 15.112 13.9785H5.18701C4.67451 13.9785 4.24951 13.5535 4.24951 13.041C4.24951 12.5285 4.67451 12.1035 5.18701 12.1035H17.062C17.3245 12.1035 17.5495 12.2035 17.7245 12.3785Z" fill="white"/>
<path d="M13.0995 16.166C12.687 16.7535 12.3245 17.3785 12.037 18.041H5.18701C4.67451 18.041 4.24951 17.616 4.24951 17.1035C4.24951 16.591 4.67451 16.166 5.18701 16.166H13.0995Z" fill="white"/>
<path d="M11.3495 20.2285C11.2245 20.841 11.1495 21.466 11.137 22.1035H5.18701C4.67451 22.1035 4.24951 21.6785 4.24951 21.166C4.24951 20.6535 4.67451 20.2285 5.18701 20.2285H11.3495Z" fill="white"/>
<path fill-rule="evenodd" clip-rule="evenodd" d="M14.4373 3.35352H15.8123C16.3248 3.35352 16.7498 3.77852 16.7498 4.29102V4.60352H18.3123C20.2123 4.60352 21.7498 6.14102 21.7498 8.04102V11.491C20.3248 11.5285 18.9623 11.841 17.7248 12.3785C17.5498 12.2035 17.3248 12.1035 17.0623 12.1035H11.1248H5.18726C4.67476 12.1035 4.24976 12.5285 4.24976 13.041C4.24976 13.5535 4.67476 13.9785 5.18726 13.9785H11.1248H15.1123C14.3498 14.616 13.6623 15.3535 13.0998 16.166H11.1248H5.18726C4.67476 16.166 4.24976 16.591 4.24976 17.1035C4.24976 17.616 4.67476 18.041 5.18726 18.041H11.1248H12.0373C11.7373 18.7285 11.4998 19.466 11.3498 20.2285H11.1248H5.18726C4.67476 20.2285 4.24976 20.6535 4.24976 21.166C4.24976 21.6785 4.67476 22.1035 5.18726 22.1035H11.1248H11.1373L11.1248 22.416C11.1248 24.091 11.4998 25.6785 12.1748 27.1035H11.1248H3.93726C2.03726 27.1035 0.499756 25.566 0.499756 23.666V8.04102C0.499756 6.14102 2.03726 4.60352 3.93726 4.60352H5.49976V4.29102C5.49976 3.77852 5.92476 3.35352 6.43726 3.35352H7.81226C8.22476 1.91602 9.54976 0.853516 11.1248 0.853516C12.6998 0.853516 14.0248 1.91602 14.4373 3.35352Z" fill="url(#paint0_linear_271_68)"/>
<path d="M22.062 20.2285C21.3708 20.2285 20.812 20.7873 20.812 21.4785V25.8535C20.812 26.5448 21.3708 27.1035 22.062 27.1035V20.2285Z" fill="#DEDEDE"/>
<path d="M22.062 17.1035C21.372 17.1035 20.812 17.6623 20.812 18.3535C20.812 19.0448 21.372 19.6035 22.062 19.6035V17.1035Z" fill="#DEDEDE"/>
<path opacity="0.4" d="M22.0625 30.8535C17.41 30.8535 13.625 27.0698 13.625 22.416C13.625 17.7623 17.41 13.9785 22.0625 13.9785C26.715 13.9785 30.5 17.7623 30.5 22.416C30.5 27.0698 26.715 30.8535 22.0625 30.8535Z" fill="url(#paint1_linear_271_68)"/>
<path d="M22.062 27.1035C21.3708 27.1035 20.812 26.5448 20.812 25.8535V21.4785C20.812 20.7873 21.3708 20.2285 22.062 20.2285C22.7533 20.2285 23.312 20.7873 23.312 21.4785V25.8535C23.312 26.5448 22.7533 27.1035 22.062 27.1035Z" fill="white"/>
<path d="M20.812 18.3535C20.812 17.6623 21.372 17.1035 22.062 17.1035C22.752 17.1035 23.312 17.6623 23.312 18.3535C23.312 19.0448 22.752 19.6035 22.062 19.6035C21.372 19.6035 20.812 19.0448 20.812 18.3535Z" fill="white"/>
</g>
<defs>
<linearGradient id="paint0_linear_271_68" x1="22.4422" y1="10.5183" x2="0.0870575" y2="12.0658" gradientUnits="userSpaceOnUse">
<stop stop-color="#E199FC"/>
<stop offset="1" stop-color="#9240FC"/>
</linearGradient>
<linearGradient id="paint1_linear_271_68" x1="31.0499" y1="20.1916" x2="13.3417" y2="21.7058" gradientUnits="userSpaceOnUse">
<stop stop-color="#E199FC"/>
<stop offset="1" stop-color="#9240FC"/>
</linearGradient>
<clipPath id="clip0_271_68">
<rect width="30" height="30" fill="white" transform="translate(0.499756 0.853516)"/>
</clipPath>
</defs>
</svg>
