<svg width="83" height="83" viewBox="0 0 83 83" fill="none" xmlns="http://www.w3.org/2000/svg">
<g filter="url(#filter0_d_505_5294)">
<circle cx="41.9448" cy="41.8745" r="37" fill="#F9F9F9"/>
<circle cx="41.9448" cy="41.8745" r="36.25" stroke="url(#paint0_linear_505_5294)" stroke-width="1.5"/>
</g>
<g clip-path="url(#clip0_505_5294)">
<path d="M34.6313 31.562H41.6327C42.6354 29.3149 44.3985 27.4978 44.4132 27.4683C44.6945 27.2058 44.7695 26.812 44.6195 26.4558C44.4695 26.0995 44.132 25.8745 43.757 25.8745C42.0695 25.8745 41.1508 26.4745 40.4195 26.962C39.7633 27.412 39.257 27.7495 38.1321 27.7495C37.0071 27.7495 36.5008 27.412 35.8446 26.962C35.1133 26.4745 34.1946 25.8745 32.5071 25.8745C32.1321 25.8745 31.7946 26.0995 31.6446 26.4558C31.4946 26.812 31.5696 27.2058 31.8508 27.4683C31.8656 27.4978 33.6287 29.3149 34.6313 31.562Z" fill="url(#paint1_linear_505_5294)"/>
<path d="M44.7573 55.062V56.937C44.7573 57.4548 45.1771 57.8745 45.6948 57.8745H57.0073C57.5251 57.8745 57.9448 57.4548 57.9448 56.937V55.062C57.9448 54.5443 57.5251 54.1245 57.0073 54.1245H45.6948C45.1771 54.1245 44.7573 54.5443 44.7573 55.062Z" fill="url(#paint2_linear_505_5294)"/>
<path d="M57.9448 51.312V49.437C57.9448 48.9193 57.5251 48.4995 57.0073 48.4995H45.6948C45.1771 48.4995 44.7573 48.9193 44.7573 49.437V51.312C44.7573 51.8298 45.1771 52.2495 45.6948 52.2495H57.0073C57.5251 52.2495 57.9448 51.8298 57.9448 51.312Z" fill="url(#paint3_linear_505_5294)"/>
<path d="M44.6386 41.037C42.8011 39.237 41.3011 37.712 41.0011 35.312H41.8823C42.4073 35.312 42.8198 34.8995 42.8198 34.3745C42.8198 33.8495 42.4073 33.437 41.8823 33.437H34.3823C33.8573 33.437 33.4448 33.8495 33.4448 34.3745C33.4448 34.8995 33.8573 35.312 34.3823 35.312H35.2636C34.9636 37.712 33.4636 39.237 31.6261 41.037C28.9636 43.6433 25.9448 46.6058 25.9448 53.3745C25.9823 55.8495 28.1011 57.8745 30.6323 57.8745H42.9923C42.8873 57.5801 42.8198 57.267 42.8198 56.937V49.437C42.8198 47.8864 44.0817 46.6245 45.6323 46.6245H48.9904C47.8561 44.1933 46.1736 42.5433 44.6386 41.037ZM38.1323 46.6245C39.6832 46.6245 40.9448 47.8861 40.9448 49.437C40.9448 50.6576 40.1587 51.6885 39.0698 52.0768V53.187C39.0698 53.7052 38.6505 54.1245 38.1323 54.1245C37.6141 54.1245 37.1948 53.7052 37.1948 53.187V52.0768C36.1059 51.6886 35.3198 50.6576 35.3198 49.437C35.3198 48.9188 35.7391 48.4995 36.2573 48.4995C36.7755 48.4995 37.1948 48.9188 37.1948 49.437C37.1948 49.9543 37.6151 50.3745 38.1323 50.3745C38.6496 50.3745 39.0698 49.9543 39.0698 49.437C39.0698 48.9198 38.6496 48.4995 38.1323 48.4995C36.5814 48.4995 35.3198 47.2379 35.3198 45.687C35.3198 44.4664 36.1059 43.4355 37.1948 43.0472V41.937C37.1948 41.4188 37.6141 40.9995 38.1323 40.9995C38.6505 40.9995 39.0698 41.4188 39.0698 41.937V43.0472C40.1587 43.4354 40.9448 44.4664 40.9448 45.687C40.9448 46.2052 40.5255 46.6245 40.0073 46.6245C39.4891 46.6245 39.0698 46.2052 39.0698 45.687C39.0698 45.1698 38.6496 44.7495 38.1323 44.7495C37.6151 44.7495 37.1948 45.1698 37.1948 45.687C37.1948 46.2043 37.6151 46.6245 38.1323 46.6245Z" fill="url(#paint4_linear_505_5294)"/>
</g>
<defs>
<filter id="filter0_d_505_5294" x="0.944824" y="0.874512" width="82" height="82" filterUnits="userSpaceOnUse" color-interpolation-filters="sRGB">
<feFlood flood-opacity="0" result="BackgroundImageFix"/>
<feColorMatrix in="SourceAlpha" type="matrix" values="0 0 0 0 0 0 0 0 0 0 0 0 0 0 0 0 0 0 127 0" result="hardAlpha"/>
<feOffset/>
<feGaussianBlur stdDeviation="2"/>
<feColorMatrix type="matrix" values="0 0 0 0 0 0 0 0 0 0 0 0 0 0 0 0 0 0 0.25 0"/>
<feBlend mode="normal" in2="BackgroundImageFix" result="effect1_dropShadow_505_5294"/>
<feBlend mode="normal" in="SourceGraphic" in2="effect1_dropShadow_505_5294" result="shape"/>
</filter>
<linearGradient id="paint0_linear_505_5294" x1="81.3561" y1="32.1201" x2="3.70243" y2="38.7601" gradientUnits="userSpaceOnUse">
<stop stop-color="#E199FC"/>
<stop offset="1" stop-color="#9240FC"/>
</linearGradient>
<linearGradient id="paint1_linear_505_5294" x1="45.1229" y1="27.9686" x2="31.7679" y2="30.6041" gradientUnits="userSpaceOnUse">
<stop stop-color="#E199FC"/>
<stop offset="1" stop-color="#9240FC"/>
</linearGradient>
<linearGradient id="paint2_linear_505_5294" x1="58.3745" y1="55.5052" x2="45.5907" y2="59.3494" gradientUnits="userSpaceOnUse">
<stop stop-color="#E199FC"/>
<stop offset="1" stop-color="#9240FC"/>
</linearGradient>
<linearGradient id="paint3_linear_505_5294" x1="58.3745" y1="49.8802" x2="45.5907" y2="53.7244" gradientUnits="userSpaceOnUse">
<stop stop-color="#E199FC"/>
<stop offset="1" stop-color="#9240FC"/>
</linearGradient>
<linearGradient id="paint4_linear_505_5294" x1="49.7414" y1="42.4345" x2="25.5385" y2="44.3862" gradientUnits="userSpaceOnUse">
<stop stop-color="#E199FC"/>
<stop offset="1" stop-color="#9240FC"/>
</linearGradient>
<clipPath id="clip0_505_5294">
<rect width="32" height="32" fill="white" transform="translate(25.9448 25.8745)"/>
</clipPath>
</defs>
</svg>
