<svg width="83" height="83" viewBox="0 0 83 83" fill="none" xmlns="http://www.w3.org/2000/svg">
<g filter="url(#filter0_d_505_5266)">
<circle cx="41.3813" cy="41.4321" r="37" fill="#F9F9F9"/>
<circle cx="41.3813" cy="41.4321" r="36.25" stroke="url(#paint0_linear_505_5266)" stroke-width="1.5"/>
</g>
<path d="M50.7607 49.1562C51.0654 49.1562 51.3124 48.9092 51.3124 48.6045C51.3124 48.2997 51.0654 48.0527 50.7607 48.0527C50.456 48.0527 50.209 48.2997 50.209 48.6045C50.209 48.9092 50.456 49.1562 50.7607 49.1562Z" fill="url(#paint1_linear_505_5266)"/>
<path d="M50.5323 31.5009L48.5539 29.5225L45.6099 32.4665C46.4766 32.8803 47.2744 33.4149 47.9828 34.0505L50.5323 31.5009Z" fill="url(#paint2_linear_505_5266)"/>
<path d="M42.4394 34.2641C42.4548 34.2641 42.4692 34.2597 42.4846 34.2597C44.0057 34.2597 45.2432 35.4972 45.2432 37.0183C45.2432 38.5394 44.0057 39.7769 42.4846 39.7769H39.726V41.4321C39.726 41.7366 39.9737 41.9838 40.2777 41.9838H44.6915C45.6041 41.9838 46.3467 42.7264 46.3467 43.639C46.3467 44.5515 45.6041 45.2941 44.6915 45.2941H39.1743C38.8703 45.2941 38.6226 45.5413 38.6226 45.8459C38.6226 46.1504 38.8703 46.3976 39.1743 46.3976H40.2777C41.1903 46.3976 41.9329 47.1402 41.9329 48.0528V50.8114H44.1398C44.2518 50.8114 44.361 50.823 44.4664 50.8445C45.0965 49.2958 46.179 48.2332 47.2328 47.2053C48.7632 45.7129 50.2088 44.3027 50.2088 41.4321C50.2088 36.9267 46.7528 33.1518 42.3544 32.6619C42.4361 32.9979 42.4846 33.3471 42.4846 33.7079C42.4846 33.8955 42.4631 34.0798 42.4394 34.2641Z" fill="url(#paint3_linear_505_5266)"/>
<path d="M48.0991 47.9017C48.0389 48.1306 48.002 48.3657 48.002 48.6046C48.002 50.1257 49.2395 51.3632 50.7606 51.3632C52.2817 51.3632 53.5192 50.1257 53.5192 48.6046C53.5192 47.0835 52.2817 45.8459 50.7606 45.8459C50.4367 45.8459 50.1244 45.9105 49.8243 46.0197C49.3046 46.7138 48.701 47.3141 48.0991 47.9017ZM52.4157 48.6046C52.4157 49.5171 51.6731 50.2597 50.7606 50.2597C49.848 50.2597 49.1054 49.5171 49.1054 48.6046C49.1054 47.692 49.848 46.9494 50.7606 46.9494C51.6731 46.9494 52.4157 47.692 52.4157 48.6046Z" fill="url(#paint4_linear_505_5266)"/>
<path d="M35.5297 47.2053C36.5835 48.2331 37.666 49.2958 38.2961 50.8444C38.4014 50.8229 38.5107 50.8113 38.6227 50.8113H40.8296V48.0527C40.8296 47.7482 40.5818 47.501 40.2778 47.501H39.1744C38.2618 47.501 37.5192 46.7584 37.5192 45.8458C37.5192 44.9333 38.2618 44.1906 39.1744 44.1906H44.6916C44.9956 44.1906 45.2434 43.9435 45.2434 43.6389C45.2434 43.3344 44.9956 43.0872 44.6916 43.0872H40.2778C39.3653 43.0872 38.6227 42.3446 38.6227 41.432V39.7769H32.7236C32.6205 40.3214 32.5537 40.8742 32.5537 41.432C32.5537 44.3026 33.9992 45.7129 35.5297 47.2053Z" fill="url(#paint5_linear_505_5266)"/>
<path d="M50.3441 37.2065L53.2908 34.2597L51.3123 32.2812L48.7617 34.8319C49.3968 35.5414 49.9308 36.3392 50.3441 37.2065Z" fill="url(#paint6_linear_505_5266)"/>
<path d="M56.4006 31.1502C57.0334 30.5179 57.3815 29.676 57.3815 28.7816C57.3815 26.935 55.8786 25.4321 54.032 25.4321C53.1371 25.4321 52.2963 25.7808 51.6635 26.4131L50.9893 27.0873L55.7264 31.8244L56.4006 31.1502Z" fill="url(#paint7_linear_505_5266)"/>
<path d="M49.3306 28.7449L50.2055 27.87L54.9417 32.6061L54.0668 33.4811L49.3306 28.7449Z" fill="url(#paint8_linear_505_5266)"/>
<path d="M41.3813 57.4321C42.1962 57.4321 42.9228 56.9984 43.3256 56.3286H39.437C39.8398 56.9984 40.5664 57.4321 41.3813 57.4321Z" fill="url(#paint9_linear_505_5266)"/>
<path d="M44.1398 54.1218H38.6225C38.3185 54.1218 38.0708 54.369 38.0708 54.6736C38.0708 54.9781 38.3185 55.2253 38.6225 55.2253H44.1398C44.4438 55.2253 44.6915 54.9781 44.6915 54.6736C44.6915 54.369 44.4438 54.1218 44.1398 54.1218Z" fill="url(#paint10_linear_505_5266)"/>
<path d="M31.127 52.4665L33.1054 54.445L36.9559 50.5945C36.4914 49.7648 35.8618 49.0839 35.1827 48.4114L31.127 52.4665Z" fill="url(#paint11_linear_505_5266)"/>
<path d="M55.3548 46.7177C55.0078 45.8851 55.1898 44.9571 55.8111 44.3353L55.8342 44.3122L55.053 43.5309L55.0298 43.5541C54.408 44.1764 53.4784 44.3585 52.6646 44.0175C51.8365 43.6755 51.3123 42.892 51.3123 42.0142V41.9839H51.2947C51.2301 43.0769 50.9736 43.9751 50.6 44.7502C50.6541 44.748 50.7065 44.7425 50.7606 44.7425C52.8902 44.7425 54.6227 46.4755 54.6227 48.6046C54.6227 50.7337 52.8902 52.4666 50.7606 52.4666C48.7937 52.4666 47.1689 50.9875 46.9316 49.084C46.3054 49.7682 45.7675 50.5086 45.4243 51.4355C45.6527 51.7196 45.7951 52.0749 45.7951 52.4666C45.7951 52.6289 45.7642 52.7822 45.7206 52.9306L46.4682 53.6782L46.4914 53.6551C47.1126 53.0333 48.0406 52.8506 48.8566 53.1911C49.6847 53.5342 50.2089 54.3171 50.2089 55.1949V55.2253H51.3123V55.1949C51.3123 54.3171 51.8365 53.5337 52.6475 53.1988C53.4789 52.8501 54.4075 53.0327 55.0304 53.6551L55.0536 53.6782L55.8348 52.897L55.8116 52.8738C55.1904 52.252 55.0083 51.3235 55.3482 50.5091C55.6897 49.6804 56.4731 49.1563 57.3509 49.1563H57.3813V48.0529H57.3509C56.4731 48.0529 55.6897 47.5287 55.3548 46.7177Z" fill="url(#paint12_linear_505_5266)"/>
<path d="M44.1398 51.915H38.6225C38.3185 51.915 38.0708 52.1622 38.0708 52.4668C38.0708 52.7713 38.3185 53.0185 38.6225 53.0185H44.1398C44.4438 53.0185 44.6915 52.7713 44.6915 52.4668C44.6915 52.1622 44.4438 51.915 44.1398 51.915Z" fill="url(#paint13_linear_505_5266)"/>
<path d="M26.3926 54.3529L28.4604 56.4207L32.1151 55.0149L27.7984 50.6982L26.3926 54.3529Z" fill="url(#paint14_linear_505_5266)"/>
<path d="M27.5882 38.6736H42.4848C43.3973 38.6736 44.14 37.931 44.14 37.0185C44.14 36.1059 43.3973 35.3633 42.4848 35.3633C41.5722 35.3633 40.8296 36.1059 40.8296 37.0185H39.7262C39.7262 35.9393 40.3551 35.0124 41.26 34.5594C41.3339 34.2825 41.3813 33.9983 41.3813 33.7081C41.3813 31.8825 39.8967 30.3978 38.071 30.3978C36.4026 30.3978 35.0227 31.6392 34.7965 33.2458C35.7273 33.5051 36.4158 34.3509 36.4158 35.3633H35.3124C35.3124 34.7547 34.8175 34.2598 34.2089 34.2598C33.6004 34.2598 33.1055 34.7547 33.1055 35.3633H32.002C32.002 34.3277 32.7215 33.4632 33.6848 33.2259C33.8398 31.8074 34.6707 30.5914 35.847 29.9018C35.0724 28.5164 33.6158 27.6392 32.002 27.6392C29.5684 27.6392 27.5882 29.6193 27.5882 32.053C27.5882 32.4303 27.6357 32.8027 27.7295 33.1636C29.4889 33.2381 30.8986 34.6891 30.8986 36.4667H29.7951C29.7951 35.2496 28.8053 34.2598 27.5882 34.2598C26.3711 34.2598 25.3813 35.2496 25.3813 36.4667C25.3813 37.6839 26.3711 38.6736 27.5882 38.6736Z" fill="url(#paint15_linear_505_5266)"/>
<path d="M30.3466 51.6864L34.3946 47.6384C33.7381 46.9907 33.0953 46.3121 32.5778 45.4983L28.3682 49.7079L30.3466 51.6864Z" fill="url(#paint16_linear_505_5266)"/>
<path d="M25.4062 56.9173C25.3902 56.9609 25.3813 57.0067 25.3813 57.053C25.3813 57.309 25.6578 57.4994 25.8967 57.4067L27.3333 56.8538L25.959 55.4795L25.4062 56.9173Z" fill="url(#paint17_linear_505_5266)"/>
<defs>
<filter id="filter0_d_505_5266" x="0.381348" y="0.432129" width="82" height="82" filterUnits="userSpaceOnUse" color-interpolation-filters="sRGB">
<feFlood flood-opacity="0" result="BackgroundImageFix"/>
<feColorMatrix in="SourceAlpha" type="matrix" values="0 0 0 0 0 0 0 0 0 0 0 0 0 0 0 0 0 0 127 0" result="hardAlpha"/>
<feOffset/>
<feGaussianBlur stdDeviation="2"/>
<feColorMatrix type="matrix" values="0 0 0 0 0 0 0 0 0 0 0 0 0 0 0 0 0 0 0.25 0"/>
<feBlend mode="normal" in2="BackgroundImageFix" result="effect1_dropShadow_505_5266"/>
<feBlend mode="normal" in="SourceGraphic" in2="effect1_dropShadow_505_5266" result="shape"/>
</filter>
<linearGradient id="paint0_linear_505_5266" x1="80.7926" y1="31.6777" x2="3.13895" y2="38.3177" gradientUnits="userSpaceOnUse">
<stop stop-color="#E199FC"/>
<stop offset="1" stop-color="#9240FC"/>
</linearGradient>
<linearGradient id="paint1_linear_505_5266" x1="51.3484" y1="48.459" x2="50.1905" y2="48.558" gradientUnits="userSpaceOnUse">
<stop stop-color="#E199FC"/>
<stop offset="1" stop-color="#9240FC"/>
</linearGradient>
<linearGradient id="paint2_linear_505_5266" x1="50.6927" y1="31.1896" x2="45.534" y2="31.6691" gradientUnits="userSpaceOnUse">
<stop stop-color="#E199FC"/>
<stop offset="1" stop-color="#9240FC"/>
</linearGradient>
<linearGradient id="paint3_linear_505_5266" x1="50.5863" y1="39.3564" x2="38.3754" y2="40.0217" gradientUnits="userSpaceOnUse">
<stop stop-color="#E199FC"/>
<stop offset="1" stop-color="#9240FC"/>
</linearGradient>
<linearGradient id="paint4_linear_505_5266" x1="53.699" y1="47.8773" x2="47.9093" y2="48.3724" gradientUnits="userSpaceOnUse">
<stop stop-color="#E199FC"/>
<stop offset="1" stop-color="#9240FC"/>
</linearGradient>
<linearGradient id="paint5_linear_505_5266" x1="45.6569" y1="43.8518" x2="32.371" y2="45.1543" gradientUnits="userSpaceOnUse">
<stop stop-color="#E199FC"/>
<stop offset="1" stop-color="#9240FC"/>
</linearGradient>
<linearGradient id="paint6_linear_505_5266" x1="53.4384" y1="34.0946" x2="48.6803" y2="34.4688" gradientUnits="userSpaceOnUse">
<stop stop-color="#E199FC"/>
<stop offset="1" stop-color="#9240FC"/>
</linearGradient>
<linearGradient id="paint7_linear_505_5266" x1="57.5898" y1="27.7857" x2="50.8819" y2="28.3592" gradientUnits="userSpaceOnUse">
<stop stop-color="#E199FC"/>
<stop offset="1" stop-color="#9240FC"/>
</linearGradient>
<linearGradient id="paint8_linear_505_5266" x1="51.9778" y1="29.5852" x2="51.0678" y2="30.5244" gradientUnits="userSpaceOnUse">
<stop stop-color="#E199FC"/>
<stop offset="1" stop-color="#9240FC"/>
</linearGradient>
<linearGradient id="paint9_linear_505_5266" x1="43.4523" y1="56.7349" x2="39.684" y2="57.8704" gradientUnits="userSpaceOnUse">
<stop stop-color="#E199FC"/>
<stop offset="1" stop-color="#9240FC"/>
</linearGradient>
<linearGradient id="paint10_linear_505_5266" x1="44.9072" y1="54.5281" x2="39.3671" y2="57.3705" gradientUnits="userSpaceOnUse">
<stop stop-color="#E199FC"/>
<stop offset="1" stop-color="#9240FC"/>
</linearGradient>
<linearGradient id="paint11_linear_505_5266" x1="37.1459" y1="50.6329" x2="31.0261" y2="51.1384" gradientUnits="userSpaceOnUse">
<stop stop-color="#E199FC"/>
<stop offset="1" stop-color="#9240FC"/>
</linearGradient>
<linearGradient id="paint12_linear_505_5266" x1="57.7709" y1="46.8591" x2="45.2067" y2="47.8293" gradientUnits="userSpaceOnUse">
<stop stop-color="#E199FC"/>
<stop offset="1" stop-color="#9240FC"/>
</linearGradient>
<linearGradient id="paint13_linear_505_5266" x1="44.9072" y1="52.3213" x2="39.3671" y2="55.1637" gradientUnits="userSpaceOnUse">
<stop stop-color="#E199FC"/>
<stop offset="1" stop-color="#9240FC"/>
</linearGradient>
<linearGradient id="paint14_linear_505_5266" x1="32.3015" y1="52.8052" x2="26.2965" y2="53.3186" gradientUnits="userSpaceOnUse">
<stop stop-color="#E199FC"/>
<stop offset="1" stop-color="#9240FC"/>
</linearGradient>
<linearGradient id="paint15_linear_505_5266" x1="44.7512" y1="31.7019" x2="25.3328" y2="34.5246" gradientUnits="userSpaceOnUse">
<stop stop-color="#E199FC"/>
<stop offset="1" stop-color="#9240FC"/>
</linearGradient>
<linearGradient id="paint16_linear_505_5266" x1="34.591" y1="47.7767" x2="28.2646" y2="48.3035" gradientUnits="userSpaceOnUse">
<stop stop-color="#E199FC"/>
<stop offset="1" stop-color="#9240FC"/>
</linearGradient>
<linearGradient id="paint17_linear_505_5266" x1="27.397" y1="56.1978" x2="25.3486" y2="56.3731" gradientUnits="userSpaceOnUse">
<stop stop-color="#E199FC"/>
<stop offset="1" stop-color="#9240FC"/>
</linearGradient>
</defs>
</svg>
