<svg width="83" height="83" viewBox="0 0 83 83" fill="none" xmlns="http://www.w3.org/2000/svg">
<g filter="url(#filter0_d_372_564)">
<circle cx="41.8179" cy="41.5325" r="37" fill="#F9F9F9"/>
<circle cx="41.8179" cy="41.5325" r="36.25" stroke="url(#paint0_linear_372_564)" stroke-width="1.5"/>
</g>
<path d="M34.0754 40.5004C37.8855 40.5004 41.0086 37.5342 41.2749 33.7908H49.2398L50.7882 36.8875H57.6197L55.8132 33.2746L57.6197 29.6617H50.7887L49.2403 32.7585H41.2749C41.0086 29.015 37.8855 26.0488 34.0754 26.0488C30.0909 26.0488 26.8496 29.2901 26.8496 33.2746C26.8496 37.2592 30.0909 40.5004 34.0754 40.5004ZM34.0754 27.0811C37.3162 27.0811 39.9789 29.5848 40.2426 32.7585H39.2104C38.9508 30.1541 36.7474 28.1133 34.0754 28.1133C31.2295 28.1133 28.9141 30.4287 28.9141 33.2746C28.9141 36.1206 31.2295 38.4359 34.0754 38.4359C36.7474 38.4359 38.9508 36.3952 39.2104 33.7908H40.2426C39.9789 36.9644 37.3162 39.4682 34.0754 39.4682C30.6602 39.4682 27.8819 36.6899 27.8819 33.2746C27.8819 29.8594 30.6602 27.0811 34.0754 27.0811ZM36.6039 33.7908C36.365 34.9686 35.3239 35.8553 34.0754 35.8553C32.6504 35.8553 31.4948 34.6997 31.4948 33.2746C31.4948 31.8496 32.6504 30.694 34.0754 30.694C35.3239 30.694 36.365 31.5807 36.6039 32.7585H34.0754V33.7908H36.6039Z" fill="url(#paint1_linear_372_564)"/>
<path d="M56.7856 42.5649H47.4953C46.926 42.5649 46.463 43.0279 46.463 43.5972V44.6294H35.1082C34.8238 44.6294 34.5921 44.3977 34.5921 44.1133V41.5068C34.4207 41.5172 34.2504 41.5326 34.0759 41.5326C33.9015 41.5326 33.7312 41.5172 33.5598 41.5068V44.1133C33.5598 44.967 34.2545 45.6617 35.1082 45.6617H39.2372V48.7584H32.5275C31.6739 48.7584 30.9792 49.4532 30.9792 50.3068V51.8552H26.8501C26.2808 51.8552 25.8179 52.3182 25.8179 52.8875V55.9843C25.8179 56.5535 26.2808 57.0165 26.8501 57.0165H36.1405C36.7097 57.0165 37.1727 56.5535 37.1727 55.9843V52.8875C37.1727 52.3182 36.7097 51.8552 36.1405 51.8552H32.0114V50.3068C32.0114 50.0224 32.2432 49.7907 32.5275 49.7907H39.2372V51.3391C39.2372 52.1928 39.9319 52.8875 40.7856 52.8875H42.334V53.9197C42.334 54.489 42.797 54.952 43.3663 54.952H52.6566C53.2259 54.952 53.6888 54.489 53.6888 53.9197V50.823C53.6888 50.2537 53.2259 49.7907 52.6566 49.7907H43.3663C42.797 49.7907 42.334 50.2537 42.334 50.823V51.8552H40.7856C40.5012 51.8552 40.2695 51.6235 40.2695 51.3391V45.6617H46.463V46.6939C46.463 47.2632 46.926 47.7262 47.4953 47.7262H56.7856C57.3549 47.7262 57.8179 47.2632 57.8179 46.6939V43.5972C57.8179 43.0279 57.3549 42.5649 56.7856 42.5649ZM28.9146 54.952H27.8824V53.9197H28.9146V54.952ZM30.9792 54.952H29.9469V53.9197H30.9792V54.952ZM34.0759 53.9197H35.1082V54.952H34.0759V53.9197ZM33.0437 54.952H32.0114V53.9197H33.0437V54.952ZM50.5921 51.8552H51.6243V52.8875H50.5921V51.8552ZM48.5275 51.8552H49.5598V52.8875H48.5275V51.8552ZM46.463 51.8552H47.4953V52.8875H46.463V51.8552ZM44.3985 51.8552H45.4308V52.8875H44.3985V51.8552ZM49.5598 45.6617H48.5275V44.6294H49.5598V45.6617ZM51.6243 45.6617H50.5921V44.6294H51.6243V45.6617ZM53.6888 45.6617H52.6566V44.6294H53.6888V45.6617ZM55.7534 45.6617H54.7211V44.6294H55.7534V45.6617Z" fill="url(#paint2_linear_372_564)"/>
<defs>
<filter id="filter0_d_372_564" x="0.817871" y="0.532471" width="82" height="82" filterUnits="userSpaceOnUse" color-interpolation-filters="sRGB">
<feFlood flood-opacity="0" result="BackgroundImageFix"/>
<feColorMatrix in="SourceAlpha" type="matrix" values="0 0 0 0 0 0 0 0 0 0 0 0 0 0 0 0 0 0 127 0" result="hardAlpha"/>
<feOffset/>
<feGaussianBlur stdDeviation="2"/>
<feColorMatrix type="matrix" values="0 0 0 0 0 0 0 0 0 0 0 0 0 0 0 0 0 0 0.25 0"/>
<feBlend mode="normal" in2="BackgroundImageFix" result="effect1_dropShadow_372_564"/>
<feBlend mode="normal" in="SourceGraphic" in2="effect1_dropShadow_372_564" result="shape"/>
</filter>
<linearGradient id="paint0_linear_372_564" x1="81.2291" y1="31.778" x2="3.57547" y2="38.4181" gradientUnits="userSpaceOnUse">
<stop stop-color="#E199FC"/>
<stop offset="1" stop-color="#9240FC"/>
</linearGradient>
<linearGradient id="paint1_linear_372_564" x1="58.6223" y1="31.3697" x2="27.1404" y2="37.1013" gradientUnits="userSpaceOnUse">
<stop stop-color="#E199FC"/>
<stop offset="1" stop-color="#9240FC"/>
</linearGradient>
<linearGradient id="paint2_linear_372_564" x1="58.8606" y1="47.2172" x2="26.0561" y2="53.0047" gradientUnits="userSpaceOnUse">
<stop stop-color="#E199FC"/>
<stop offset="1" stop-color="#9240FC"/>
</linearGradient>
</defs>
</svg>
