<svg width="164" height="162" viewBox="0 0 164 162" fill="none" xmlns="http://www.w3.org/2000/svg">
<path opacity="0.2" d="M108.068 119.341C108.068 119.341 126.385 111.011 133.175 104.77C139.965 98.5295 167.22 108.299 142.532 136.964C117.845 165.629 84.8917 124.345 108.068 119.341Z" fill="url(#paint0_linear_81_155)"/>
<path opacity="0.2" d="M130.066 86.8007C130.066 86.8007 153.206 75.0353 148.317 38.0401C148.317 38.0401 103.585 4.24102 54.3106 37.2302C54.3106 37.2302 -4.56651 54.3105 7.85685 109.999C20.2802 165.687 101.994 124.664 101.994 124.664L130.066 86.8007Z" fill="url(#paint1_linear_81_155)"/>
<path d="M91.7614 128.981H62.5181V138.7H91.7614V128.981Z" fill="white" stroke="url(#paint2_linear_81_155)" stroke-width="3" stroke-miterlimit="10"/>
<path d="M62.5179 138.699H57.3403C55.3553 138.699 53.4517 139.488 52.0481 140.891C50.6445 142.295 49.856 144.198 49.856 146.183H103.671C103.669 144.199 102.88 142.296 101.477 140.893C100.074 139.49 98.1712 138.701 96.1868 138.699H62.5179Z" fill="white" stroke="url(#paint3_linear_81_155)" stroke-width="3" stroke-miterlimit="10"/>
<path d="M120.715 6.65585C121.245 6.65585 121.762 6.49874 122.202 6.20443C122.643 5.91011 122.985 5.49181 123.188 5.00249C123.39 4.51317 123.443 3.97483 123.339 3.45562C123.235 2.93641 122.979 2.45968 122.604 2.08578C122.23 1.71189 121.752 1.45764 121.233 1.35522C120.713 1.2528 120.175 1.30683 119.686 1.51044C119.197 1.71406 118.78 2.05811 118.487 2.49905C118.194 2.94 118.038 3.45802 118.04 3.98751C118.04 4.33853 118.109 4.68609 118.243 5.0103C118.378 5.33451 118.575 5.629 118.824 5.87687C119.072 6.12474 119.367 6.32114 119.692 6.45481C120.016 6.58848 120.364 6.6568 120.715 6.65585V6.65585Z" stroke="url(#paint4_linear_81_155)" stroke-width="2" stroke-miterlimit="10"/>
<path d="M13.6053 84.8621C14.1327 84.8606 14.6479 84.7029 15.0857 84.4089C15.5236 84.1148 15.8645 83.6976 16.0653 83.2099C16.2662 82.7222 16.318 82.1859 16.2142 81.6687C16.1104 81.1516 15.8557 80.6768 15.4823 80.3044C15.1088 79.9319 14.6333 79.6785 14.1159 79.5761C13.5985 79.4738 13.0624 79.527 12.5752 79.7292C12.0881 79.9314 11.6717 80.2734 11.3789 80.712C11.086 81.1507 10.9297 81.6663 10.9297 82.1937C10.9297 82.5447 10.999 82.8923 11.1335 83.2165C11.2681 83.5407 11.4652 83.8352 11.7138 84.0831C11.9623 84.331 12.2573 84.5274 12.5819 84.661C12.9065 84.7947 13.2543 84.863 13.6053 84.8621Z" stroke="url(#paint5_linear_81_155)" stroke-width="2" stroke-miterlimit="10"/>
<path d="M120.715 6.65585C121.245 6.65585 121.762 6.49874 122.202 6.20443C122.643 5.91011 122.985 5.49181 123.188 5.00249C123.39 4.51317 123.443 3.97483 123.339 3.45562C123.235 2.93641 122.979 2.45968 122.604 2.08578C122.23 1.71189 121.752 1.45764 121.233 1.35522C120.713 1.2528 120.175 1.30683 119.686 1.51044C119.197 1.71406 118.78 2.05811 118.487 2.49905C118.194 2.94 118.038 3.45802 118.04 3.98751C118.04 4.33853 118.109 4.68609 118.243 5.0103C118.378 5.33451 118.575 5.629 118.824 5.87687C119.072 6.12474 119.367 6.32114 119.692 6.45481C120.016 6.58848 120.364 6.6568 120.715 6.65585V6.65585Z" stroke="url(#paint6_linear_81_155)" stroke-width="2" stroke-miterlimit="10"/>
<path d="M148.317 11.9998C148.846 11.9998 149.363 11.8429 149.803 11.5489C150.243 11.2549 150.586 10.8371 150.789 10.3482C150.991 9.85926 151.044 9.32127 150.941 8.80226C150.838 8.28325 150.583 7.80652 150.209 7.43234C149.835 7.05815 149.358 6.80333 148.839 6.7001C148.32 6.59686 147.782 6.64984 147.293 6.85234C146.804 7.05485 146.386 7.39778 146.092 7.83777C145.798 8.27777 145.641 8.79506 145.641 9.32424C145.641 10.0338 145.923 10.7144 146.425 11.2162C146.927 11.7179 147.607 11.9998 148.317 11.9998Z" fill="#BCD6FF"/>
<path d="M130.065 146.097C130.595 146.097 131.113 145.94 131.553 145.645C131.993 145.351 132.336 144.933 132.538 144.443C132.74 143.954 132.793 143.416 132.689 142.897C132.585 142.377 132.33 141.901 131.955 141.527C131.58 141.153 131.103 140.899 130.583 140.796C130.064 140.694 129.525 140.748 129.037 140.951C128.548 141.155 128.13 141.499 127.837 141.94C127.544 142.381 127.388 142.899 127.39 143.428C127.39 143.779 127.459 144.127 127.594 144.451C127.728 144.775 127.925 145.07 128.174 145.318C128.423 145.566 128.718 145.762 129.042 145.896C129.367 146.029 129.714 146.098 130.065 146.097Z" fill="#5181C1"/>
<path d="M39.5875 161.745C40.1166 161.745 40.6339 161.588 41.0739 161.294C41.5139 161 41.8568 160.582 42.0593 160.094C42.2619 159.605 42.3149 159.067 42.2116 158.548C42.1084 158.029 41.8535 157.552 41.4794 157.178C41.1052 156.804 40.6284 156.549 40.1094 156.445C39.5904 156.342 39.0524 156.395 38.5635 156.598C38.0746 156.8 37.6568 157.143 37.3628 157.583C37.0688 158.023 36.9119 158.54 36.9119 159.07C36.9119 159.421 36.981 159.769 37.1155 160.094C37.25 160.418 37.4471 160.713 37.6955 160.962C37.944 161.21 38.2389 161.407 38.5635 161.542C38.8881 161.676 39.2361 161.745 39.5875 161.745Z" fill="#BCD6FF"/>
<path d="M67.71 21.162L69.0911 18.537C69.1329 18.454 69.197 18.3843 69.2762 18.3357C69.3554 18.2872 69.4466 18.2617 69.5395 18.2622C69.6333 18.264 69.7251 18.2888 69.807 18.3345C69.8857 18.3852 69.9504 18.4548 69.9951 18.537L71.3618 21.1258C71.4006 21.1972 71.4549 21.259 71.5209 21.3066L73.2998 22.507C73.372 22.5543 73.4315 22.6186 73.4731 22.6942C73.5147 22.7698 73.5371 22.8545 73.5384 22.9409C73.5381 23.0247 73.5156 23.107 73.4733 23.1795C73.4334 23.2566 73.3734 23.3215 73.2998 23.3675L71.557 24.4377C71.4822 24.4907 71.4204 24.56 71.3762 24.6402L70.0095 27.3592C69.9664 27.4406 69.9012 27.5082 69.8215 27.5544C69.7412 27.6048 69.6487 27.6323 69.554 27.634C69.4591 27.633 69.3664 27.6055 69.2864 27.5544C69.2067 27.5082 69.1415 27.4406 69.0984 27.3592L67.7244 24.7704C67.6858 24.703 67.6342 24.644 67.5726 24.5968L65.8298 23.353C65.7624 23.3071 65.7077 23.245 65.6708 23.1723C65.6296 23.0997 65.6096 23.017 65.6129 22.9336C65.6103 22.8503 65.6303 22.7679 65.6708 22.695C65.7077 22.6223 65.7624 22.5601 65.8298 22.5142L67.5581 21.3427C67.6235 21.2966 67.6759 21.2343 67.71 21.162Z" fill="#8AB7FF"/>
<path d="M67.8545 20.6197L69.2357 17.9948C69.2804 17.9125 69.3451 17.8429 69.4238 17.7923C69.503 17.7466 69.5926 17.7217 69.6841 17.72C69.7778 17.7217 69.8697 17.7466 69.9516 17.7923C70.0303 17.8429 70.095 17.9125 70.1396 17.9948L71.4991 20.5836C71.5429 20.6536 71.5993 20.7149 71.6654 20.7643L73.4443 21.9647C73.5164 22.0127 73.5759 22.0771 73.6179 22.1528C73.6558 22.2292 73.6756 22.3133 73.6758 22.3986C73.6746 22.4838 73.6548 22.5677 73.6179 22.6445C73.5756 22.718 73.5161 22.78 73.4443 22.8253L71.7016 23.8883C71.6229 23.9389 71.5582 24.0085 71.5136 24.0907L70.1541 26.8097C70.1045 26.8906 70.0379 26.9597 69.9589 27.0122C69.8789 27.0592 69.7877 27.084 69.6949 27.084C69.6021 27.084 69.5109 27.0592 69.4309 27.0122C69.3519 26.9597 69.2853 26.8906 69.2357 26.8097L67.869 24.2209C67.8258 24.1547 67.7721 24.0961 67.7099 24.0473L65.9744 22.8036C65.9048 22.7581 65.8476 22.696 65.8081 22.6228C65.7703 22.5489 65.7505 22.4671 65.7502 22.3842C65.7522 22.3014 65.772 22.22 65.8081 22.1455C65.8496 22.0738 65.9064 22.012 65.9744 21.9647L67.7027 20.7933C67.7681 20.7472 67.8204 20.6849 67.8545 20.6125V20.6197Z" fill="#5181C1"/>
<path d="M2.2883 107.771L3.6695 105.146C3.71218 105.062 3.77724 104.992 3.85748 104.943C3.93748 104.896 4.02864 104.872 4.12145 104.872C4.21427 104.872 4.30539 104.896 4.38539 104.943C4.46562 104.992 4.53073 105.062 4.57341 105.146L5.94009 107.735C5.9789 107.806 6.03329 107.868 6.0992 107.916L7.87807 109.116C7.95172 109.162 8.0117 109.227 8.05166 109.304C8.09395 109.376 8.11637 109.459 8.11672 109.543C8.11545 109.629 8.09304 109.714 8.05144 109.789C8.00983 109.865 7.95029 109.929 7.87807 109.976L6.13535 111.047C6.06059 111.1 5.99878 111.169 5.95457 111.249L4.58784 113.968C4.5447 114.05 4.47955 114.117 4.39982 114.163C4.31895 114.212 4.2264 114.237 4.13227 114.236C4.03804 114.237 3.94528 114.212 3.86471 114.163C3.78499 114.117 3.71984 114.05 3.67669 113.968L2.30277 111.379C2.26416 111.312 2.21252 111.253 2.1509 111.206L0.40818 109.94C0.340781 109.894 0.286039 109.832 0.249069 109.759C0.211017 109.686 0.191162 109.604 0.191162 109.521C0.191162 109.438 0.211017 109.356 0.249069 109.282C0.286039 109.21 0.340781 109.147 0.40818 109.101L2.13642 107.93C2.20182 107.884 2.25416 107.822 2.2883 107.749V107.771Z" fill="#5181C1"/>
<path d="M156.178 122.856L157.566 120.231C157.609 120.147 157.674 120.077 157.754 120.028C157.832 119.979 157.922 119.954 158.014 119.956C158.109 119.954 158.201 119.979 158.282 120.028C158.362 120.077 158.427 120.147 158.47 120.231L159.829 122.812C159.864 122.89 159.922 122.956 159.996 123L161.767 124.201C161.839 124.246 161.899 124.308 161.941 124.381C161.984 124.456 162.006 124.541 162.006 124.627C162.007 124.714 161.984 124.798 161.941 124.873C161.899 124.949 161.839 125.013 161.767 125.061L160.025 126.124C159.946 126.178 159.881 126.25 159.837 126.334L158.47 129.053C158.425 129.135 158.361 129.205 158.282 129.255C158.202 129.307 158.109 129.335 158.014 129.335C157.919 129.335 157.826 129.307 157.747 129.255C157.668 129.206 157.606 129.136 157.566 129.053L156.185 126.464C156.149 126.393 156.097 126.331 156.033 126.283L154.29 125.047C154.224 124.999 154.17 124.937 154.131 124.866C154.091 124.793 154.071 124.711 154.073 124.627C154.07 124.544 154.09 124.461 154.131 124.389C154.168 124.316 154.223 124.254 154.29 124.208L156.019 123.029C156.086 122.986 156.14 122.926 156.178 122.856V122.856Z" stroke="url(#paint7_linear_81_155)" stroke-width="2" stroke-miterlimit="10"/>
<path d="M131.237 60.7461C131.237 54.1245 125.869 48.7566 119.247 48.7566H77.3203H35.3933C28.7717 48.7566 23.4038 54.1245 23.4038 60.7461V116.998C23.4038 123.62 28.7717 128.988 35.3933 128.988H119.247C125.869 128.988 131.237 123.62 131.237 116.998V60.7461Z" fill="white" stroke="url(#paint8_linear_81_155)" stroke-width="3" stroke-miterlimit="10"/>
<path d="M35.3282 56.0169H119.479C120.629 56.0169 121.733 56.474 122.547 57.2876C123.36 58.1013 123.817 59.2049 123.817 60.3556V114.373H30.9822V60.3556C30.9822 59.7852 31.0947 59.2205 31.3132 58.6936C31.5317 58.1667 31.8519 57.6881 32.2556 57.2851C32.6592 56.8821 33.1383 56.5627 33.6656 56.345C34.1928 56.1274 34.7578 56.0159 35.3282 56.0169Z" fill="white" stroke="url(#paint9_linear_81_155)" stroke-width="3" stroke-miterlimit="10"/>
<path opacity="0.2" d="M35.7129 57.229H41.2581V113.163H32.1685L32.2056 60.5124C32.1652 59.9692 32.262 59.5564 32.4463 59.0833C32.8171 58.351 33.0634 58.1844 33.4208 57.8652C33.8406 57.5738 34.0141 57.5009 34.4593 57.3484C34.996 57.2095 35.2297 57.229 35.7129 57.229Z" fill="url(#paint10_linear_81_155)"/>
<path d="M106.549 113.672V101.523C106.551 101.463 106.576 101.406 106.619 101.365C106.663 101.323 106.72 101.299 106.781 101.299H112.03C112.071 101.301 112.111 101.292 112.147 101.273C112.183 101.254 112.213 101.225 112.234 101.19C112.254 101.155 112.265 101.115 112.265 101.075C112.265 101.034 112.254 100.994 112.233 100.959L101.075 81.9556C101.055 81.9211 101.025 81.8926 100.991 81.8728C100.956 81.853 100.916 81.8425 100.876 81.8425C100.836 81.8425 100.797 81.853 100.762 81.8728C100.727 81.8926 100.698 81.9211 100.677 81.9556L88.9265 100.952C88.9061 100.988 88.8954 101.028 88.8955 101.068C88.8956 101.109 88.9065 101.149 88.927 101.185C88.9476 101.22 88.9771 101.249 89.0126 101.269C89.048 101.289 89.0882 101.3 89.129 101.299H95.1382C95.1686 101.298 95.1989 101.303 95.2273 101.314C95.2557 101.325 95.2818 101.341 95.304 101.362C95.3261 101.383 95.3439 101.408 95.3564 101.435C95.3689 101.463 95.3759 101.493 95.3768 101.523V113.672" stroke="#BCD6FF" stroke-width="3" stroke-miterlimit="10"/>
<path d="M131.237 114.388H23.4038" stroke="url(#paint11_linear_81_155)" stroke-width="3" stroke-miterlimit="10"/>
<path d="M107.453 69.1416L107.395 63.653C107.395 63.4612 107.319 63.2773 107.183 63.1417C107.048 63.0061 106.864 62.9299 106.672 62.9299H102.84C100.385 62.9299 98.0304 61.9547 96.2945 60.2189C94.5587 58.483 93.5835 56.1287 93.5835 53.6739V31.6618C93.5835 29.2069 94.5587 26.8526 96.2945 25.1168C98.0304 23.3809 100.385 22.4058 102.84 22.4058H144.839C147.294 22.4058 149.648 23.3809 151.384 25.1168C153.12 26.8526 154.095 29.2069 154.095 31.6618V53.6811C154.095 56.1359 153.12 58.4903 151.384 60.2261C149.648 61.9619 147.294 62.9371 144.839 62.9371H115.068C114.966 62.9364 114.864 62.9572 114.771 62.9983C114.677 63.0395 114.594 63.0999 114.525 63.1758L108.74 69.6188C108.645 69.7375 108.515 69.8232 108.369 69.8637C108.222 69.9043 108.067 69.8977 107.924 69.8449C107.782 69.7921 107.66 69.6957 107.575 69.5694C107.49 69.4432 107.448 69.2935 107.453 69.1416Z" fill="white" stroke="url(#paint12_linear_81_155)" stroke-width="2" stroke-miterlimit="10"/>
<path d="M46.4934 103.36H41.2146V101.191H45.5534C45.8293 101.191 46.1025 101.135 46.357 101.029C46.6115 100.922 46.8422 100.766 47.0358 100.569L59.9436 87.4513C60.1741 87.2206 60.4481 87.0378 60.7498 86.9137C61.0514 86.7896 61.3747 86.7265 61.7009 86.7282H75.5487C76.4068 86.7252 77.2286 86.3819 77.8339 85.7737L90.6043 72.9309H97.1125C97.4001 72.9309 97.676 73.0452 97.8795 73.2486C98.0829 73.452 98.1972 73.7279 98.1972 74.0156C98.1972 74.3033 98.0829 74.5792 97.8795 74.7826C97.676 74.986 97.4001 75.1003 97.1125 75.1003H91.5299L78.8173 87.9358C78.5179 88.2373 78.1619 88.4768 77.7698 88.6406C77.3777 88.8044 76.9571 88.8893 76.5322 88.8904H62.6771C62.3509 88.8887 62.0276 88.9517 61.726 89.0759C61.4244 89.2 61.1504 89.3827 60.9199 89.6135L48.012 102.709C47.8166 102.916 47.5812 103.08 47.32 103.192C47.0589 103.304 46.7776 103.361 46.4934 103.36Z" fill="#BCD6FF"/>
<path d="M111.343 72.9309H104.785C104.186 72.9309 103.7 73.4165 103.7 74.0156C103.7 74.6147 104.186 75.1003 104.785 75.1003H111.343C111.942 75.1003 112.428 74.6147 112.428 74.0156C112.428 73.4165 111.942 72.9309 111.343 72.9309Z" fill="#BCD6FF"/>
<path d="M77.5804 124.642C79.4535 124.642 80.9719 123.123 80.9719 121.25C80.9719 119.377 79.4535 117.859 77.5804 117.859C75.7074 117.859 74.189 119.377 74.189 121.25C74.189 123.123 75.7074 124.642 77.5804 124.642Z" stroke="url(#paint13_linear_81_155)" stroke-width="2" stroke-miterlimit="10"/>
<path d="M39.5873 51.96C47.7345 51.96 54.3391 45.3554 54.3391 37.2081C54.3391 29.0609 47.7345 22.4563 39.5873 22.4563C31.4401 22.4563 24.8354 29.0609 24.8354 37.2081C24.8354 45.3554 31.4401 51.96 39.5873 51.96Z" fill="white" stroke="#5181C1" stroke-width="2" stroke-miterlimit="10"/>
<path d="M107.533 48.7566H102.746C102.346 48.7566 102.022 49.0803 102.022 49.4797V56.6748C102.022 57.0742 102.346 57.398 102.746 57.398H107.533C107.932 57.398 108.256 57.0742 108.256 56.6748V49.4797C108.256 49.0803 107.932 48.7566 107.533 48.7566Z" fill="white" stroke="url(#paint14_linear_81_155)" stroke-width="2" stroke-miterlimit="10"/>
<path d="M116.883 36.5779H112.096C111.696 36.5779 111.373 36.9016 111.373 37.301V57.4835C111.373 57.8829 111.696 58.2067 112.096 58.2067H116.883C117.282 58.2067 117.606 57.8829 117.606 57.4835V37.301C117.606 36.9016 117.282 36.5779 116.883 36.5779Z" fill="url(#paint15_linear_81_155)"/>
<path d="M126.233 43.3767H121.446C121.046 43.3767 120.723 43.7005 120.723 44.0998V56.675C120.723 57.0744 121.046 57.3982 121.446 57.3982H126.233C126.632 57.3982 126.956 57.0744 126.956 56.675V44.0998C126.956 43.7005 126.632 43.3767 126.233 43.3767Z" fill="white" stroke="url(#paint16_linear_81_155)" stroke-width="2" stroke-miterlimit="10"/>
<path d="M144.933 27.9377H140.146C139.746 27.9377 139.423 28.2615 139.423 28.6609V56.6749C139.423 57.0743 139.746 57.398 140.146 57.398H144.933C145.332 57.398 145.656 57.0743 145.656 56.6749V28.6609C145.656 28.2615 145.332 27.9377 144.933 27.9377Z" fill="white" stroke="url(#paint17_linear_81_155)" stroke-width="2" stroke-miterlimit="10"/>
<path d="M135.583 36.5779H130.796C130.396 36.5779 130.073 36.9016 130.073 37.301V57.4835C130.073 57.8829 130.396 58.2067 130.796 58.2067H135.583C135.982 58.2067 136.306 57.8829 136.306 57.4835V37.301C136.306 36.9016 135.982 36.5779 135.583 36.5779Z" fill="url(#paint18_linear_81_155)"/>
<path d="M37.447 34.9162L25.7468 24.0186C25.5507 23.8356 25.3135 23.7025 25.0551 23.6306C24.7967 23.5586 24.5248 23.5499 24.2624 23.6053C24 23.6606 23.7547 23.7783 23.5474 23.9484C23.34 24.1185 23.1767 24.3361 23.0712 24.5827L18.8192 34.41C18.713 34.6577 18.6681 34.9274 18.6883 35.1961C18.7084 35.4649 18.793 35.7249 18.9349 35.954C19.0768 36.1831 19.2718 36.3747 19.5034 36.5125C19.735 36.6503 19.9964 36.7303 20.2655 36.7457L36.2177 37.8087C36.5608 37.8279 36.9016 37.7408 37.1934 37.5593C37.4852 37.3777 37.7139 37.1106 37.8484 36.7943C37.9828 36.478 38.0164 36.1279 37.9446 35.7918C37.8727 35.4557 37.699 35.1499 37.447 34.9162Z" fill="#834BB4"/>
<path d="M46.7102 31.4085C48.1926 32.6451 52.112 36.9549 46.5077 44.6201C46.4325 44.7284 46.3965 44.8591 46.4057 44.9906C46.4149 45.1221 46.4688 45.2465 46.5583 45.3432L52.2494 51.0415C52.3076 51.0984 52.3771 51.1424 52.4535 51.1705C52.5299 51.1987 52.6113 51.2105 52.6925 51.205C52.7737 51.1995 52.8529 51.177 52.9248 51.1389C52.9967 51.1007 53.0598 51.0478 53.1099 50.9836C55.0768 48.431 63.1252 36.5717 53.1099 24.951C53.0564 24.8932 52.9915 24.847 52.9193 24.8154C52.8472 24.7839 52.7692 24.7676 52.6905 24.7676C52.6117 24.7676 52.5337 24.7839 52.4616 24.8154C52.3894 24.847 52.3245 24.8932 52.271 24.951L46.674 30.5408C46.6136 30.597 46.566 30.6656 46.5346 30.7419C46.5032 30.8183 46.4887 30.9005 46.4922 30.983C46.4956 31.0655 46.5169 31.1462 46.5545 31.2197C46.5921 31.2931 46.6452 31.3576 46.7102 31.4085Z" fill="white" stroke="#5181C1" stroke-width="2" stroke-miterlimit="10"/>
<path d="M48.5039 39.4934L56.6897 44.5119" stroke="#5181C1" stroke-width="2" stroke-miterlimit="10"/>
<defs>
<linearGradient id="paint0_linear_81_155" x1="126.436" y1="102.967" x2="126.436" y2="147.009" gradientUnits="userSpaceOnUse">
<stop stop-color="#8AB7FF"/>
<stop offset="1" stop-color="#E9BCFA"/>
</linearGradient>
<linearGradient id="paint1_linear_81_155" x1="77.5653" y1="22.7754" x2="77.5653" y2="139.22" gradientUnits="userSpaceOnUse">
<stop stop-color="#8AB7FF"/>
<stop offset="1" stop-color="#E9BCFA"/>
</linearGradient>
<linearGradient id="paint2_linear_81_155" x1="92.7143" y1="132.559" x2="63.7219" y2="140.018" gradientUnits="userSpaceOnUse">
<stop stop-color="#E191FF"/>
<stop offset="1" stop-color="#9240FC"/>
</linearGradient>
<linearGradient id="paint3_linear_81_155" x1="105.425" y1="141.455" x2="64.1444" y2="166.835" gradientUnits="userSpaceOnUse">
<stop stop-color="#E191FF"/>
<stop offset="1" stop-color="#9240FC"/>
</linearGradient>
<linearGradient id="paint4_linear_81_155" x1="5312.02" y1="2488.85" x2="5270.49" y2="2485.32" gradientUnits="userSpaceOnUse">
<stop stop-color="#E199FC"/>
<stop offset="1" stop-color="#9240FC"/>
</linearGradient>
<linearGradient id="paint5_linear_81_155" x1="3103.01" y1="2347.14" x2="3061.65" y2="2343.62" gradientUnits="userSpaceOnUse">
<stop stop-color="#E199FC"/>
<stop offset="1" stop-color="#9240FC"/>
</linearGradient>
<linearGradient id="paint6_linear_81_155" x1="3218.49" y1="2275.07" x2="3177.02" y2="2271.54" gradientUnits="userSpaceOnUse">
<stop stop-color="#E199FC"/>
<stop offset="1" stop-color="#9240FC"/>
</linearGradient>
<linearGradient id="paint7_linear_81_155" x1="4750.49" y1="4105.06" x2="4688.88" y2="4100.62" gradientUnits="userSpaceOnUse">
<stop stop-color="#E199FC"/>
<stop offset="1" stop-color="#9240FC"/>
</linearGradient>
<linearGradient id="paint8_linear_81_155" x1="134.75" y1="78.2964" x2="22.2519" y2="91.2254" gradientUnits="userSpaceOnUse">
<stop stop-color="#E191FF"/>
<stop offset="1" stop-color="#9240FC"/>
</linearGradient>
<linearGradient id="paint9_linear_81_155" x1="126.842" y1="77.5027" x2="30.4941" y2="90.609" gradientUnits="userSpaceOnUse">
<stop stop-color="#E191FF"/>
<stop offset="1" stop-color="#9240FC"/>
</linearGradient>
<linearGradient id="paint10_linear_81_155" x1="41.5543" y1="77.8224" x2="31.948" y2="77.9559" gradientUnits="userSpaceOnUse">
<stop stop-color="#E199FC"/>
<stop offset="1" stop-color="#9240FC"/>
</linearGradient>
<linearGradient id="paint11_linear_81_155" x1="134.75" y1="114.756" x2="133.425" y2="126.974" gradientUnits="userSpaceOnUse">
<stop stop-color="#E191FF"/>
<stop offset="1" stop-color="#9240FC"/>
</linearGradient>
<linearGradient id="paint12_linear_81_155" x1="156.067" y1="39.8887" x2="92.8539" y2="46.7768" gradientUnits="userSpaceOnUse">
<stop stop-color="#E199FC"/>
<stop offset="1" stop-color="#9240FC"/>
</linearGradient>
<linearGradient id="paint13_linear_81_155" x1="4004.23" y1="2999.99" x2="3951.66" y2="2995.52" gradientUnits="userSpaceOnUse">
<stop stop-color="#E199FC"/>
<stop offset="1" stop-color="#9240FC"/>
</linearGradient>
<linearGradient id="paint14_linear_81_155" x1="108.459" y1="51.9382" x2="101.895" y2="52.3431" gradientUnits="userSpaceOnUse">
<stop stop-color="#E199FC"/>
<stop offset="1" stop-color="#9240FC"/>
</linearGradient>
<linearGradient id="paint15_linear_81_155" x1="117.809" y1="44.5412" x2="111.224" y2="44.7035" gradientUnits="userSpaceOnUse">
<stop stop-color="#E199FC"/>
<stop offset="1" stop-color="#9240FC"/>
</linearGradient>
<linearGradient id="paint16_linear_81_155" x1="127.159" y1="48.5392" x2="120.58" y2="48.7893" gradientUnits="userSpaceOnUse">
<stop stop-color="#E199FC"/>
<stop offset="1" stop-color="#9240FC"/>
</linearGradient>
<linearGradient id="paint17_linear_81_155" x1="145.859" y1="38.7845" x2="139.272" y2="38.9037" gradientUnits="userSpaceOnUse">
<stop stop-color="#E199FC"/>
<stop offset="1" stop-color="#9240FC"/>
</linearGradient>
<linearGradient id="paint18_linear_81_155" x1="136.509" y1="44.5412" x2="129.924" y2="44.7035" gradientUnits="userSpaceOnUse">
<stop stop-color="#E199FC"/>
<stop offset="1" stop-color="#9240FC"/>
</linearGradient>
</defs>
</svg>
