<svg width="83" height="83" viewBox="0 0 83 83" fill="none" xmlns="http://www.w3.org/2000/svg">
<g filter="url(#filter0_d_505_5232)">
<circle cx="41.9448" cy="41.5325" r="37" fill="#F9F9F9"/>
<circle cx="41.9448" cy="41.5325" r="36.25" stroke="url(#paint0_linear_505_5232)" stroke-width="1.5"/>
</g>
<path d="M48.0139 47.0404V45.9369H45.807V42.6266H42.4967V40.4197H41.3932V42.6266H38.0829V45.9369H35.876V47.0404H38.0829V50.3507H45.807V47.0404H48.0139ZM41.3932 48.3722L39.8997 46.8787L40.6798 46.0986L41.3932 46.812L43.7618 44.4434L44.5419 45.2235L41.3932 48.3722Z" fill="url(#paint1_linear_505_5232)"/>
<path d="M43.5999 31.5918V30.4883H43.1784C42.3387 30.4883 41.4978 30.3013 40.7359 29.9465C40.4821 29.9956 40.2896 30.2202 40.2896 30.4883V31.5918C40.2896 32.5043 41.0322 33.2469 41.9447 33.2469C42.8573 33.2469 43.5999 32.5043 43.5999 31.5918Z" fill="url(#paint2_linear_505_5232)"/>
<path d="M44.7036 31.5917C45.0076 31.5917 45.2553 31.344 45.2553 31.04C45.2553 30.736 45.0076 30.4883 44.7036 30.4883V31.5917Z" fill="url(#paint3_linear_505_5232)"/>
<path d="M41.0956 34.2029C41.0504 34.2807 41.0018 34.3563 40.9478 34.428L41.9447 35.6743L42.9428 34.4269C42.8887 34.3557 42.8396 34.2801 42.7944 34.2029C42.5251 34.2912 42.2432 34.3507 41.9447 34.3507C41.6468 34.3507 41.3649 34.2912 41.0956 34.2029Z" fill="url(#paint4_linear_505_5232)"/>
<path d="M36.4277 39.316H47.4622V37.2597C47.4622 36.4752 46.9039 35.7927 46.1348 35.6371L44.1392 35.2344C44.0239 35.2018 43.9141 35.1593 43.8081 35.1113L41.945 37.4407L40.0857 35.1163C39.9913 35.1582 39.8937 35.1952 39.7927 35.2239L37.7557 35.6371C36.9861 35.7927 36.4277 36.4752 36.4277 37.2597V39.316Z" fill="url(#paint5_linear_505_5232)"/>
<path d="M39.1865 31.5917V30.4883C38.8825 30.4883 38.6348 30.736 38.6348 31.04C38.6348 31.344 38.8825 31.5917 39.1865 31.5917Z" fill="url(#paint6_linear_505_5232)"/>
<path d="M39.1865 29.3851H39.6168C39.9202 29.0491 40.3545 28.8334 40.8416 28.8334H40.9718L41.0882 28.8913C41.7343 29.2146 42.4571 29.3851 43.1787 29.3851H44.152H44.7037C44.9922 29.3851 45.2593 29.4656 45.4954 29.5958C45.6907 29.3928 45.8071 29.1225 45.8071 28.8334C45.8071 28.3688 45.5081 27.9523 45.064 27.7978L44.6678 27.6598L44.7037 27.1589C44.7037 26.5696 44.2088 26.0747 43.6002 26.0747C43.5236 26.0747 43.4414 26.0863 43.342 26.1101L43.0077 26.1906L42.7881 25.9263C42.3622 25.4132 41.5285 25.4132 41.102 25.9263L40.8825 26.1906L40.5487 26.1101C40.4488 26.0863 40.3666 26.0747 40.2899 26.0747C39.6814 26.0747 39.1865 26.5696 39.1865 27.1782L39.1953 27.2405L39.2223 27.6593L38.8262 27.7972C38.382 27.9523 38.083 28.3688 38.083 28.8334C38.083 29.1225 38.1994 29.3928 38.3947 29.5958C38.6309 29.4656 38.8979 29.3851 39.1865 29.3851Z" fill="url(#paint7_linear_505_5232)"/>
<path d="M55.186 47.5918V48.6952C55.49 48.6952 55.7378 48.4475 55.7378 48.1435C55.7378 47.8395 55.49 47.5918 55.186 47.5918Z" fill="url(#paint8_linear_505_5232)"/>
<path d="M55.7384 46.4886C55.7384 44.6629 54.2537 43.1782 52.428 43.1782C50.6024 43.1782 49.1177 44.6629 49.1177 46.4886V46.5901C49.2909 46.5283 49.4752 46.4886 49.6694 46.4886V45.9368H50.2211C50.8578 45.9368 51.4956 45.7862 52.065 45.5015L52.428 45.32L52.7911 45.5015C53.3604 45.7862 53.9982 45.9368 54.6349 45.9368H55.1866V46.4886C55.3808 46.4886 55.5651 46.5283 55.7384 46.5901V46.4886Z" fill="url(#paint9_linear_505_5232)"/>
<path d="M54.9519 49.7988C54.788 50.1717 54.5392 50.4951 54.2368 50.7604C54.3781 51.0021 54.6054 51.1875 54.8823 51.2664L55.3386 51.358C55.5957 50.8796 55.7375 50.3489 55.7375 49.7988V49.6973C55.5643 49.7591 55.38 49.7988 55.1858 49.7988H54.9519Z" fill="url(#paint10_linear_505_5232)"/>
<path d="M50.772 47.0104V48.6953C50.772 49.6079 51.5146 50.3505 52.4271 50.3505C53.3397 50.3505 54.0823 49.6079 54.0823 48.6953V47.0104C53.5102 46.9491 52.9485 46.7935 52.4271 46.5508C51.9058 46.7935 51.3441 46.9491 50.772 47.0104Z" fill="url(#paint11_linear_505_5232)"/>
<path d="M49.1177 49.7988C49.1177 50.3483 49.2589 50.8785 49.516 51.3569L50.0148 51.2559C50.2614 51.1842 50.4799 51.0015 50.6189 50.761C50.316 50.4956 50.0672 50.1723 49.9033 49.7988H49.6694C49.4752 49.7988 49.2909 49.7591 49.1177 49.6973V49.7988Z" fill="url(#paint12_linear_505_5232)"/>
<path d="M49.6694 47.5918C49.3654 47.5918 49.1177 47.8395 49.1177 48.1435C49.1177 48.4475 49.3654 48.6952 49.6694 48.6952V47.5918Z" fill="url(#paint13_linear_505_5232)"/>
<path d="M52.3167 57.5233H52.5374L53.1603 54.7646H51.6938L52.3167 57.5233Z" fill="url(#paint14_linear_505_5232)"/>
<path d="M53.2778 51.3064C53.008 51.3947 52.7261 51.4543 52.4276 51.4543C52.1296 51.4543 51.8477 51.3947 51.5785 51.3064C51.4416 51.5431 51.2651 51.7533 51.0532 51.9243L51.4449 53.6612H53.4096L53.803 51.9188C53.5895 51.7483 53.4129 51.5398 53.2778 51.3064Z" fill="url(#paint15_linear_505_5232)"/>
<path d="M48.2381 52.7407C47.469 52.8962 46.9106 53.5787 46.9106 54.3633V57.523H51.186L50.0246 52.3782L48.2381 52.7407Z" fill="url(#paint16_linear_505_5232)"/>
<path d="M56.6178 52.7407L54.8307 52.3799L53.6699 57.5231H57.9452V54.3633C57.9452 53.5788 57.3869 52.8963 56.6178 52.7407Z" fill="url(#paint17_linear_505_5232)"/>
<path d="M35.6519 52.7405L34.5948 52.527L34.0899 57.0693L31.4621 54.4409L28.8337 57.0693L28.3288 52.5259L27.2723 52.7399C26.5032 52.8961 25.9448 53.5786 25.9448 54.3631V57.5228H36.9793V54.3631C36.9793 53.5786 36.421 52.8961 35.6519 52.7405Z" fill="url(#paint18_linear_505_5232)"/>
<path d="M28.7036 48.6952V47.5918C28.3996 47.5918 28.1519 47.8395 28.1519 48.1435C28.1519 48.4475 28.3996 48.6952 28.7036 48.6952Z" fill="url(#paint19_linear_505_5232)"/>
<path d="M29.0485 51.2567C29.2951 51.185 29.5136 51.0024 29.6527 50.7618C29.3498 50.4964 29.1009 50.1731 28.9371 49.7996H28.7031C28.4692 49.7996 28.2469 49.7494 28.0449 49.6611C27.8684 50.3955 27.4706 51.1006 26.8813 51.7108C26.9393 51.6948 26.9945 51.6716 27.054 51.66L29.0485 51.2567Z" fill="url(#paint20_linear_505_5232)"/>
<path d="M34.2207 48.6952C34.5247 48.6952 34.7724 48.4475 34.7724 48.1435C34.7724 47.8395 34.5247 47.5918 34.2207 47.5918V48.6952Z" fill="url(#paint21_linear_505_5232)"/>
<path d="M31.4625 43.7297C29.7941 43.7297 28.4136 44.9717 28.188 46.5788C28.3513 46.5248 28.5229 46.4884 28.7039 46.4884H28.8572C29.0487 46.1601 29.4007 45.9366 29.8073 45.9366H33.1176C33.5243 45.9366 33.8763 46.1601 34.0677 46.4884H34.2211C34.4021 46.4884 34.5736 46.5248 34.737 46.5788C34.5113 44.9717 33.1309 43.7297 31.4625 43.7297Z" fill="url(#paint22_linear_505_5232)"/>
<path d="M31.4618 50.3504C32.3744 50.3504 33.117 49.6078 33.117 48.6953V47.0396L29.8066 47.0401V48.6953C29.8066 49.6078 30.5493 50.3504 31.4618 50.3504Z" fill="url(#paint23_linear_505_5232)"/>
<path d="M35.8701 51.6591C35.9297 51.6712 35.9849 51.6944 36.0428 51.7098C35.4536 51.0996 35.0552 50.3945 34.8792 49.6602C34.6767 49.7484 34.4544 49.7986 34.2204 49.7986H33.9865C33.8227 50.1716 33.5738 50.4949 33.2715 50.7603C33.4127 51.0019 33.64 51.1873 33.917 51.2662L35.8701 51.6591Z" fill="url(#paint24_linear_505_5232)"/>
<path d="M29.4126 52.2906L29.6763 54.6663L30.7224 53.6202L29.6024 52.22C29.5411 52.2476 29.4766 52.2685 29.4126 52.2906Z" fill="url(#paint25_linear_505_5232)"/>
<path d="M33.5115 52.2858C33.4481 52.2638 33.3852 52.2411 33.3256 52.2141L32.2012 53.6194L33.2472 54.6654L33.5115 52.2858Z" fill="url(#paint26_linear_505_5232)"/>
<path d="M32.4604 51.5304C32.4063 51.4592 32.3572 51.3842 32.3125 51.3064C32.0427 51.3947 31.7608 51.4543 31.4623 51.4543C31.1644 51.4543 30.8824 51.3947 30.6132 51.3064C30.568 51.3847 30.5194 51.4598 30.4653 51.5315L31.4623 52.7778L32.4604 51.5304Z" fill="url(#paint27_linear_505_5232)"/>
<path d="M29.2553 31.0404C29.2553 30.1279 29.9979 29.3852 30.9105 29.3852H31.4622V31.3814L36.5579 28.8335L31.4622 26.2856V28.2818H30.9105C29.3894 28.2818 28.1519 29.5193 28.1519 31.0404V41.5232H29.2553V31.0404Z" fill="url(#paint28_linear_505_5232)"/>
<path d="M54.6344 31.0404V36.5576H52.6382L55.1861 41.6533L57.7339 36.5576H55.7378V31.0404C55.7378 29.5193 54.5003 28.2817 52.9792 28.2817H48.0137V29.3852H52.9792C53.8917 29.3852 54.6344 30.1278 54.6344 31.0404Z" fill="url(#paint29_linear_505_5232)"/>
<defs>
<filter id="filter0_d_505_5232" x="0.944824" y="0.532471" width="82" height="82" filterUnits="userSpaceOnUse" color-interpolation-filters="sRGB">
<feFlood flood-opacity="0" result="BackgroundImageFix"/>
<feColorMatrix in="SourceAlpha" type="matrix" values="0 0 0 0 0 0 0 0 0 0 0 0 0 0 0 0 0 0 127 0" result="hardAlpha"/>
<feOffset/>
<feGaussianBlur stdDeviation="2"/>
<feColorMatrix type="matrix" values="0 0 0 0 0 0 0 0 0 0 0 0 0 0 0 0 0 0 0.25 0"/>
<feBlend mode="normal" in2="BackgroundImageFix" result="effect1_dropShadow_505_5232"/>
<feBlend mode="normal" in="SourceGraphic" in2="effect1_dropShadow_505_5232" result="shape"/>
</filter>
<linearGradient id="paint0_linear_505_5232" x1="81.3561" y1="31.778" x2="3.70243" y2="38.4181" gradientUnits="userSpaceOnUse">
<stop stop-color="#E199FC"/>
<stop offset="1" stop-color="#9240FC"/>
</linearGradient>
<linearGradient id="paint1_linear_505_5232" x1="48.4094" y1="44.0761" x2="35.7177" y2="45.4025" gradientUnits="userSpaceOnUse">
<stop stop-color="#E199FC"/>
<stop offset="1" stop-color="#9240FC"/>
</linearGradient>
<linearGradient id="paint2_linear_505_5232" x1="43.7078" y1="31.1617" x2="40.2341" y2="31.4596" gradientUnits="userSpaceOnUse">
<stop stop-color="#E199FC"/>
<stop offset="1" stop-color="#9240FC"/>
</linearGradient>
<linearGradient id="paint3_linear_505_5232" x1="45.2733" y1="30.8946" x2="44.6912" y2="30.9194" gradientUnits="userSpaceOnUse">
<stop stop-color="#E199FC"/>
<stop offset="1" stop-color="#9240FC"/>
</linearGradient>
<linearGradient id="paint4_linear_505_5232" x1="43.0078" y1="34.7446" x2="40.9269" y2="34.9859" gradientUnits="userSpaceOnUse">
<stop stop-color="#E199FC"/>
<stop offset="1" stop-color="#9240FC"/>
</linearGradient>
<linearGradient id="paint5_linear_505_5232" x1="47.8218" y1="36.6594" x2="36.717" y2="39.1514" gradientUnits="userSpaceOnUse">
<stop stop-color="#E199FC"/>
<stop offset="1" stop-color="#9240FC"/>
</linearGradient>
<linearGradient id="paint6_linear_505_5232" x1="39.2045" y1="30.8946" x2="38.6223" y2="30.9194" gradientUnits="userSpaceOnUse">
<stop stop-color="#E199FC"/>
<stop offset="1" stop-color="#9240FC"/>
</linearGradient>
<linearGradient id="paint7_linear_505_5232" x1="46.0588" y1="27.0342" x2="38.1051" y2="28.33" gradientUnits="userSpaceOnUse">
<stop stop-color="#E199FC"/>
<stop offset="1" stop-color="#9240FC"/>
</linearGradient>
<linearGradient id="paint8_linear_505_5232" x1="55.7557" y1="47.9981" x2="55.1736" y2="48.023" gradientUnits="userSpaceOnUse">
<stop stop-color="#E199FC"/>
<stop offset="1" stop-color="#9240FC"/>
</linearGradient>
<linearGradient id="paint9_linear_505_5232" x1="55.9541" y1="44.4344" x2="49.1432" y2="45.5645" gradientUnits="userSpaceOnUse">
<stop stop-color="#E199FC"/>
<stop offset="1" stop-color="#9240FC"/>
</linearGradient>
<linearGradient id="paint10_linear_505_5232" x1="55.7864" y1="50.3087" x2="54.2095" y2="50.4305" gradientUnits="userSpaceOnUse">
<stop stop-color="#E199FC"/>
<stop offset="1" stop-color="#9240FC"/>
</linearGradient>
<linearGradient id="paint11_linear_505_5232" x1="54.1902" y1="47.9498" x2="50.7103" y2="48.209" gradientUnits="userSpaceOnUse">
<stop stop-color="#E199FC"/>
<stop offset="1" stop-color="#9240FC"/>
</linearGradient>
<linearGradient id="paint12_linear_505_5232" x1="50.6678" y1="50.3083" x2="49.0904" y2="50.4303" gradientUnits="userSpaceOnUse">
<stop stop-color="#E199FC"/>
<stop offset="1" stop-color="#9240FC"/>
</linearGradient>
<linearGradient id="paint13_linear_505_5232" x1="49.6874" y1="47.9981" x2="49.1052" y2="48.023" gradientUnits="userSpaceOnUse">
<stop stop-color="#E199FC"/>
<stop offset="1" stop-color="#9240FC"/>
</linearGradient>
<linearGradient id="paint14_linear_505_5232" x1="53.2081" y1="55.7803" x2="51.6612" y2="55.8506" gradientUnits="userSpaceOnUse">
<stop stop-color="#E199FC"/>
<stop offset="1" stop-color="#9240FC"/>
</linearGradient>
<linearGradient id="paint15_linear_505_5232" x1="53.8926" y1="52.1734" x2="51.0147" y2="52.4608" gradientUnits="userSpaceOnUse">
<stop stop-color="#E199FC"/>
<stop offset="1" stop-color="#9240FC"/>
</linearGradient>
<linearGradient id="paint16_linear_505_5232" x1="51.3253" y1="54.2724" x2="46.8288" y2="54.5919" gradientUnits="userSpaceOnUse">
<stop stop-color="#E199FC"/>
<stop offset="1" stop-color="#9240FC"/>
</linearGradient>
<linearGradient id="paint17_linear_505_5232" x1="58.0845" y1="54.2735" x2="53.5881" y2="54.5931" gradientUnits="userSpaceOnUse">
<stop stop-color="#E199FC"/>
<stop offset="1" stop-color="#9240FC"/>
</linearGradient>
<linearGradient id="paint18_linear_505_5232" x1="37.3389" y1="54.3657" x2="26.0765" y2="56.4923" gradientUnits="userSpaceOnUse">
<stop stop-color="#E199FC"/>
<stop offset="1" stop-color="#9240FC"/>
</linearGradient>
<linearGradient id="paint19_linear_505_5232" x1="28.7216" y1="47.9981" x2="28.1394" y2="48.023" gradientUnits="userSpaceOnUse">
<stop stop-color="#E199FC"/>
<stop offset="1" stop-color="#9240FC"/>
</linearGradient>
<linearGradient id="paint20_linear_505_5232" x1="29.743" y1="50.4158" x2="26.8522" y2="50.75" gradientUnits="userSpaceOnUse">
<stop stop-color="#E199FC"/>
<stop offset="1" stop-color="#9240FC"/>
</linearGradient>
<linearGradient id="paint21_linear_505_5232" x1="34.7904" y1="47.9981" x2="34.2083" y2="48.023" gradientUnits="userSpaceOnUse">
<stop stop-color="#E199FC"/>
<stop offset="1" stop-color="#9240FC"/>
</linearGradient>
<linearGradient id="paint22_linear_505_5232" x1="34.9503" y1="44.7787" x2="28.2853" y2="46.0888" gradientUnits="userSpaceOnUse">
<stop stop-color="#E199FC"/>
<stop offset="1" stop-color="#9240FC"/>
</linearGradient>
<linearGradient id="paint23_linear_505_5232" x1="33.2249" y1="48.2586" x2="29.7511" y2="48.5556" gradientUnits="userSpaceOnUse">
<stop stop-color="#E199FC"/>
<stop offset="1" stop-color="#9240FC"/>
</linearGradient>
<linearGradient id="paint24_linear_505_5232" x1="36.1331" y1="50.4148" x2="33.2423" y2="50.749" gradientUnits="userSpaceOnUse">
<stop stop-color="#E199FC"/>
<stop offset="1" stop-color="#9240FC"/>
</linearGradient>
<linearGradient id="paint25_linear_505_5232" x1="30.7651" y1="53.1207" x2="29.3835" y2="53.1839" gradientUnits="userSpaceOnUse">
<stop stop-color="#E199FC"/>
<stop offset="1" stop-color="#9240FC"/>
</linearGradient>
<linearGradient id="paint26_linear_505_5232" x1="33.5542" y1="53.1166" x2="32.172" y2="53.1798" gradientUnits="userSpaceOnUse">
<stop stop-color="#E199FC"/>
<stop offset="1" stop-color="#9240FC"/>
</linearGradient>
<linearGradient id="paint27_linear_505_5232" x1="32.5254" y1="51.8482" x2="30.4445" y2="52.0894" gradientUnits="userSpaceOnUse">
<stop stop-color="#E199FC"/>
<stop offset="1" stop-color="#9240FC"/>
</linearGradient>
<linearGradient id="paint28_linear_505_5232" x1="36.8318" y1="31.8958" x2="27.966" y2="32.3141" gradientUnits="userSpaceOnUse">
<stop stop-color="#E199FC"/>
<stop offset="1" stop-color="#9240FC"/>
</linearGradient>
<linearGradient id="paint29_linear_505_5232" x1="58.0507" y1="33.2049" x2="47.8154" y2="33.8411" gradientUnits="userSpaceOnUse">
<stop stop-color="#E199FC"/>
<stop offset="1" stop-color="#9240FC"/>
</linearGradient>
</defs>
</svg>
