<svg width="172" height="163" viewBox="0 0 172 163" fill="none" xmlns="http://www.w3.org/2000/svg">
<path opacity="0.2" d="M161.397 121.595C161.397 121.595 168.95 156.855 121.482 156.683C121.482 156.683 93.8934 142.732 127.645 126.446C161.397 110.16 161.397 121.595 161.397 121.595Z" fill="url(#paint0_linear_183_387)"/>
<path opacity="0.2" d="M83.9497 134.062C83.9497 134.062 61.1804 162.783 39.1922 153.824C17.204 144.865 -5.82314 102.732 19.0005 67.9019C43.8242 33.0723 83.5045 21.1291 111.718 27.1046C139.932 33.0801 184.197 55.9119 135.823 99.404C135.847 99.404 96.5803 117.549 83.9497 134.062Z" fill="url(#paint1_linear_183_387)"/>
<path d="M92.964 57.1853L95.6197 62.2938L101.548 63.0749C101.579 63.0798 101.607 63.0931 101.63 63.1132C101.653 63.1334 101.67 63.1595 101.679 63.1888C101.688 63.218 101.688 63.2492 101.68 63.2788C101.672 63.3083 101.656 63.3351 101.634 63.3561L97.3538 67.3085L98.3692 72.9012C98.3737 72.9308 98.37 72.9611 98.3585 72.9887C98.347 73.0164 98.3282 73.0403 98.304 73.058C98.2799 73.0757 98.2514 73.0865 98.2216 73.0891C98.1917 73.0918 98.1618 73.0862 98.1349 73.0731L92.8234 70.4251L87.504 73.0731C87.4771 73.0862 87.4471 73.0918 87.4173 73.0891C87.3875 73.0865 87.359 73.0757 87.3349 73.058C87.3107 73.0403 87.2919 73.0164 87.2804 72.9887C87.2689 72.9611 87.2652 72.9308 87.2697 72.9012L88.2851 67.3085L84.0046 63.3561C83.9824 63.3351 83.9664 63.3083 83.9586 63.2788C83.9508 63.2492 83.9514 63.218 83.9603 63.1888C83.9692 63.1595 83.9862 63.1334 84.0092 63.1132C84.0322 63.0931 84.0604 63.0798 84.0905 63.0749L90.0192 62.2938L92.6749 57.1853C92.6905 57.1611 92.7119 57.1412 92.7371 57.1274C92.7624 57.1137 92.7907 57.1064 92.8194 57.1064C92.8482 57.1064 92.8765 57.1137 92.9018 57.1274C92.927 57.1412 92.9484 57.1611 92.964 57.1853Z" stroke="url(#paint2_linear_183_387)" stroke-width="2" stroke-miterlimit="10"/>
<path d="M11.5722 153.824C12.1423 153.824 12.6996 153.655 13.1735 153.339C13.6475 153.022 14.017 152.572 14.2351 152.045C14.4533 151.518 14.5104 150.939 14.3992 150.38C14.2879 149.821 14.0134 149.307 13.6103 148.904C13.2072 148.501 12.6937 148.226 12.1345 148.115C11.5754 148.004 10.9959 148.061 10.4692 148.279C9.94258 148.497 9.49241 148.867 9.1757 149.341C8.85899 149.815 8.68994 150.372 8.68994 150.942C8.692 151.706 8.99635 152.438 9.53644 152.978C10.0765 153.518 10.8084 153.822 11.5722 153.824Z" stroke="#764FAC" stroke-width="2" stroke-miterlimit="10"/>
<path d="M145.86 7.06927C146.43 7.06927 146.988 6.90022 147.462 6.58351C147.936 6.2668 148.305 5.81665 148.523 5.28998C148.741 4.76331 148.798 4.18378 148.687 3.62467C148.576 3.06556 148.302 2.55198 147.898 2.14888C147.495 1.74579 146.982 1.47129 146.423 1.36008C145.864 1.24886 145.284 1.30592 144.757 1.52408C144.231 1.74223 143.78 2.11167 143.464 2.58566C143.147 3.05965 142.978 3.61691 142.978 4.18697C142.978 4.56548 143.053 4.94029 143.197 5.28998C143.342 5.63968 143.555 5.95741 143.822 6.22506C144.09 6.49271 144.408 6.70502 144.757 6.84987C145.107 6.99472 145.482 7.06927 145.86 7.06927Z" stroke="url(#paint3_linear_183_387)" stroke-width="2" stroke-miterlimit="10"/>
<path d="M53.0571 19.6689C53.6272 19.6689 54.1844 19.4998 54.6584 19.1831C55.1324 18.8664 55.5018 18.4163 55.72 17.8896C55.9381 17.3629 55.9952 16.7834 55.884 16.2243C55.7728 15.6652 55.4983 15.1516 55.0952 14.7485C54.6921 14.3454 54.1785 14.0709 53.6194 13.9597C53.0603 13.8485 52.4808 13.9056 51.9541 14.1237C51.4274 14.3419 50.9773 14.7113 50.6606 15.1853C50.3439 15.6593 50.1748 16.2165 50.1748 16.7866C50.1748 17.551 50.4785 18.2842 51.019 18.8247C51.5595 19.3652 52.2927 19.6689 53.0571 19.6689Z" fill="#5181C1"/>
<path d="M2.51937 54.9356L4.01129 52.0923C4.05789 52.0044 4.12827 51.9313 4.21439 51.8814C4.29845 51.8284 4.39622 51.8013 4.49557 51.8033C4.59735 51.8016 4.69755 51.8286 4.78458 51.8814C4.8707 51.9313 4.94108 52.0044 4.98768 52.0923L6.45617 54.8887C6.50118 54.966 6.56249 55.0327 6.63583 55.084L8.55735 56.3884C8.63481 56.4373 8.69915 56.5043 8.74481 56.5837C8.78471 56.6666 8.80604 56.7573 8.80731 56.8493C8.8071 56.9414 8.78571 57.0323 8.74481 57.1149C8.69726 57.195 8.63339 57.2642 8.55735 57.318L6.67488 58.4662C6.58791 58.5219 6.51771 58.6002 6.47178 58.6927L5.00329 61.6531C4.9518 61.7421 4.87942 61.8171 4.7924 61.8718C4.7078 61.9236 4.6104 61.9507 4.51121 61.9499C4.40943 61.9517 4.30921 61.9246 4.22218 61.8718C4.13516 61.8171 4.06278 61.7421 4.01129 61.6531L2.53501 58.8645C2.49068 58.7891 2.43235 58.7228 2.36316 58.6693L0.48848 57.3336C0.414575 57.2832 0.35396 57.2157 0.311796 57.1368C0.269632 57.0579 0.247172 56.97 0.246338 56.8805C0.246617 56.7909 0.268039 56.7026 0.30884 56.6228C0.353546 56.543 0.414788 56.4738 0.48848 56.4197L2.35534 55.1621C2.42425 55.1104 2.48037 55.0436 2.51937 54.9668V54.9356Z" fill="#5181C1"/>
<path d="M165.467 60.919L166.951 58.0835C166.997 57.9932 167.067 57.9175 167.154 57.8648C167.241 57.8128 167.341 57.7858 167.443 57.7867C167.545 57.7849 167.645 57.812 167.732 57.8648C167.819 57.9175 167.889 57.9932 167.935 58.0835L169.403 60.8799C169.45 60.9558 169.511 61.0221 169.583 61.0752L171.505 62.3718C171.582 62.4207 171.646 62.4877 171.692 62.5671C171.731 62.6503 171.753 62.7408 171.755 62.8327C171.754 62.9248 171.733 63.0157 171.692 63.0983C171.647 63.1799 171.582 63.2496 171.505 63.3013L169.622 64.4496C169.537 64.5072 169.467 64.585 169.419 64.6761L167.943 67.6131C167.896 67.701 167.826 67.7741 167.74 67.824C167.653 67.8768 167.552 67.9039 167.451 67.9021C167.351 67.9041 167.254 67.877 167.169 67.824C167.081 67.7746 167.008 67.7016 166.959 67.6131L165.482 64.8167C165.44 64.7421 165.381 64.678 165.31 64.6292L163.436 63.2857C163.361 63.2366 163.299 63.1695 163.256 63.0904C163.216 63.0103 163.195 62.9222 163.194 62.8327C163.194 62.743 163.215 62.6547 163.256 62.5749C163.299 62.4959 163.361 62.4287 163.436 62.3796L165.303 61.1142C165.372 61.0626 165.428 60.9958 165.467 60.919Z" fill="#5181C1"/>
<path d="M17.0167 80.0173L18.5086 77.1818C18.5553 77.0894 18.6288 77.0132 18.7195 76.9631C18.8051 76.9138 18.9019 76.8869 19.0007 76.885C19.102 76.8869 19.2012 76.9138 19.2897 76.9631C19.3764 77.0158 19.4467 77.0915 19.4928 77.1818L20.9613 79.9782C21.0034 80.0597 21.0652 80.1295 21.1409 80.1813L23.0546 81.4701C23.1342 81.5198 23.1989 81.5899 23.2421 81.6732C23.2821 81.7533 23.3035 81.8414 23.3046 81.931C23.3044 82.0231 23.283 82.114 23.2421 82.1965C23.1989 82.2798 23.1342 82.35 23.0546 82.3996L21.1644 83.5244C21.0813 83.5814 21.0119 83.6561 20.9613 83.7431L19.4928 86.6801C19.4445 86.7689 19.3747 86.8442 19.2897 86.8988C19.2036 86.9546 19.1033 86.9843 19.0007 86.9843C18.8981 86.9843 18.7977 86.9546 18.7117 86.8988C18.6267 86.8442 18.5568 86.7689 18.5086 86.6801L17.0245 83.8837C16.9829 83.8087 16.9272 83.7423 16.8605 83.6885L14.978 82.3528C14.9052 82.3032 14.8461 82.236 14.8061 82.1575C14.7601 82.0794 14.7358 81.9904 14.7358 81.8997C14.7358 81.8091 14.7601 81.7201 14.8061 81.642C14.8461 81.5634 14.9052 81.4963 14.978 81.4467L16.8448 80.1735C16.9136 80.1356 16.9724 80.0821 17.0167 80.0173Z" fill="white" stroke="url(#paint4_linear_183_387)" stroke-width="2" stroke-miterlimit="10"/>
<path d="M86.2303 154.746L87.7222 151.911C87.7688 151.823 87.8392 151.75 87.9253 151.7C88.0117 151.645 88.1118 151.615 88.2143 151.614C88.3144 151.615 88.4121 151.644 88.4955 151.7C88.5816 151.75 88.652 151.823 88.6986 151.911L90.1671 154.707C90.2147 154.785 90.2755 154.853 90.3467 154.91L92.2605 156.199C92.3385 156.25 92.4028 156.32 92.4479 156.402C92.4946 156.483 92.5189 156.574 92.5182 156.668C92.5181 156.761 92.4939 156.852 92.4479 156.933C92.4046 157.014 92.3397 157.082 92.2605 157.128L90.378 158.284C90.291 158.34 90.2208 158.418 90.1749 158.511L88.6986 161.44C88.6582 161.534 88.59 161.613 88.5033 161.667C88.4157 161.718 88.3159 161.745 88.2143 161.745C88.1127 161.745 88.0129 161.718 87.9253 161.667C87.8383 161.611 87.7682 161.533 87.7222 161.44L86.2381 158.644C86.1921 158.57 86.1341 158.504 86.0663 158.448L84.1916 157.121C84.1158 157.069 84.0541 156.999 84.012 156.918C83.9712 156.838 83.9497 156.749 83.9495 156.66C83.9507 156.573 83.9721 156.487 84.012 156.41C84.052 156.327 84.1142 156.257 84.1916 156.207L86.0506 154.941C86.1242 154.89 86.1855 154.824 86.2303 154.746V154.746Z" stroke="#BCD6FF" stroke-width="2" stroke-miterlimit="10"/>
<path d="M58.2211 146.332L49.103 146.951C46.7759 147.109 44.4759 146.375 42.671 144.898C40.8661 143.42 39.692 141.311 39.3877 138.998C39.3361 138.583 39.2533 138.173 39.14 137.77L38.8809 135.337L66.4023 131.332L66.754 136.515C66.841 137.72 66.689 138.931 66.3068 140.078C65.9246 141.224 65.3197 142.284 64.5269 143.196C63.7341 144.108 62.7689 144.855 61.6868 145.393C60.6046 145.931 59.4268 146.25 58.2211 146.332Z" fill="white" stroke="url(#paint5_linear_183_387)" stroke-width="2" stroke-miterlimit="10"/>
<path d="M43.5925 134.392L61.8129 133.155L62.1715 138.439C62.2286 139.28 61.9491 140.11 61.3947 140.745C60.8402 141.38 60.0561 141.769 59.2149 141.826L47.3225 142.633C46.4813 142.69 45.6519 142.411 45.0167 141.856C44.3815 141.302 43.9925 140.518 43.9355 139.677L43.5769 134.393L43.5925 134.392Z" fill="white" stroke="url(#paint6_linear_183_387)" stroke-width="2" stroke-miterlimit="10"/>
<path d="M83.6921 64.9493C83.6921 64.9493 70.296 54.9042 59.9541 68.0737C59.5714 68.558 59.173 69.0345 58.7512 69.4875L36.0132 93.3113L13.2751 117.135C12.7753 117.66 12.4454 118.323 12.3283 119.037C12.2113 119.752 12.3125 120.486 12.6189 121.142L19.3833 135.538C19.6946 136.205 20.2033 136.759 20.8405 137.127C21.4777 137.494 22.2124 137.657 22.9452 137.592L90.3627 131.687C94.664 131.338 98.7085 129.498 101.798 126.485C106.344 121.97 110.39 115.503 107.344 102.193C104.985 91.8194 100.189 77.5642 83.6921 64.9493Z" fill="white" stroke="url(#paint7_linear_183_387)" stroke-width="3" stroke-miterlimit="10"/>
<path d="M16.6043 126.786C16.6043 126.786 52.7367 85.7735 63.9847 78.0874C75.2326 70.4012 83.0881 63.6377 97.6402 81.7048C97.6402 81.7048 81.598 53.0324 63.9846 65.5527L13.9424 117.896C13.3776 118.487 13.2291 119.362 13.5674 120.106L16.6043 126.786Z" fill="#DEDAEE"/>
<path d="M97.3277 123.188C104.652 119.348 104.254 104.152 96.439 89.2482C88.6241 74.3441 76.3516 65.3751 69.0275 69.2154C61.7034 73.0557 62.1013 88.2511 69.9162 103.155C77.7311 118.059 90.0037 127.028 97.3277 123.188Z" fill="url(#paint8_linear_183_387)"/>
<path d="M66.5934 88.7651C67.6011 91.5849 73.1938 106.731 78.2476 110.355C78.3067 110.405 78.3813 110.432 78.4585 110.432C78.5356 110.432 78.6103 110.405 78.6694 110.355C79.763 109.363 83.1529 106.606 82.0203 99.0523C81.7024 96.7551 80.7264 94.599 79.2101 92.8442C77.6937 91.0895 75.7019 89.8111 73.475 89.1635C71.3401 88.5819 69.134 88.3032 66.9215 88.3355C66.8695 88.3362 66.8182 88.3488 66.7717 88.3722C66.7252 88.3956 66.6846 88.4292 66.6531 88.4706C66.6215 88.512 66.5997 88.56 66.5894 88.611C66.579 88.662 66.5804 88.7147 66.5934 88.7651Z" fill="#F8FAFB"/>
<path d="M100.885 49.1619L96.5972 55.9731" stroke="#C570E5" stroke-width="2" stroke-miterlimit="10" stroke-linecap="round" stroke-linejoin="round"/>
<path d="M110.929 63.1934L106.054 66.2023" stroke="#C570E5" stroke-width="2" stroke-miterlimit="10" stroke-linecap="round" stroke-linejoin="round"/>
<path d="M119.573 57.7914L114.3 61.2969" stroke="#C570E5" stroke-width="2" stroke-miterlimit="10" stroke-linecap="round" stroke-linejoin="round"/>
<path d="M125.65 53.8634L123.159 55.5159" stroke="#C570E5" stroke-width="2" stroke-miterlimit="10" stroke-linecap="round" stroke-linejoin="round"/>
<path d="M131.075 94.7568L125.983 95.8582" stroke="#C570E5" stroke-width="2" stroke-miterlimit="10" stroke-linecap="round" stroke-linejoin="round"/>
<path d="M130.642 112.824L125.432 112.66" stroke="#C570E5" stroke-width="2" stroke-miterlimit="10" stroke-linecap="round" stroke-linejoin="round"/>
<path d="M139.783 112.824L134.573 112.66" stroke="#C570E5" stroke-width="2" stroke-miterlimit="10" stroke-linecap="round" stroke-linejoin="round"/>
<path d="M120.624 112.699L116.749 112.785" stroke="#C570E5" stroke-width="2" stroke-miterlimit="10" stroke-linecap="round" stroke-linejoin="round"/>
<path d="M121.716 96.3264L116.624 97.4278" stroke="#C570E5" stroke-width="2" stroke-miterlimit="10" stroke-linecap="round" stroke-linejoin="round"/>
<path d="M127.352 75.5241L122.47 77.3492" stroke="#C570E5" stroke-width="2" stroke-miterlimit="10" stroke-linecap="round" stroke-linejoin="round"/>
<path d="M118.5 78.6945L113.617 80.5196" stroke="#C570E5" stroke-width="2" stroke-miterlimit="10" stroke-linecap="round" stroke-linejoin="round"/>
<path d="M136.434 71.9562L131.551 73.7813" stroke="#C570E5" stroke-width="2" stroke-miterlimit="10" stroke-linecap="round" stroke-linejoin="round"/>
<path d="M142.435 92.4365L134.921 94.1081" stroke="#C570E5" stroke-width="2" stroke-miterlimit="10" stroke-linecap="round" stroke-linejoin="round"/>
<path d="M105.097 42.1912L102.957 45.5968" stroke="#C570E5" stroke-width="2" stroke-miterlimit="10" stroke-linecap="round" stroke-linejoin="round"/>
<path d="M110.394 34.137L107.122 39.3314" stroke="#C570E5" stroke-width="2" stroke-miterlimit="10" stroke-linecap="round" stroke-linejoin="round"/>
<path d="M156.546 105.309H145.111C142.432 105.309 140.26 107.481 140.26 110.16V121.595C140.26 124.274 142.432 126.446 145.111 126.446H156.546C159.225 126.446 161.397 124.274 161.397 121.595V110.16C161.397 107.481 159.225 105.309 156.546 105.309Z" fill="white" stroke="#C570E5" stroke-width="2" stroke-miterlimit="10"/>
<path d="M130.105 27.1045H118.67C115.991 27.1045 113.819 29.2762 113.819 31.9552V43.3906C113.819 46.0696 115.991 48.2413 118.67 48.2413H130.105C132.784 48.2413 134.956 46.0696 134.956 43.3906V31.9552C134.956 29.2762 132.784 27.1045 130.105 27.1045Z" fill="white" stroke="#C570E5" stroke-width="2" stroke-miterlimit="10"/>
<path d="M132.918 135.546H121.483C118.804 135.546 116.632 137.718 116.632 140.397V151.832C116.632 154.511 118.804 156.683 121.483 156.683H132.918C135.597 156.683 137.769 154.511 137.769 151.832V140.397C137.769 137.718 135.597 135.546 132.918 135.546Z" fill="white" stroke="#C570E5" stroke-width="2" stroke-miterlimit="10"/>
<path d="M155.424 115.217L147.012 110.359C146.894 110.296 146.763 110.265 146.631 110.267C146.498 110.269 146.368 110.306 146.253 110.372C146.138 110.438 146.042 110.533 145.974 110.647C145.906 110.761 145.868 110.89 145.863 111.023V120.74C145.869 120.872 145.908 121 145.977 121.113C146.045 121.226 146.141 121.32 146.256 121.385C146.371 121.451 146.5 121.486 146.632 121.488C146.765 121.49 146.895 121.458 147.012 121.396L155.424 116.545C155.537 116.475 155.63 116.378 155.695 116.261C155.76 116.145 155.794 116.014 155.794 115.881C155.794 115.748 155.76 115.618 155.695 115.501C155.63 115.385 155.537 115.288 155.424 115.217Z" fill="#764FAC"/>
<path d="M126.794 151.442C129.261 151.442 131.262 149.441 131.262 146.974C131.262 144.506 129.261 142.506 126.794 142.506C124.326 142.506 122.326 144.506 122.326 146.974C122.326 149.441 124.326 151.442 126.794 151.442Z" stroke="#764FAC" stroke-width="2" stroke-miterlimit="10"/>
<path d="M132.714 141.584C133.314 141.584 133.8 141.098 133.8 140.498C133.8 139.899 133.314 139.413 132.714 139.413C132.115 139.413 131.629 139.899 131.629 140.498C131.629 141.098 132.115 141.584 132.714 141.584Z" fill="#764FAC"/>
<path d="M124.552 31.7056C121.279 31.7056 119.545 33.7989 119.545 36.0876C119.536 36.651 119.676 37.2067 119.951 37.6989C120.225 38.1912 120.624 38.6025 121.107 38.8918C121.381 39.0089 121.342 38.8918 121.576 37.97C121.585 37.9344 121.585 37.8968 121.576 37.8612C121.566 37.8256 121.547 37.7931 121.521 37.767C120.17 36.2048 121.256 32.971 124.38 32.971C128.903 32.971 128.059 39.2198 125.161 39.2198C124.994 39.2326 124.826 39.2059 124.672 39.1419C124.517 39.078 124.379 38.9785 124.269 38.8516C124.16 38.7247 124.082 38.5739 124.041 38.4113C124.001 38.2486 123.999 38.0788 124.036 37.9154C124.316 37.1305 124.528 36.323 124.669 35.5017C124.669 33.9395 122.326 34.1739 122.326 36.2829C122.322 36.6544 122.399 37.0223 122.552 37.3608L121.662 40.9539C121.535 41.8336 121.553 42.7282 121.717 43.6019C121.724 43.6148 121.735 43.6256 121.748 43.633C121.761 43.6405 121.776 43.6445 121.791 43.6445C121.806 43.6445 121.821 43.6405 121.834 43.633C121.847 43.6256 121.857 43.6148 121.865 43.6019C122.38 42.8796 122.795 42.0914 123.099 41.2585L123.568 39.5323C123.769 39.8018 124.032 40.0181 124.336 40.1624C124.64 40.3067 124.974 40.3747 125.31 40.3602C127.598 40.3602 129.215 38.3528 129.215 35.8611C129.215 33.3693 127.161 31.6821 124.529 31.6821L124.552 31.7056Z" fill="#764FAC"/>
<path d="M76.9823 23.0039L80.0286 28.8466L86.8242 29.784C86.8588 29.7893 86.8911 29.8041 86.9177 29.8269C86.9442 29.8496 86.9638 29.8793 86.9744 29.9126C86.985 29.9459 86.986 29.9814 86.9774 30.0153C86.9688 30.0492 86.9509 30.0799 86.9258 30.1042L82.0126 34.6268L83.1765 41.0319C83.1828 41.066 83.1795 41.1011 83.1671 41.1334C83.1547 41.1657 83.1335 41.1939 83.106 41.215C83.0785 41.236 83.0457 41.249 83.0113 41.2525C82.9768 41.2561 82.9421 41.25 82.9109 41.235L76.8026 38.2199L70.7178 41.2506C70.6866 41.2656 70.6518 41.2717 70.6174 41.2682C70.583 41.2646 70.5502 41.2516 70.5227 41.2306C70.4952 41.2096 70.474 41.1813 70.4616 41.149C70.4491 41.1167 70.4459 41.0816 70.4522 41.0475L71.6083 34.6425L66.7029 30.1198C66.6777 30.0956 66.6598 30.0648 66.6513 30.0309C66.6427 29.9971 66.6437 29.9615 66.6543 29.9282C66.6648 29.8949 66.6845 29.8652 66.711 29.8425C66.7375 29.8197 66.7699 29.8049 66.8044 29.7996L73.5923 28.8622L76.6386 23.0195C76.6516 22.9854 76.6743 22.9557 76.7039 22.9343C76.7335 22.9129 76.7688 22.9005 76.8053 22.8989C76.8418 22.8972 76.878 22.9063 76.9095 22.925C76.9409 22.9436 76.9662 22.971 76.9823 23.0039Z" stroke="#BCD6FF" stroke-width="2" stroke-miterlimit="10"/>
<path d="M151.406 75.026L154.453 80.8687L161.24 81.8061C161.275 81.8096 161.308 81.8232 161.335 81.845C161.362 81.8669 161.382 81.8962 161.393 81.9293C161.404 81.9623 161.404 81.9978 161.395 82.0314C161.386 82.065 161.368 82.0953 161.342 82.1185L156.476 86.649L157.632 93.0541C157.638 93.0881 157.635 93.1232 157.622 93.1555C157.61 93.1878 157.589 93.2161 157.561 93.2371C157.534 93.2581 157.501 93.2711 157.466 93.2747C157.432 93.2782 157.397 93.2721 157.366 93.2571L151.281 90.2264L145.189 93.2571C145.157 93.2721 145.123 93.2782 145.088 93.2747C145.054 93.2711 145.021 93.2581 144.993 93.2371C144.966 93.2161 144.945 93.1878 144.932 93.1555C144.92 93.1232 144.917 93.0881 144.923 93.0541L146.087 86.649L141.174 82.1185C141.148 82.0953 141.129 82.065 141.12 82.0314C141.111 81.9978 141.112 81.9623 141.123 81.9293C141.134 81.8962 141.154 81.8669 141.181 81.845C141.208 81.8232 141.241 81.8096 141.275 81.8061L148.071 80.8687L151.117 75.026C151.135 75.0048 151.157 74.9876 151.182 74.9759C151.207 74.9641 151.234 74.958 151.262 74.958C151.289 74.958 151.317 74.9641 151.342 74.9759C151.367 74.9876 151.389 75.0048 151.406 75.026Z" fill="white" stroke="#5181C1" stroke-width="2" stroke-miterlimit="10"/>
<defs>
<linearGradient id="paint0_linear_183_387" x1="136.349" y1="117.694" x2="136.349" y2="156.683" gradientUnits="userSpaceOnUse">
<stop stop-color="#8AB7FF"/>
<stop offset="1" stop-color="#E9BCFA"/>
</linearGradient>
<linearGradient id="paint1_linear_183_387" x1="82.8093" y1="25.6323" x2="82.8093" y2="155.556" gradientUnits="userSpaceOnUse">
<stop stop-color="#8AB7FF"/>
<stop offset="1" stop-color="#E9BCFA"/>
</linearGradient>
<linearGradient id="paint2_linear_183_387" x1="102.264" y1="62.9912" x2="83.6865" y2="64.7536" gradientUnits="userSpaceOnUse">
<stop stop-color="#E199FC"/>
<stop offset="1" stop-color="#9240FC"/>
</linearGradient>
<linearGradient id="paint3_linear_183_387" x1="3483" y1="2450.73" x2="3438.32" y2="2446.93" gradientUnits="userSpaceOnUse">
<stop stop-color="#E199FC"/>
<stop offset="1" stop-color="#9240FC"/>
</linearGradient>
<linearGradient id="paint4_linear_183_387" x1="3604.71" y1="3363.71" x2="3505.76" y2="3357.6" gradientUnits="userSpaceOnUse">
<stop stop-color="#E199FC"/>
<stop offset="1" stop-color="#9240FC"/>
</linearGradient>
<linearGradient id="paint5_linear_183_387" x1="67.6631" y1="136.565" x2="39.5077" y2="143.182" gradientUnits="userSpaceOnUse">
<stop stop-color="#E199FC"/>
<stop offset="1" stop-color="#9240FC"/>
</linearGradient>
<linearGradient id="paint6_linear_183_387" x1="62.6184" y1="136.228" x2="44.2094" y2="140.931" gradientUnits="userSpaceOnUse">
<stop stop-color="#E199FC"/>
<stop offset="1" stop-color="#9240FC"/>
</linearGradient>
<linearGradient id="paint7_linear_183_387" x1="111.535" y1="89.3847" x2="11.0945" y2="100.201" gradientUnits="userSpaceOnUse">
<stop stop-color="#E199FC"/>
<stop offset="1" stop-color="#9240FC"/>
</linearGradient>
<linearGradient id="paint8_linear_183_387" x1="93.5728" y1="81.6805" x2="66.203" y2="97.531" gradientUnits="userSpaceOnUse">
<stop stop-color="#E199FC"/>
<stop offset="1" stop-color="#9240FC"/>
</linearGradient>
</defs>
</svg>
