<svg width="31" height="25" viewBox="0 0 31 25" fill="none" xmlns="http://www.w3.org/2000/svg">
<path d="M15.3751 18.7497C16.8567 18.7497 18.062 17.5444 18.062 16.0629C18.062 14.5813 16.8567 13.376 15.3751 13.376C13.8936 13.376 12.6882 14.5813 12.6882 16.0628C12.6882 17.5443 13.8936 18.7497 15.3751 18.7497Z" fill="url(#paint0_linear_183_338)"/>
<path opacity="0.4" d="M30.375 5.46076V0.183105H0.375V5.46076H30.375ZM5.65195 3.7002H3.89273V1.94238H5.65195V3.7002ZM9.17039 3.7002H7.41117V1.94238H9.17039V3.7002ZM12.6888 3.7002H10.9296V1.94238H12.6888V3.7002Z" fill="url(#paint1_linear_183_338)"/>
<path d="M0.375 7.21875V24.9056H30.375V7.21875H0.375ZM23.3388 11.6655H26.8573V13.4234H23.3388V11.6655ZM23.3388 15.184H26.8573V16.9418H23.3388V15.184ZM23.3388 18.7025H26.8573V20.4603H23.3388V18.7025ZM9.17039 15.184H11.018C11.1336 14.6101 11.3602 14.0762 11.6741 13.605L10.3662 12.2971L11.6091 11.0541L12.9171 12.3621C13.3882 12.0481 13.9222 11.8215 14.4961 11.7059V9.85834H16.2539V11.7059C16.8278 11.8215 17.3617 12.0481 17.8329 12.3621L19.1409 11.0541L20.3838 12.2971L19.0759 13.605C19.3899 14.0762 19.6165 14.6102 19.7321 15.184H21.5796V16.9419H19.7321C19.6165 17.5157 19.3898 18.0497 19.0759 18.5209L20.3838 19.8288L19.1409 21.0717L17.8329 19.7638C17.3618 20.0778 16.8278 20.3044 16.2539 20.42V22.2676H14.4961V20.42C13.9222 20.3044 13.3883 20.0779 12.9171 19.7638L11.6091 21.0717L10.3662 19.8288L11.6741 18.5208C11.3602 18.0497 11.1335 17.5157 11.0179 16.9418H9.17033V15.184H9.17039ZM3.89273 11.6655H7.41117V13.4234H3.89273V11.6655ZM3.89273 15.184H7.41117V16.9418H3.89273V15.184ZM3.89273 18.7025H7.41117V20.4603H3.89273V18.7025Z" fill="url(#paint2_linear_183_338)"/>
<defs>
<linearGradient id="paint0_linear_183_338" x1="20.0762" y1="8.61446" x2="7.87128" y2="11.5706" gradientUnits="userSpaceOnUse">
<stop stop-color="#3DEE87"/>
<stop offset="1" stop-color="#3DB7FF"/>
</linearGradient>
<linearGradient id="paint1_linear_183_338" x1="41.6199" y1="-4.49327" x2="16.7082" y2="29.8052" gradientUnits="userSpaceOnUse">
<stop stop-color="#3DEE87"/>
<stop offset="1" stop-color="#3DB7FF"/>
</linearGradient>
<linearGradient id="paint2_linear_183_338" x1="41.6199" y1="-8.453" x2="-20.0972" y2="16.9022" gradientUnits="userSpaceOnUse">
<stop stop-color="#3DEE87"/>
<stop offset="1" stop-color="#3DB7FF"/>
</linearGradient>
</defs>
</svg>
