<svg width="31" height="31" viewBox="0 0 31 31" fill="none" xmlns="http://www.w3.org/2000/svg">
<path d="M7.11678 19.0707L8.67295 20.6269L11.3306 17.9434C8.77694 14.8996 8.23364 10.8785 9.42066 7.47377L12.9569 11.01C12.9268 14.5654 15.8215 17.6727 19.5984 17.6727C21.8157 17.6727 23.7823 16.5804 24.9893 14.9059L20.9743 10.8909L18.1902 13.6752L7.83591 3.32095V5.6687H6.02008L6.02014 0.221191H11.4676V2.03697L9.11989 2.03703L18.1902 11.1073L20.9743 8.32291L25.8697 13.2182C26.6726 10.923 26.184 8.22383 24.2949 6.33463C21.8745 3.91436 18.0727 3.75929 15.476 5.82293L12.5402 2.88708C16.7692 -0.789141 23.186 -0.621841 27.2187 3.41077C29.254 5.44614 30.3749 8.15241 30.3749 11.0309C30.3749 16.9732 25.5406 21.8077 19.5984 21.8077C17.0075 21.8077 14.5566 20.8992 12.6085 19.2336L9.95687 21.9109L11.5193 23.4735L4.77774 30.2153L0.375 25.8125L7.11678 19.0707Z" fill="url(#paint0_linear_183_353)"/>
<path opacity="0.4" d="M15.8169 24.77H30.3435V26.5859H15.8169V24.77Z" fill="url(#paint1_linear_183_353)"/>
<path opacity="0.4" d="M10.3694 28.4019H21.2644V30.2176H10.3694V28.4019Z" fill="url(#paint2_linear_183_353)"/>
<defs>
<linearGradient id="paint0_linear_183_353" x1="41.6198" y1="-26.3556" x2="-26.5151" y2="-9.84954" gradientUnits="userSpaceOnUse">
<stop stop-color="#3DEE87"/>
<stop offset="1" stop-color="#3DB7FF"/>
</linearGradient>
<linearGradient id="paint1_linear_183_353" x1="35.7886" y1="23.1611" x2="28.4422" y2="37.3959" gradientUnits="userSpaceOnUse">
<stop stop-color="#3DEE87"/>
<stop offset="1" stop-color="#3DB7FF"/>
</linearGradient>
<linearGradient id="paint2_linear_183_353" x1="25.3482" y1="26.793" x2="16.9305" y2="39.0264" gradientUnits="userSpaceOnUse">
<stop stop-color="#3DEE87"/>
<stop offset="1" stop-color="#3DB7FF"/>
</linearGradient>
</defs>
</svg>
