<svg width="31" height="31" viewBox="0 0 31 31" fill="none" xmlns="http://www.w3.org/2000/svg">
<g clip-path="url(#clip0_183_191)">
<path d="M17.8825 11.8834C16.9325 12.2959 16.0562 12.8346 15.27 13.4834H5.34497C4.83247 13.4834 4.40747 13.0584 4.40747 12.5459C4.40747 12.0334 4.83247 11.6084 5.34497 11.6084H17.22C17.4825 11.6084 17.7075 11.7084 17.8825 11.8834Z" fill="white"/>
<path d="M13.2575 15.6709C12.845 16.2584 12.4825 16.8834 12.195 17.5459H5.34497C4.83247 17.5459 4.40747 17.1209 4.40747 16.6084C4.40747 16.0959 4.83247 15.6709 5.34497 15.6709H13.2575Z" fill="white"/>
<path d="M11.5075 19.7334C11.3825 20.3459 11.3075 20.9709 11.295 21.6084H5.34497C4.83247 21.6084 4.40747 21.1834 4.40747 20.6709C4.40747 20.1584 4.83247 19.7334 5.34497 19.7334H11.5075Z" fill="white"/>
<path fill-rule="evenodd" clip-rule="evenodd" d="M14.595 2.8584H15.97C16.4825 2.8584 16.9075 3.2834 16.9075 3.7959V4.1084H18.47C20.37 4.1084 21.9075 5.6459 21.9075 7.5459V10.9959C20.4825 11.0334 19.12 11.3459 17.8825 11.8834C17.7075 11.7084 17.4825 11.6084 17.22 11.6084H11.2825H5.34497C4.83247 11.6084 4.40747 12.0334 4.40747 12.5459C4.40747 13.0584 4.83247 13.4834 5.34497 13.4834H11.2825H15.27C14.5075 14.1209 13.82 14.8584 13.2575 15.6709H11.2825H5.34497C4.83247 15.6709 4.40747 16.0959 4.40747 16.6084C4.40747 17.1209 4.83247 17.5459 5.34497 17.5459H11.2825H12.195C11.895 18.2334 11.6575 18.9709 11.5075 19.7334H11.2825H5.34497C4.83247 19.7334 4.40747 20.1584 4.40747 20.6709C4.40747 21.1834 4.83247 21.6084 5.34497 21.6084H11.2825H11.295L11.2825 21.9209C11.2825 23.5959 11.6575 25.1834 12.3325 26.6084H11.2825H4.09497C2.19497 26.6084 0.657471 25.0709 0.657471 23.1709V7.5459C0.657471 5.6459 2.19497 4.1084 4.09497 4.1084H5.65747V3.7959C5.65747 3.2834 6.08247 2.8584 6.59497 2.8584H7.96997C8.38247 1.4209 9.70747 0.358398 11.2825 0.358398C12.8575 0.358398 14.1825 1.4209 14.595 2.8584Z" fill="url(#paint0_linear_183_191)"/>
<path d="M22.2198 19.7334C21.5286 19.7334 20.9698 20.2921 20.9698 20.9834V25.3584C20.9698 26.0496 21.5286 26.6084 22.2198 26.6084V19.7334Z" fill="#DEDEDE"/>
<path d="M22.2198 16.6084C21.5298 16.6084 20.9698 17.1672 20.9698 17.8584C20.9698 18.5497 21.5298 19.1084 22.2198 19.1084V16.6084Z" fill="#DEDEDE"/>
<path opacity="0.4" d="M22.22 30.3584C17.5675 30.3584 13.7825 26.5746 13.7825 21.9209C13.7825 17.2671 17.5675 13.4834 22.22 13.4834C26.8725 13.4834 30.6575 17.2671 30.6575 21.9209C30.6575 26.5746 26.8725 30.3584 22.22 30.3584Z" fill="url(#paint1_linear_183_191)"/>
<path d="M22.2199 26.6084C21.5286 26.6084 20.9698 26.0496 20.9698 25.3584V20.9834C20.9698 20.2921 21.5286 19.7334 22.2199 19.7334C22.9111 19.7334 23.4699 20.2921 23.4699 20.9834V25.3584C23.4699 26.0496 22.9111 26.6084 22.2199 26.6084Z" fill="white"/>
<path d="M20.9698 17.8584C20.9698 17.1672 21.5299 16.6084 22.2199 16.6084C22.9099 16.6084 23.4699 17.1672 23.4699 17.8584C23.4699 18.5497 22.9099 19.1084 22.2199 19.1084C21.5299 19.1084 20.9698 18.5497 20.9698 17.8584Z" fill="white"/>
</g>
<defs>
<linearGradient id="paint0_linear_183_191" x1="29.8726" y1="-22.9009" x2="-19.3305" y2="-13.2535" gradientUnits="userSpaceOnUse">
<stop stop-color="#3DEE87"/>
<stop offset="1" stop-color="#3DB7FF"/>
</linearGradient>
<linearGradient id="paint1_linear_183_191" x1="36.9827" y1="-1.46903" x2="-1.34405" y2="7.81406" gradientUnits="userSpaceOnUse">
<stop stop-color="#3DEE87"/>
<stop offset="1" stop-color="#3DB7FF"/>
</linearGradient>
<clipPath id="clip0_183_191">
<rect width="30" height="30" fill="white" transform="translate(0.657471 0.358398)"/>
</clipPath>
</defs>
</svg>
