<svg width="31" height="31" viewBox="0 0 31 31" fill="none" xmlns="http://www.w3.org/2000/svg">
<g clip-path="url(#clip0_183_359)">
<path opacity="0.4" d="M26.7524 7.61397L23.0237 3.88525L16.0806 10.8865L19.81 14.6157L26.7524 7.61397Z" fill="url(#paint0_linear_183_359)"/>
<path opacity="0.4" d="M12.7397 16.8052C12.4378 17.5301 13.1657 18.257 13.8901 17.9542L18.3535 15.6453L15.0466 12.3384L12.7397 16.8052Z" fill="url(#paint1_linear_183_359)"/>
<path opacity="0.4" d="M30.1175 4.24916C30.4609 3.90584 30.4609 3.34943 30.1175 3.0061L27.6319 0.520676C27.2886 0.177353 26.7321 0.177353 26.3888 0.520676L24.2668 2.64264L27.9953 6.37135L30.1175 4.24916Z" fill="url(#paint2_linear_183_359)"/>
<path d="M3.01172 24.9311H3.89063V29.3843C3.89063 29.7395 4.1044 30.0606 4.43308 30.1961C4.75694 30.3314 5.13712 30.2593 5.39095 30.0057L10.4655 24.9311H20.707C22.1609 24.9311 23.3438 23.7483 23.3438 22.2944V13.5678L20.5713 16.3403C20.3294 16.5824 20.0469 16.7729 19.7302 16.9059L14.698 19.5151C14.2404 19.7126 13.8971 19.7822 13.5469 19.7822C13.2853 19.7822 13.0331 19.7319 12.7893 19.6577H6.52734C6.04143 19.6577 5.64844 19.2645 5.64844 18.7788C5.64844 18.2929 6.04143 17.8999 6.52734 17.8999H10.978C10.8045 17.3245 10.8788 16.7012 11.118 16.1293L13.8303 10.8618C13.9074 10.667 14.0981 10.3836 14.3393 10.1426L17.1289 7.35303H3.01172C1.55786 7.35303 0.375 8.53589 0.375 9.98974V22.2944C0.375 23.7483 1.55786 24.9311 3.01172 24.9311Z" fill="url(#paint3_linear_183_359)"/>
</g>
<defs>
<linearGradient id="paint0_linear_183_359" x1="30.7525" y1="-5.62266" x2="6.49983" y2="0.219485" gradientUnits="userSpaceOnUse">
<stop stop-color="#3DEE87"/>
<stop offset="1" stop-color="#3DB7FF"/>
</linearGradient>
<linearGradient id="paint1_linear_183_359" x1="20.484" y1="7.29991" x2="7.57412" y2="10.4255" gradientUnits="userSpaceOnUse">
<stop stop-color="#3DEE87"/>
<stop offset="1" stop-color="#3DB7FF"/>
</linearGradient>
<linearGradient id="paint2_linear_183_359" x1="32.6646" y1="-5.14908" x2="18.7916" y2="-1.7889" gradientUnits="userSpaceOnUse">
<stop stop-color="#3DEE87"/>
<stop offset="1" stop-color="#3DB7FF"/>
</linearGradient>
<linearGradient id="paint3_linear_183_359" x1="31.9531" y1="-12.947" x2="-20.1991" y2="-0.282946" gradientUnits="userSpaceOnUse">
<stop stop-color="#3DEE87"/>
<stop offset="1" stop-color="#3DB7FF"/>
</linearGradient>
<clipPath id="clip0_183_359">
<rect width="30" height="30" fill="white" transform="translate(0.375 0.263184)"/>
</clipPath>
</defs>
</svg>
