<svg width="164" height="162" viewBox="0 0 164 162" fill="none" xmlns="http://www.w3.org/2000/svg">
<path opacity="0.2" d="M110.184 128.123C110.184 128.123 128.501 119.792 135.291 113.552C142.081 107.311 169.336 117.08 144.648 145.745C119.96 174.41 87.0074 133.127 110.184 128.123Z" fill="url(#paint0_linear_248_187)"/>
<path opacity="0.2" d="M124.855 93.7616C128.544 88.7863 133.521 84.8232 137.744 80.2927C142.324 75.3799 147.625 67.0673 149.035 54.141C150.195 43.4989 143.933 33.6093 134.102 29.3717C116.967 21.9854 86.8009 15.1404 54.7088 36.6262C54.7088 36.6262 -4.16831 53.7064 8.25504 109.395C19.4827 159.723 87.3049 131.06 100.256 125.077C101.677 124.42 102.878 123.404 103.81 122.147L124.855 93.7616Z" fill="url(#paint1_linear_248_187)"/>
<path d="M121.114 11.3958C121.644 11.3958 122.161 11.2387 122.601 10.9444C123.041 10.6501 123.384 10.2318 123.587 9.74248C123.789 9.25316 123.841 8.71482 123.738 8.19561C123.634 7.6764 123.378 7.19967 123.003 6.82577C122.629 6.45188 122.151 6.19763 121.632 6.09521C121.112 5.99279 120.574 6.04682 120.085 6.25044C119.596 6.45405 119.179 6.7981 118.886 7.23904C118.593 7.67999 118.437 8.19801 118.438 8.7275C118.438 9.07852 118.508 9.42608 118.642 9.75029C118.777 10.0745 118.974 10.369 119.223 10.6169C119.471 10.8647 119.766 11.0611 120.091 11.1948C120.415 11.3285 120.763 11.3968 121.114 11.3958V11.3958Z" stroke="url(#paint2_linear_248_187)" stroke-width="2" stroke-miterlimit="10"/>
<path d="M14.0037 84.2583C14.5311 84.2569 15.0463 84.0992 15.4842 83.8051C15.922 83.511 16.2629 83.0938 16.4638 82.6061C16.6646 82.1184 16.7164 81.5821 16.6127 81.065C16.5089 80.5478 16.2542 80.0731 15.8807 79.7006C15.5072 79.3282 15.0318 79.0747 14.5144 78.9724C13.997 78.87 13.4608 78.9233 12.9737 79.1254C12.4865 79.3276 12.0702 79.6696 11.7773 80.1083C11.4844 80.5469 11.3281 81.0625 11.3281 81.59C11.3281 81.941 11.3974 82.2885 11.5319 82.6128C11.6665 82.937 11.8637 83.2315 12.1122 83.4793C12.3608 83.7272 12.6557 83.9236 12.9803 84.0573C13.3049 84.1909 13.6527 84.2593 14.0037 84.2583Z" stroke="url(#paint3_linear_248_187)" stroke-width="2" stroke-miterlimit="10"/>
<path d="M148.716 11.3961C149.245 11.3961 149.762 11.2391 150.202 10.9451C150.642 10.6512 150.985 10.2333 151.188 9.7444C151.39 9.2555 151.443 8.71751 151.34 8.1985C151.237 7.67949 150.982 7.20276 150.608 6.82858C150.233 6.45439 149.757 6.19957 149.238 6.09634C148.719 5.9931 148.181 6.04608 147.692 6.24858C147.203 6.45109 146.785 6.79402 146.491 7.23401C146.197 7.67401 146.04 8.1913 146.04 8.72048C146.04 9.43009 146.322 10.1106 146.824 10.6124C147.325 11.1142 148.006 11.3961 148.716 11.3961Z" fill="#BCD6FF"/>
<path d="M130.464 145.493C130.993 145.493 131.511 145.336 131.951 145.042C132.391 144.747 132.734 144.329 132.936 143.84C133.139 143.35 133.191 142.812 133.087 142.293C132.983 141.774 132.728 141.297 132.353 140.923C131.978 140.549 131.501 140.295 130.981 140.192C130.462 140.09 129.924 140.144 129.435 140.348C128.946 140.551 128.529 140.895 128.236 141.336C127.942 141.777 127.787 142.295 127.788 142.825C127.788 143.176 127.857 143.523 127.992 143.847C128.126 144.172 128.324 144.466 128.572 144.714C128.821 144.962 129.116 145.158 129.44 145.292C129.765 145.426 130.113 145.494 130.464 145.493Z" fill="#5181C1"/>
<path d="M39.9861 161.141C40.5153 161.141 41.0326 160.985 41.4726 160.691C41.9126 160.397 42.2555 159.979 42.458 159.49C42.6605 159.001 42.7135 158.463 42.6103 157.944C42.5071 157.425 42.2522 156.948 41.878 156.574C41.5038 156.2 41.0271 155.945 40.5081 155.842C39.9891 155.738 39.4511 155.791 38.9622 155.994C38.4733 156.196 38.0554 156.539 37.7614 156.979C37.4674 157.419 37.3105 157.937 37.3105 158.466C37.3105 158.817 37.3797 159.165 37.5142 159.49C37.6487 159.814 37.8457 160.109 38.0942 160.358C38.3426 160.606 38.6376 160.803 38.9622 160.938C39.2868 161.072 39.6348 161.141 39.9861 161.141Z" fill="#BCD6FF"/>
<path d="M68.367 3.39146L69.7481 0.766498C69.7899 0.683497 69.8539 0.613786 69.9331 0.565237C70.0124 0.516688 70.1036 0.491227 70.1965 0.491706C70.2902 0.493482 70.3821 0.518322 70.464 0.564023C70.5427 0.614646 70.6074 0.684282 70.652 0.766498L72.0188 3.35529C72.0576 3.42671 72.1119 3.48849 72.1778 3.53607L73.9567 4.73647C74.029 4.78376 74.0885 4.84805 74.1301 4.9237C74.1717 4.99934 74.1941 5.08403 74.1954 5.17035C74.195 5.25423 74.1726 5.33653 74.1303 5.40897C74.0903 5.48606 74.0304 5.55101 73.9567 5.59699L72.214 6.66723C72.1392 6.72022 72.0774 6.78944 72.0332 6.86971L70.6665 9.58866C70.6234 9.67007 70.5582 9.73773 70.4785 9.78392C70.3982 9.83429 70.3057 9.86178 70.2109 9.86345C70.1161 9.86254 70.0234 9.83498 69.9434 9.78392C69.8637 9.73773 69.7985 9.67007 69.7554 9.58866L68.3814 6.99987C68.3428 6.93252 68.2912 6.87354 68.2296 6.82632L66.4868 5.58254C66.4194 5.53663 66.3647 5.47445 66.3277 5.40176C66.2866 5.32915 66.2666 5.24649 66.2699 5.16311C66.2673 5.07981 66.2873 4.99737 66.3277 4.92449C66.3647 4.8518 66.4194 4.78962 66.4868 4.74371L68.2151 3.57224C68.2805 3.52612 68.3328 3.46384 68.367 3.39146Z" fill="#8AB7FF"/>
<path d="M2.68698 107.167L4.06818 104.542C4.11086 104.459 4.17592 104.388 4.25616 104.34C4.33616 104.293 4.42732 104.268 4.52014 104.268C4.61295 104.268 4.70407 104.293 4.78407 104.34C4.86431 104.388 4.92941 104.459 4.97209 104.542L6.33877 107.131C6.37758 107.202 6.43198 107.264 6.49788 107.312L8.27675 108.512C8.35041 108.558 8.41038 108.623 8.45034 108.7C8.49263 108.773 8.51505 108.855 8.5154 108.939C8.51413 109.025 8.49172 109.11 8.45012 109.185C8.40852 109.261 8.34897 109.325 8.27675 109.373L6.53403 110.443C6.45927 110.496 6.39747 110.565 6.35325 110.645L4.98652 113.364C4.94338 113.446 4.87823 113.513 4.7985 113.56C4.71763 113.608 4.62508 113.633 4.53095 113.632C4.43672 113.634 4.34396 113.608 4.2634 113.56C4.18367 113.513 4.11852 113.446 4.07537 113.364L2.70146 110.776C2.66284 110.708 2.6112 110.649 2.54958 110.602L0.806862 109.337C0.739463 109.291 0.68472 109.228 0.647751 109.156C0.609698 109.082 0.589844 109 0.589844 108.917C0.589844 108.834 0.609698 108.752 0.647751 108.678C0.68472 108.606 0.739463 108.544 0.806862 108.498L2.53511 107.326C2.6005 107.28 2.65284 107.218 2.68698 107.145V107.167Z" fill="#5181C1"/>
<path d="M156.576 122.252L157.965 119.627C158.007 119.543 158.072 119.473 158.153 119.424C158.231 119.375 158.321 119.35 158.413 119.352C158.507 119.35 158.6 119.375 158.681 119.424C158.761 119.473 158.826 119.543 158.869 119.627L160.228 122.208C160.263 122.286 160.321 122.352 160.394 122.396L162.166 123.597C162.238 123.642 162.297 123.704 162.34 123.777C162.382 123.852 162.405 123.937 162.405 124.023C162.405 124.11 162.383 124.194 162.34 124.269C162.298 124.345 162.238 124.409 162.166 124.457L160.423 125.52C160.344 125.574 160.28 125.646 160.235 125.73L158.869 128.449C158.824 128.531 158.759 128.601 158.681 128.651C158.601 128.703 158.508 128.731 158.413 128.731C158.318 128.731 158.225 128.703 158.145 128.651C158.067 128.602 158.004 128.532 157.965 128.449L156.584 125.86C156.547 125.789 156.495 125.727 156.432 125.679L154.689 124.443C154.623 124.395 154.569 124.333 154.53 124.262C154.489 124.189 154.469 124.107 154.472 124.023C154.469 123.94 154.489 123.857 154.53 123.785C154.567 123.712 154.622 123.65 154.689 123.604L156.417 122.425C156.484 122.382 156.539 122.322 156.576 122.252V122.252Z" stroke="url(#paint4_linear_248_187)" stroke-width="2" stroke-miterlimit="10"/>
<path d="M119.186 63.3708C116.488 44.0121 102.418 45.5275 95.7203 48.7051C93.2272 49.5361 87.6837 53.838 85.4545 64.3973C83.2253 74.9567 96.2582 88.6447 103.053 94.1688C113.73 83.9614 118.257 69.3838 119.186 63.3708Z" fill="white"/>
<rect x="45.8799" y="29.1973" width="53.8744" height="92.7595" fill="white"/>
<path d="M33.6844 34.9193C18.1972 40.0817 29.0895 57.7002 36.4715 65.8642C40.2261 67.9762 46.5419 56.4781 49.2304 50.465C52.3982 33.8047 40.1863 33.1594 33.6844 34.9193Z" fill="white"/>
<g opacity="0.5">
<path d="M38.043 55.0764C33.7217 55.0764 30.2061 51.5608 30.2061 47.2395C30.2061 42.9182 33.7217 39.4026 38.043 39.4026C42.3642 39.4026 45.8798 42.9182 45.8798 47.2395C45.8798 51.5608 42.3642 55.0764 38.043 55.0764Z" fill="url(#paint5_linear_248_187)"/>
</g>
<path opacity="0.5" d="M102.306 77.0195C95.3919 77.0195 89.7666 71.3942 89.7666 64.4804C89.7666 57.5667 95.3919 51.9414 102.306 51.9414C109.219 51.9414 114.845 57.5667 114.845 64.4804C114.845 71.3942 109.219 77.0195 102.306 77.0195Z" fill="url(#paint6_linear_248_187)"/>
<path d="M70.958 33.1331H80.3623V36.2678H70.958V33.1331Z" fill="#BCD6FF"/>
<path d="M64.6885 33.1331H67.8232V36.2678H64.6885V33.1331Z" fill="#BCD6FF"/>
<path d="M56.2027 98.9631H55.2842C53.5554 98.9631 52.1494 100.369 52.1494 102.098V105.233C52.1494 106.961 53.5554 108.367 55.2842 108.367H56.2027C57.0396 108.367 57.8265 108.041 58.4189 107.449L62.2026 103.665L58.4189 99.8816C57.8265 99.2891 57.0396 98.9631 56.2027 98.9631ZM56.2027 105.233H55.2842V102.098H56.2027L57.77 103.665L56.2027 105.233Z" fill="#5181C1"/>
<path d="M74.0928 98.9631H70.958C69.2292 98.9631 67.8232 100.369 67.8232 102.098V105.233C67.8232 106.961 69.2292 108.367 70.958 108.367H74.0928C75.8216 108.367 77.2275 106.961 77.2275 105.233V102.098C77.2275 100.369 75.8216 98.9631 74.0928 98.9631ZM70.958 105.233V102.098H74.0928L74.0943 105.233H70.958Z" fill="#BCD6FF"/>
<path d="M89.767 98.9631H88.8486C88.0116 98.9631 87.2248 99.2891 86.6323 99.8816L82.8486 103.665L86.6323 107.449C87.2248 108.041 88.0116 108.367 88.8486 108.367H89.767C91.4959 108.367 92.9018 106.961 92.9018 105.233V102.098C92.9018 100.369 91.4959 98.9631 89.767 98.9631ZM88.8486 105.233L87.2812 103.665L88.8486 102.098H89.767L89.7686 105.233H88.8486Z" fill="#5181C1"/>
<path d="M102.494 45.6721H102.305V34.7004C102.305 30.3792 98.7899 26.8635 94.4686 26.8635H50.582C46.5695 26.8635 43.289 29.9074 42.836 33.8007C41.521 33.3713 40.1213 33.133 38.6652 33.133H37.4207C29.985 33.133 23.9365 39.1816 23.9365 46.6188C23.9365 49.3977 24.7798 52.0717 26.3738 54.3522L34.2922 65.664C35.148 66.885 36.5508 67.6154 38.0429 67.6154C39.5351 67.6154 40.9379 66.885 41.7937 65.6624L42.7451 64.302V116.204C42.7451 120.525 46.2607 124.041 50.582 124.041H94.4686C98.7899 124.041 102.305 120.525 102.305 116.204V95.8282C103.831 95.8282 105.224 95.0571 106.033 93.764L118.283 74.1608C120.134 71.1984 121.114 67.7847 121.114 64.2925C121.114 54.0246 112.761 45.6721 102.494 45.6721ZM86.3276 74.1608L92.0329 83.2892H72.5253C71.6617 83.2892 70.9579 82.587 70.9579 81.7218V66.048C70.9579 59.9995 66.0363 55.0764 59.9863 55.0764H49.2042L49.7121 54.3507C51.3061 52.0717 52.1494 49.3977 52.1494 46.6188C52.1494 45.1972 51.9252 43.8257 51.5146 42.5373H99.1707V45.9291C90.3025 47.3492 83.4969 55.0309 83.4969 64.2925C83.4969 67.7847 84.4766 71.1984 86.3276 74.1608ZM45.8798 34.7004C45.8798 32.108 47.9895 29.9983 50.582 29.9983H94.4686C97.061 29.9983 99.1707 32.108 99.1707 34.7004V39.4026H50.0365C48.9723 37.7302 47.5522 36.3101 45.8798 35.2443V34.7004ZM39.2247 63.8647C38.6856 64.6358 37.4003 64.6358 36.8611 63.8647L28.9427 52.5529C27.7186 50.8037 27.0713 48.752 27.0713 46.6188C27.0713 40.9104 31.7139 36.2678 37.4207 36.2678H38.6652C44.372 36.2678 49.0146 40.9104 49.0146 46.6188C49.0146 48.752 48.3673 50.8052 47.1431 52.5544L39.2247 63.8647ZM47.0099 58.2111H59.9863C64.3075 58.2111 67.8232 61.7267 67.8232 66.048V81.7218C67.8232 84.3143 69.9328 86.4239 72.5253 86.4239H93.9921L97.9106 92.6935H69.3905C65.0693 92.6935 61.5536 89.1778 61.5536 84.8566V69.1828C61.5536 66.5903 59.4439 64.4806 56.8515 64.4806H45.8798V59.8239L47.0099 58.2111ZM94.4686 120.906H50.582C47.9895 120.906 45.8798 118.797 45.8798 116.204V113.029C47.1933 114.024 48.8108 114.637 50.582 114.637H94.4686C96.2397 114.637 97.8573 114.024 99.1707 113.029V116.204C99.1707 118.797 97.061 120.906 94.4686 120.906ZM94.4686 111.502H50.582C47.9895 111.502 45.8798 109.392 45.8798 106.8V67.6154H56.8515C57.7151 67.6154 58.4189 68.3176 58.4189 69.1828V84.8566C58.4189 90.9051 63.3404 95.8282 69.3905 95.8282H99.1707V106.8C99.1707 109.392 97.061 111.502 94.4686 111.502ZM115.625 72.4978L103.374 92.101C102.912 92.8424 101.7 92.8424 101.238 92.101L88.9875 72.4978C87.4467 70.0354 86.6317 67.1969 86.6317 64.2925C86.6317 55.7535 93.5783 48.8068 102.117 48.8068H102.494C111.033 48.8068 117.979 55.7535 117.979 64.2925C117.979 67.1969 117.164 70.0354 115.625 72.4978Z" fill="url(#paint7_linear_248_187)"/>
<path d="M61.5537 45.6721H64.6885V48.8069H61.5537V45.6721Z" fill="#5181C1"/>
<path d="M55.2842 45.6721H58.4189V48.8069H55.2842V45.6721Z" fill="#5181C1"/>
<path d="M67.8232 45.6721H70.958V48.8069H67.8232V45.6721Z" fill="#5181C1"/>
<defs>
<linearGradient id="paint0_linear_248_187" x1="128.552" y1="111.748" x2="128.552" y2="155.79" gradientUnits="userSpaceOnUse">
<stop stop-color="#8AB7FF"/>
<stop offset="1" stop-color="#E9BCFA"/>
</linearGradient>
<linearGradient id="paint1_linear_248_187" x1="77.9635" y1="22.1714" x2="77.9635" y2="138.616" gradientUnits="userSpaceOnUse">
<stop stop-color="#8AB7FF"/>
<stop offset="1" stop-color="#E9BCFA"/>
</linearGradient>
<linearGradient id="paint2_linear_248_187" x1="5312.42" y1="2493.59" x2="5270.89" y2="2490.06" gradientUnits="userSpaceOnUse">
<stop stop-color="#E199FC"/>
<stop offset="1" stop-color="#9240FC"/>
</linearGradient>
<linearGradient id="paint3_linear_248_187" x1="3103.41" y1="2346.54" x2="3062.05" y2="2343.01" gradientUnits="userSpaceOnUse">
<stop stop-color="#E199FC"/>
<stop offset="1" stop-color="#9240FC"/>
</linearGradient>
<linearGradient id="paint4_linear_248_187" x1="4750.89" y1="4104.46" x2="4689.28" y2="4100.02" gradientUnits="userSpaceOnUse">
<stop stop-color="#E199FC"/>
<stop offset="1" stop-color="#9240FC"/>
</linearGradient>
<linearGradient id="paint5_linear_248_187" x1="46.3906" y1="45.1734" x2="29.9429" y2="46.5798" gradientUnits="userSpaceOnUse">
<stop stop-color="#E199FC"/>
<stop offset="1" stop-color="#9240FC"/>
</linearGradient>
<linearGradient id="paint6_linear_248_187" x1="115.662" y1="61.1747" x2="89.3456" y2="63.425" gradientUnits="userSpaceOnUse">
<stop stop-color="#E199FC"/>
<stop offset="1" stop-color="#9240FC"/>
</linearGradient>
<linearGradient id="paint7_linear_248_187" x1="124.281" y1="62.6427" x2="22.305" y2="71.3625" gradientUnits="userSpaceOnUse">
<stop stop-color="#E199FC"/>
<stop offset="1" stop-color="#9240FC"/>
</linearGradient>
</defs>
</svg>
