<svg width="690" height="492" viewBox="0 0 690 492" fill="none" xmlns="http://www.w3.org/2000/svg">
<path d="M553.653 15.0323V0.355126H557.171C557.738 0.339036 558.304 0.427755 558.839 0.616853C559.264 0.787008 559.638 1.06445 559.924 1.42219C560.188 1.79236 560.379 2.20906 560.487 2.65032C560.615 3.1706 560.676 3.70512 560.668 4.24085C560.674 4.74329 560.613 5.24425 560.487 5.73071C560.36 6.16633 560.156 6.57551 559.884 6.93871C559.607 7.31471 559.231 7.60719 558.799 7.7843C558.289 7.99431 557.742 8.09711 557.191 8.08631H555.04V15.0323H553.653ZM555.04 6.97898H556.809C557.169 7.02273 557.534 6.98973 557.881 6.88217C558.227 6.7746 558.547 6.5949 558.819 6.35484C559.269 5.71689 559.476 4.93815 559.402 4.16032C559.485 3.36489 559.301 2.56453 558.879 1.88526C558.603 1.65339 558.282 1.4817 557.936 1.38118C557.59 1.28065 557.226 1.25348 556.869 1.30139H555.08L555.04 6.97898Z" fill="white"/>
<path d="M562.396 15.0322V0.355017H565.713C566.219 0.308636 566.729 0.368871 567.21 0.531847C567.691 0.694823 568.133 0.956931 568.507 1.30129C569.111 2.08756 569.405 3.06981 569.331 4.05955C569.331 6.07289 568.647 7.24062 567.321 7.52249L569.592 15.0322H568.225L566.075 7.80436H563.703V15.0322H562.396ZM563.783 6.79769H565.713C566.047 6.83506 566.384 6.79654 566.701 6.68499C567.018 6.57344 567.305 6.39173 567.542 6.15342C567.931 5.55744 568.114 4.85034 568.065 4.14008C568.115 3.43518 567.947 2.73188 567.582 2.12675C567.341 1.89556 567.052 1.71991 566.737 1.61211C566.421 1.5043 566.085 1.46694 565.753 1.50262H563.703L563.783 6.79769Z" fill="white"/>
<path d="M571.744 15.0324V0.355225H573.111V15.0324H571.744Z" fill="white"/>
<path d="M579.1 15.2135C578.581 15.2235 578.064 15.1417 577.573 14.9719C577.177 14.8436 576.813 14.6306 576.507 14.3478C576.219 14.0621 575.993 13.7192 575.844 13.3411C575.663 12.938 575.541 12.5108 575.482 12.0727C575.415 11.5857 575.381 11.0946 575.382 10.603V4.78443C575.381 4.27271 575.415 3.76152 575.482 3.25429C575.536 2.84984 575.63 2.45185 575.764 2.06644C575.922 1.69455 576.155 1.35889 576.447 1.07991C576.752 0.800497 577.116 0.593981 577.512 0.4759C578 0.321541 578.509 0.246761 579.02 0.254432C579.582 0.244005 580.141 0.339622 580.668 0.536297C581.091 0.719918 581.458 1.01151 581.733 1.38191C582.007 1.77816 582.205 2.22192 582.316 2.69056C582.446 3.25834 582.507 3.83969 582.497 4.42203V5.32804H581.191V4.46231C581.217 4.03319 581.217 3.6029 581.191 3.17378C581.142 2.83506 581.033 2.50779 580.869 2.20737C580.735 1.91775 580.499 1.68817 580.206 1.5631C579.843 1.41027 579.454 1.33156 579.06 1.33156C578.667 1.33156 578.277 1.41027 577.914 1.5631C577.601 1.7091 577.345 1.95755 577.191 2.26777C577.03 2.58371 576.921 2.92368 576.869 3.27443C576.834 3.73012 576.834 4.18782 576.869 4.6435V10.8647C576.804 11.7274 576.978 12.5914 577.372 13.3612C577.581 13.6368 577.857 13.8537 578.174 13.9913C578.49 14.1288 578.837 14.1822 579.181 14.1464C579.496 14.1529 579.81 14.0982 580.105 13.9854C580.342 13.9023 580.555 13.7643 580.728 13.5827C580.899 13.3818 581.029 13.1492 581.11 12.8982C581.201 12.6169 581.262 12.3267 581.291 12.0324C581.314 11.6771 581.314 11.3207 581.291 10.9654V9.99898H582.598V10.8647C582.599 11.3497 582.565 11.8341 582.497 12.3143C582.436 12.73 582.321 13.136 582.156 13.5223C582.006 13.8772 581.787 14.1988 581.512 14.4686C581.223 14.7225 580.889 14.9204 580.527 15.0524C580.064 15.1855 579.582 15.2399 579.1 15.2135Z" fill="white"/>
<path d="M584.769 15.0324V0.355225H586.115V15.0324H584.769Z" fill="white"/>
<path d="M588.708 15.0324V0.355225H589.834L594.497 11.7507V0.355225H595.683V15.0324H594.718L589.834 3.49602V15.0324H588.708Z" fill="white"/>
<path d="M601.452 15.2336C600.857 15.249 600.267 15.1321 599.723 14.8913C599.261 14.6964 598.869 14.3666 598.597 13.9451C598.315 13.4952 598.117 12.9969 598.014 12.4753C597.878 11.8132 597.818 11.1378 597.834 10.462V4.82469C597.818 4.14891 597.879 3.47356 598.014 2.81136C598.109 2.3031 598.3 1.81778 598.577 1.38189C598.855 0.958049 599.255 0.628216 599.723 0.435624C600.297 0.204276 600.913 0.0945873 601.532 0.113484C602.039 0.0630786 602.551 0.133466 603.026 0.3189C603.501 0.504334 603.926 0.799565 604.266 1.18055C604.881 2.11436 605.17 3.22564 605.09 4.34148V4.86495H603.783V4.34148C603.839 3.51622 603.68 2.69061 603.321 1.94562C603.111 1.6836 602.84 1.47819 602.531 1.34808C602.222 1.21798 601.885 1.16731 601.552 1.20068C601.208 1.19096 600.866 1.25266 600.547 1.38189C600.291 1.48131 600.059 1.63203 599.864 1.82481C599.686 2.04701 599.55 2.29933 599.462 2.56975C599.364 2.87098 599.297 3.18123 599.261 3.49588C599.261 3.79788 599.261 4.18042 599.261 4.60322V10.6432C599.257 11.1216 599.291 11.5995 599.361 12.0727C599.411 12.4423 599.534 12.7983 599.723 13.1196C599.89 13.4154 600.142 13.654 600.447 13.8041C600.816 13.9584 601.213 14.0338 601.612 14.0256C601.961 14.0547 602.312 13.992 602.629 13.8437C602.946 13.6953 603.219 13.4666 603.421 13.18C603.792 12.374 603.958 11.4887 603.904 10.6029V8.87147H601.753V7.84468H605.19V14.9517H604.306L604.125 13.2807C603.991 13.8753 603.646 14.401 603.154 14.7601C602.663 15.1193 602.058 15.2876 601.452 15.2336Z" fill="white"/>
<path d="M633.209 15.0322V0.355017H636.546C637.051 0.308636 637.561 0.368871 638.043 0.531847C638.524 0.694823 638.966 0.95693 639.34 1.30129C639.921 2.10411 640.185 3.09342 640.083 4.07968C640.083 6.09301 639.42 7.26075 638.073 7.54261L640.345 15.0523H638.978L636.827 7.82448H634.536V15.0523L633.209 15.0322ZM634.596 6.79768H636.465C636.802 6.83237 637.142 6.79266 637.461 6.68134C637.781 6.57001 638.072 6.3898 638.314 6.15341C638.651 5.51406 638.826 4.80231 638.826 4.07968C638.826 3.35705 638.651 2.6453 638.314 2.00595C638.074 1.77361 637.786 1.59721 637.469 1.48933C637.153 1.38145 636.817 1.34475 636.485 1.38182H634.475L634.596 6.79768Z" fill="white"/>
<path d="M642.476 15.0324V0.355225H647.782V1.42229H643.862V6.91869H647.058V7.94548H643.862V13.9855H647.882V15.0324H642.476Z" fill="white"/>
<path d="M652.284 15.0324L648.867 0.355225H650.133L652.907 12.4352L655.52 0.355225H656.807L653.51 15.0324H652.284Z" fill="white"/>
<path d="M658.615 15.0324V0.355225H659.982V15.0324H658.615Z" fill="white"/>
<path d="M662.575 15.0324V0.355225H667.862V1.42229H663.962V6.91869H667.158V7.94548H663.962V13.9855H667.982V15.0324H662.575Z" fill="white"/>
<path d="M671.62 15.0324L669.128 0.355225H670.233L672.243 12.2741L674.474 0.576692H675.6L677.851 12.2943L679.66 0.355225H680.826L678.454 15.0324H677.369L675.057 2.95242L672.746 15.0324H671.62Z" fill="white"/>
<path d="M685.851 15.2136C685.363 15.2433 684.874 15.1649 684.418 14.9839C683.963 14.803 683.554 14.524 683.218 14.1667C682.568 13.3225 682.202 12.2932 682.173 11.2272L683.419 10.8648C683.448 11.2093 683.495 11.552 683.56 11.8916C683.623 12.1958 683.718 12.4926 683.841 12.7774C683.943 13.0382 684.093 13.2773 684.284 13.4821C684.473 13.6726 684.699 13.8232 684.947 13.925C685.242 14.036 685.556 14.0906 685.872 14.0861C686.142 14.1109 686.414 14.0758 686.669 13.9834C686.924 13.8909 687.156 13.7434 687.348 13.5513C687.539 13.3592 687.687 13.1271 687.779 12.8716C687.871 12.6161 687.906 12.3434 687.882 12.0728C687.884 11.7732 687.843 11.4749 687.761 11.1869C687.671 10.9022 687.543 10.6312 687.379 10.3816C687.213 10.1356 687.032 9.90028 686.836 9.67691C686.635 9.45545 686.394 9.19372 686.073 8.89172L683.48 6.39519C683.068 6.02329 682.738 5.57019 682.51 5.06434C682.281 4.55849 682.16 4.01081 682.153 3.45572C682.129 3.02616 682.196 2.59641 682.348 2.19416C682.501 1.79192 682.735 1.42609 683.037 1.12025C683.708 0.549212 684.57 0.254228 685.449 0.294789C685.896 0.26263 686.344 0.322899 686.766 0.471849C687.187 0.6208 687.574 0.855236 687.902 1.16052C688.56 1.96632 688.916 2.97803 688.907 4.01945L687.741 4.32146C687.713 3.53749 687.5 2.77136 687.118 2.08665C686.929 1.84497 686.683 1.65405 686.402 1.53105C686.122 1.40805 685.815 1.35684 685.51 1.38199H685.409C684.863 1.36428 684.328 1.5428 683.902 1.88532C683.705 2.06906 683.553 2.2948 683.455 2.54576C683.358 2.79673 683.318 3.06646 683.339 3.33491C683.333 3.71126 683.416 4.08372 683.58 4.42211C683.786 4.81493 684.058 5.16914 684.384 5.46905L686.957 7.90519C687.572 8.49862 688.1 9.17649 688.525 9.91852C688.911 10.5556 689.112 11.2874 689.108 12.0325C689.132 12.4868 689.063 12.9413 688.904 13.3675C688.744 13.7936 688.499 14.1822 688.183 14.5089C687.515 15.016 686.688 15.2661 685.851 15.2136Z" fill="white"/>
<path d="M210.285 315.16L216.456 311.576L222.606 315.14L216.436 318.703L210.285 315.16Z" fill="white"/>
<path d="M223.41 322.75L229.581 319.166L235.731 322.73L229.561 326.213L223.41 322.75Z" fill="white"/>
<path d="M236.536 330.34L242.727 326.777L248.878 330.32L242.707 333.904L236.536 330.34Z" fill="white"/>
<path d="M249.681 337.931L255.851 334.367L262.002 337.931L255.831 341.494L249.681 337.931Z" fill="white"/>
<path d="M262.807 345.541L268.977 341.957L275.148 345.521L268.957 349.084L262.807 345.541Z" fill="white"/>
<g style="mix-blend-mode:multiply" opacity="0.5">
<g style="mix-blend-mode:multiply" opacity="0.5">
<g style="mix-blend-mode:multiply" opacity="0.5">
<path d="M516.367 439H162.607V491.125H516.367V439Z" fill="white"/>
</g>
<g style="mix-blend-mode:multiply" opacity="0.5">
<path d="M339.151 487.499C426.614 487.01 497.463 477.077 497.397 465.313C497.332 453.548 426.376 444.408 338.913 444.898C251.45 445.387 180.601 455.32 180.667 467.085C180.732 478.849 251.688 487.989 339.151 487.499Z" fill="white"/>
</g>
<g style="mix-blend-mode:multiply" opacity="0.5">
<path d="M338.608 487.422C425.727 486.934 496.297 477.039 496.232 465.319C496.167 453.599 425.49 444.494 338.371 444.981C251.253 445.469 180.682 455.364 180.747 467.084C180.813 478.804 251.489 487.909 338.608 487.422Z" fill="white"/>
</g>
<g style="mix-blend-mode:multiply" opacity="0.5">
<path d="M338.064 487.304C424.838 486.819 495.13 476.97 495.065 465.305C495 453.641 424.603 444.579 337.828 445.065C251.054 445.55 180.762 455.399 180.827 467.063C180.892 478.727 251.289 487.789 338.064 487.304Z" fill="white"/>
</g>
<g style="mix-blend-mode:multiply" opacity="0.5">
<path d="M337.521 487.227C423.963 486.743 493.985 476.932 493.92 465.312C493.856 453.692 423.728 444.665 337.287 445.149C250.845 445.632 180.823 455.444 180.888 467.063C180.953 478.683 251.08 487.71 337.521 487.227Z" fill="white"/>
</g>
<g style="mix-blend-mode:multiply" opacity="0.5">
<path d="M336.977 487.149C423.075 486.667 492.818 476.894 492.754 465.318C492.689 453.743 422.841 444.75 336.744 445.232C250.646 445.714 180.903 455.488 180.967 467.063C181.032 478.638 250.88 487.631 336.977 487.149Z" fill="white"/>
</g>
<g style="mix-blend-mode:multiply" opacity="0.5">
<path d="M339.425 484.463C425.179 483.604 494.604 473.56 494.489 462.03C494.374 450.499 424.763 441.848 339.008 442.707C253.253 443.566 183.829 453.609 183.944 465.14C184.059 476.671 253.67 485.322 339.425 484.463Z" fill="#FEFFFF"/>
</g>
<g style="mix-blend-mode:multiply" opacity="0.5">
<path d="M335.892 487.014C421.301 486.536 490.487 476.838 490.423 465.352C490.359 453.865 421.069 444.941 335.66 445.419C250.251 445.897 181.065 455.596 181.129 467.082C181.193 478.568 250.482 487.492 335.892 487.014Z" fill="#FEFFFF"/>
</g>
<g style="mix-blend-mode:multiply" opacity="0.5">
<path d="M335.349 486.937C420.414 486.461 489.321 476.8 489.257 465.358C489.193 453.917 420.183 445.027 335.118 445.503C250.053 445.979 181.145 455.64 181.209 467.082C181.273 478.523 250.284 487.413 335.349 486.937Z" fill="#FEFEFF"/>
</g>
<g style="mix-blend-mode:multiply" opacity="0.5">
<path d="M334.806 486.859C419.527 486.385 488.155 476.762 488.091 465.365C488.028 453.968 419.297 445.113 334.576 445.587C249.855 446.061 181.226 455.684 181.29 467.081C181.353 478.478 250.085 487.333 334.806 486.859Z" fill="#FEFEFF"/>
</g>
<g style="mix-blend-mode:multiply" opacity="0.5">
<path d="M334.262 486.741C418.638 486.269 486.988 476.693 486.925 465.351C486.862 454.01 418.409 445.198 334.033 445.67C249.656 446.142 181.306 455.719 181.369 467.06C181.433 478.402 249.885 487.213 334.262 486.741Z" fill="#FEFEFF"/>
</g>
<g style="mix-blend-mode:multiply" opacity="0.5">
<path d="M333.72 486.664C417.752 486.194 485.823 476.655 485.76 465.358C485.697 454.061 417.524 445.284 333.492 445.754C249.459 446.224 181.388 455.763 181.451 467.06C181.514 478.357 249.687 487.134 333.72 486.664Z" fill="#FDFEFF"/>
</g>
<g style="mix-blend-mode:multiply" opacity="0.5">
<path d="M333.176 486.587C416.864 486.118 484.656 476.617 484.594 465.364C484.531 454.112 416.637 445.369 332.948 445.837C249.26 446.306 181.468 455.807 181.531 467.06C181.593 478.312 249.487 487.055 333.176 486.587Z" fill="#FDFEFE"/>
</g>
<g style="mix-blend-mode:multiply" opacity="0.5">
<path d="M332.633 486.529C415.977 486.063 483.491 476.599 483.428 465.391C483.366 454.183 415.751 445.475 332.407 445.941C249.062 446.407 181.549 455.871 181.611 467.079C181.674 478.288 249.288 486.995 332.633 486.529Z" fill="#FDFEFE"/>
</g>
<g style="mix-blend-mode:multiply" opacity="0.5">
<path d="M335.077 483.842C418.089 483.011 485.294 473.287 485.183 462.123C485.071 450.959 417.686 442.583 334.673 443.415C251.66 444.246 184.456 453.97 184.567 465.134C184.678 476.298 252.064 484.674 335.077 483.842Z" fill="#FDFEFE"/>
</g>
<g style="mix-blend-mode:multiply" opacity="0.5">
<path d="M331.546 486.374C414.214 485.912 481.179 476.523 481.117 465.404C481.055 454.285 413.989 445.646 331.322 446.108C248.655 446.571 181.69 455.959 181.752 467.079C181.814 478.198 248.879 486.837 331.546 486.374Z" fill="#FCFDFE"/>
</g>
<g style="mix-blend-mode:multiply" opacity="0.5">
<path d="M331.004 486.276C413.327 485.816 480.013 476.465 479.951 465.39C479.889 454.315 413.103 445.711 330.78 446.171C248.457 446.632 181.771 455.983 181.833 467.058C181.894 478.133 248.68 486.737 331.004 486.276Z" fill="#FCFDFE"/>
</g>
<g style="mix-blend-mode:multiply" opacity="0.5">
<path d="M330.459 486.179C412.439 485.72 478.846 476.416 478.784 465.397C478.723 454.378 412.216 445.817 330.237 446.275C248.258 446.734 181.851 456.038 181.912 467.058C181.973 478.077 248.48 486.638 330.459 486.179Z" fill="#FCFDFE"/>
</g>
<g style="mix-blend-mode:multiply" opacity="0.5">
<path d="M329.918 486.101C411.552 485.645 477.681 476.378 477.62 465.403C477.559 454.428 411.331 445.902 329.696 446.359C248.061 446.815 181.932 456.082 181.994 467.057C182.055 478.031 248.283 486.558 329.918 486.101Z" fill="#FBFDFE"/>
</g>
<g style="mix-blend-mode:multiply" opacity="0.5">
<path d="M476.489 465.375C476.489 476.307 410.702 485.508 329.417 486.011C248.133 486.515 182.165 477.958 182.105 467.046C182.044 456.133 247.892 446.912 329.196 446.409C410.501 445.906 476.429 454.442 476.489 465.375Z" fill="#FBFDFE"/>
</g>
<g style="mix-blend-mode:multiply" opacity="0.5">
<path d="M328.831 485.966C409.777 485.514 475.348 476.322 475.288 465.436C475.227 454.551 409.557 446.093 328.611 446.546C247.664 446.999 182.093 456.191 182.154 467.076C182.215 477.962 247.884 486.419 328.831 485.966Z" fill="#FBFCFE"/>
</g>
<g style="mix-blend-mode:multiply" opacity="0.5">
<path d="M328.288 485.889C408.89 485.438 474.183 476.284 474.122 465.443C474.062 454.602 408.671 446.179 328.069 446.63C247.466 447.081 182.174 456.235 182.234 467.076C182.295 477.917 247.685 486.34 328.288 485.889Z" fill="#FAFCFE"/>
</g>
<g style="mix-blend-mode:multiply" opacity="0.5">
<path d="M327.745 485.812C408.003 485.363 473.017 476.246 472.957 465.449C472.896 454.653 407.785 446.264 327.527 446.713C247.268 447.162 182.255 456.279 182.315 467.075C182.375 477.872 247.486 486.261 327.745 485.812Z" fill="#FAFCFD"/>
</g>
<g style="mix-blend-mode:multiply" opacity="0.5">
<path d="M327.202 485.714C407.116 485.267 471.851 476.188 471.791 465.436C471.731 454.684 406.899 446.33 326.985 446.777C247.07 447.224 182.336 456.303 182.396 467.055C182.456 477.807 247.288 486.161 327.202 485.714Z" fill="#FAFCFD"/>
</g>
<g style="mix-blend-mode:multiply" opacity="0.5">
<path d="M326.658 485.616C406.24 485.171 470.705 476.139 470.645 465.442C470.585 454.746 406.024 446.435 326.442 446.88C246.861 447.326 182.396 456.358 182.456 467.054C182.515 477.751 247.077 486.061 326.658 485.616Z" fill="#F9FCFD"/>
</g>
<g style="mix-blend-mode:multiply" opacity="0.5">
<path d="M326.115 485.539C405.352 485.096 469.539 476.101 469.479 465.449C469.42 454.797 405.137 446.521 325.9 446.964C246.663 447.407 182.477 456.402 182.536 467.054C182.596 477.706 246.878 485.982 326.115 485.539Z" fill="#F9FBFD"/>
</g>
<g style="mix-blend-mode:multiply" opacity="0.5">
<path d="M325.571 485.461C404.464 485.02 468.372 476.063 468.313 465.455C468.254 454.848 404.25 446.606 325.357 447.048C246.464 447.489 182.557 456.446 182.616 467.054C182.675 477.661 246.678 485.903 325.571 485.461Z" fill="#F8FBFD"/>
</g>
<g style="mix-blend-mode:multiply" opacity="0.5">
<path d="M328.012 482.806C406.562 482.019 470.154 472.818 470.048 462.254C469.943 451.691 406.18 443.766 327.63 444.552C249.08 445.339 185.488 454.54 185.593 465.104C185.699 475.667 249.462 483.593 328.012 482.806Z" fill="#F8FBFD"/>
</g>
<g style="mix-blend-mode:multiply" opacity="0.5">
<path d="M324.487 485.327C402.691 484.889 466.041 476.007 465.983 465.489C465.924 454.97 402.479 446.797 324.274 447.235C246.069 447.672 182.719 456.554 182.778 467.073C182.837 477.592 246.282 485.764 324.487 485.327Z" fill="#F8FAFD"/>
</g>
<g style="mix-blend-mode:multiply" opacity="0.5">
<path d="M464.851 465.435C464.851 475.904 401.837 484.763 323.99 485.186C246.143 485.609 182.948 477.495 182.908 467.066C182.868 456.637 245.902 447.758 323.769 447.315C401.636 446.872 464.791 455.066 464.851 465.435Z" fill="#F7FAFC"/>
</g>
<g style="mix-blend-mode:multiply" opacity="0.5">
<path d="M323.4 485.131C400.916 484.698 463.709 475.9 463.65 465.481C463.592 455.063 400.706 446.968 323.189 447.402C245.673 447.836 182.88 456.633 182.938 467.052C182.996 477.471 245.883 485.565 323.4 485.131Z" fill="#F7FAFC"/>
</g>
<g style="mix-blend-mode:multiply" opacity="0.5">
<path d="M322.857 485.054C400.029 484.622 462.543 475.862 462.485 465.488C462.427 455.114 399.82 447.054 322.647 447.485C245.475 447.917 182.961 456.677 183.019 467.051C183.077 477.425 245.684 485.485 322.857 485.054Z" fill="#F6FAFC"/>
</g>
<g style="mix-blend-mode:multiply" opacity="0.5">
<path d="M461.374 465.455C461.374 475.783 399.185 484.521 322.363 484.944C245.54 485.367 183.19 477.354 183.13 467.025C183.07 456.697 245.319 447.979 322.142 447.536C398.964 447.093 461.314 455.066 461.374 465.455Z" fill="#F6F9FC"/>
</g>
<g style="mix-blend-mode:multiply" opacity="0.5">
<path d="M321.79 484.899C398.274 484.471 460.231 475.786 460.173 465.501C460.116 455.216 398.067 447.225 321.583 447.653C245.098 448.08 183.142 456.765 183.2 467.05C183.257 477.335 245.306 485.326 321.79 484.899Z" fill="#F5F9FC"/>
</g>
<g style="mix-blend-mode:multiply" opacity="0.5">
<path d="M321.247 484.821C397.398 484.395 459.084 475.748 459.027 465.507C458.97 455.266 397.191 447.31 321.04 447.736C244.889 448.162 183.203 456.809 183.26 467.05C183.317 477.291 245.096 485.247 321.247 484.821Z" fill="#F5F9FC"/>
</g>
<g style="mix-blend-mode:multiply" opacity="0.5">
<path d="M320.704 484.764C396.511 484.34 457.919 475.73 457.862 465.534C457.805 455.338 396.305 447.416 320.498 447.84C244.691 448.264 183.283 456.873 183.34 467.07C183.397 477.266 244.897 485.188 320.704 484.764Z" fill="#F4F9FC"/>
</g>
<g style="mix-blend-mode:multiply" opacity="0.5">
<path d="M320.161 484.666C395.624 484.244 456.753 475.672 456.696 465.52C456.64 455.368 395.419 447.481 319.956 447.903C244.493 448.325 183.364 456.897 183.421 467.049C183.477 477.201 244.698 485.088 320.161 484.666Z" fill="#F4F8FB"/>
</g>
<g style="mix-blend-mode:multiply" opacity="0.5">
<path d="M319.617 484.569C394.736 484.148 455.586 475.623 455.53 465.527C455.473 455.431 394.532 447.587 319.413 448.007C244.294 448.427 183.444 456.952 183.5 467.049C183.557 477.145 244.498 484.989 319.617 484.569Z" fill="#F3F8FB"/>
</g>
<g style="mix-blend-mode:multiply" opacity="0.5">
<path d="M319.075 484.491C393.85 484.073 454.421 475.585 454.365 465.533C454.309 455.482 393.647 447.672 318.872 448.09C244.097 448.509 183.526 456.996 183.582 467.048C183.638 477.1 244.3 484.909 319.075 484.491Z" fill="#F3F8FB"/>
</g>
<g style="mix-blend-mode:multiply" opacity="0.5">
<path d="M318.531 484.413C392.961 483.997 453.254 475.547 453.198 465.54C453.143 455.533 392.759 447.758 318.329 448.174C243.898 448.59 183.606 457.04 183.662 467.048C183.717 477.055 244.1 484.83 318.531 484.413Z" fill="#F2F7FB"/>
</g>
<g style="mix-blend-mode:multiply" opacity="0.5">
<path d="M317.988 484.336C392.074 483.921 452.088 475.509 452.033 465.546C451.977 455.584 391.873 447.843 317.787 448.258C243.7 448.672 183.687 457.084 183.742 467.047C183.798 477.01 243.902 484.75 317.988 484.336Z" fill="#F2F7FB"/>
</g>
<g style="mix-blend-mode:multiply" opacity="0.5">
<path d="M450.901 465.516C450.901 475.421 391.224 483.817 317.477 484.22C243.731 484.622 183.812 476.931 183.812 467.026C183.812 457.12 243.489 448.724 317.236 448.322C390.983 447.919 450.841 455.59 450.901 465.516Z" fill="#F1F7FB"/>
</g>
<g style="mix-blend-mode:multiply" opacity="0.5">
<path d="M316.901 484.201C390.299 483.791 449.756 475.453 449.701 465.58C449.646 455.706 390.1 448.034 316.702 448.445C243.304 448.856 183.847 457.193 183.902 467.067C183.957 476.94 243.503 484.612 316.901 484.201Z" fill="#F1F6FA"/>
</g>
<g style="mix-blend-mode:multiply" opacity="0.5">
<path d="M319.336 481.564C392.391 480.832 451.534 472.27 451.436 462.441C451.338 452.611 392.035 445.236 318.98 445.968C245.925 446.7 186.782 455.261 186.88 465.091C186.978 474.92 246.28 482.295 319.336 481.564Z" fill="#F0F6FA"/>
</g>
<g style="mix-blend-mode:multiply" opacity="0.5">
<path d="M447.404 465.536C447.404 475.32 388.552 483.656 315.85 483.978C243.148 484.3 184.135 476.79 184.074 467.026C184.014 457.261 242.927 448.905 315.649 448.563C388.371 448.221 447.344 455.751 447.404 465.536Z" fill="#F0F6FA"/>
</g>
<g style="mix-blend-mode:multiply" opacity="0.5">
<path d="M446.238 465.536C446.238 475.28 387.667 483.495 315.307 483.897C242.947 484.3 184.215 476.75 184.154 467.026C184.094 457.301 242.726 449.067 315.106 448.664C387.486 448.261 446.198 455.811 446.238 465.536Z" fill="#EFF5FA"/>
</g>
<g style="mix-blend-mode:multiply" opacity="0.5">
<path d="M445.113 465.536C445.113 475.24 386.823 483.414 314.805 483.817C242.787 484.219 184.336 476.71 184.275 467.026C184.215 457.341 242.565 449.147 314.604 448.744C386.642 448.342 445.113 455.852 445.113 465.536Z" fill="#EEF5FA"/>
</g>
<g style="mix-blend-mode:multiply" opacity="0.5">
<path d="M443.927 465.556C443.927 475.2 385.898 483.334 314.222 483.676C242.545 484.018 184.376 476.589 184.315 466.965C184.255 457.342 242.324 449.167 314.021 448.845C385.717 448.523 443.867 455.912 443.927 465.556Z" fill="#EEF5FA"/>
</g>
<g style="mix-blend-mode:multiply" opacity="0.5">
<path d="M313.643 483.696C384.987 483.297 442.78 475.194 442.727 465.598C442.673 456.003 384.794 448.547 313.449 448.946C242.105 449.345 184.312 457.448 184.365 467.044C184.419 476.64 242.298 484.095 313.643 483.696Z" fill="#EDF4F9"/>
</g>
<g style="mix-blend-mode:multiply" opacity="0.5">
<path d="M441.595 465.556C441.595 475.119 384.129 483.173 313.136 483.676C242.143 484.179 184.496 476.669 184.496 467.126C184.496 457.583 241.962 449.51 312.955 449.107C383.948 448.704 441.535 456.013 441.595 465.556Z" fill="#EDF4F9"/>
</g>
<g style="mix-blend-mode:multiply" opacity="0.5">
<path d="M312.557 483.541C383.213 483.146 440.449 475.118 440.396 465.611C440.343 456.105 383.021 448.718 312.365 449.113C241.709 449.509 184.474 457.536 184.527 467.043C184.58 476.55 241.901 483.936 312.557 483.541Z" fill="#ECF3F9"/>
</g>
<g style="mix-blend-mode:multiply" opacity="0.5">
<path d="M312.014 483.443C382.326 483.05 439.283 475.069 439.23 465.618C439.177 456.167 382.135 448.824 311.823 449.217C241.511 449.611 184.554 457.591 184.607 467.043C184.66 476.494 241.702 483.837 312.014 483.443Z" fill="#EBF3F9"/>
</g>
<g style="mix-blend-mode:multiply" opacity="0.5">
<path d="M438.099 465.576C438.099 474.998 381.477 482.951 311.469 483.333C241.46 483.716 184.718 476.428 184.678 467.005C184.638 457.583 241.299 449.65 311.308 449.268C381.316 448.885 438.058 456.174 438.099 465.576Z" fill="#EBF3F9"/>
</g>
<g style="mix-blend-mode:multiply" opacity="0.5">
<path d="M436.932 465.596C436.932 474.958 380.652 482.87 310.966 483.253C241.279 483.635 184.838 476.387 184.798 467.005C184.758 457.623 241.078 449.751 310.765 449.348C380.451 448.946 436.892 456.234 436.932 465.596Z" fill="#EAF2F8"/>
</g>
<g style="mix-blend-mode:multiply" opacity="0.5">
<path d="M310.384 483.211C379.675 482.823 435.804 474.955 435.752 465.637C435.7 456.319 379.487 449.08 310.196 449.468C240.905 449.855 184.776 457.723 184.827 467.041C184.879 476.359 241.093 483.598 310.384 483.211Z" fill="#EAF2F8"/>
</g>
<g style="mix-blend-mode:multiply" opacity="0.5">
<path d="M309.841 483.133C378.788 482.748 434.638 474.917 434.586 465.644C434.535 456.371 378.6 449.166 309.654 449.551C240.707 449.937 184.856 457.767 184.908 467.041C184.96 476.314 240.894 483.519 309.841 483.133Z" fill="#E9F2F8"/>
</g>
<g style="mix-blend-mode:multiply" opacity="0.5">
<path d="M433.456 465.616C433.456 474.837 377.939 482.629 309.338 483.011C240.737 483.394 185.08 476.247 185.02 467.005C184.959 457.764 240.536 449.993 309.137 449.61C377.738 449.228 433.395 456.375 433.456 465.616Z" fill="#E8F1F8"/>
</g>
<g style="mix-blend-mode:multiply" opacity="0.5">
<path d="M432.289 465.616C432.289 474.797 377.055 482.548 308.795 482.931C240.535 483.313 185.16 476.186 185.1 467.005C185.039 457.825 240.334 450.073 308.594 449.691C376.854 449.308 432.229 456.435 432.289 465.616Z" fill="#E8F1F7"/>
</g>
<g style="mix-blend-mode:multiply" opacity="0.5">
<path d="M308.212 482.881C376.126 482.501 431.14 474.792 431.09 465.664C431.039 456.535 375.942 449.442 308.027 449.822C240.113 450.202 185.099 457.911 185.15 467.039C185.201 476.168 240.297 483.261 308.212 482.881Z" fill="#E7F0F7"/>
</g>
<g style="mix-blend-mode:multiply" opacity="0.5">
<path d="M307.668 482.803C375.238 482.425 429.974 474.754 429.923 465.67C429.872 456.586 375.055 449.528 307.484 449.906C239.914 450.284 185.179 457.955 185.229 467.039C185.28 476.123 240.098 483.181 307.668 482.803Z" fill="#E6F0F7"/>
</g>
<g style="mix-blend-mode:multiply" opacity="0.5">
<path d="M310.095 480.227C377.323 479.553 431.748 471.679 431.658 462.639C431.567 453.599 376.996 446.817 309.769 447.49C242.541 448.163 188.116 456.038 188.206 465.078C188.297 474.118 242.868 480.9 310.095 480.227Z" fill="#E6EFF7"/>
</g>
<g style="mix-blend-mode:multiply" opacity="0.5">
<path d="M306.582 482.648C373.464 482.274 427.642 474.678 427.592 465.683C427.542 456.688 373.282 449.699 306.4 450.073C239.518 450.447 185.34 458.043 185.391 467.038C185.441 476.033 239.7 483.022 306.582 482.648Z" fill="#E5EFF7"/>
</g>
<g style="mix-blend-mode:multiply" opacity="0.5">
<path d="M306.039 482.55C372.577 482.178 426.476 474.62 426.426 465.669C426.376 456.718 372.396 449.764 305.858 450.136C239.32 450.509 185.421 458.066 185.471 467.017C185.521 475.968 239.501 482.923 306.039 482.55Z" fill="#E4EFF6"/>
</g>
<g style="mix-blend-mode:multiply" opacity="0.5">
<path d="M305.496 482.473C371.69 482.103 425.31 474.582 425.261 465.676C425.211 456.769 371.51 449.85 305.316 450.22C239.123 450.59 185.502 458.111 185.552 467.017C185.601 475.923 239.302 482.843 305.496 482.473Z" fill="#E4EEF6"/>
</g>
<g style="mix-blend-mode:multiply" opacity="0.5">
<path d="M424.149 465.656C424.149 474.515 370.843 482.005 304.996 482.367C239.148 482.73 185.702 475.864 185.662 467.005C185.622 458.147 238.947 450.677 304.815 450.295C370.683 449.912 424.088 456.798 424.149 465.656Z" fill="#E3EEF6"/>
</g>
<g style="mix-blend-mode:multiply" opacity="0.5">
<path d="M423.003 465.656C423.003 474.475 369.979 481.924 304.413 482.286C238.847 482.649 185.823 475.824 185.702 467.005C185.582 458.187 238.706 450.758 304.292 450.375C369.879 449.993 423.003 456.858 423.003 465.656Z" fill="#E2EDF6"/>
</g>
<g style="mix-blend-mode:multiply" opacity="0.5">
<path d="M303.867 482.24C369.039 481.876 421.832 474.477 421.784 465.715C421.735 456.954 368.862 450.146 303.69 450.511C238.517 450.875 185.724 458.274 185.773 467.036C185.822 475.798 238.694 482.605 303.867 482.24Z" fill="#E1EDF6"/>
</g>
<g style="mix-blend-mode:multiply" opacity="0.5">
<path d="M420.651 465.677C420.651 474.395 368.19 481.784 303.367 482.126C238.545 482.468 185.943 475.723 185.883 467.006C185.823 458.288 238.364 450.899 303.186 450.557C368.009 450.214 420.611 456.959 420.651 465.677Z" fill="#E1ECF5"/>
</g>
<g style="mix-blend-mode:multiply" opacity="0.5">
<path d="M419.485 465.677C419.485 474.354 367.225 481.783 302.905 482.045C238.585 482.307 186.104 475.683 186.044 467.006C185.984 458.328 238.304 451 302.725 450.637C367.145 450.275 419.445 457.08 419.485 465.677Z" fill="#E0ECF5"/>
</g>
<g style="mix-blend-mode:multiply" opacity="0.5">
<path d="M418.32 465.697C418.32 474.314 366.421 481.602 302.282 481.964C238.143 482.327 186.104 475.622 186.044 467.005C185.984 458.388 237.962 451.1 302.101 450.738C366.241 450.375 418.279 457.08 418.32 465.697Z" fill="#DFECF5"/>
</g>
<g style="mix-blend-mode:multiply" opacity="0.5">
<path d="M417.154 465.697C417.154 474.274 365.538 481.522 301.74 481.804C237.943 482.085 186.185 475.502 186.125 466.925C186.065 458.348 237.762 451.1 301.559 450.818C365.357 450.536 417.114 457.08 417.154 465.697Z" fill="#DFEBF5"/>
</g>
<g style="mix-blend-mode:multiply" opacity="0.5">
<path d="M301.151 481.833C364.603 481.478 416.002 474.276 415.955 465.748C415.907 457.22 364.431 450.594 300.979 450.949C237.527 451.304 186.127 458.505 186.175 467.034C186.223 475.562 237.699 482.188 301.151 481.833Z" fill="#DEEBF4"/>
</g>
<g style="mix-blend-mode:multiply" opacity="0.5">
<path d="M300.608 481.756C363.716 481.402 414.836 474.239 414.789 465.755C414.742 457.271 363.544 450.68 300.437 451.033C237.329 451.386 186.208 458.549 186.256 467.033C186.303 475.517 237.5 482.109 300.608 481.756Z" fill="#DDEAF4"/>
</g>
<g style="mix-blend-mode:multiply" opacity="0.5">
<path d="M413.677 465.717C413.677 474.153 362.864 481.28 300.112 481.642C237.36 482.005 186.406 475.441 186.366 467.005C186.326 458.57 237.159 451.422 299.931 451.08C362.703 450.738 413.617 457.281 413.677 465.717Z" fill="#DCEAF4"/>
</g>
<g style="mix-blend-mode:multiply" opacity="0.5">
<path d="M299.522 481.601C361.952 481.251 412.524 474.163 412.477 465.768C412.431 457.373 361.783 450.85 299.352 451.2C236.922 451.549 186.349 458.637 186.396 467.032C186.443 475.427 237.091 481.95 299.522 481.601Z" fill="#DCE9F4"/>
</g>
<g style="mix-blend-mode:multiply" opacity="0.5">
<path d="M298.978 481.503C361.064 481.156 411.358 474.105 411.311 465.754C411.264 457.404 360.896 450.916 298.809 451.263C236.723 451.611 186.429 458.661 186.476 467.012C186.522 475.362 236.891 481.85 298.978 481.503Z" fill="#DBE9F3"/>
</g>
<g style="mix-blend-mode:multiply" opacity="0.5">
<path d="M410.18 465.737C410.18 474.032 360.211 481.058 298.484 481.401C236.757 481.743 186.648 475.361 186.607 467.005C186.567 458.65 236.576 451.684 298.303 451.342C360.03 450.999 410.14 457.422 410.18 465.737Z" fill="#DAE8F3"/>
</g>
<g style="mix-blend-mode:multiply" opacity="0.5">
<path d="M408.934 465.737C408.934 473.992 359.246 480.978 297.861 481.32C236.476 481.662 186.648 475.28 186.607 467.005C186.567 458.731 236.295 451.765 297.68 451.422C359.065 451.08 408.934 457.482 408.934 465.737Z" fill="#D9E8F3"/>
</g>
<g style="mix-blend-mode:multiply" opacity="0.5">
<path d="M297.349 481.25C358.403 480.909 407.86 473.979 407.814 465.774C407.768 457.568 358.237 451.192 297.183 451.534C236.129 451.875 186.672 458.805 186.718 467.01C186.763 475.216 236.295 481.592 297.349 481.25Z" fill="#D8E7F3"/>
</g>
<g style="mix-blend-mode:multiply" opacity="0.5">
<path d="M296.806 481.193C357.516 480.853 406.694 473.962 406.649 465.8C406.603 457.639 357.351 451.298 296.641 451.637C235.931 451.977 186.753 458.869 186.798 467.03C186.844 475.192 236.096 481.532 296.806 481.193Z" fill="#D8E7F2"/>
</g>
<g style="mix-blend-mode:multiply" opacity="0.5">
<path d="M405.536 465.757C405.536 473.81 356.673 480.736 296.313 481.079C235.952 481.421 186.969 475.039 186.908 466.985C186.848 458.932 235.771 452.026 296.132 451.684C356.492 451.342 405.476 457.643 405.536 465.757Z" fill="#D7E6F2"/>
</g>
<g style="mix-blend-mode:multiply" opacity="0.5">
<path d="M404.37 465.757C404.37 473.811 355.788 480.656 295.83 480.998C235.872 481.34 187.109 475.059 187.049 466.905C186.989 458.751 235.631 452.026 295.589 451.684C355.547 451.342 404.31 457.684 404.37 465.757Z" fill="#D6E6F2"/>
</g>
<g style="mix-blend-mode:multiply" opacity="0.5">
<path d="M295.197 480.94C354.874 480.606 403.216 473.828 403.171 465.799C403.127 457.771 354.712 451.534 295.034 451.868C235.357 452.202 187.015 458.98 187.06 467.008C187.104 475.037 235.519 481.274 295.197 480.94Z" fill="#D5E5F2"/>
</g>
<g style="mix-blend-mode:multiply" opacity="0.5">
<path d="M402.039 465.777C402.039 473.831 354.02 480.495 294.684 480.837C235.349 481.179 187.19 474.978 187.149 466.985C187.109 458.992 235.168 452.268 294.504 451.946C353.839 451.624 401.998 457.804 402.039 465.777Z" fill="#D4E5F1"/>
</g>
<g style="mix-blend-mode:multiply" opacity="0.5">
<path d="M400.893 465.777C400.893 473.71 353.155 480.414 294.162 480.757C235.168 481.099 187.29 474.918 187.25 466.985C187.21 459.053 234.988 452.348 294.001 452.026C353.015 451.704 400.893 457.845 400.893 465.777Z" fill="#D4E4F1"/>
</g>
<g style="mix-blend-mode:multiply" opacity="0.5">
<path d="M293.567 480.687C352.223 480.359 399.738 473.702 399.694 465.819C399.65 457.935 352.064 451.811 293.408 452.139C234.752 452.467 187.237 459.124 187.281 467.007C187.325 474.891 234.911 481.016 293.567 480.687Z" fill="#D3E4F1"/>
</g>
<g style="mix-blend-mode:multiply" opacity="0.5">
<path d="M293.023 480.63C351.335 480.304 398.571 473.685 398.528 465.846C398.484 458.007 351.177 451.916 292.865 452.243C234.553 452.569 187.317 459.188 187.36 467.027C187.404 474.866 234.711 480.956 293.023 480.63Z" fill="#D2E3F0"/>
</g>
<g style="mix-blend-mode:multiply" opacity="0.5">
<path d="M292.481 480.553C350.449 480.228 397.407 473.647 397.363 465.852C397.32 458.058 350.292 452.002 292.324 452.326C234.356 452.65 187.399 459.232 187.442 467.027C187.485 474.821 234.513 480.877 292.481 480.553Z" fill="#D1E3F0"/>
</g>
<g style="mix-blend-mode:multiply" opacity="0.5">
<path d="M291.937 480.475C349.561 480.153 396.24 473.609 396.197 465.859C396.153 458.109 349.405 452.087 291.781 452.41C234.157 452.732 187.478 459.276 187.522 467.026C187.565 474.776 234.313 480.798 291.937 480.475Z" fill="#D0E2F0"/>
</g>
<g style="mix-blend-mode:multiply" opacity="0.5">
<path d="M395.064 465.818C395.064 473.509 348.693 480.032 291.428 480.354C234.163 480.676 187.672 474.697 187.632 466.985C187.592 459.274 233.982 452.771 291.267 452.449C348.552 452.127 395.024 458.107 395.064 465.818Z" fill="#CFE2F0"/>
</g>
<g style="mix-blend-mode:multiply" opacity="0.5">
<path d="M290.851 480.3C347.787 479.981 393.908 473.513 393.865 465.851C393.823 458.19 347.632 452.238 290.697 452.557C233.761 452.875 187.64 459.344 187.683 467.005C187.726 474.666 233.916 480.618 290.851 480.3Z" fill="#CEE1EF"/>
</g>
<g style="mix-blend-mode:multiply" opacity="0.5">
<path d="M392.732 465.838C392.732 473.448 346.924 479.931 290.343 480.193C233.762 480.454 187.833 474.596 187.833 466.985C187.833 459.375 233.641 452.892 290.343 452.63C347.045 452.369 392.692 458.227 392.732 465.838Z" fill="#CEE1EF"/>
</g>
<g style="mix-blend-mode:multiply" opacity="0.5">
<path d="M289.765 480.125C346.013 479.81 391.576 473.426 391.534 465.865C391.492 458.304 345.86 452.429 289.613 452.744C233.365 453.059 187.802 459.443 187.844 467.004C187.886 474.565 233.518 480.44 289.765 480.125Z" fill="#CDE0EF"/>
</g>
<g style="mix-blend-mode:multiply" opacity="0.5">
<path d="M289.222 480.068C345.137 479.755 390.43 473.408 390.388 465.891C390.346 458.375 344.985 452.535 289.07 452.848C233.156 453.16 187.862 459.507 187.904 467.024C187.946 474.541 233.308 480.38 289.222 480.068Z" fill="#CCE0EF"/>
</g>
<g style="mix-blend-mode:multiply" opacity="0.5">
<path d="M288.679 479.99C344.249 479.679 389.264 473.37 389.223 465.898C389.181 458.426 344.099 452.62 288.528 452.931C232.958 453.242 187.943 459.551 187.985 467.024C188.026 474.496 233.109 480.301 288.679 479.99Z" fill="#CBDFEE"/>
</g>
<g style="mix-blend-mode:multiply" opacity="0.5">
<path d="M288.135 479.892C343.361 479.583 388.098 473.312 388.056 465.884C388.015 458.456 343.211 452.686 287.985 452.995C232.759 453.303 188.023 459.575 188.064 467.003C188.106 474.43 232.909 480.201 288.135 479.892Z" fill="#CADFEE"/>
</g>
<g style="mix-blend-mode:multiply" opacity="0.5">
<path d="M386.924 465.858C386.924 473.247 342.503 479.468 287.63 479.79C232.757 480.112 188.215 474.354 188.175 466.985C188.135 459.617 232.596 453.375 287.469 453.053C342.342 452.731 386.823 458.489 386.924 465.858Z" fill="#C9DEEE"/>
</g>
<g style="mix-blend-mode:multiply" opacity="0.5">
<path d="M385.757 465.858C385.757 473.206 341.537 479.387 287.087 479.709C232.636 480.032 188.295 474.314 188.255 466.985C188.215 459.657 232.475 453.456 286.926 453.154C341.377 452.852 385.717 458.529 385.757 465.858Z" fill="#C8DEED"/>
</g>
<g style="mix-blend-mode:multiply" opacity="0.5">
<path d="M286.506 479.64C340.7 479.337 384.6 473.187 384.559 465.904C384.519 458.621 340.553 452.962 286.359 453.265C232.165 453.569 188.265 459.719 188.306 467.002C188.347 474.285 232.312 479.943 286.506 479.64Z" fill="#C7DDED"/>
</g>
<g style="mix-blend-mode:multiply" opacity="0.5">
<path d="M285.963 479.562C339.813 479.261 383.434 473.149 383.394 465.91C383.353 458.672 339.667 453.048 285.817 453.349C231.967 453.65 188.346 459.763 188.387 467.001C188.427 474.24 232.113 479.863 285.963 479.562Z" fill="#C6DCED"/>
</g>
<g style="mix-blend-mode:multiply" opacity="0.5">
<path d="M382.26 465.878C382.26 473.086 338.965 479.166 285.459 479.468C231.952 479.77 188.536 474.173 188.496 466.985C188.456 459.798 231.791 453.697 285.298 453.395C338.804 453.093 382.22 458.69 382.26 465.878Z" fill="#C6DCED"/>
</g>
<g style="mix-blend-mode:multiply" opacity="0.5">
<path d="M381.094 465.898C381.094 473.045 338.08 479.085 284.915 479.387C231.751 479.689 188.616 474.133 188.576 466.985C188.536 459.838 231.59 453.798 284.755 453.496C337.919 453.194 381.054 458.751 381.094 465.898Z" fill="#C5DBEC"/>
</g>
<g style="mix-blend-mode:multiply" opacity="0.5">
<path d="M284.333 479.33C337.151 479.034 379.936 473.035 379.896 465.93C379.856 458.825 337.007 453.304 284.19 453.6C231.373 453.895 188.588 459.895 188.627 467C188.667 474.105 231.516 479.625 284.333 479.33Z" fill="#C4DBEC"/>
</g>
<g style="mix-blend-mode:multiply" opacity="0.5">
<path d="M378.783 465.898C378.783 472.965 336.312 478.924 283.851 479.226C231.39 479.528 188.778 474.032 188.758 466.985C188.738 459.939 231.209 453.959 283.69 453.657C336.171 453.355 378.783 458.852 378.783 465.898Z" fill="#C3DAEC"/>
</g>
<g style="mix-blend-mode:multiply" opacity="0.5">
<path d="M377.618 465.918C377.618 472.925 335.408 478.844 283.288 479.146C231.169 479.448 188.818 473.992 188.818 467.066C188.818 460.14 231.028 454.12 283.148 453.838C335.267 453.556 377.577 458.892 377.618 465.918Z" fill="#C2DAEB"/>
</g>
<g style="mix-blend-mode:multiply" opacity="0.5">
<path d="M285.657 476.686C337.454 476.167 379.388 470.104 379.318 463.143C379.249 456.182 337.203 450.96 285.406 451.479C233.609 451.998 191.675 458.061 191.745 465.022C191.814 471.983 233.86 477.205 285.657 476.686Z" fill="#C1D9EB"/>
</g>
<g style="mix-blend-mode:multiply" opacity="0.5">
<path d="M282.161 479C333.613 478.712 375.292 472.872 375.253 465.956C375.215 459.04 333.473 453.666 282.021 453.954C230.569 454.242 188.891 460.082 188.929 466.998C188.968 473.914 230.709 479.287 282.161 479Z" fill="#C0D8EB"/>
</g>
<g style="mix-blend-mode:multiply" opacity="0.5">
<path d="M374.12 465.918C374.12 472.804 332.754 478.602 281.66 478.904C230.566 479.206 189.079 473.851 189.039 466.965C188.999 460.08 230.405 454.301 281.499 453.999C332.593 453.697 374.08 459.093 374.12 465.918Z" fill="#BFD8EA"/>
</g>
<g style="mix-blend-mode:multiply" opacity="0.5">
<path d="M281.074 478.845C331.838 478.561 372.959 472.796 372.921 465.969C372.883 459.142 331.7 453.837 280.936 454.121C230.173 454.405 189.051 460.17 189.089 466.997C189.128 473.824 230.31 479.129 281.074 478.845Z" fill="#BED7EA"/>
</g>
<g style="mix-blend-mode:multiply" opacity="0.5">
<path d="M371.789 465.938C371.789 472.723 330.986 478.441 280.575 478.743C230.164 479.045 189.24 473.75 189.2 466.965C189.16 460.18 230.003 454.462 280.434 454.181C330.865 453.899 371.748 459.093 371.789 465.938Z" fill="#BDD7EA"/>
</g>
<g style="mix-blend-mode:multiply" opacity="0.5">
<path d="M279.988 478.69C330.064 478.41 370.628 472.72 370.59 465.982C370.552 459.244 329.928 454.008 279.852 454.288C229.777 454.569 189.213 460.258 189.251 466.996C189.288 473.735 229.913 478.97 279.988 478.69Z" fill="#BCD6E9"/>
</g>
<g style="mix-blend-mode:multiply" opacity="0.5">
<path d="M369.456 465.958C369.456 472.643 329.256 478.3 279.489 478.582C229.721 478.864 189.401 473.649 189.36 466.965C189.32 460.281 229.56 454.623 279.348 454.362C329.136 454.1 369.416 459.274 369.456 465.958Z" fill="#BBD5E9"/>
</g>
<g style="mix-blend-mode:multiply" opacity="0.5">
<path d="M368.29 465.959C368.29 472.603 328.331 478.22 278.946 478.482C229.56 478.743 189.481 473.609 189.44 466.965C189.4 460.321 229.399 454.724 278.805 454.442C328.211 454.161 368.27 459.315 368.29 465.959Z" fill="#BAD5E9"/>
</g>
<g style="mix-blend-mode:multiply" opacity="0.5">
<path d="M278.359 478.437C327.413 478.163 367.15 472.595 367.113 466.001C367.076 459.408 327.28 454.285 278.226 454.559C229.172 454.834 189.435 460.401 189.472 466.995C189.509 473.589 229.305 478.711 278.359 478.437Z" fill="#B9D4E9"/>
</g>
<g style="mix-blend-mode:multiply" opacity="0.5">
<path d="M277.815 478.359C326.525 478.087 365.983 472.557 365.946 466.008C365.91 459.458 326.393 454.37 277.683 454.643C228.973 454.915 189.515 460.445 189.551 466.994C189.588 473.544 229.105 478.632 277.815 478.359Z" fill="#B8D4E8"/>
</g>
<g style="mix-blend-mode:multiply" opacity="0.5">
<path d="M364.813 465.979C364.813 472.482 325.678 478.059 277.298 478.24C228.917 478.421 189.702 473.468 189.682 466.965C189.662 460.462 228.816 454.885 277.177 454.704C325.538 454.523 364.712 459.476 364.813 465.979Z" fill="#B7D3E8"/>
</g>
<g style="mix-blend-mode:multiply" opacity="0.5">
<path d="M363.647 465.979C363.647 472.441 324.794 477.898 276.755 478.159C228.716 478.421 189.843 473.428 189.843 466.965C189.843 460.502 228.716 455.046 276.735 454.784C324.754 454.523 363.607 459.536 363.647 465.979Z" fill="#B6D2E8"/>
</g>
<g style="mix-blend-mode:multiply" opacity="0.5">
<path d="M276.186 478.127C323.864 477.86 362.485 472.443 362.45 466.027C362.414 459.612 323.734 454.627 276.057 454.894C228.379 455.16 189.758 460.578 189.793 466.993C189.829 473.409 228.508 478.394 276.186 478.127Z" fill="#B5D2E7"/>
</g>
<g style="mix-blend-mode:multiply" opacity="0.5">
<path d="M361.316 465.999C361.316 472.361 323.006 477.737 275.67 478.079C228.335 478.421 189.944 473.408 189.903 467.046C189.863 460.684 228.214 455.308 275.549 454.966C322.885 454.623 361.276 459.637 361.316 465.999Z" fill="#B4D1E7"/>
</g>
<g style="mix-blend-mode:multiply" opacity="0.5">
<path d="M275.1 477.952C322.09 477.689 360.154 472.356 360.118 466.041C360.083 459.725 321.962 454.818 274.973 455.081C227.983 455.344 189.919 460.677 189.954 466.993C189.99 473.308 228.111 478.215 275.1 477.952Z" fill="#B3D1E7"/>
</g>
<g style="mix-blend-mode:multiply" opacity="0.5">
<path d="M358.985 466.019C358.985 472.28 321.237 477.575 274.565 477.837C227.892 478.099 190.145 473.247 190.044 466.965C189.944 460.684 227.792 455.389 274.464 455.127C321.136 454.865 358.965 459.737 358.985 466.019Z" fill="#B2D0E6"/>
</g>
<g style="mix-blend-mode:multiply" opacity="0.5">
<path d="M357.839 466.019C357.839 472.24 320.352 477.495 274.042 477.757C227.732 478.018 190.185 473.186 190.145 466.965C190.104 460.744 227.611 455.469 273.921 455.207C320.232 454.946 357.799 459.798 357.839 466.019Z" fill="#B1CFE6"/>
</g>
<g style="mix-blend-mode:multiply" opacity="0.5">
<path d="M356.673 466.019C356.673 472.2 319.468 477.414 273.499 477.676C227.53 477.938 190.265 473.146 190.225 466.965C190.184 460.784 227.43 455.57 273.378 455.308C319.327 455.046 356.673 459.838 356.673 466.019Z" fill="#B0CFE6"/>
</g>
<g style="mix-blend-mode:multiply" opacity="0.5">
<path d="M355.508 466.019C355.508 472.16 318.584 477.354 272.957 477.596C227.33 477.837 190.346 473.106 190.306 466.965C190.265 460.825 227.229 455.65 272.836 455.389C318.443 455.127 355.467 459.899 355.508 466.019Z" fill="#AFCEE5"/>
</g>
<g style="mix-blend-mode:multiply" opacity="0.5">
<path d="M354.341 466.039C354.341 472.079 317.699 477.273 272.414 477.515C227.129 477.756 190.426 473.045 190.386 466.965C190.346 460.885 227.028 455.731 272.293 455.469C317.558 455.207 354.301 459.938 354.341 466.039Z" fill="#AECDE5"/>
</g>
<g style="mix-blend-mode:multiply" opacity="0.5">
<path d="M353.175 466.039C353.175 472.079 316.814 477.193 271.871 477.435C226.927 477.676 190.486 473.005 190.466 466.965C190.446 460.925 226.827 455.811 271.75 455.57C316.674 455.328 353.135 459.999 353.175 466.039Z" fill="#ADCDE5"/>
</g>
<g style="mix-blend-mode:multiply" opacity="0.5">
<path d="M271.298 477.389C315.89 477.14 352.011 472.079 351.978 466.086C351.944 460.093 315.769 455.436 271.177 455.686C226.585 455.935 190.464 460.996 190.497 466.989C190.53 472.982 226.706 477.639 271.298 477.389Z" fill="#ACCCE4"/>
</g>
<g style="mix-blend-mode:multiply" opacity="0.5">
<path d="M350.844 466.059C350.844 472.099 315.046 477.032 270.786 477.273C226.526 477.515 190.647 472.904 190.627 466.965C190.607 461.026 226.425 455.993 270.665 455.731C314.905 455.469 350.824 460.1 350.844 466.059Z" fill="#ABCCE4"/>
</g>
<g style="mix-blend-mode:multiply" opacity="0.5">
<path d="M349.678 466.059C349.678 471.958 314.161 476.951 270.242 477.193C226.324 477.434 190.727 472.864 190.687 466.965C190.646 461.066 226.223 456.073 270.122 455.811C314.02 455.549 349.657 460.16 349.678 466.059Z" fill="#AACBE4"/>
</g>
<g style="mix-blend-mode:multiply" opacity="0.5">
<path d="M348.633 466.059C348.633 471.918 313.378 476.871 269.801 477.112C226.224 477.354 190.908 472.824 190.868 467.046C190.828 461.268 226.124 456.234 269.7 455.993C313.277 455.751 348.492 460.2 348.633 466.059Z" fill="#A9CAE3"/>
</g>
<g style="mix-blend-mode:multiply" opacity="0.5">
<path d="M269.125 477.079C312.34 476.838 347.347 471.927 347.315 466.112C347.282 460.297 312.223 455.778 269.008 456.02C225.793 456.262 190.786 461.172 190.818 466.988C190.851 472.803 225.91 477.321 269.125 477.079Z" fill="#A8CAE3"/>
</g>
<g style="mix-blend-mode:multiply" opacity="0.5">
<path d="M346.2 466.079C346.2 471.837 311.508 476.71 268.614 476.951C225.721 477.193 190.968 472.723 190.928 466.885C190.888 461.046 225.641 456.234 268.514 455.993C311.387 455.751 346.16 460.321 346.2 466.079Z" fill="#A7C9E3"/>
</g>
<g style="mix-blend-mode:multiply" opacity="0.5">
<path d="M345.035 466.079C345.035 471.797 310.604 476.629 268.072 476.871C225.541 477.112 191.049 472.683 191.009 466.965C190.969 461.247 225.44 456.395 267.972 456.174C310.503 455.952 344.995 460.362 345.035 466.079Z" fill="#A6C8E2"/>
</g>
<g style="mix-blend-mode:multiply" opacity="0.5">
<path d="M343.869 466.099C343.869 471.757 309.699 476.549 267.489 476.79C225.279 477.032 191.109 472.623 191.109 466.945C191.109 461.267 225.279 456.496 267.489 456.254C309.699 456.013 343.829 460.422 343.869 466.099Z" fill="#A4C8E2"/>
</g>
<g style="mix-blend-mode:multiply" opacity="0.5">
<path d="M342.704 466.099C342.704 471.717 308.835 476.488 266.987 476.71C225.139 476.931 191.21 472.582 191.17 466.945C191.13 461.308 225.038 456.576 266.887 456.335C308.735 456.093 342.603 460.462 342.704 466.099Z" fill="#A3C7E2"/>
</g>
<g style="mix-blend-mode:multiply" opacity="0.5">
<path d="M341.538 466.099C341.538 471.676 307.951 476.408 266.444 476.629C224.938 476.851 191.27 472.602 191.25 466.945C191.23 461.288 224.837 456.657 266.344 456.415C307.85 456.174 341.518 460.523 341.538 466.099Z" fill="#A2C6E1"/>
</g>
<g style="mix-blend-mode:multiply" opacity="0.5">
<path d="M340.372 466.12C340.372 471.636 307.066 476.327 265.901 476.549C224.736 476.77 191.35 472.522 191.33 466.945C191.31 461.368 224.636 456.737 265.801 456.516C306.965 456.295 340.352 460.583 340.372 466.12Z" fill="#A1C6E1"/>
</g>
<g style="mix-blend-mode:multiply" opacity="0.5">
<path d="M265.344 476.517C306.161 476.288 339.225 471.65 339.195 466.158C339.164 460.665 306.05 456.397 265.233 456.625C224.415 456.854 191.351 461.492 191.382 466.985C191.412 472.477 224.526 476.745 265.344 476.517Z" fill="#A0C5E0"/>
</g>
<g style="mix-blend-mode:multiply" opacity="0.5">
<path d="M338.06 466.12C338.06 471.556 305.297 476.186 264.816 476.388C224.335 476.589 191.511 472.361 191.491 466.945C191.471 461.529 224.234 456.878 264.715 456.677C305.197 456.476 338.02 460.684 338.06 466.12Z" fill="#9FC4E0"/>
</g>
<g style="mix-blend-mode:multiply" opacity="0.5">
<path d="M336.894 466.119C336.894 471.535 304.413 476.085 264.273 476.307C224.133 476.528 191.591 472.28 191.571 466.945C191.551 461.61 224.013 457.08 264.213 456.778C304.413 456.476 336.854 460.724 336.894 466.119Z" fill="#9EC4E0"/>
</g>
<g style="mix-blend-mode:multiply" opacity="0.5">
<path d="M335.729 466.14C335.729 471.495 303.569 476.005 263.731 476.206C223.892 476.408 191.672 472.28 191.632 466.925C191.592 461.569 223.792 457.059 263.63 456.858C303.468 456.657 335.689 460.784 335.729 466.14Z" fill="#9DC3DF"/>
</g>
<g style="mix-blend-mode:multiply" opacity="0.5">
<path d="M334.564 466.14C334.564 471.455 302.645 475.924 263.189 476.206C223.732 476.488 191.753 472.321 191.713 467.005C191.673 461.69 223.652 457.221 263.088 456.939C302.524 456.657 334.564 460.845 334.564 466.14Z" fill="#9CC2DF"/>
</g>
<g style="mix-blend-mode:multiply" opacity="0.5">
<path d="M262.628 476.089C301.725 475.87 333.395 471.429 333.366 466.17C333.336 460.91 301.618 456.824 262.522 457.043C223.425 457.262 191.754 461.703 191.784 466.962C191.813 472.221 223.531 476.307 262.628 476.089Z" fill="#9AC2DF"/>
</g>
<g style="mix-blend-mode:multiply" opacity="0.5">
<path d="M332.231 466.16C332.231 471.374 300.875 475.764 262.102 475.985C223.329 476.206 191.853 472.16 191.853 466.945C191.853 461.731 223.229 457.341 261.981 457.12C300.734 456.899 332.211 460.945 332.231 466.16Z" fill="#99C1DE"/>
</g>
<g style="mix-blend-mode:multiply" opacity="0.5">
<path d="M331.065 466.16C331.065 471.334 299.991 475.683 261.559 475.904C223.128 476.126 191.993 472.119 191.953 466.945C191.913 461.771 223.048 457.422 261.459 457.2C299.87 456.979 331.045 460.986 331.065 466.16Z" fill="#98C0DE"/>
</g>
<g style="mix-blend-mode:multiply" opacity="0.5">
<path d="M329.919 466.16C329.919 471.294 299.106 475.602 261.016 475.824C222.927 476.045 192.073 472.059 192.033 466.945C191.993 461.831 222.847 457.502 260.916 457.281C298.985 457.059 329.879 461.106 329.919 466.16Z" fill="#97BFDE"/>
</g>
<g style="mix-blend-mode:multiply" opacity="0.5">
<path d="M260.455 475.779C298.187 475.568 328.751 471.286 328.723 466.216C328.695 461.146 298.084 457.207 260.353 457.418C222.622 457.629 192.057 461.91 192.085 466.98C192.114 472.051 222.724 475.99 260.455 475.779Z" fill="#96BFDD"/>
</g>
<g style="mix-blend-mode:multiply" opacity="0.5">
<path d="M327.588 466.18C327.588 471.213 297.317 475.461 259.931 475.663C222.545 475.864 192.214 471.978 192.194 466.945C192.174 461.912 222.445 457.664 259.831 457.462C297.217 457.261 327.548 461.106 327.588 466.18Z" fill="#95BEDD"/>
</g>
<g style="mix-blend-mode:multiply" opacity="0.5">
<path d="M326.522 466.18C326.522 471.173 296.533 475.381 259.489 475.582C222.445 475.784 192.395 471.918 192.375 466.945C192.355 461.972 222.344 457.744 259.388 457.543C296.433 457.342 326.382 461.207 326.522 466.18Z" fill="#94BDDC"/>
</g>
<g style="mix-blend-mode:multiply" opacity="0.5">
<path d="M325.256 466.2C325.256 471.133 295.549 475.3 258.926 475.502C222.304 475.703 192.456 471.878 192.436 466.945C192.415 462.012 222.123 457.845 258.766 457.623C295.408 457.402 325.236 461.247 325.256 466.2Z" fill="#92BDDC"/>
</g>
<g style="mix-blend-mode:multiply" opacity="0.5">
<path d="M324.091 466.2C324.091 471.092 294.664 475.22 258.303 475.421C221.942 475.622 192.456 471.837 192.436 466.945C192.415 462.053 221.862 457.925 258.203 457.724C294.544 457.523 324.07 461.308 324.091 466.2Z" fill="#91BCDC"/>
</g>
<g style="mix-blend-mode:multiply" opacity="0.5">
<path d="M322.924 466.2C322.924 471.052 293.779 475.139 257.76 475.341C221.741 475.542 192.536 471.777 192.516 466.945C192.496 462.113 221.661 458.006 257.66 457.805C293.659 457.603 322.904 461.368 322.924 466.2Z" fill="#90BBDB"/>
</g>
<g style="mix-blend-mode:multiply" opacity="0.5">
<path d="M321.759 466.22C321.759 471.012 292.896 475.059 257.218 475.26C221.541 475.461 192.617 471.737 192.597 466.945C192.577 462.153 221.46 458.086 257.138 457.885C292.815 457.684 321.739 461.408 321.759 466.22Z" fill="#8FBADB"/>
</g>
<g style="mix-blend-mode:multiply" opacity="0.5">
<path d="M320.594 466.22C320.594 470.972 292.012 474.978 256.676 475.18C221.34 475.381 192.697 471.696 192.657 466.945C192.617 462.194 221.26 458.167 256.595 457.986C291.931 457.804 320.493 461.469 320.594 466.22Z" fill="#8EBADB"/>
</g>
<g style="mix-blend-mode:multiply" opacity="0.5">
<path d="M319.448 466.22C319.448 470.932 291.127 474.898 256.133 475.099C221.139 475.3 192.778 471.636 192.737 466.945C192.697 462.254 221.058 458.268 256.052 458.066C291.046 457.865 319.408 461.509 319.448 466.22Z" fill="#8DB9DA"/>
</g>
<g style="mix-blend-mode:multiply" opacity="0.5">
<path d="M318.283 466.22C318.283 470.891 290.243 474.817 255.591 475.018C220.938 475.22 192.859 471.596 192.818 466.965C192.778 462.335 220.958 458.368 255.51 458.167C290.062 457.966 318.242 461.569 318.283 466.22Z" fill="#8BB8DA"/>
</g>
<g style="mix-blend-mode:multiply" opacity="0.5">
<path d="M317.116 466.241C317.116 470.851 289.358 474.737 255.048 474.938C220.737 475.139 192.919 471.556 192.898 466.885C192.878 462.214 220.657 458.368 254.967 458.167C289.278 457.966 317.096 461.63 317.116 466.241Z" fill="#8AB8D9"/>
</g>
<g style="mix-blend-mode:multiply" opacity="0.5">
<path d="M254.481 474.886C288.438 474.696 315.945 470.837 315.919 466.267C315.894 461.697 288.345 458.147 254.388 458.337C220.431 458.527 192.924 462.385 192.949 466.955C192.975 471.525 220.523 475.076 254.481 474.886Z" fill="#89B7D9"/>
</g>
<g style="mix-blend-mode:multiply" opacity="0.5">
<path d="M314.785 466.24C314.785 470.77 287.59 474.596 253.963 474.777C220.335 474.958 193.08 471.455 193.06 466.945C193.039 462.435 220.255 458.59 253.882 458.409C287.509 458.227 314.765 461.731 314.785 466.24Z" fill="#88B6D9"/>
</g>
<g style="mix-blend-mode:multiply" opacity="0.5">
<path d="M253.394 474.731C286.663 474.545 313.613 470.771 313.588 466.301C313.563 461.831 286.573 458.358 253.304 458.544C220.035 458.73 193.086 462.505 193.111 466.975C193.135 471.445 220.126 474.917 253.394 474.731Z" fill="#87B5D8"/>
</g>
<g style="mix-blend-mode:multiply" opacity="0.5">
<path d="M312.453 466.26C312.453 470.69 285.82 474.435 252.877 474.616C219.933 474.797 193.24 471.354 193.22 466.925C193.2 462.496 219.872 458.771 252.796 458.59C285.72 458.408 312.453 461.831 312.453 466.26Z" fill="#85B5D8"/>
</g>
<g style="mix-blend-mode:multiply" opacity="0.5">
<path d="M311.287 466.261C311.287 470.65 284.916 474.314 252.334 474.535C219.751 474.757 193.32 471.314 193.3 466.925C193.28 462.536 219.671 458.872 252.253 458.67C284.835 458.469 311.267 461.892 311.287 466.261Z" fill="#84B4D8"/>
</g>
<g style="mix-blend-mode:multiply" opacity="0.5">
<path d="M310.141 466.281C310.141 470.609 284.011 474.334 251.851 474.455C219.691 474.576 193.561 471.274 193.441 466.925C193.32 462.576 219.571 458.872 251.731 458.751C283.891 458.63 310.101 461.932 310.141 466.281Z" fill="#83B3D7"/>
</g>
<g style="mix-blend-mode:multiply" opacity="0.5">
<path d="M308.976 466.281C308.976 470.569 283.147 474.193 251.248 474.334C219.35 474.475 193.481 471.173 193.461 466.885C193.441 462.596 219.269 458.972 251.168 458.831C283.067 458.691 308.956 461.992 308.976 466.281Z" fill="#82B2D7"/>
</g>
<g style="mix-blend-mode:multiply" opacity="0.5">
<path d="M307.81 466.281C307.81 470.529 282.262 474.113 250.705 474.334C219.148 474.556 193.561 471.213 193.541 466.965C193.521 462.717 219.068 459.154 250.625 458.912C282.182 458.67 307.789 462.033 307.81 466.281Z" fill="#81B2D6"/>
</g>
<g style="mix-blend-mode:multiply" opacity="0.5">
<path d="M306.644 466.301C306.644 470.489 281.378 474.032 250.163 474.213C218.948 474.394 193.642 471.133 193.602 466.925C193.561 462.717 218.867 459.194 250.083 459.013C281.298 458.831 306.624 462.093 306.644 466.301Z" fill="#7FB1D6"/>
</g>
<g style="mix-blend-mode:multiply" opacity="0.5">
<path d="M305.478 466.301C305.478 470.448 280.494 473.951 249.62 474.133C218.746 474.314 193.722 471.072 193.682 466.925C193.641 462.777 218.666 459.274 249.54 459.093C280.413 458.912 305.458 462.153 305.478 466.301Z" fill="#7EB0D6"/>
</g>
<g style="mix-blend-mode:multiply" opacity="0.5">
<path d="M304.412 466.301C304.412 470.327 279.709 473.871 249.178 474.052C218.646 474.233 193.862 471.032 193.862 466.925C193.862 462.818 218.565 459.355 249.097 459.194C279.629 459.033 304.292 462.194 304.412 466.301Z" fill="#7DAFD5"/>
</g>
<g style="mix-blend-mode:multiply" opacity="0.5">
<path d="M303.147 466.321C303.147 470.348 278.725 473.79 248.535 473.972C218.345 474.153 193.863 470.992 193.843 466.925C193.823 462.858 218.284 459.435 248.454 459.274C278.625 459.113 303.126 462.254 303.147 466.321Z" fill="#7CAFD5"/>
</g>
<g style="mix-blend-mode:multiply" opacity="0.5">
<path d="M301.98 466.321C301.98 470.347 277.86 473.71 247.992 473.891C218.123 474.072 193.862 470.931 193.862 466.925C193.862 462.918 217.982 459.516 247.851 459.355C277.72 459.194 301.96 462.294 301.98 466.321Z" fill="#7AAED4"/>
</g>
<g style="mix-blend-mode:multiply" opacity="0.5">
<path d="M247.42 473.838C276.914 473.673 300.806 470.321 300.784 466.352C300.762 462.382 276.834 459.298 247.339 459.463C217.845 459.628 193.953 462.98 193.975 466.949C193.997 470.919 217.925 474.003 247.42 473.838Z" fill="#79ADD4"/>
</g>
<g style="mix-blend-mode:multiply" opacity="0.5">
<path d="M299.669 466.321C299.669 470.348 276.072 473.569 246.907 473.73C217.742 473.891 194.104 470.851 194.084 466.925C194.064 462.999 217.681 459.697 246.826 459.536C275.971 459.375 299.649 462.415 299.669 466.321Z" fill="#78ACD4"/>
</g>
<g style="mix-blend-mode:multiply" opacity="0.5">
<path d="M298.504 466.341C298.504 470.207 275.188 473.489 246.364 473.65C217.541 473.811 194.104 470.791 194.104 466.925C194.104 463.06 217.42 459.778 246.224 459.617C275.027 459.456 298.484 462.456 298.504 466.341Z" fill="#77ACD3"/>
</g>
<g style="mix-blend-mode:multiply" opacity="0.5">
<path d="M245.79 473.606C274.264 473.446 297.329 470.217 297.307 466.392C297.286 462.567 274.186 459.595 245.713 459.754C217.24 459.914 194.175 463.143 194.196 466.968C194.217 470.793 217.317 473.765 245.79 473.606Z" fill="#75ABD3"/>
</g>
<g style="mix-blend-mode:multiply" opacity="0.5">
<path d="M296.172 466.341C296.172 470.126 273.419 473.327 245.279 473.489C217.139 473.65 194.345 470.71 194.325 466.925C194.305 463.14 217.078 459.939 245.198 459.798C273.318 459.657 296.152 462.576 296.172 466.341Z" fill="#74AAD2"/>
</g>
<g style="mix-blend-mode:multiply" opacity="0.5">
<path d="M295.006 466.361C295.006 470.086 272.534 473.247 244.756 473.408C216.978 473.569 194.506 470.65 194.506 466.925C194.506 463.2 216.978 460.04 244.756 459.878C272.534 459.717 294.986 462.617 295.006 466.361Z" fill="#73A9D2"/>
</g>
<g style="mix-blend-mode:multiply" opacity="0.5">
<path d="M293.841 466.361C293.841 470.045 271.63 473.166 244.194 473.327C216.757 473.488 194.506 470.609 194.486 466.925C194.466 463.24 216.596 460.12 244.133 459.959C271.67 459.798 293.82 462.677 293.841 466.361Z" fill="#72A8D2"/>
</g>
<g style="mix-blend-mode:multiply" opacity="0.5">
<path d="M292.674 466.361C292.674 470.005 270.745 473.086 243.65 473.247C216.555 473.408 194.586 470.569 194.546 466.925C194.506 463.281 216.475 460.2 243.59 460.039C270.705 459.878 292.654 462.717 292.674 466.361Z" fill="#70A8D1"/>
</g>
<g style="mix-blend-mode:multiply" opacity="0.5">
<path d="M291.529 466.381C291.529 469.965 269.861 473.005 243.108 473.166C216.355 473.327 194.647 470.529 194.627 466.925C194.607 463.321 216.295 460.281 243.048 460.14C269.801 459.999 291.509 462.777 291.529 466.381Z" fill="#6FA7D1"/>
</g>
<g style="mix-blend-mode:multiply" opacity="0.5">
<path d="M242.552 473.101C268.961 472.953 290.353 469.958 290.333 466.411C290.313 462.864 268.889 460.108 242.48 460.256C216.072 460.404 194.679 463.399 194.699 466.946C194.719 470.493 216.143 473.249 242.552 473.101Z" fill="#6EA6D0"/>
</g>
<g style="mix-blend-mode:multiply" opacity="0.5">
<path d="M289.197 466.381C289.197 469.885 268.092 472.844 242.022 473.005C215.952 473.166 194.807 470.428 194.787 466.965C194.767 463.502 215.892 460.502 241.962 460.341C268.032 460.18 289.177 462.878 289.197 466.381Z" fill="#6CA5D0"/>
</g>
<g style="mix-blend-mode:multiply" opacity="0.5">
<path d="M288.032 466.401C288.032 469.844 267.208 472.784 241.48 472.925C215.752 473.065 194.888 470.388 194.868 466.885C194.848 463.381 215.692 460.502 241.42 460.361C267.148 460.221 288.012 462.938 288.032 466.401Z" fill="#6BA5CF"/>
</g>
<g style="mix-blend-mode:multiply" opacity="0.5">
<path d="M286.866 466.401C286.866 469.804 266.323 472.703 240.937 472.844C215.551 472.985 194.968 470.327 194.948 466.925C194.928 463.522 215.49 460.623 240.877 460.482C266.263 460.341 286.845 462.979 286.866 466.401Z" fill="#6AA4CF"/>
</g>
<g style="mix-blend-mode:multiply" opacity="0.5">
<path d="M285.699 466.401C285.699 469.764 265.439 472.622 240.394 472.763C215.349 472.904 195.048 470.287 195.028 466.925C195.008 463.563 215.289 460.704 240.334 460.563C265.378 460.422 285.679 463.12 285.699 466.401Z" fill="#68A3CF"/>
</g>
<g style="mix-blend-mode:multiply" opacity="0.5">
<path d="M284.534 466.402C284.534 469.724 264.555 472.542 239.852 472.683C215.149 472.824 195.129 470.247 195.109 466.925C195.089 463.603 215.089 460.784 239.792 460.643C264.495 460.502 284.514 463.12 284.534 466.402Z" fill="#67A2CE"/>
</g>
<g style="mix-blend-mode:multiply" opacity="0.5">
<path d="M283.369 466.422C283.369 469.683 263.671 472.461 239.309 472.602C214.948 472.743 195.21 470.186 195.089 466.925C194.969 463.663 214.787 460.885 239.149 460.744C263.51 460.603 283.349 463.12 283.369 466.422Z" fill="#66A1CE"/>
</g>
<g style="mix-blend-mode:multiply" opacity="0.5">
<path d="M282.303 466.422C282.303 469.643 262.867 472.462 238.847 472.462C214.828 472.462 195.371 470.086 195.351 466.865C195.331 463.643 214.767 460.825 238.787 460.825C262.806 460.825 282.303 463.12 282.303 466.422Z" fill="#65A1CD"/>
</g>
<g style="mix-blend-mode:multiply" opacity="0.5">
<path d="M281.057 466.422C281.057 469.603 261.902 472.3 238.224 472.461C214.546 472.623 195.371 470.126 195.351 466.925C195.331 463.724 214.506 461.066 238.164 460.885C261.821 460.704 281.037 463.24 281.057 466.422Z" fill="#63A0CD"/>
</g>
<g style="mix-blend-mode:multiply" opacity="0.5">
<path d="M279.891 466.442C279.891 469.583 261.017 472.22 237.681 472.361C214.345 472.502 195.471 470.046 195.471 466.905C195.471 463.764 214.345 461.127 237.681 461.006C261.017 460.885 279.871 463.301 279.891 466.442Z" fill="#629FCC"/>
</g>
<g style="mix-blend-mode:multiply" opacity="0.5">
<path d="M278.725 466.442C278.725 469.542 260.132 472.139 237.138 472.28C214.143 472.421 195.511 470.005 195.511 466.905C195.511 463.804 214.103 461.207 237.078 461.086C260.052 460.965 278.705 463.361 278.725 466.442Z" fill="#619ECC"/>
</g>
<g style="mix-blend-mode:multiply" opacity="0.5">
<path d="M236.577 472.228C259.212 472.101 277.547 469.529 277.53 466.482C277.513 463.436 259.15 461.068 236.516 461.195C213.881 461.322 195.546 463.894 195.563 466.941C195.58 469.987 213.943 472.355 236.577 472.228Z" fill="#5F9DCC"/>
</g>
<g style="mix-blend-mode:multiply" opacity="0.5">
<path d="M276.394 466.462C276.394 469.462 258.304 471.979 236.053 472.119C213.803 472.26 195.672 469.905 195.652 466.905C195.632 463.905 213.742 461.388 235.993 461.247C258.244 461.107 276.374 463.462 276.394 466.462Z" fill="#5E9CCB"/>
</g>
<g style="mix-blend-mode:multiply" opacity="0.5">
<path d="M275.228 466.462C275.228 469.421 257.46 471.898 235.51 472.039C213.561 472.18 195.753 469.864 195.732 466.905C195.712 463.945 213.501 461.469 235.45 461.348C257.399 461.227 275.208 463.502 275.228 466.462Z" fill="#5D9CCB"/>
</g>
<g style="mix-blend-mode:multiply" opacity="0.5">
<path d="M274.062 466.462C274.062 469.381 256.575 471.837 234.968 471.958C213.36 472.079 195.873 469.824 195.873 466.905C195.873 463.985 213.36 461.549 234.968 461.428C256.575 461.308 274.062 463.563 274.062 466.462Z" fill="#5B9BCA"/>
</g>
<g style="mix-blend-mode:multiply" opacity="0.5">
<path d="M272.916 466.482C272.916 469.341 255.691 471.757 234.425 471.878C213.159 471.998 195.873 469.764 195.873 466.905C195.873 464.046 213.079 461.63 234.344 461.509C255.61 461.388 272.896 463.623 272.916 466.482Z" fill="#5A9ACA"/>
</g>
<g style="mix-blend-mode:multiply" opacity="0.5">
<path d="M271.75 466.482C271.75 469.301 254.805 471.676 233.881 471.797C212.957 471.918 195.993 469.784 195.973 466.905C195.953 464.026 212.897 461.71 233.821 461.61C254.745 461.509 271.73 463.663 271.75 466.482Z" fill="#5899C9"/>
</g>
<g style="mix-blend-mode:multiply" opacity="0.5">
<path d="M270.585 466.482C270.585 469.26 253.922 471.596 233.339 471.716C212.757 471.837 196.074 469.703 196.054 466.905C196.034 464.106 212.717 461.811 233.279 461.69C253.841 461.569 270.564 463.724 270.585 466.482Z" fill="#5798C9"/>
</g>
<g style="mix-blend-mode:multiply" opacity="0.5">
<path d="M232.775 471.665C253.012 471.552 269.404 469.252 269.389 466.528C269.374 463.804 252.957 461.687 232.72 461.8C212.483 461.913 196.09 464.214 196.106 466.938C196.121 469.662 212.538 471.779 232.775 471.665Z" fill="#5697C9"/>
</g>
<g style="mix-blend-mode:multiply" opacity="0.5">
<path d="M268.233 466.502C268.233 469.18 252.153 471.435 232.234 471.556C212.315 471.676 196.214 469.542 196.194 466.905C196.174 464.267 212.274 461.972 232.193 461.851C252.113 461.731 268.233 463.824 268.233 466.502Z" fill="#5497C8"/>
</g>
<g style="mix-blend-mode:multiply" opacity="0.5">
<path d="M267.087 466.502C267.087 469.14 251.268 471.354 231.711 471.475C212.154 471.596 196.295 469.462 196.295 466.905C196.295 464.348 212.114 462.053 231.671 461.952C251.228 461.851 267.067 463.885 267.087 466.502Z" fill="#5396C8"/>
</g>
<g style="mix-blend-mode:multiply" opacity="0.5">
<path d="M265.921 466.502C265.921 469.099 250.384 471.274 231.168 471.395C211.952 471.515 196.375 469.482 196.375 466.905C196.375 464.328 211.912 462.133 231.128 462.033C250.343 461.932 265.921 463.925 265.921 466.502Z" fill="#5295C7"/>
</g>
<g style="mix-blend-mode:multiply" opacity="0.5">
<path d="M264.756 466.522C264.756 469.059 249.5 471.193 230.586 471.314C211.672 471.435 196.416 469.442 196.416 466.905C196.416 464.368 211.672 462.234 230.586 462.113C249.5 461.992 264.756 463.986 264.756 466.522Z" fill="#5094C7"/>
</g>
<g style="mix-blend-mode:multiply" opacity="0.5">
<path d="M263.589 466.522C263.589 469.019 248.615 471.113 230.083 471.234C211.55 471.354 196.536 469.401 196.516 466.905C196.496 464.408 211.51 462.314 230.042 462.214C248.575 462.113 263.589 464.026 263.589 466.522Z" fill="#4F93C6"/>
</g>
<g style="mix-blend-mode:multiply" opacity="0.5">
<path d="M262.444 466.522C262.444 468.979 247.731 471.032 229.541 471.133C211.35 471.233 196.617 469.341 196.597 466.905C196.577 464.469 211.31 462.395 229.5 462.294C247.691 462.194 262.424 464.086 262.444 466.522Z" fill="#4E92C6"/>
</g>
<g style="mix-blend-mode:multiply" opacity="0.5">
<path d="M261.278 466.542C261.278 468.938 246.846 470.952 228.998 471.052C211.149 471.153 196.697 469.301 196.677 466.905C196.657 464.509 211.109 462.475 228.957 462.375C246.806 462.274 261.258 464.146 261.278 466.542Z" fill="#4C92C5"/>
</g>
<g style="mix-blend-mode:multiply" opacity="0.5">
<path d="M260.193 466.542C260.193 468.898 246.123 470.891 228.536 470.972C210.948 471.052 196.858 469.26 196.838 466.945C196.818 464.63 211.008 462.596 228.495 462.495C245.982 462.395 260.193 464.187 260.193 466.542Z" fill="#4B91C5"/>
</g>
<g style="mix-blend-mode:multiply" opacity="0.5">
<path d="M258.947 466.542C258.947 468.858 245.058 470.811 227.913 470.891C210.767 470.972 196.858 469.2 196.838 466.865C196.818 464.529 210.727 462.596 227.872 462.516C245.018 462.435 258.927 464.247 258.947 466.542Z" fill="#4990C5"/>
</g>
<g style="mix-blend-mode:multiply" opacity="0.5">
<path d="M257.781 466.562C257.781 468.817 244.173 470.73 227.369 470.811C210.566 470.891 196.938 469.16 196.918 466.905C196.898 464.65 210.526 462.737 227.329 462.636C244.133 462.536 257.761 464.287 257.781 466.562Z" fill="#488FC4"/>
</g>
<g style="mix-blend-mode:multiply" opacity="0.5">
<path d="M226.801 470.752C243.263 470.66 256.599 468.792 256.586 466.579C256.574 464.367 243.218 462.647 226.756 462.739C210.294 462.832 196.958 464.7 196.971 466.913C196.983 469.125 210.338 470.845 226.801 470.752Z" fill="#478EC4"/>
</g>
<g style="mix-blend-mode:multiply" opacity="0.5">
<path d="M255.45 466.563C255.45 468.737 242.405 470.589 226.284 470.589C210.164 470.589 197.079 468.999 197.079 466.844C197.079 464.69 210.124 462.818 226.244 462.818C242.364 462.818 255.45 464.408 255.45 466.563Z" fill="#458DC3"/>
</g>
<g style="mix-blend-mode:multiply" opacity="0.5">
<path d="M254.283 466.582C254.283 468.596 241.52 470.488 225.741 470.609C209.963 470.73 197.159 469.059 197.159 466.945C197.159 464.831 209.923 463.019 225.701 462.918C241.48 462.818 254.283 464.448 254.283 466.582Z" fill="#448CC3"/>
</g>
<g style="mix-blend-mode:multiply" opacity="0.5">
<path d="M253.138 466.583C253.138 468.596 240.636 470.408 225.199 470.488C209.763 470.569 197.24 468.978 197.24 466.905C197.24 464.831 209.722 463.059 225.159 462.979C240.596 462.898 253.118 464.509 253.138 466.583Z" fill="#428CC2"/>
</g>
<g style="mix-blend-mode:multiply" opacity="0.5">
<path d="M251.972 466.583C251.972 468.596 239.751 470.328 224.656 470.408C209.561 470.489 197.32 468.918 197.32 466.905C197.32 464.892 209.521 463.12 224.616 463.12C239.711 463.12 251.952 464.549 251.972 466.583Z" fill="#418BC2"/>
</g>
<g style="mix-blend-mode:multiply" opacity="0.5">
<path d="M250.806 466.603C250.806 468.616 238.867 470.247 224.113 470.328C209.36 470.408 197.4 468.878 197.4 466.905C197.4 464.932 209.32 463.241 224.073 463.16C238.826 463.079 250.786 464.61 250.806 466.603Z" fill="#3F8AC1"/>
</g>
<g style="mix-blend-mode:multiply" opacity="0.5">
<path d="M249.641 466.603C249.641 468.616 237.983 470.166 223.511 470.247C209.039 470.328 197.381 468.838 197.381 466.885C197.381 464.932 209.059 463.321 223.511 463.241C237.963 463.16 249.621 464.67 249.641 466.603Z" fill="#3E89C1"/>
</g>
<g style="mix-blend-mode:multiply" opacity="0.5">
<path d="M248.474 466.603C248.474 468.495 237.098 470.086 223.028 470.166C208.958 470.247 197.561 468.777 197.541 466.885C197.521 464.992 208.938 463.402 222.988 463.321C237.038 463.24 248.474 464.71 248.474 466.603Z" fill="#3D88C0"/>
</g>
<g style="mix-blend-mode:multiply" opacity="0.5">
<path d="M247.309 466.603C247.309 468.455 236.214 470.025 222.486 470.086C208.758 470.146 197.642 468.737 197.622 466.885C197.602 465.032 208.737 463.482 222.446 463.422C236.154 463.361 247.309 464.771 247.309 466.603Z" fill="#3B87C0"/>
</g>
<g style="mix-blend-mode:multiply" opacity="0.5">
<path d="M221.913 470.055C235.289 469.98 246.125 468.46 246.115 466.658C246.105 464.857 235.253 463.457 221.876 463.532C208.5 463.607 197.664 465.128 197.674 466.929C197.684 468.731 208.536 470.13 221.913 470.055Z" fill="#3A86C0"/>
</g>
<g style="mix-blend-mode:multiply" opacity="0.5">
<path d="M244.977 466.623C244.977 468.374 234.445 469.864 221.4 469.925C208.355 469.985 197.883 468.636 197.883 466.885C197.883 465.133 208.435 463.663 221.46 463.583C234.485 463.502 244.977 464.871 244.977 466.623Z" fill="#3885BF"/>
</g>
<g style="mix-blend-mode:multiply" opacity="0.5">
<path d="M220.826 469.86C233.514 469.789 243.792 468.352 243.782 466.651C243.773 464.95 233.479 463.628 220.791 463.699C208.103 463.77 197.825 465.207 197.835 466.908C197.844 468.609 208.137 469.931 220.826 469.86Z" fill="#3784BF"/>
</g>
<g style="mix-blend-mode:multiply" opacity="0.5">
<path d="M220.283 469.782C232.627 469.713 242.626 468.314 242.617 466.657C242.608 465.001 232.593 463.714 220.249 463.783C207.905 463.852 197.906 465.251 197.915 466.907C197.924 468.564 207.939 469.851 220.283 469.782Z" fill="#3584BE"/>
</g>
<g style="mix-blend-mode:multiply" opacity="0.5">
<path d="M241.5 466.643C241.5 468.254 231.771 469.623 219.772 469.683C207.772 469.744 198.023 468.495 198.023 466.885C198.023 465.274 207.732 463.905 219.752 463.844C231.771 463.784 241.48 465.133 241.5 466.643Z" fill="#3483BE"/>
</g>
<g style="mix-blend-mode:multiply" opacity="0.5">
<path d="M240.335 466.643C240.335 468.213 230.888 469.542 219.23 469.603C207.572 469.663 198.104 468.455 198.104 466.885C198.104 465.314 207.531 463.985 219.209 463.925C230.888 463.865 240.314 465.133 240.335 466.643Z" fill="#3282BD"/>
</g>
<g style="mix-blend-mode:multiply" opacity="0.5">
<path d="M239.168 466.663C239.168 468.173 230.003 469.462 218.687 469.522C207.37 469.583 198.185 468.415 198.185 466.885C198.185 465.355 207.33 464.086 218.666 464.006C230.003 463.925 239.168 465.133 239.168 466.663Z" fill="#3181BD"/>
</g>
<g style="mix-blend-mode:multiply" opacity="0.5">
<path d="M238.083 466.663C238.083 468.133 229.199 469.381 218.225 469.442C207.25 469.502 198.346 468.354 198.346 466.885C198.346 465.415 207.23 464.167 218.204 464.106C229.179 464.046 238.083 465.133 238.083 466.663Z" fill="#2F80BC"/>
</g>
<g style="mix-blend-mode:multiply" opacity="0.5">
<path d="M236.837 466.663C236.837 468.092 228.234 469.3 217.602 469.361C206.969 469.421 198.346 468.314 198.346 466.884C198.346 465.455 206.949 464.247 217.581 464.187C228.214 464.126 236.837 465.234 236.837 466.663Z" fill="#2E7FBC"/>
</g>
<g style="mix-blend-mode:multiply" opacity="0.5">
<path d="M235.671 466.683C235.671 468.052 227.35 469.22 217.058 469.281C206.767 469.341 198.426 468.274 198.426 466.885C198.426 465.496 206.747 464.328 217.038 464.268C227.33 464.207 235.671 465.294 235.671 466.683Z" fill="#2C7EBB"/>
</g>
<g style="mix-blend-mode:multiply" opacity="0.5">
<path d="M234.526 466.683C234.526 468.012 226.486 469.139 216.436 469.2C206.386 469.26 198.346 468.213 198.346 466.884C198.346 465.556 206.386 464.408 216.436 464.368C226.486 464.328 234.506 465.334 234.526 466.683Z" fill="#2B7DBB"/>
</g>
<g style="mix-blend-mode:multiply" opacity="0.5">
<path d="M215.958 469.142C225.56 469.089 233.339 467.999 233.331 466.71C233.324 465.42 225.534 464.418 215.932 464.471C206.33 464.525 198.552 465.614 198.559 466.904C198.566 468.194 206.356 469.196 215.958 469.142Z" fill="#2A7CBA"/>
</g>
<g style="mix-blend-mode:multiply" opacity="0.5">
<path d="M232.193 466.704C232.193 467.932 224.696 468.999 215.43 469.039C206.164 469.079 198.667 468.133 198.647 466.885C198.626 465.637 206.144 464.59 215.41 464.529C224.676 464.469 232.173 465.455 232.193 466.704Z" fill="#287BBA"/>
</g>
<g style="mix-blend-mode:multiply" opacity="0.5">
<path d="M231.028 466.703C231.028 467.891 223.812 468.918 214.948 468.958C206.084 468.999 198.868 468.073 198.868 466.945C198.868 465.818 206.084 464.73 214.948 464.67C223.812 464.61 231.028 465.495 231.028 466.703Z" fill="#277BB9"/>
</g>
<g style="mix-blend-mode:multiply" opacity="0.5">
<path d="M229.862 466.703C229.862 467.851 222.928 468.838 214.345 468.878C205.762 468.918 198.808 468.032 198.808 466.864C198.808 465.697 205.742 464.73 214.325 464.69C222.908 464.65 229.862 465.556 229.862 466.703Z" fill="#257AB9"/>
</g>
<g style="mix-blend-mode:multiply" opacity="0.5">
<path d="M228.696 466.703C228.696 467.811 222.043 468.717 213.802 468.717C205.561 468.717 198.888 467.911 198.888 466.804C198.888 465.697 205.541 464.791 213.782 464.791C222.023 464.791 228.696 465.596 228.696 466.703Z" fill="#2479B8"/>
</g>
<g style="mix-blend-mode:multiply" opacity="0.5">
<path d="M227.53 466.724C227.53 467.771 221.158 468.737 213.259 468.737C205.36 468.737 198.968 467.952 198.968 466.905C198.968 465.858 205.36 464.892 213.239 464.892C221.118 464.892 227.53 465.657 227.53 466.724Z" fill="#2278B8"/>
</g>
<g style="mix-blend-mode:multiply" opacity="0.5">
<path d="M226.365 466.724C226.365 467.73 220.335 468.596 212.717 468.636C205.099 468.676 199.049 467.891 199.049 466.885C199.049 465.878 205.079 465.012 212.697 464.972C220.315 464.932 226.365 465.717 226.365 466.724Z" fill="#2177B7"/>
</g>
<g style="mix-blend-mode:multiply" opacity="0.5">
<path d="M225.219 466.724C225.219 467.69 219.37 468.516 212.174 468.556C204.978 468.596 199.129 467.851 199.129 466.885C199.129 465.918 204.958 465.093 212.154 465.053C219.35 465.012 225.199 465.757 225.219 466.724Z" fill="#1F76B7"/>
</g>
<g style="mix-blend-mode:multiply" opacity="0.5">
<path d="M224.014 466.744C224.014 467.67 218.446 468.435 211.592 468.475C204.738 468.515 199.17 467.791 199.17 466.885C199.17 465.979 204.718 465.173 211.572 465.133C218.426 465.093 224.014 465.817 224.014 466.744Z" fill="#1E75B6"/>
</g>
<g style="mix-blend-mode:multiply" opacity="0.5">
<path d="M222.887 466.744C222.887 467.63 217.601 468.355 211.089 468.395C204.576 468.435 199.29 467.751 199.29 466.885C199.29 466.019 204.556 465.254 211.069 465.214C217.581 465.174 222.887 465.858 222.887 466.744Z" fill="#1C74B6"/>
</g>
<g style="mix-blend-mode:multiply" opacity="0.5">
<path d="M221.721 466.744C221.721 467.589 216.716 468.274 210.546 468.314C204.375 468.354 199.37 467.71 199.37 466.885C199.37 466.059 204.355 465.355 210.526 465.314C216.696 465.274 221.721 465.918 221.721 466.744Z" fill="#1A73B6"/>
</g>
<g style="mix-blend-mode:multiply" opacity="0.5">
<path d="M220.556 466.764C220.556 467.549 215.832 468.193 210.003 468.234C204.174 468.274 199.451 467.65 199.431 466.885C199.411 466.12 204.154 465.435 209.983 465.395C215.812 465.355 220.556 465.979 220.556 466.764Z" fill="#1972B5"/>
</g>
<g style="mix-blend-mode:multiply" opacity="0.5">
<path d="M219.39 466.764C219.39 467.509 214.948 468.133 209.46 468.153C203.973 468.173 199.531 467.61 199.511 466.885C199.491 466.16 203.953 465.516 209.44 465.476C214.928 465.435 219.39 466.019 219.39 466.764Z" fill="#1771B5"/>
</g>
<g style="mix-blend-mode:multiply" opacity="0.5">
<path d="M218.224 466.764C218.224 467.469 214.064 468.052 208.918 468.073C203.773 468.093 199.592 467.569 199.592 466.865C199.592 466.16 203.752 465.596 208.898 465.576C214.044 465.556 218.224 466.079 218.224 466.764Z" fill="#1670B4"/>
</g>
<g style="mix-blend-mode:multiply" opacity="0.5">
<path d="M217.058 466.784C217.058 467.428 213.179 467.972 208.375 467.992C203.571 468.012 199.672 467.529 199.672 466.865C199.672 466.2 203.571 465.677 208.355 465.657C213.139 465.636 217.058 466.12 217.058 466.784Z" fill="#146FB4"/>
</g>
<g style="mix-blend-mode:multiply" opacity="0.5">
<path d="M215.973 466.784C215.973 467.388 212.375 467.892 207.933 467.912C203.49 467.932 199.893 467.469 199.893 466.865C199.893 466.261 203.511 465.757 207.933 465.737C212.355 465.717 215.973 466.18 215.973 466.784Z" fill="#136EB3"/>
</g>
<g style="mix-blend-mode:multiply" opacity="0.5">
<path d="M214.746 466.784C214.746 467.348 211.41 467.811 207.289 467.831C203.169 467.851 199.832 467.428 199.832 466.865C199.832 466.301 203.169 465.858 207.289 465.818C211.41 465.777 214.726 466.24 214.746 466.784Z" fill="#116EB3"/>
</g>
<g style="mix-blend-mode:multiply" opacity="0.5">
<path d="M213.581 466.784C213.581 467.307 210.526 467.73 206.747 467.75C202.968 467.77 199.913 467.388 199.913 466.864C199.913 466.341 202.968 465.938 206.747 465.918C210.526 465.898 213.581 466.281 213.581 466.784Z" fill="#106DB2"/>
</g>
<g style="mix-blend-mode:multiply" opacity="0.5">
<path d="M212.415 466.804C212.415 467.267 209.641 467.65 206.204 467.67C202.767 467.69 199.993 467.328 199.993 466.865C199.993 466.402 202.767 466.019 206.204 465.999C209.641 465.979 212.415 466.341 212.415 466.804Z" fill="#0E6CB2"/>
</g>
<g style="mix-blend-mode:multiply" opacity="0.5">
<path d="M211.249 466.804C211.249 467.227 208.756 467.569 205.661 467.589C202.566 467.609 200.073 467.287 200.073 466.864C200.073 466.442 202.566 466.099 205.661 466.079C208.756 466.059 211.249 466.381 211.249 466.804Z" fill="#0D6BB1"/>
</g>
<g style="mix-blend-mode:multiply" opacity="0.5">
<path d="M210.084 466.804C210.084 467.187 207.873 467.489 205.119 467.509C202.365 467.529 200.154 467.247 200.154 466.864C200.154 466.482 202.365 466.18 205.119 466.18C207.873 466.18 210.084 466.442 210.084 466.804Z" fill="#0B6AB1"/>
</g>
<g style="mix-blend-mode:multiply" opacity="0.5">
<path d="M208.918 466.824C208.918 467.146 206.908 467.408 204.576 467.428C202.244 467.448 200.234 467.187 200.234 466.865C200.234 466.542 202.244 466.281 204.576 466.261C206.908 466.24 208.918 466.502 208.918 466.824Z" fill="#0969B0"/>
</g>
<g style="mix-blend-mode:multiply" opacity="0.5">
<path d="M207.751 466.824C207.751 467.106 206.083 467.328 204.033 467.348C201.983 467.368 200.314 467.146 200.314 466.865C200.314 466.583 201.963 466.361 204.033 466.341C206.103 466.321 207.751 466.542 207.751 466.824Z" fill="#0868B0"/>
</g>
<g style="mix-blend-mode:multiply" opacity="0.5">
<path d="M206.586 466.824C206.586 467.066 205.199 467.247 203.49 467.267C201.782 467.288 200.395 467.106 200.375 466.865C201.361 466.462 202.431 466.31 203.49 466.422C205.199 466.422 206.586 466.603 206.586 466.824Z" fill="#0667AF"/>
</g>
<g style="mix-blend-mode:multiply" opacity="0.5">
<path d="M205.441 466.844C205.441 467.026 204.315 467.187 202.948 467.187C201.582 467.187 200.456 467.046 200.456 466.864C200.456 466.683 201.582 466.522 202.948 466.522C204.315 466.522 205.441 466.663 205.441 466.844Z" fill="#0566AF"/>
</g>
<g style="mix-blend-mode:multiply" opacity="0.5">
<path d="M204.275 466.844C204.275 466.985 203.43 467.106 202.405 467.106C201.38 467.106 200.536 467.005 200.536 466.864C200.536 466.724 201.38 466.603 202.405 466.603C203.43 466.603 204.275 466.703 204.275 466.844Z" fill="#0365AE"/>
</g>
<g style="mix-blend-mode:multiply" opacity="0.5">
<path d="M203.109 466.844C203.109 466.844 202.546 467.026 201.862 467.026C201.179 467.026 200.616 467.026 200.616 466.864C200.616 466.703 201.179 466.703 201.862 466.683C202.285 466.638 202.712 466.693 203.109 466.844Z" fill="#0264AE"/>
</g>
<g style="mix-blend-mode:multiply" opacity="0.5">
<path d="M201.902 466.865C202.521 466.944 203.086 467.256 203.482 467.738C203.879 468.219 204.078 468.834 204.038 469.457C203.998 470.08 203.723 470.665 203.269 471.092C202.814 471.519 202.214 471.757 201.591 471.757C200.968 471.757 200.368 471.519 199.913 471.092C199.458 470.665 199.183 470.08 199.144 469.457C199.104 468.834 199.303 468.219 199.699 467.738C200.096 467.256 200.661 466.944 201.279 466.865C201.661 466.784 201.902 466.804 201.902 466.865Z" fill="#0063AD"/>
</g>
</g>
</g>
<g opacity="0.5">
<path opacity="0.5" d="M140.517 265.491L120.076 253.975L109.945 256.834L130.387 268.33L140.517 265.491Z" fill="#7BDAFF"/>
<path opacity="0.5" d="M135.634 201.568L138.588 212.158L159.05 223.654L156.075 213.084L135.634 201.568Z" fill="#7BDAFF"/>
<path opacity="0.5" d="M28.0788 210.789L48.5205 222.285L45.6864 212.138L25.2246 200.642L28.0788 210.789Z" fill="#7BDAFF"/>
<path opacity="0.5" d="M142.266 225.224L148.115 246.103L133.141 250.31L153.582 261.807L168.557 257.599L162.708 236.741L142.266 225.224Z" fill="#7BDAFF"/>
<path opacity="0.5" d="M42.0078 199.071L37.8069 184.072L105.866 164.905L85.4238 153.409L17.3652 172.576L21.5661 187.555L42.0078 199.071Z" fill="#7BDAFF"/>
<path opacity="0.5" d="M90.1074 262.411L61.9875 270.323L54.1083 242.157L33.6465 230.66L50.5104 290.799L110.549 273.907L90.1074 262.411Z" fill="#7BDAFF"/>
<path opacity="0.5" d="M98.4893 149.745L118.931 161.241L125.323 164.824L145.764 176.341L135.393 139.356L98.4893 149.745Z" fill="#7BDAFF"/>
<path opacity="0.5" d="M128.98 177.911L131.955 188.501L152.397 199.997L149.442 189.407L128.98 177.911Z" fill="#7BDAFF"/>
</g>
<path d="M222.003 266.578H182.466L196.697 252.324H236.253L222.003 266.578ZM189.843 263.538H220.857L229.037 255.364H197.883L189.843 263.538Z" fill="white"/>
<path style="mix-blend-mode:overlay" d="M229.782 186.83H190.225L175.532 172.113H215.089L229.782 186.83ZM191.472 183.79H222.486L213.823 175.133H182.829L191.472 183.79Z" fill="url(#paint0_radial_322_1)"/>
<path style="mix-blend-mode:overlay" d="M83.7958 266.578H44.239L30.0283 252.324H69.5851L83.7958 266.578ZM45.5053 263.538H76.4995L68.3188 255.364H37.3246L45.5053 263.538Z" fill="url(#paint1_radial_322_1)"/>
<path d="M247.651 240.908H208.094L226.184 222.788L201.662 198.226H241.219L265.761 222.788L247.651 240.908ZM215.491 237.868H246.505L261.54 222.808L239.932 201.387H208.938L230.425 222.909L215.491 237.868Z" fill="white"/>
<path style="mix-blend-mode:overlay" d="M58.1683 240.908H18.6115L0.521484 222.788L77.2834 145.959H116.84L40.1185 222.808L58.1683 240.908ZM19.8778 237.868H50.872L35.8372 222.808L109.544 149.04H78.5296L4.92339 222.808L19.8778 237.868Z" fill="url(#paint2_radial_322_1)"/>
<path style="mix-blend-mode:overlay" d="M133.142 355.608L63.2139 285.503H102.771L133.202 315.985L163.634 285.503H203.19L133.142 355.608ZM70.4499 288.544L133.142 351.319L195.874 288.544H164.819L133.142 320.274L101.404 288.544H70.4499Z" fill="url(#paint3_radial_322_1)"/>
<path style="mix-blend-mode:overlay" d="M177.582 134.544H88.7002L133.141 90.0291L177.582 134.544ZM95.9965 131.504H170.367L133.222 94.2973L95.9965 131.504Z" fill="url(#paint4_radial_322_1)"/>
<path style="mix-blend-mode:overlay" d="M203.672 160.677H164.115L149.422 145.959H188.979L203.672 160.677ZM165.482 157.657H196.476L187.833 149.04H156.718L165.482 157.657Z" fill="url(#paint5_radial_322_1)"/>
<g opacity="0.5">
<path d="M631.119 176.542C631.119 176.542 631.118 176.401 631.018 176.341V176.179V176.018C630.325 174.198 629.063 172.651 627.42 171.609L626.978 171.347L573.753 140.644L520.689 109.921L520.247 109.679C519.602 109.255 518.854 109.012 518.083 108.977C517.313 108.942 516.546 109.115 515.865 109.478H515.744H515.644L508.629 113.504L512.649 115.236L498.579 189.729C498.254 191.741 498.52 193.805 499.343 195.669V195.83V195.991C500.042 197.807 501.302 199.352 502.941 200.4L609.029 261.786L608.064 266.457L614.697 262.592H614.797C615.513 262.166 616.123 261.582 616.579 260.884C617.036 260.186 617.327 259.393 617.43 258.565L631.782 182.32C632.119 180.37 631.889 178.364 631.119 176.542Z" fill="#DDB1FF"/>
<path opacity="0.5" d="M603.319 266.397L496.267 204.467C494.546 203.209 493.218 201.487 492.438 199.501C491.658 197.515 491.46 195.348 491.865 193.253L506.036 118.095C506.84 113.786 510.056 111.793 513.352 113.665L620.404 175.596C622.126 176.853 623.454 178.576 624.233 180.562C625.013 182.548 625.212 184.715 624.806 186.81L610.736 261.968C609.932 266.296 606.556 268.269 603.319 266.397Z" fill="url(#paint6_linear_322_1)"/>
<path d="M619.983 175.334L566.879 144.631L550.256 232.976L602.878 266.155C603.583 266.654 604.407 266.956 605.267 267.03C606.127 267.104 606.991 266.947 607.77 266.576C608.55 266.205 609.217 265.633 609.703 264.919C610.189 264.205 610.476 263.374 610.536 262.511L624.907 186.266C625.216 184.163 624.917 182.015 624.044 180.078C623.171 178.14 621.761 176.494 619.983 175.334Z" fill="#D9A3FF"/>
<path d="M513.794 113.907L566.878 144.631L550.356 232.412L496.689 204.729C494.911 203.569 493.501 201.923 492.628 199.985C491.755 198.047 491.456 195.899 491.765 193.796L506.136 117.551C506.196 116.689 506.483 115.858 506.969 115.144C507.455 114.429 508.122 113.857 508.902 113.486C509.681 113.116 510.545 112.959 511.405 113.033C512.265 113.107 513.089 113.409 513.794 113.907Z" fill="#D9A3FF"/>
<path d="M492.447 199.534C493.255 201.684 494.745 203.509 496.688 204.729L602.877 266.155C603.636 266.666 604.52 266.96 605.433 267.006C606.347 267.052 607.256 266.848 608.063 266.417L560.486 178.616L492.447 199.534Z" fill="#DCAEFD"/>
<path d="M624.224 180.528C623.416 178.378 621.926 176.553 619.983 175.334L513.794 113.907C513.032 113.403 512.149 113.113 511.237 113.067C510.325 113.021 509.417 113.22 508.608 113.645L556.185 201.386L624.224 180.528Z" fill="#CF93FF"/>
</g>
<path d="M135.211 241.19L135.433 240.646C135.433 240.526 135.433 240.385 135.593 240.264L135.774 239.861C137.522 235.265 140.701 231.354 144.839 228.707L145.945 228.063L280.072 150.469L414.179 72.8954L415.285 72.2511C416.921 71.192 418.808 70.5873 420.754 70.4989C422.7 70.4104 424.635 70.8414 426.36 71.7478L426.641 71.8887L426.903 72.0297L444.611 82.2574L434.4 86.6263L469.816 274.712C470.606 279.808 469.908 285.024 467.806 289.731L467.645 290.134C467.645 290.255 467.545 290.376 467.485 290.517C465.722 295.116 462.539 299.031 458.399 301.691L190.989 456.395L193.461 468.213L176.678 458.469L176.416 458.328C174.623 457.259 173.093 455.799 171.941 454.056C170.789 452.313 170.045 450.332 169.763 448.261L133.563 255.746C132.744 250.835 133.315 245.792 135.211 241.19Z" fill="#DDB1FF"/>
<path d="M205.441 468.193L475.866 311.737C484.047 307.006 489.012 294.322 486.961 283.389L451.143 93.5522C449.133 82.6198 440.792 77.6066 432.611 82.3379L162.186 238.774C154.005 243.505 149.04 256.209 151.111 267.122L186.909 457.08C188.959 467.891 197.26 472.924 205.441 468.193Z" fill="url(#paint7_linear_322_1)"/>
<path d="M163.352 238.15L297.459 160.556L339.488 383.734L206.547 467.549C197.763 472.643 189.08 468.515 187.17 458.348L150.99 265.753C149 255.585 154.568 243.223 163.352 238.15Z" fill="#D9A3FF"/>
<path d="M431.566 82.962L297.459 160.556L339.227 382.324L474.761 312.381C479.26 309.456 482.825 305.297 485.031 300.4C487.237 295.502 487.991 290.073 487.203 284.758L451.023 92.183C449.134 82.0157 440.35 77.8884 431.566 82.962Z" fill="#D9A3FF"/>
<path d="M485.515 299.254C483.46 304.69 479.683 309.301 474.761 312.381L206.547 467.549C204.632 468.84 202.402 469.584 200.097 469.701C197.791 469.818 195.497 469.304 193.462 468.213L313.62 246.425L485.515 299.254Z" fill="#DCAEFD"/>
<path d="M152.618 251.277C154.659 245.839 158.431 241.225 163.352 238.15L431.566 82.9621C433.485 81.6782 435.715 80.9401 438.02 80.8267C440.324 80.7132 442.616 81.2286 444.651 82.3178L324.513 304.066L152.618 251.277Z" fill="#CF93FF"/>
<path style="mix-blend-mode:overlay" d="M612.773 298.515L610.229 295.967L607.684 298.515L610.229 301.064L612.773 298.515Z" fill="url(#paint8_radial_322_1)"/>
<path style="mix-blend-mode:overlay" d="M621.949 298.47L619.405 295.921L616.861 298.47L619.405 301.018L621.949 298.47Z" fill="url(#paint9_radial_322_1)"/>
<path style="mix-blend-mode:overlay" d="M617.386 293.891L614.842 291.342L612.298 293.891L614.842 296.439L617.386 293.891Z" fill="url(#paint10_radial_322_1)"/>
<path style="mix-blend-mode:overlay" d="M617.35 303.101L614.806 300.552L612.262 303.101L614.806 305.649L617.35 303.101Z" fill="url(#paint11_radial_322_1)"/>
<path style="mix-blend-mode:overlay" d="M562.498 377.07H524.308V383.271H562.498V377.07Z" fill="url(#paint12_radial_322_1)"/>
<path style="mix-blend-mode:overlay" d="M609.471 377.07H571.281V383.271H609.471V377.07Z" fill="url(#paint13_radial_322_1)"/>
<path style="mix-blend-mode:overlay" d="M557.673 398.874H524.187V390.821H557.673V398.874ZM526.096 396.861H555.663V392.653H526.096V396.861Z" fill="url(#paint14_radial_322_1)"/>
<path style="mix-blend-mode:overlay" d="M534.659 406.001H524.308V412.203H534.659V406.001Z" fill="url(#paint15_radial_322_1)"/>
<defs>
<radialGradient id="paint0_radial_322_1" cx="0" cy="0" r="1" gradientUnits="userSpaceOnUse" gradientTransform="translate(-5660.65 37354.3) rotate(-108.127) scale(14769.7 12136.3)">
<stop stop-color="#626466"/>
<stop offset="0.15" stop-color="#8A8C8D"/>
<stop offset="0.34" stop-color="#B4B5B6"/>
<stop offset="0.52" stop-color="#D5D5D6"/>
<stop offset="0.7" stop-color="#ECECEC"/>
<stop offset="0.86" stop-color="#FAFAFA"/>
<stop offset="1" stop-color="white"/>
</radialGradient>
<radialGradient id="paint1_radial_322_1" cx="0" cy="0" r="1" gradientUnits="userSpaceOnUse" gradientTransform="translate(-5754.25 36264.6) rotate(-108.521) scale(14337.6 12001)">
<stop stop-color="#626466"/>
<stop offset="0.15" stop-color="#8A8C8D"/>
<stop offset="0.34" stop-color="#B4B5B6"/>
<stop offset="0.52" stop-color="#D5D5D6"/>
<stop offset="0.7" stop-color="#ECECEC"/>
<stop offset="0.86" stop-color="#FAFAFA"/>
<stop offset="1" stop-color="white"/>
</radialGradient>
<radialGradient id="paint2_radial_322_1" cx="0" cy="0" r="1" gradientUnits="userSpaceOnUse" gradientTransform="translate(-12513 240024) rotate(-96.2094) scale(91091 27220)">
<stop stop-color="#626466"/>
<stop offset="0.15" stop-color="#8A8C8D"/>
<stop offset="0.34" stop-color="#B4B5B6"/>
<stop offset="0.52" stop-color="#D5D5D6"/>
<stop offset="0.7" stop-color="#ECECEC"/>
<stop offset="0.86" stop-color="#FAFAFA"/>
<stop offset="1" stop-color="white"/>
</radialGradient>
<radialGradient id="paint3_radial_322_1" cx="0" cy="0" r="1" gradientUnits="userSpaceOnUse" gradientTransform="translate(-14995.4 177397) rotate(-100.056) scale(67904.6 32443.3)">
<stop stop-color="#626466"/>
<stop offset="0.15" stop-color="#8A8C8D"/>
<stop offset="0.34" stop-color="#B4B5B6"/>
<stop offset="0.52" stop-color="#D5D5D6"/>
<stop offset="0.7" stop-color="#ECECEC"/>
<stop offset="0.86" stop-color="#FAFAFA"/>
<stop offset="1" stop-color="white"/>
</radialGradient>
<radialGradient id="paint4_radial_322_1" cx="0" cy="0" r="1" gradientUnits="userSpaceOnUse" gradientTransform="translate(-9473.21 112552) rotate(-100.056) scale(43117.9 20600.9)">
<stop stop-color="#626466"/>
<stop offset="0.15" stop-color="#8A8C8D"/>
<stop offset="0.34" stop-color="#B4B5B6"/>
<stop offset="0.52" stop-color="#D5D5D6"/>
<stop offset="0.7" stop-color="#ECECEC"/>
<stop offset="0.86" stop-color="#FAFAFA"/>
<stop offset="1" stop-color="white"/>
</radialGradient>
<radialGradient id="paint5_radial_322_1" cx="0" cy="0" r="1" gradientUnits="userSpaceOnUse" gradientTransform="translate(-5686.77 37328) rotate(-108.127) scale(14769.7 12136.3)">
<stop stop-color="#626466"/>
<stop offset="0.15" stop-color="#8A8C8D"/>
<stop offset="0.34" stop-color="#B4B5B6"/>
<stop offset="0.52" stop-color="#D5D5D6"/>
<stop offset="0.7" stop-color="#ECECEC"/>
<stop offset="0.86" stop-color="#FAFAFA"/>
<stop offset="1" stop-color="white"/>
</radialGradient>
<linearGradient id="paint6_linear_322_1" x1="501.113" y1="166.397" x2="628.226" y2="190.801" gradientUnits="userSpaceOnUse">
<stop stop-color="#7BDAFF"/>
<stop offset="1" stop-color="#59BDEF"/>
</linearGradient>
<linearGradient id="paint7_linear_322_1" x1="739416" y1="-514137" x2="685621" y2="-503809" gradientUnits="userSpaceOnUse">
<stop stop-color="#7BDAFF"/>
<stop offset="1" stop-color="#59BDEF"/>
</linearGradient>
<radialGradient id="paint8_radial_322_1" cx="0" cy="0" r="1" gradientUnits="userSpaceOnUse" gradientTransform="translate(-6090.74 6459.85) rotate(-50.1224) scale(3448.31 844.174)">
<stop stop-color="#626466"/>
<stop offset="0.15" stop-color="#8A8C8D"/>
<stop offset="0.34" stop-color="#B4B5B6"/>
<stop offset="0.52" stop-color="#D5D5D6"/>
<stop offset="0.7" stop-color="#ECECEC"/>
<stop offset="0.86" stop-color="#FAFAFA"/>
<stop offset="1" stop-color="white"/>
</radialGradient>
<radialGradient id="paint9_radial_322_1" cx="0" cy="0" r="1" gradientUnits="userSpaceOnUse" gradientTransform="translate(-6081.46 6459.83) rotate(-50.1229) scale(3448.29 844.153)">
<stop stop-color="#626466"/>
<stop offset="0.15" stop-color="#8A8C8D"/>
<stop offset="0.34" stop-color="#B4B5B6"/>
<stop offset="0.52" stop-color="#D5D5D6"/>
<stop offset="0.7" stop-color="#ECECEC"/>
<stop offset="0.86" stop-color="#FAFAFA"/>
<stop offset="1" stop-color="white"/>
</radialGradient>
<radialGradient id="paint10_radial_322_1" cx="0" cy="0" r="1" gradientUnits="userSpaceOnUse" gradientTransform="translate(-6086.26 6455.18) rotate(-50.1215) scale(3448.32 844.166)">
<stop stop-color="#626466"/>
<stop offset="0.15" stop-color="#8A8C8D"/>
<stop offset="0.34" stop-color="#B4B5B6"/>
<stop offset="0.52" stop-color="#D5D5D6"/>
<stop offset="0.7" stop-color="#ECECEC"/>
<stop offset="0.86" stop-color="#FAFAFA"/>
<stop offset="1" stop-color="white"/>
</radialGradient>
<radialGradient id="paint11_radial_322_1" cx="0" cy="0" r="1" gradientUnits="userSpaceOnUse" gradientTransform="translate(-6086.35 6464.54) rotate(-50.1221) scale(3448.38 844.186)">
<stop stop-color="#626466"/>
<stop offset="0.15" stop-color="#8A8C8D"/>
<stop offset="0.34" stop-color="#B4B5B6"/>
<stop offset="0.52" stop-color="#D5D5D6"/>
<stop offset="0.7" stop-color="#ECECEC"/>
<stop offset="0.86" stop-color="#FAFAFA"/>
<stop offset="1" stop-color="white"/>
</radialGradient>
<radialGradient id="paint12_radial_322_1" cx="0" cy="0" r="1" gradientUnits="userSpaceOnUse" gradientTransform="translate(-3584.16 16043.2) rotate(-118.677) scale(6741.01 7886.96)">
<stop stop-color="#626466"/>
<stop offset="0.15" stop-color="#8A8C8D"/>
<stop offset="0.34" stop-color="#B4B5B6"/>
<stop offset="0.52" stop-color="#D5D5D6"/>
<stop offset="0.7" stop-color="#ECECEC"/>
<stop offset="0.86" stop-color="#FAFAFA"/>
<stop offset="1" stop-color="white"/>
</radialGradient>
<radialGradient id="paint13_radial_322_1" cx="0" cy="0" r="1" gradientUnits="userSpaceOnUse" gradientTransform="translate(-3537.16 16043.2) rotate(-118.677) scale(6741.01 7886.93)">
<stop stop-color="#626466"/>
<stop offset="0.15" stop-color="#8A8C8D"/>
<stop offset="0.34" stop-color="#B4B5B6"/>
<stop offset="0.52" stop-color="#D5D5D6"/>
<stop offset="0.7" stop-color="#ECECEC"/>
<stop offset="0.86" stop-color="#FAFAFA"/>
<stop offset="1" stop-color="white"/>
</radialGradient>
<radialGradient id="paint14_radial_322_1" cx="0" cy="0" r="1" gradientUnits="userSpaceOnUse" gradientTransform="translate(-3078.3 20736.7) rotate(-110.269) scale(8187.81 7394.43)">
<stop stop-color="#626466"/>
<stop offset="0.15" stop-color="#8A8C8D"/>
<stop offset="0.34" stop-color="#B4B5B6"/>
<stop offset="0.52" stop-color="#D5D5D6"/>
<stop offset="0.7" stop-color="#ECECEC"/>
<stop offset="0.86" stop-color="#FAFAFA"/>
<stop offset="1" stop-color="white"/>
</radialGradient>
<radialGradient id="paint15_radial_322_1" cx="0" cy="0" r="1" gradientUnits="userSpaceOnUse" gradientTransform="translate(-589.296 16072.3) rotate(-98.4329) scale(5978.84 2410.31)">
<stop stop-color="#626466"/>
<stop offset="0.15" stop-color="#8A8C8D"/>
<stop offset="0.34" stop-color="#B4B5B6"/>
<stop offset="0.52" stop-color="#D5D5D6"/>
<stop offset="0.7" stop-color="#ECECEC"/>
<stop offset="0.86" stop-color="#FAFAFA"/>
<stop offset="1" stop-color="white"/>
</radialGradient>
</defs>
</svg>
