<svg width="172" height="164" viewBox="0 0 172 164" fill="none" xmlns="http://www.w3.org/2000/svg">
<path opacity="0.2" d="M161.185 121.991C161.185 121.991 168.738 157.25 121.27 157.078C121.27 157.078 93.6817 143.128 127.433 126.842C161.185 110.556 161.185 121.991 161.185 121.991Z" fill="url(#paint0_linear_248_188)"/>
<path opacity="0.2" d="M83.7378 134.458C83.7378 134.458 60.9685 163.179 38.9803 154.22C16.992 145.26 -6.03506 103.127 18.7886 68.2977C43.6122 33.468 83.2926 21.5248 111.506 27.5003C139.72 33.4758 183.985 56.3076 135.611 99.7998C135.635 99.7998 96.3684 117.945 83.7378 134.458Z" fill="url(#paint1_linear_248_188)"/>
<path d="M11.3598 154.22C11.9299 154.22 12.4872 154.051 12.9611 153.734C13.4351 153.418 13.8046 152.968 14.0227 152.441C14.2409 151.914 14.298 151.335 14.1868 150.776C14.0755 150.216 13.801 149.703 13.3979 149.3C12.9948 148.897 12.4812 148.622 11.9221 148.511C11.363 148.4 10.7835 148.457 10.2568 148.675C9.73018 148.893 9.28001 149.263 8.9633 149.737C8.64659 150.211 8.47754 150.768 8.47754 151.338C8.4796 152.102 8.78395 152.834 9.32403 153.374C9.86412 153.914 10.596 154.218 11.3598 154.22Z" stroke="#764FAC" stroke-width="2" stroke-miterlimit="10"/>
<path d="M145.648 7.46502C146.218 7.46502 146.775 7.29597 147.249 6.97926C147.723 6.66255 148.093 6.21241 148.311 5.68574C148.529 5.15907 148.586 4.57953 148.475 4.02042C148.364 3.46131 148.089 2.94773 147.686 2.54464C147.283 2.14154 146.769 1.86704 146.21 1.75583C145.651 1.64461 145.072 1.70168 144.545 1.91983C144.018 2.13798 143.568 2.50742 143.251 2.98141C142.935 3.4554 142.766 4.01266 142.766 4.58272C142.766 4.96123 142.84 5.33604 142.985 5.68574C143.13 6.03543 143.342 6.35317 143.61 6.62081C143.878 6.88846 144.195 7.10077 144.545 7.24562C144.895 7.39047 145.269 7.46502 145.648 7.46502Z" stroke="url(#paint2_linear_248_188)" stroke-width="2" stroke-miterlimit="10"/>
<path d="M52.8452 20.0646C53.4152 20.0646 53.9725 19.8956 54.4465 19.5789C54.9205 19.2622 55.2899 18.812 55.5081 18.2854C55.7262 17.7587 55.7833 17.1792 55.6721 16.62C55.5609 16.0609 55.2864 15.5474 54.8833 15.1443C54.4802 14.7412 53.9666 14.4666 53.4075 14.3554C52.8484 14.2442 52.2688 14.3013 51.7422 14.5195C51.2155 14.7376 50.7654 15.107 50.4487 15.581C50.1319 16.055 49.9629 16.6123 49.9629 17.1824C49.9629 17.9468 50.2666 18.6799 50.8071 19.2204C51.3476 19.761 52.0808 20.0646 52.8452 20.0646Z" fill="#5181C1"/>
<path d="M2.30721 55.3313L3.79913 52.4881C3.84573 52.4002 3.91611 52.3271 4.00223 52.2772C4.0863 52.2242 4.18406 52.197 4.28342 52.1991C4.3852 52.1973 4.48539 52.2244 4.57242 52.2772C4.65854 52.3271 4.72892 52.4002 4.77552 52.4881L6.24401 55.2844C6.28902 55.3618 6.35033 55.4284 6.42367 55.4797L8.34519 56.7842C8.42265 56.833 8.48699 56.9001 8.53265 56.9795C8.57255 57.0624 8.59389 57.153 8.59515 57.245C8.59494 57.3372 8.57355 57.428 8.53265 57.5106C8.4851 57.5907 8.42124 57.6599 8.34519 57.7137L6.46272 58.8619C6.37576 58.9177 6.30555 58.9959 6.25962 59.0884L4.79113 62.0489C4.73964 62.1378 4.66726 62.2129 4.58024 62.2676C4.49564 62.3194 4.39824 62.3464 4.29905 62.3457C4.19727 62.3475 4.09705 62.3204 4.01002 62.2676C3.923 62.2129 3.85062 62.1378 3.79913 62.0489L2.32285 59.2603C2.27852 59.1849 2.22019 59.1186 2.151 59.065L0.276322 57.7293C0.202417 57.6789 0.141802 57.6114 0.0996376 57.5325C0.0574736 57.4536 0.0350139 57.3657 0.0341797 57.2763C0.0344587 57.1867 0.0558807 57.0983 0.0966818 57.0185C0.141387 56.9388 0.20263 56.8695 0.276322 56.8154L2.14318 55.5578C2.21209 55.5062 2.26821 55.4394 2.30721 55.3626V55.3313Z" fill="#5181C1"/>
<path d="M165.254 61.3147L166.739 58.4793C166.785 58.389 166.855 58.3132 166.942 58.2606C167.029 58.2085 167.129 58.1815 167.231 58.1825C167.332 58.1807 167.433 58.2078 167.52 58.2606C167.606 58.3132 167.677 58.389 167.723 58.4793L169.191 61.2757C169.238 61.3516 169.299 61.4178 169.371 61.4709L171.292 62.7676C171.37 62.8164 171.434 62.8835 171.48 62.9629C171.519 63.046 171.54 63.1365 171.542 63.2284C171.542 63.3206 171.521 63.4114 171.48 63.494C171.435 63.5757 171.37 63.6453 171.292 63.6971L169.41 64.8453C169.325 64.9029 169.255 64.9808 169.207 65.0718L167.731 68.0088C167.684 68.0968 167.614 68.1698 167.528 68.2197C167.44 68.2725 167.34 68.2996 167.239 68.2978C167.139 68.2999 167.041 68.2727 166.957 68.2197C166.869 68.1703 166.796 68.0973 166.746 68.0088L165.27 65.2124C165.228 65.1378 165.169 65.0737 165.098 65.025L163.224 63.6815C163.148 63.6324 163.087 63.5652 163.044 63.4862C163.004 63.4061 162.983 63.318 162.981 63.2284C162.982 63.1388 163.003 63.0505 163.044 62.9707C163.087 62.8916 163.148 62.8245 163.224 62.7754L165.09 61.51C165.159 61.4583 165.215 61.3915 165.254 61.3147Z" fill="#5181C1"/>
<path d="M16.8043 80.413L18.2962 77.5776C18.3429 77.4852 18.4164 77.4089 18.5071 77.3589C18.5927 77.3095 18.6895 77.2827 18.7883 77.2808C18.8896 77.2827 18.9888 77.3095 19.0773 77.3589C19.164 77.4115 19.2343 77.4873 19.2804 77.5776L20.7489 80.3739C20.791 80.4555 20.8528 80.5253 20.9285 80.577L22.8422 81.8659C22.9218 81.9155 22.9865 81.9857 23.0297 82.069C23.0697 82.1491 23.0911 82.2372 23.0922 82.3267C23.092 82.4189 23.0706 82.5097 23.0297 82.5923C22.9865 82.6756 22.9218 82.7457 22.8422 82.7954L20.952 83.9202C20.8689 83.9771 20.7995 84.0518 20.7489 84.1389L19.2804 87.0759C19.2321 87.1647 19.1623 87.2399 19.0773 87.2946C18.9912 87.3504 18.8909 87.3801 18.7883 87.3801C18.6857 87.3801 18.5853 87.3504 18.4993 87.2946C18.4143 87.2399 18.3444 87.1647 18.2962 87.0759L16.8121 84.2795C16.7705 84.2044 16.7148 84.1381 16.6481 84.0842L14.7656 82.7485C14.6928 82.6989 14.6337 82.6318 14.5937 82.5532C14.5477 82.4751 14.5234 82.3862 14.5234 82.2955C14.5234 82.2048 14.5477 82.1158 14.5937 82.0377C14.6337 81.9592 14.6928 81.892 14.7656 81.8424L16.6324 80.5692C16.7012 80.5314 16.76 80.4779 16.8043 80.413Z" fill="white" stroke="url(#paint3_linear_248_188)" stroke-width="2" stroke-miterlimit="10"/>
<path d="M86.0182 155.142L87.5101 152.306C87.5567 152.218 87.627 152.145 87.7131 152.095C87.7995 152.04 87.8997 152.011 88.0022 152.01C88.1022 152.01 88.2 152.04 88.2834 152.095C88.3695 152.145 88.4399 152.218 88.4865 152.306L89.9549 155.103C90.0025 155.18 90.0633 155.249 90.1346 155.306L92.0483 156.595C92.1263 156.646 92.1906 156.716 92.2358 156.798C92.2824 156.878 92.3067 156.97 92.3061 157.063C92.306 157.156 92.2818 157.248 92.2358 157.329C92.1924 157.41 92.1276 157.478 92.0483 157.524L90.1658 158.68C90.0789 158.736 90.0087 158.814 89.9627 158.907L88.4865 161.836C88.446 161.93 88.3779 162.009 88.2912 162.062C88.2036 162.114 88.1038 162.141 88.0022 162.141C87.9005 162.141 87.8008 162.114 87.7131 162.062C87.6262 162.007 87.556 161.928 87.5101 161.836L86.0259 159.04C85.98 158.965 85.9219 158.899 85.8541 158.844L83.9794 157.516C83.9037 157.465 83.842 157.395 83.7998 157.313C83.759 157.233 83.7376 157.145 83.7373 157.056C83.7385 156.968 83.7599 156.883 83.7998 156.806C83.8398 156.723 83.902 156.652 83.9794 156.602L85.8385 155.337C85.912 155.286 85.9733 155.219 86.0182 155.142V155.142Z" stroke="#BCD6FF" stroke-width="2" stroke-miterlimit="10"/>
<path d="M59.791 52.2356H134.533V97.7307H59.791V52.2356Z" fill="#B2CDF7"/>
<path d="M134.533 97.7309L110.973 74.1709H83.351L59.791 97.7309" fill="#BCD6FF"/>
<path d="M59.791 52.2356L88.6691 79.8577H105.655L134.533 52.2356" fill="#BCD6FF"/>
<g filter="url(#filter0_d_248_188)">
<path d="M108.537 27.8633H76.04V67.7771L88.6698 79.8577H105.656L118.286 67.7771V37.6122H108.537V27.8633Z" fill="white"/>
</g>
<path d="M118.285 37.6122H108.536V27.8633" fill="#BCD6FF"/>
<path d="M37.0439 79.8577H111.786V125.353H37.0439V79.8577Z" fill="#DFD0FF"/>
<path d="M111.786 125.353L88.226 101.793H60.6039L37.0439 125.353" fill="#CEBDF2"/>
<path opacity="0.5" d="M37.0439 79.8577L74.415 115.604L111.786 79.8577" fill="url(#paint4_linear_248_188)"/>
<path d="M80.9141 32.7378H84.1637V35.9874H80.9141V32.7378Z" fill="#BCD6FF"/>
<path d="M87.4141 32.7378H90.6637V35.9874H87.4141V32.7378Z" fill="#BCD6FF"/>
<path d="M93.9121 32.7378H97.1618V35.9874H93.9121V32.7378Z" fill="#BCD6FF"/>
<g opacity="0.5">
<path d="M80.9141 39.2371H103.662V42.4867H80.9141V39.2371Z" fill="url(#paint5_linear_248_188)"/>
<path d="M80.9141 45.7363H84.1637V48.986H80.9141V45.7363Z" fill="url(#paint6_linear_248_188)"/>
<path d="M87.4141 45.7363H113.411V48.986H87.4141V45.7363Z" fill="url(#paint7_linear_248_188)"/>
<path d="M110.161 52.2356H113.411V55.4852H110.161V52.2356Z" fill="url(#paint8_linear_248_188)"/>
<path d="M80.9141 52.2356H106.911V55.4852H80.9141V52.2356Z" fill="url(#paint9_linear_248_188)"/>
<path d="M80.9141 58.7351H84.1637V61.9848H80.9141V58.7351Z" fill="url(#paint10_linear_248_188)"/>
<path d="M87.4141 58.7351H113.411V61.9848H87.4141V58.7351Z" fill="url(#paint11_linear_248_188)"/>
</g>
<defs>
<filter id="filter0_d_248_188" x="72.04" y="23.8633" width="50.2451" height="59.9944" filterUnits="userSpaceOnUse" color-interpolation-filters="sRGB">
<feFlood flood-opacity="0" result="BackgroundImageFix"/>
<feColorMatrix in="SourceAlpha" type="matrix" values="0 0 0 0 0 0 0 0 0 0 0 0 0 0 0 0 0 0 127 0" result="hardAlpha"/>
<feOffset/>
<feGaussianBlur stdDeviation="2"/>
<feColorMatrix type="matrix" values="0 0 0 0 0 0 0 0 0 0 0 0 0 0 0 0 0 0 0.25 0"/>
<feBlend mode="normal" in2="BackgroundImageFix" result="effect1_dropShadow_248_188"/>
<feBlend mode="normal" in="SourceGraphic" in2="effect1_dropShadow_248_188" result="shape"/>
</filter>
<linearGradient id="paint0_linear_248_188" x1="136.137" y1="118.09" x2="136.137" y2="157.079" gradientUnits="userSpaceOnUse">
<stop stop-color="#8AB7FF"/>
<stop offset="1" stop-color="#E9BCFA"/>
</linearGradient>
<linearGradient id="paint1_linear_248_188" x1="82.5974" y1="26.0281" x2="82.5974" y2="155.951" gradientUnits="userSpaceOnUse">
<stop stop-color="#8AB7FF"/>
<stop offset="1" stop-color="#E9BCFA"/>
</linearGradient>
<linearGradient id="paint2_linear_248_188" x1="3482.78" y1="2451.13" x2="3438.11" y2="2447.32" gradientUnits="userSpaceOnUse">
<stop stop-color="#E199FC"/>
<stop offset="1" stop-color="#9240FC"/>
</linearGradient>
<linearGradient id="paint3_linear_248_188" x1="3604.5" y1="3364.11" x2="3505.55" y2="3357.99" gradientUnits="userSpaceOnUse">
<stop stop-color="#E199FC"/>
<stop offset="1" stop-color="#9240FC"/>
</linearGradient>
<linearGradient id="paint4_linear_248_188" x1="114.221" y1="93.0188" x2="37.6629" y2="106.707" gradientUnits="userSpaceOnUse">
<stop stop-color="#E199FC"/>
<stop offset="1" stop-color="#9240FC"/>
</linearGradient>
<linearGradient id="paint5_linear_248_188" x1="104.403" y1="40.4335" x2="86.7001" y2="51.0297" gradientUnits="userSpaceOnUse">
<stop stop-color="#E199FC"/>
<stop offset="1" stop-color="#9240FC"/>
</linearGradient>
<linearGradient id="paint6_linear_248_188" x1="84.2696" y1="46.9328" x2="80.8595" y2="47.2244" gradientUnits="userSpaceOnUse">
<stop stop-color="#E199FC"/>
<stop offset="1" stop-color="#9240FC"/>
</linearGradient>
<linearGradient id="paint7_linear_248_188" x1="114.258" y1="46.9328" x2="95.5382" y2="59.7387" gradientUnits="userSpaceOnUse">
<stop stop-color="#E199FC"/>
<stop offset="1" stop-color="#9240FC"/>
</linearGradient>
<linearGradient id="paint8_linear_248_188" x1="113.517" y1="53.4321" x2="110.107" y2="53.7237" gradientUnits="userSpaceOnUse">
<stop stop-color="#E199FC"/>
<stop offset="1" stop-color="#9240FC"/>
</linearGradient>
<linearGradient id="paint9_linear_248_188" x1="107.758" y1="53.4321" x2="89.0382" y2="66.2379" gradientUnits="userSpaceOnUse">
<stop stop-color="#E199FC"/>
<stop offset="1" stop-color="#9240FC"/>
</linearGradient>
<linearGradient id="paint10_linear_248_188" x1="84.2696" y1="59.9316" x2="80.8595" y2="60.2232" gradientUnits="userSpaceOnUse">
<stop stop-color="#E199FC"/>
<stop offset="1" stop-color="#9240FC"/>
</linearGradient>
<linearGradient id="paint11_linear_248_188" x1="114.258" y1="59.9316" x2="95.5382" y2="72.7375" gradientUnits="userSpaceOnUse">
<stop stop-color="#E199FC"/>
<stop offset="1" stop-color="#9240FC"/>
</linearGradient>
</defs>
</svg>
