<svg width="1920" height="542" viewBox="0 0 1920 542" fill="none" xmlns="http://www.w3.org/2000/svg">
<path opacity="0.1" d="M1919.93 541.999H0.00147702C11.6753 536.612 54.6545 542.001 232.334 362.514C422.805 170.106 610.088 293.983 713.658 362.488L713.698 362.514C811.415 427.148 900.185 541.999 1318.04 362.514C1719.24 190.182 1885.61 408.404 1919.93 541.999Z" fill="url(#paint0_linear_204_2)"/>
<path opacity="0.1" d="M104.656 280.683C30.3827 350.449 0.0157083 443.971 0.0156997 541.999L1920 541.999L1920 0.663574C1893.96 34.2563 1783.32 403.429 1483.93 323.646C1209.78 250.588 1164.84 83.5272 872.144 248.062C707.121 359.161 679.504 270.616 528.843 215.871C387.063 164.352 214.608 177.405 104.656 280.683Z" fill="url(#paint1_linear_204_2)"/>
<path opacity="0.1" d="M1640.16 190.66C1864.31 230.514 1920 417.295 1920 541.999H0V73.5469C26.0861 99.572 136.952 434.646 436.942 372.836C711.646 316.236 868.502 219.824 1049.97 314.28C1274.96 431.393 1310.83 132.104 1640.16 190.66Z" fill="url(#paint2_linear_204_2)"/>
<defs>
<linearGradient id="paint0_linear_204_2" x1="959.676" y1="259.649" x2="959.676" y2="541.999" gradientUnits="userSpaceOnUse">
<stop stop-color="#8AB7FF"/>
<stop offset="1" stop-color="#E9BCFA"/>
</linearGradient>
<linearGradient id="paint1_linear_204_2" x1="960.007" y1="-62.67" x2="960.007" y2="541.999" gradientUnits="userSpaceOnUse">
<stop stop-color="#8AB7FF"/>
<stop offset="1" stop-color="#E9BCFA"/>
</linearGradient>
<linearGradient id="paint2_linear_204_2" x1="961.925" y1="73.5469" x2="961.925" y2="541.999" gradientUnits="userSpaceOnUse">
<stop stop-color="#8AB7FF"/>
<stop offset="1" stop-color="#E9BCFA"/>
</linearGradient>
</defs>
</svg>
