<svg width="163" height="163" viewBox="0 0 163 163" fill="none" xmlns="http://www.w3.org/2000/svg">
<path opacity="0.5" d="M88.7675 79.4299H85.2525C85.2525 78.8134 85.0014 78.2557 84.5971 77.8514C84.1928 77.4471 83.635 77.1959 83.0186 77.1959V73.6809C84.6046 73.6809 86.0414 74.3256 87.0823 75.3664C88.1229 76.407 88.7675 77.8439 88.7675 79.4299Z" fill="url(#paint0_linear_248_186)"/>
<path opacity="0.5" d="M85.2531 79.4298C85.2531 78.8133 85.002 78.2556 84.5977 77.8513L87.0827 75.3662C88.1235 76.407 88.7682 77.8439 88.7682 79.4299L85.2531 79.4298Z" fill="url(#paint1_linear_248_186)"/>
<path opacity="0.5" d="M96.8799 79.4298H93.3649C93.3649 76.5775 92.2039 73.9914 90.3305 72.1178C88.457 70.2443 85.8708 69.0834 83.0186 69.0834V65.5684C86.8403 65.5684 90.3056 67.1229 92.8155 69.6329C95.3255 72.1427 96.8799 75.608 96.8799 79.4298Z" fill="url(#paint2_linear_248_186)"/>
<path opacity="0.5" d="M93.3635 79.4303C93.3635 76.5781 92.2026 73.992 90.3291 72.1184L92.8142 69.6333C95.3241 72.1432 96.8787 75.6087 96.8787 79.4303H93.3635Z" fill="url(#paint3_linear_248_186)"/>
<path opacity="0.5" d="M104.949 79.4296H101.434C101.434 74.3517 99.3683 69.7488 96.0339 66.4143C92.6994 63.0799 88.0964 61.0141 83.0186 61.0141V57.499C89.066 57.499 94.5482 59.9584 98.5189 63.9293C102.49 67.9001 104.949 73.3822 104.949 79.4296Z" fill="url(#paint4_linear_248_186)"/>
<path opacity="0.5" d="M101.434 79.4298C101.434 74.3519 99.3686 69.7489 96.0342 66.4145L98.5192 63.9294C102.49 67.9003 104.949 73.3825 104.949 79.4298H101.434Z" fill="url(#paint5_linear_248_186)"/>
<path opacity="0.5" d="M113.018 79.43H109.503C109.502 72.129 106.533 65.5082 101.737 60.7121C96.9404 55.916 90.3196 52.9461 83.0186 52.9453V49.4302C91.0314 49.4302 98.5653 52.5509 104.232 58.2171C109.898 63.8833 113.018 71.4172 113.018 79.43Z" fill="url(#paint6_linear_248_186)"/>
<path opacity="0.5" d="M109.503 79.4303C109.502 72.1292 106.532 65.5084 101.736 60.7123L104.231 58.2173C109.898 63.8835 113.018 71.4174 113.018 79.4303H109.503Z" fill="url(#paint7_linear_248_186)"/>
<path opacity="0.5" d="M100.683 104.5L97.6382 107.545C92.5811 112.602 78.9144 107.136 67.1139 95.335C55.3133 83.5344 49.8468 69.8678 54.904 64.8106L57.9492 61.7654L66.2802 65.7776L70.1591 73.9753C68.8822 75.2621 68.7446 77.2873 69.8268 78.7441C71.6821 81.2391 73.8415 83.7482 76.2712 86.1778C78.7007 88.6073 81.2099 90.7668 83.7049 92.6221C85.1616 93.7043 87.1869 93.5667 88.4737 92.2899L96.6713 96.1688L100.683 104.5Z" fill="url(#paint8_linear_248_186)"/>
<path opacity="0.5" d="M100.684 104.5L97.6386 107.545C92.5815 112.602 78.9148 107.135 67.1143 95.3349L76.2714 86.1777C78.701 88.6072 81.2101 90.7668 83.7052 92.6221C85.1619 93.7043 87.1871 93.5667 88.474 92.2898L96.6716 96.1687L100.684 104.5Z" fill="url(#paint9_linear_248_186)"/>
<path d="M94.5855 86.177L88.4833 92.2791C88.4798 92.2827 88.4762 92.2859 88.4727 92.2893L100.682 104.499L106.795 98.3868L94.5855 86.177Z" fill="#BCD6FF"/>
<path d="M70.1683 73.9652L76.2705 67.8631L64.0608 55.6533L57.9482 61.7659L70.1581 73.9758C70.1615 73.9724 70.1648 73.9686 70.1683 73.9652Z" fill="#BCD6FF"/>
<path opacity="0.2" d="M130.16 26.6455L55.8383 28.2767C55.9313 28.2338 52.3111 26.6884 52.4041 26.6455C61.3473 22.2955 76.422 15.8635 92.7845 15.9136C114.398 15.9923 120.923 21.7303 130.16 26.6455Z" fill="url(#paint10_linear_248_186)"/>
<path opacity="0.2" d="M141.014 74.2307V40.2179C141.014 39.7658 140.985 39.3142 140.928 38.8657C151.466 54.1193 141.014 74.2307 141.014 74.2307Z" fill="#8AB7FF"/>
<path opacity="0.2" d="M77.9671 119.691C55.373 140.095 35.8553 134.715 35.8553 134.715C15.9942 129.049 12.696 103.951 12.467 89.7559C12.2013 78.5696 15.2804 67.5586 21.3101 58.1328C22.4739 56.3441 23.7116 54.6342 25.0233 53.0029V110.483C25.0233 116.478 28.1069 119.569 34.1024 119.569L77.9671 119.691Z" fill="url(#paint11_linear_248_186)"/>
<path opacity="0.2" d="M126.583 136.261C99.589 139.652 106.279 119.891 106.279 119.891H128.4C133.938 119.891 142.538 116.314 141.465 110.34C141.193 108.956 141.042 107.55 141.014 106.14V99.4577C147.367 98.5348 150.172 103.128 150.172 103.128C155.631 112.221 152.089 120.049 147.188 125.601C141.842 131.537 134.518 135.326 126.583 136.261Z" fill="url(#paint12_linear_248_186)"/>
<path d="M130.16 27.7407H35.8769C29.8827 27.7407 25.0234 32.6 25.0234 38.5942V108.838C25.0234 114.832 29.8827 119.691 35.8769 119.691H130.16C136.154 119.691 141.013 114.832 141.013 108.838V38.5942C141.013 32.6 136.154 27.7407 130.16 27.7407Z" stroke="url(#paint13_linear_248_186)" stroke-width="3" stroke-miterlimit="10"/>
<path d="M141.014 41.062H24.3086" stroke="url(#paint14_linear_248_186)" stroke-width="3" stroke-miterlimit="10"/>
<path d="M35.8129 36.7118C37.0655 36.7118 38.0809 35.6964 38.0809 34.4438C38.0809 33.1912 37.0655 32.1758 35.8129 32.1758C34.5603 32.1758 33.5449 33.1912 33.5449 34.4438C33.5449 35.6964 34.5603 36.7118 35.8129 36.7118Z" fill="url(#paint15_linear_248_186)"/>
<path d="M44.1117 36.7118C45.3643 36.7118 46.3797 35.6964 46.3797 34.4438C46.3797 33.1912 45.3643 32.1758 44.1117 32.1758C42.8592 32.1758 41.8438 33.1912 41.8438 34.4438C41.8438 35.6964 42.8592 36.7118 44.1117 36.7118Z" stroke="url(#paint16_linear_248_186)" stroke-width="2" stroke-miterlimit="10"/>
<path d="M52.4037 36.7118C53.6563 36.7118 54.6717 35.6964 54.6717 34.4438C54.6717 33.1912 53.6563 32.1758 52.4037 32.1758C51.1512 32.1758 50.1357 33.1912 50.1357 34.4438C50.1357 35.6964 51.1512 36.7118 52.4037 36.7118Z" stroke="url(#paint17_linear_248_186)" stroke-width="2" stroke-miterlimit="10"/>
<path d="M20.0652 14.0032C21.6971 14.0032 23.02 12.6803 23.02 11.0483C23.02 9.41643 21.6971 8.09351 20.0652 8.09351C18.4333 8.09351 17.1104 9.41643 17.1104 11.0483C17.1104 12.6803 18.4333 14.0032 20.0652 14.0032Z" stroke="url(#paint18_linear_248_186)" stroke-width="2" stroke-miterlimit="10"/>
<path d="M4.66187 117.093C6.29378 117.093 7.61671 115.77 7.61671 114.138C7.61671 112.507 6.29378 111.184 4.66187 111.184C3.02996 111.184 1.70703 112.507 1.70703 114.138C1.70703 115.77 3.02996 117.093 4.66187 117.093Z" stroke="url(#paint19_linear_248_186)" stroke-width="2" stroke-miterlimit="10"/>
<path d="M124.315 142.564C125.947 142.564 127.27 141.241 127.27 139.609C127.27 137.977 125.947 136.654 124.315 136.654C122.683 136.654 121.36 137.977 121.36 139.609C121.36 141.241 122.683 142.564 124.315 142.564Z" fill="#5181C1"/>
<path d="M149.971 86.7871C151.603 86.7871 152.926 85.4642 152.926 83.8323C152.926 82.2004 151.603 80.8774 149.971 80.8774C148.34 80.8774 147.017 82.2004 147.017 83.8323C147.017 85.4642 148.34 86.7871 149.971 86.7871Z" fill="#5181C1"/>
<path d="M37.0291 148.474C38.661 148.474 39.9839 147.151 39.9839 145.519C39.9839 143.887 38.661 142.564 37.0291 142.564C35.3971 142.564 34.0742 143.887 34.0742 145.519C34.0742 147.151 35.3971 148.474 37.0291 148.474Z" fill="url(#paint20_linear_248_186)"/>
<path d="M79.8562 16.9656C81.4881 16.9656 82.811 15.6427 82.811 14.0107C82.811 12.3788 81.4881 11.0559 79.8562 11.0559C78.2243 11.0559 76.9014 12.3788 76.9014 14.0107C76.9014 15.6427 78.2243 16.9656 79.8562 16.9656Z" fill="#5181C1"/>
<path d="M124.465 3.90841L125.989 1.00365C126.036 0.912205 126.108 0.835599 126.197 0.782148C126.285 0.728696 126.386 0.700439 126.489 0.700439C126.593 0.700439 126.694 0.728696 126.782 0.782148C126.87 0.835599 126.942 0.912205 126.99 1.00365L128.5 3.86548C128.544 3.94489 128.605 4.01338 128.679 4.06581L130.646 5.39656C130.726 5.4477 130.792 5.51808 130.837 5.60122C130.882 5.68435 130.906 5.77759 130.906 5.87234C130.906 5.96708 130.882 6.06031 130.837 6.14345C130.792 6.22659 130.726 6.29697 130.646 6.34811L128.722 7.52861C128.635 7.58674 128.563 7.66537 128.514 7.75757L127.004 10.7625C126.956 10.8537 126.883 10.9299 126.794 10.9831C126.705 11.0362 126.604 11.0643 126.5 11.0643C126.397 11.0643 126.295 11.0362 126.206 10.9831C126.117 10.9299 126.045 10.8537 125.996 10.7625L124.479 7.90065C124.436 7.82508 124.377 7.7593 124.307 7.70748L122.383 6.3338C122.307 6.28181 122.246 6.21234 122.203 6.13134C122.161 6.05033 122.139 5.96023 122.139 5.86875C122.139 5.77728 122.161 5.68718 122.203 5.60618C122.246 5.52518 122.307 5.4557 122.383 5.40371L124.293 4.10873C124.366 4.05685 124.424 3.9881 124.465 3.90841Z" fill="#5181C1"/>
<path d="M10.4146 70.6315L11.9385 67.7268C11.9863 67.6353 12.0583 67.5587 12.1466 67.5053C12.2349 67.4518 12.3361 67.4236 12.4393 67.4236C12.5425 67.4236 12.6438 67.4518 12.732 67.5053C12.8203 67.5587 12.8923 67.6353 12.9401 67.7268L14.4498 70.5886C14.4939 70.67 14.5579 70.7389 14.6358 70.7889L16.5961 72.1197C16.6759 72.1708 16.7415 72.2412 16.7869 72.3244C16.8324 72.4075 16.8562 72.5007 16.8562 72.5955C16.8562 72.6902 16.8324 72.7835 16.7869 72.8666C16.7415 72.9497 16.6759 73.0201 16.5961 73.0713L14.6715 74.2518C14.5846 74.3099 14.5134 74.3885 14.4641 74.4807L12.9544 77.4856C12.9055 77.5768 12.8328 77.6531 12.744 77.7062C12.6551 77.7594 12.5536 77.7875 12.45 77.7875C12.3465 77.7875 12.245 77.7594 12.1562 77.7062C12.0673 77.6531 11.9946 77.5768 11.9457 77.4856L10.4289 74.6238C10.3856 74.5482 10.3272 74.4825 10.2572 74.4306L8.3326 73.0569C8.25878 73.0047 8.19856 72.9356 8.157 72.8553C8.11544 72.775 8.09375 72.6859 8.09375 72.5955C8.09375 72.5051 8.11544 72.416 8.157 72.3357C8.19856 72.2554 8.25878 72.1862 8.3326 72.134L10.2429 70.8319C10.3155 70.78 10.3744 70.7112 10.4146 70.6315Z" fill="#764FAC"/>
<path d="M155.266 51.0141L156.797 48.1094C156.845 48.0179 156.917 47.9413 157.005 47.8879C157.093 47.8344 157.194 47.8062 157.298 47.8062C157.401 47.8062 157.502 47.8344 157.59 47.8879C157.679 47.9413 157.751 48.0179 157.798 48.1094L159.301 50.9712C159.345 51.0546 159.409 51.1259 159.487 51.1787L161.447 52.5023C161.527 52.5534 161.593 52.6238 161.638 52.7069C161.684 52.7901 161.707 52.8833 161.707 52.978C161.707 53.0728 161.684 53.166 161.638 53.2492C161.593 53.3323 161.527 53.4027 161.447 53.4538L159.516 54.6343C159.429 54.6924 159.357 54.7711 159.308 54.8633L157.798 57.8682C157.752 57.9618 157.681 58.0406 157.593 58.0957C157.504 58.1508 157.402 58.1801 157.298 58.1801C157.193 58.1801 157.091 58.1508 157.003 58.0957C156.914 58.0406 156.843 57.9618 156.797 57.8682L155.273 55.0064C155.23 54.9287 155.171 54.8605 155.101 54.806L153.177 53.4395C153.101 53.3875 153.04 53.318 152.997 53.237C152.955 53.156 152.933 53.0659 152.933 52.9745C152.933 52.883 152.955 52.7929 152.997 52.7119C153.04 52.6309 153.101 52.5614 153.177 52.5094L155.087 51.2073C155.161 51.1583 155.223 51.092 155.266 51.0141Z" stroke="#764FAC" stroke-width="2" stroke-miterlimit="10"/>
<path d="M93.5505 153.975L95.0816 151.071C95.1295 150.979 95.2014 150.902 95.2897 150.849C95.378 150.796 95.4792 150.767 95.5824 150.767C95.6856 150.767 95.7869 150.796 95.8752 150.849C95.9635 150.902 96.0354 150.979 96.0833 151.071L97.5857 153.932C97.6297 154.016 97.6936 154.087 97.7718 154.14L99.7393 155.463C99.819 155.515 99.8846 155.585 99.9301 155.668C99.9755 155.751 99.9993 155.844 99.9993 155.939C99.9993 156.034 99.9755 156.127 99.9301 156.21C99.8846 156.293 99.819 156.364 99.7393 156.415L97.8147 157.603C97.723 157.654 97.6483 157.731 97.6 157.824L96.0904 160.829C96.0444 160.923 95.9731 161.002 95.8846 161.057C95.7961 161.112 95.6939 161.141 95.5896 161.141C95.4853 161.141 95.3831 161.112 95.2946 161.057C95.2061 161.002 95.1348 160.923 95.0888 160.829L93.5649 157.968C93.5235 157.891 93.4647 157.824 93.3931 157.774L91.4686 156.401C91.3933 156.349 91.3318 156.279 91.2893 156.198C91.2468 156.117 91.2246 156.027 91.2246 155.936C91.2246 155.844 91.2468 155.754 91.2893 155.673C91.3318 155.592 91.3933 155.523 91.4686 155.471L93.3788 154.168C93.4494 154.117 93.508 154.051 93.5505 153.975V153.975Z" stroke="#764FAC" stroke-width="2" stroke-miterlimit="10"/>
<defs>
<linearGradient id="paint0_linear_248_186" x1="88.9549" y1="75.7976" x2="82.922" y2="76.3134" gradientUnits="userSpaceOnUse">
<stop stop-color="#E199FC"/>
<stop offset="1" stop-color="#9240FC"/>
</linearGradient>
<linearGradient id="paint1_linear_248_186" x1="88.9041" y1="76.8624" x2="84.5293" y2="77.2463" gradientUnits="userSpaceOnUse">
<stop stop-color="#E199FC"/>
<stop offset="1" stop-color="#9240FC"/>
</linearGradient>
<linearGradient id="paint2_linear_248_186" x1="97.3316" y1="70.6719" x2="82.7858" y2="71.9157" gradientUnits="userSpaceOnUse">
<stop stop-color="#E199FC"/>
<stop offset="1" stop-color="#9240FC"/>
</linearGradient>
<linearGradient id="paint3_linear_248_186" x1="97.0921" y1="73.2404" x2="90.1914" y2="73.6349" gradientUnits="userSpaceOnUse">
<stop stop-color="#E199FC"/>
<stop offset="1" stop-color="#9240FC"/>
</linearGradient>
<linearGradient id="paint4_linear_248_186" x1="105.664" y1="65.5735" x2="82.6504" y2="67.5414" gradientUnits="userSpaceOnUse">
<stop stop-color="#E199FC"/>
<stop offset="1" stop-color="#9240FC"/>
</linearGradient>
<linearGradient id="paint5_linear_248_186" x1="105.24" y1="69.6364" x2="95.8388" y2="70.0988" gradientUnits="userSpaceOnUse">
<stop stop-color="#E199FC"/>
<stop offset="1" stop-color="#9240FC"/>
</linearGradient>
<linearGradient id="paint6_linear_248_186" x1="113.996" y1="60.4756" x2="82.5149" y2="63.1675" gradientUnits="userSpaceOnUse">
<stop stop-color="#E199FC"/>
<stop offset="1" stop-color="#9240FC"/>
</linearGradient>
<linearGradient id="paint7_linear_248_186" x1="113.386" y1="66.0276" x2="101.485" y2="66.5688" gradientUnits="userSpaceOnUse">
<stop stop-color="#E199FC"/>
<stop offset="1" stop-color="#9240FC"/>
</linearGradient>
<linearGradient id="paint8_linear_248_186" x1="102.237" y1="79.3148" x2="52.2183" y2="83.5918" gradientUnits="userSpaceOnUse">
<stop stop-color="#E199FC"/>
<stop offset="1" stop-color="#9240FC"/>
</linearGradient>
<linearGradient id="paint9_linear_248_186" x1="101.778" y1="94.7389" x2="66.8257" y2="99.0537" gradientUnits="userSpaceOnUse">
<stop stop-color="#E199FC"/>
<stop offset="1" stop-color="#9240FC"/>
</linearGradient>
<linearGradient id="paint10_linear_248_186" x1="91.2811" y1="15.9133" x2="91.2811" y2="28.2767" gradientUnits="userSpaceOnUse">
<stop stop-color="#8AB7FF"/>
<stop offset="1" stop-color="#E9BCFA"/>
</linearGradient>
<linearGradient id="paint11_linear_248_186" x1="45.2091" y1="53.0029" x2="45.2091" y2="135.357" gradientUnits="userSpaceOnUse">
<stop stop-color="#8AB7FF"/>
<stop offset="1" stop-color="#E9BCFA"/>
</linearGradient>
<linearGradient id="paint12_linear_248_186" x1="129.234" y1="99.3352" x2="129.234" y2="136.652" gradientUnits="userSpaceOnUse">
<stop stop-color="#8AB7FF"/>
<stop offset="1" stop-color="#E9BCFA"/>
</linearGradient>
<linearGradient id="paint13_linear_248_186" x1="144.793" y1="61.5954" x2="23.5962" y2="74.6681" gradientUnits="userSpaceOnUse">
<stop stop-color="#E191FF"/>
<stop offset="1" stop-color="#9240FC"/>
</linearGradient>
<linearGradient id="paint14_linear_248_186" x1="144.817" y1="41.4302" x2="143.59" y2="53.6692" gradientUnits="userSpaceOnUse">
<stop stop-color="#E191FF"/>
<stop offset="1" stop-color="#9240FC"/>
</linearGradient>
<linearGradient id="paint15_linear_248_186" x1="38.2287" y1="33.8459" x2="33.4688" y2="34.2529" gradientUnits="userSpaceOnUse">
<stop stop-color="#E199FC"/>
<stop offset="1" stop-color="#9240FC"/>
</linearGradient>
<linearGradient id="paint16_linear_248_186" x1="46.5275" y1="33.8459" x2="41.7676" y2="34.2529" gradientUnits="userSpaceOnUse">
<stop stop-color="#E199FC"/>
<stop offset="1" stop-color="#9240FC"/>
</linearGradient>
<linearGradient id="paint17_linear_248_186" x1="54.8195" y1="33.8459" x2="50.0596" y2="34.2529" gradientUnits="userSpaceOnUse">
<stop stop-color="#E199FC"/>
<stop offset="1" stop-color="#9240FC"/>
</linearGradient>
<linearGradient id="paint18_linear_248_186" x1="23.2126" y1="10.2693" x2="17.0111" y2="10.7996" gradientUnits="userSpaceOnUse">
<stop stop-color="#E199FC"/>
<stop offset="1" stop-color="#9240FC"/>
</linearGradient>
<linearGradient id="paint19_linear_248_186" x1="7.80927" y1="113.359" x2="1.60781" y2="113.89" gradientUnits="userSpaceOnUse">
<stop stop-color="#E199FC"/>
<stop offset="1" stop-color="#9240FC"/>
</linearGradient>
<linearGradient id="paint20_linear_248_186" x1="40.1764" y1="144.74" x2="33.975" y2="145.27" gradientUnits="userSpaceOnUse">
<stop stop-color="#E199FC"/>
<stop offset="1" stop-color="#9240FC"/>
</linearGradient>
</defs>
</svg>
