<svg width="115" height="76" viewBox="0 0 115 76" fill="none" xmlns="http://www.w3.org/2000/svg">
<path opacity="0.7" d="M114.111 41.9326V33.0291H91.1245L63.9485 17.3523C60.3056 15.2584 53.9852 15.5315 49.7959 17.9349L23.64 33.0291H0.635109V42.4424C0.629546 43.2426 0.857473 44.0269 1.29097 44.6996C1.72447 45.3722 2.34472 45.9039 3.07584 46.2296L50.7977 73.7778C54.4406 75.8717 60.761 75.5985 64.9503 73.1951L110.65 46.8304C113.091 45.4284 114.257 43.6259 114.111 41.9326Z" fill="#44FFFF"/>
<path opacity="0.7" d="M63.9482 17.3522C61.9184 16.3135 59.6499 15.8298 57.3728 15.9502V75.1796C60.0291 75.1508 62.6376 74.4693 64.9683 73.1949L110.668 46.8303C113.091 45.4283 114.311 43.6258 114.111 41.9325V33.0289H91.1242L63.9482 17.3522Z" fill="#44FFFF"/>
<path opacity="0.7" d="M50.8153 64.3644L3.0934 36.8162C-0.549495 34.7223 -0.0941281 31.0808 4.0952 28.6592L49.7953 2.27623C53.9846 -0.127184 60.3232 -0.400257 63.9479 1.69362L111.633 29.2418C115.276 31.3357 114.803 34.9954 110.613 37.417L64.9133 63.7818C60.7786 66.2034 54.4399 66.4582 50.8153 64.3644Z" fill="#44FFFF"/>
<path opacity="0.7" d="M52.0905 58.2828L13.6398 36.0877C10.7073 34.3944 11.0715 31.463 14.4594 29.5148L51.2709 8.26645C53.004 7.30755 54.9368 6.76551 56.916 6.68334C58.8952 6.60117 60.8664 6.98116 62.6731 7.79309L101.142 29.9881C104.056 31.6632 103.692 34.6129 100.322 36.5611L63.4928 57.8094C61.7596 58.7683 59.8268 59.3103 57.8476 59.3925C55.8684 59.4747 53.8972 59.0947 52.0905 58.2828Z" fill="#44FFFF"/>
<path opacity="0.5" d="M14.46 32.3916L51.2714 11.1433C53.0045 10.1844 54.9374 9.64235 56.9166 9.56018C58.8958 9.47801 60.8669 9.85794 62.6736 10.6699L101.143 32.865C101.771 33.2069 102.304 33.7016 102.691 34.3034C102.903 33.9242 103.031 33.504 103.067 33.0711C103.103 32.6382 103.045 32.2026 102.899 31.7937C102.752 31.3849 102.519 31.0122 102.216 30.7007C101.913 30.3893 101.547 30.1463 101.143 29.9881L62.6736 7.79309C60.8669 6.98116 58.8958 6.60117 56.9166 6.68334C54.9374 6.76551 53.0045 7.30755 51.2714 8.26645L14.46 29.5148C11.9099 30.9714 11.0721 33.0107 12.0739 34.6494C12.6433 33.6893 13.4697 32.9072 14.46 32.3916V32.3916Z" fill="#2EBDFF"/>
<path opacity="0.7" d="M52.4185 64.3641L4.69665 36.8159C1.05375 34.722 0.197681 31.6631 5.69845 28.6589L51.3985 2.27593C53.6028 1.0819 56.0517 0.4092 58.5568 0.30953C55.5111 0.147669 52.4798 0.828034 49.7957 2.27593L4.16844 28.6589C-0.020886 31.0805 -0.476253 34.722 3.16664 36.8159L50.8885 64.3641C53.043 65.4758 55.4661 65.9615 57.8829 65.7661C55.9751 65.745 54.1006 65.264 52.4185 64.3641V64.3641Z" fill="#44FFFF"/>
<path opacity="0.7" d="M110.668 41.3865L64.9679 67.7694C60.7786 70.1728 54.44 70.446 50.8153 68.3521L3.09342 40.8038C2.3623 40.4781 1.74202 39.9464 1.30852 39.2738C0.875024 38.6011 0.647124 37.8168 0.652687 37.0166V38.9649C0.647124 39.765 0.875024 40.5494 1.30852 41.222C1.74202 41.8947 2.3623 42.4264 3.09342 42.7521L50.8153 70.3003C54.4582 72.3942 60.7786 72.1211 64.9679 69.7177L110.668 43.3347C113.09 41.9509 114.311 40.1484 114.11 38.4551V36.5068C114.256 38.1819 113.09 40.0027 110.668 41.3865Z" fill="#44FFFF"/>
</svg>
