<svg width="98" height="97" viewBox="0 0 98 97" fill="none" xmlns="http://www.w3.org/2000/svg">
<g style="mix-blend-mode:color-dodge">
<path opacity="0.8" d="M96.7795 27.4829C97.3017 27.773 97.3017 28.2372 96.7795 28.5273L49.8959 55.7698C49.6175 55.9124 49.3093 55.9867 48.9965 55.9867C48.6838 55.9867 48.3755 55.9124 48.0971 55.7698L0.894225 28.5273C0.784989 28.4904 0.69017 28.4202 0.622944 28.3265C0.555717 28.2328 0.519531 28.1204 0.519531 28.0051C0.519531 27.8898 0.555717 27.7774 0.622944 27.6837C0.69017 27.59 0.784989 27.5198 0.894225 27.4829L47.778 0.24047C48.0568 0.0828373 48.3717 0 48.6919 0C49.0122 0 49.327 0.0828373 49.6058 0.24047L96.7795 27.4829Z" fill="url(#paint0_linear_157_314)"/>
<path opacity="0.5" d="M48.9947 55.3918C48.7946 55.441 48.5855 55.441 48.3853 55.3918L1.18262 28.1494L48.0663 0.848888C48.2537 0.749515 48.4635 0.699623 48.6756 0.703863C48.8968 0.700819 49.1156 0.750511 49.3138 0.848888L96.4876 27.9754L49.604 55.2758C49.4135 55.3639 49.2042 55.4038 48.9947 55.3918Z" fill="url(#paint1_linear_157_314)"/>
<path d="M96.7808 28.5271V69.1442C96.8861 69.1011 96.9774 69.0293 97.0441 68.937C97.1107 68.8447 97.1501 68.7356 97.1579 68.622V28.0049C97.147 28.1176 97.1065 28.2253 97.0402 28.3171C96.9739 28.4088 96.8843 28.4813 96.7808 28.5271Z" fill="url(#paint2_linear_157_314)"/>
<path opacity="0.5" d="M49.8954 55.8568C49.6171 55.9993 49.3088 56.0737 48.9961 56.0737C48.6833 56.0737 48.375 55.9993 48.0967 55.8568V96.4738C48.3801 96.6167 48.6932 96.6911 49.0106 96.6911C49.328 96.6911 49.641 96.6167 49.9245 96.4738L96.8081 69.2313V28.6143L49.9245 55.8568H49.8954Z" fill="url(#paint3_linear_157_314)"/>
<path opacity="0.5" d="M0.894751 28.5271C0.794474 28.4768 0.707906 28.4032 0.64224 28.3123C0.576574 28.2214 0.533738 28.1159 0.517578 28.0049V68.622C0.525368 68.7356 0.564952 68.8447 0.631615 68.937C0.698279 69.0293 0.789368 69.1011 0.894751 69.1442L48.0686 96.3867V55.7696L0.894751 28.5271Z" fill="url(#paint4_linear_157_314)"/>
</g>
<defs>
<linearGradient id="paint0_linear_157_314" x1="100.321" y1="20.6134" x2="0.334007" y2="35.373" gradientUnits="userSpaceOnUse">
<stop stop-color="#E199FC"/>
<stop offset="1" stop-color="#9240FC"/>
</linearGradient>
<linearGradient id="paint1_linear_157_314" x1="99.5931" y1="20.8525" x2="1.03683" y2="35.529" gradientUnits="userSpaceOnUse">
<stop stop-color="#E199FC"/>
<stop offset="1" stop-color="#9240FC"/>
</linearGradient>
<linearGradient id="paint2_linear_157_314" x1="97.1702" y1="43.1517" x2="96.7715" y2="43.152" gradientUnits="userSpaceOnUse">
<stop stop-color="#E199FC"/>
<stop offset="1" stop-color="#9240FC"/>
</linearGradient>
<linearGradient id="paint3_linear_157_314" x1="98.3953" y1="53.679" x2="47.0971" y2="56.8177" gradientUnits="userSpaceOnUse">
<stop stop-color="#E199FC"/>
<stop offset="1" stop-color="#9240FC"/>
</linearGradient>
<linearGradient id="paint4_linear_157_314" x1="49.618" y1="53.1819" x2="-0.468525" y2="56.1601" gradientUnits="userSpaceOnUse">
<stop stop-color="#E199FC"/>
<stop offset="1" stop-color="#9240FC"/>
</linearGradient>
</defs>
</svg>
