<svg width="223" height="134" viewBox="0 0 223 134" fill="none" xmlns="http://www.w3.org/2000/svg">
<path opacity="0.5" d="M0.671875 7.48935L15.6198 1.09465C18.8474 -0.297254 24.0721 2.68828 27.3199 7.77176C30.5676 12.8552 35.7923 15.8408 39.0199 14.4489L63.3682 4.01967C66.5958 2.62776 71.8406 5.61329 75.0682 10.6968L84.6704 25.7858C87.898 30.8491 93.1428 33.8549 96.3704 32.463L97.2984 32.0595C100.526 30.6878 105.751 33.6733 108.998 38.7568L126.165 65.7275C129.393 70.811 134.638 73.7965 137.865 72.4248L167.418 59.7362C170.646 58.3645 175.891 61.35 179.118 66.4335L222.126 133.991L0.671875 7.48935Z" fill="#E199FC"/>
</svg>
