<svg width="222" height="171" viewBox="0 0 222 171" fill="none" xmlns="http://www.w3.org/2000/svg">
<path opacity="0.35" d="M221.742 134.329V170.64L0.308105 44.0573V7.74667L15.2358 1.33182C18.4634 -0.0399179 23.7083 2.94563 26.9359 8.02912C30.1635 13.1126 35.4083 16.0981 38.6359 14.7062L63.0044 4.25683C66.232 2.88509 71.4769 5.87065 74.7045 10.9541L84.3066 26.023C87.5342 31.1065 92.7791 34.092 96.0067 32.7203L96.9145 32.3168C100.142 30.9249 105.387 33.9306 108.615 38.994L125.781 65.9848C129.029 71.0481 134.254 74.0538 137.481 72.6619L166.974 60.0945C170.201 58.7025 175.446 61.7083 178.674 66.7716L221.742 134.329Z" fill="#E199FC"/>
</svg>
