<svg width="357" height="401" viewBox="0 0 357 401" fill="none" xmlns="http://www.w3.org/2000/svg">
<path d="M3.83363 170.745L4.05665 170.202C4.05708 170.082 4.0576 169.941 4.21883 169.82L4.4012 169.418C6.16587 164.828 9.35826 160.929 13.5063 158.297L14.6142 157.657L149.02 80.5459L283.405 3.45493L284.513 2.81466C286.153 1.76144 288.042 1.16352 289.989 1.08208C291.935 1.00064 293.868 1.43861 295.59 2.35116L295.87 2.49309L296.131 2.63498L313.802 12.9263L303.576 17.2585L338.316 205.47C339.087 210.569 338.371 215.782 336.252 220.482L336.089 220.884C336.089 221.005 335.988 221.126 335.927 221.266C334.149 225.859 330.951 229.763 326.802 232.408L58.8368 386.149L61.2666 397.977L44.5182 388.172L44.2575 388.03C42.4677 386.955 40.9432 385.489 39.7975 383.742C38.6518 381.995 37.9145 380.012 37.6406 377.939L2.13307 185.296C1.33106 180.382 1.9202 175.341 3.83363 170.745V170.745Z" fill="#DDB1FF"/>
<path d="M73.2466 397.999L344.233 242.517C352.431 237.815 357.441 225.149 355.43 214.209L320.295 24.2444C318.324 13.3048 310.001 8.26163 301.803 12.9635L30.8168 168.426C22.6191 173.128 17.6087 185.814 19.6398 196.734L54.7545 386.819C56.7658 397.638 65.0489 402.701 73.2466 397.999Z" fill="url(#paint0_linear_50_318)"/>
<path d="M31.9844 167.806L166.37 90.6952L207.596 314.023L74.354 397.359C65.552 402.421 56.8837 398.263 55.0108 388.089L19.5237 195.364C17.5704 185.19 23.1825 172.848 31.9844 167.806Z" fill="#D9A3FF"/>
<path d="M300.756 13.5841L166.37 90.6952L207.34 312.613L343.125 243.157C347.635 240.248 351.214 236.102 353.438 231.213C355.661 226.323 356.435 220.897 355.666 215.579L320.179 22.8751C318.326 12.7011 309.558 8.54216 300.756 13.5841Z" fill="#D9A3FF"/>
<path d="M353.926 230.069C351.851 235.498 348.057 240.095 343.125 243.157L74.3542 397.36C72.4346 398.644 70.2019 399.38 67.8961 399.489C65.5903 399.597 63.2984 399.075 61.2668 397.977L182.221 176.622L353.926 230.069Z" fill="#DCAEFD"/>
<defs>
<linearGradient id="paint0_linear_50_318" x1="741130" y1="-511546" x2="687298" y2="-501411" gradientUnits="userSpaceOnUse">
<stop stop-color="#7BDAFF"/>
<stop offset="1" stop-color="#59BDEF"/>
</linearGradient>
</defs>
</svg>
