<svg width="339" height="391" viewBox="0 0 339 391" fill="none" xmlns="http://www.w3.org/2000/svg">
<path d="M55.2478 387.963L326.234 232.48C334.432 227.778 339.442 215.112 337.431 204.172L302.296 14.2077C300.325 3.26819 292.002 -1.77499 283.804 2.92689L12.818 158.389C4.62033 163.091 -0.39005 175.777 1.64099 186.697L36.7557 376.782C38.767 387.601 47.0502 392.665 55.2478 387.963Z" fill="url(#paint0_linear_50_318)"/>
<path d="M13.9857 157.77L148.371 80.6586L189.597 303.986L56.3553 387.323C47.5534 392.385 38.8851 388.226 37.0121 378.052L1.52502 185.328C-0.4283 175.153 5.18384 162.812 13.9857 157.77Z" fill="#D9A3FF"/>
<path d="M282.757 3.54751L148.372 80.6586L189.342 302.576L325.127 233.121C329.636 230.212 333.216 226.065 335.439 221.176C337.663 216.287 338.436 210.86 337.668 205.543L302.181 12.8385C300.328 2.66443 291.559 -1.49446 282.757 3.54751Z" fill="#D9A3FF"/>
<path d="M335.927 220.033C333.852 225.461 330.058 230.059 325.126 233.121L56.3556 387.323C54.436 388.607 52.2033 389.343 49.8974 389.452C47.5916 389.561 45.2997 389.038 43.2682 387.94L164.223 166.585L335.927 220.033Z" fill="#DCAEFD"/>
<defs>
<linearGradient id="paint0_linear_50_318" x1="741112" y1="-511556" x2="687280" y2="-501421" gradientUnits="userSpaceOnUse">
<stop stop-color="#7BDAFF"/>
<stop offset="1" stop-color="#59BDEF"/>
</linearGradient>
</defs>
</svg>
