<svg width="234" height="77" viewBox="0 0 234 77" fill="none" xmlns="http://www.w3.org/2000/svg">
<path d="M98.7699 43.6744L98.7164 47.3537L81.6557 47.1057L81.7092 43.4264L98.7699 43.6744ZM83.0422 12.9973L82.5463 47.1187L78.0233 47.0529L78.5193 12.9315L83.0422 12.9973ZM112.499 31.2632L112.447 34.8254L101.011 34.6591L101.062 31.097L112.499 31.2632ZM122.507 13.5709L122.011 47.6923L117.488 47.6265L117.984 13.5052L122.507 13.5709ZM142.637 13.8635L142.142 47.9849L137.689 47.9202L138.185 13.7988L142.637 13.8635ZM153.605 14.0229L153.551 17.7256L127.187 17.3424L127.241 13.6397L153.605 14.0229Z" fill="#2F80ED"/>
<path d="M208.29 61.723C209.302 60.758 210.361 60.0313 210.713 57.977C210.853 57.1612 210.867 54.7205 210.756 55.5412C210.566 56.9505 211.033 58.2386 211.099 59.5382C211.195 61.4345 210.978 63.8274 210.481 65.6774C210.379 66.0559 210.108 66.3879 210.067 66.7763C209.995 67.4632 210.007 66.0921 210.013 65.9596C210.081 64.4229 210.132 63.4726 210.622 62.0495C210.778 61.5983 210.841 61.1178 211.084 60.7775C211.401 60.3332 211.728 59.8379 211.99 59.2823C212.391 58.434 212.634 57.521 212.96 56.5929C213.146 56.0623 213.298 55.4853 213.399 54.907C213.505 54.3036 213.39 54.4535 213.286 54.9564C212.874 56.944 212.514 58.8693 212.423 60.9161C212.347 62.6136 211.91 64.2605 211.835 65.9404C211.796 66.8079 211.919 67.0165 211.853 65.9731C211.704 63.5837 213.426 62.6875 213.957 60.7804C214.044 60.4688 214.085 58.6981 213.91 59.1168C213.332 60.4938 213.26 62.2191 213.209 63.7083C213.183 64.4844 213.406 65.8505 213.679 66.3259C213.917 66.7406 214.123 65.9031 214.397 65.6401C214.496 65.5459 214.662 65.6449 214.682 65.3846C214.711 65.011 214.834 65.1583 214.879 64.9278C215.019 64.2199 214.948 63.2322 215.011 62.5383C215.141 61.1113 215.443 59.7391 215.614 58.3295C215.822 56.6087 215.61 58.876 215.585 59.4261C215.53 60.655 215.476 61.884 215.421 63.1129C215.411 63.3301 215.293 64.234 215.384 64.393C215.572 64.7217 217.1 64.7362 217.183 64.3145C217.5 62.7068 217.213 61.0406 217.516 59.4674C217.572 59.1731 217.634 58.5244 217.597 59.2334C217.493 61.208 216.86 62.9343 216.323 64.7641C216.189 65.2235 215.942 65.9982 216.003 66.5087C216.044 66.8642 217.101 66.23 217.217 66.1625C218.312 65.5225 219.96 64.9644 219.776 62.4355C219.726 61.7565 219.654 61.0806 219.451 60.5352C219.376 60.335 219.221 59.5597 219.199 60.0662C219.149 61.1877 218.75 63.5775 219.679 63.5818C219.986 63.5831 221.295 63.509 220.421 63.2824" stroke="#2F80ED" stroke-width="3" stroke-linecap="round"/>
<path d="M205.48 60.0792C204.574 59.4699 204.507 58.9096 204.419 57.6791C204.372 57.0284 204.339 55.6597 204.639 54.9715C205.114 53.8831 208.358 53.8326 209.119 53.7294C210.64 53.5228 212.105 53.3595 213.582 53.4237C215.486 53.5064 217.599 53.0485 219.507 52.6194C220.238 52.455 220.894 51.3806 221.482 50.9998" stroke="#2F80ED" stroke-width="3" stroke-linecap="round"/>
</svg>
