<svg width="338" height="399" viewBox="0 0 338 399" fill="none" xmlns="http://www.w3.org/2000/svg">
<path d="M2.18362 171.093L2.40469 170.549C2.40469 170.428 2.4047 170.287 2.5655 170.166L2.74642 169.764C4.49458 165.168 7.67292 161.257 11.8115 158.61L12.917 157.966L147.044 80.3717L281.151 2.79797L282.257 2.15372C283.893 1.09461 285.781 0.489896 287.727 0.401457C289.673 0.313018 291.607 0.74403 293.332 1.65039L293.614 1.79131L293.875 1.93225L311.583 12.16L301.372 16.5289L336.788 204.614C337.578 209.71 336.88 214.926 334.778 219.634L334.617 220.037C334.617 220.157 334.517 220.278 334.457 220.419C332.695 225.018 329.511 228.934 325.371 231.593L57.9611 386.298L60.4334 398.116L43.6499 388.371L43.3886 388.23C41.595 387.162 40.0652 385.702 38.9133 383.959C37.7613 382.216 37.0169 380.235 36.7355 378.164L0.535407 185.649C-0.284276 180.738 0.286737 175.695 2.18362 171.093V171.093Z" fill="#DDB1FF"/>
</svg>
