<svg width="141" height="159" viewBox="0 0 141 159" fill="none" xmlns="http://www.w3.org/2000/svg">
<g opacity="0.5">
<path d="M139.472 67.5695C139.472 67.5695 139.472 67.4285 139.371 67.3681V67.2071V67.046C138.679 65.2257 137.416 63.6788 135.773 62.6368L135.331 62.3751L82.1062 31.6718L29.0422 0.948307L28.6 0.706686C27.9548 0.28247 27.2076 0.0399498 26.4366 0.00452661C25.6657 -0.0308966 24.8994 0.1421 24.2182 0.505371H24.0976H23.997L16.9822 4.53204L21.0022 6.26351L6.93214 80.7568C6.6075 82.7689 6.87284 84.8321 7.69595 86.6962V86.8572V87.0183C8.39469 88.835 9.65543 90.3801 11.2938 91.4275L117.382 152.814L116.417 157.485L123.05 153.619H123.15C123.867 153.193 124.476 152.609 124.932 151.911C125.389 151.213 125.68 150.42 125.784 149.593L140.135 73.3477C140.472 71.3978 140.242 69.3919 139.472 67.5695Z" fill="#DDB1FF"/>
<path opacity="0.5" d="M111.673 157.424L4.62053 95.4941C2.89925 94.2367 1.57109 92.5142 0.79154 90.5282C0.0119866 88.5422 -0.186726 86.3749 0.218621 84.2799L14.3891 9.12214C15.1931 4.8136 18.4091 2.82038 21.7055 4.69278L128.758 66.6229C130.479 67.8804 131.808 69.6029 132.587 71.5889C133.367 73.5749 133.565 75.7422 133.16 77.8372L119.09 152.995C118.286 157.324 114.909 159.297 111.673 157.424Z" fill="url(#paint0_linear_54_910)"/>
<path d="M128.336 66.3615L75.2322 35.6582L58.6095 124.003L111.231 157.183C111.936 157.682 112.761 157.983 113.621 158.057C114.481 158.131 115.345 157.975 116.124 157.604C116.904 157.233 117.57 156.661 118.056 155.946C118.542 155.232 118.83 154.401 118.889 153.539L133.261 77.2939C133.57 75.1908 133.27 73.0429 132.397 71.1052C131.524 69.1675 130.115 67.5212 128.336 66.3615V66.3615Z" fill="#D9A3FF"/>
<path d="M22.1479 4.93453L75.2319 35.658L58.7097 123.439L5.04274 95.756C3.26402 94.5964 1.85467 92.95 0.981826 91.0123C0.10898 89.0746 -0.190767 86.9268 0.118215 84.8236L14.4897 8.57866C14.5492 7.71632 14.8367 6.88537 15.3227 6.17105C15.8087 5.45674 16.4756 4.88476 17.2551 4.51384C18.0346 4.14292 18.8985 3.98641 19.7584 4.06033C20.6182 4.13426 21.4429 4.43598 22.1479 4.93453Z" fill="#D9A3FF"/>
<path d="M0.80127 90.5616C1.60901 92.7115 3.09901 94.5364 5.0424 95.756L111.231 157.183C111.99 157.693 112.874 157.987 113.787 158.033C114.701 158.079 115.61 157.876 116.417 157.445L68.8398 69.6431L0.80127 90.5616Z" fill="#DCAEFD"/>
<path d="M132.577 71.5561C131.769 69.4061 130.279 67.5813 128.336 66.3617L22.1476 4.9349C21.3856 4.43067 20.5025 4.14041 19.5904 4.09437C18.6783 4.04834 17.7705 4.2482 16.9618 4.67316L64.5385 92.4142L132.577 71.5561Z" fill="#CF93FF"/>
</g>
<defs>
<linearGradient id="paint0_linear_54_910" x1="9.46703" y1="57.4244" x2="136.579" y2="81.8286" gradientUnits="userSpaceOnUse">
<stop stop-color="#7BDAFF"/>
<stop offset="1" stop-color="#59BDEF"/>
</linearGradient>
</defs>
</svg>
