<svg width="153" height="152" viewBox="0 0 153 152" fill="none" xmlns="http://www.w3.org/2000/svg">
<g opacity="0.5">
<path opacity="0.5" d="M123.996 126.394L103.554 114.877L93.4238 117.736L113.866 129.233L123.996 126.394Z" fill="#7BDAFF"/>
<path opacity="0.5" d="M119.112 62.4702L122.067 73.0604L142.528 84.5565L139.554 73.9865L119.112 62.4702Z" fill="#7BDAFF"/>
<path opacity="0.5" d="M11.557 71.6911L31.9987 83.1873L29.1645 73.04L8.70276 61.5439L11.557 71.6911Z" fill="#7BDAFF"/>
<path opacity="0.5" d="M125.745 86.127L131.594 107.005L116.619 111.213L137.061 122.709L152.035 118.501L146.186 97.6432L125.745 86.127Z" fill="#7BDAFF"/>
<path opacity="0.5" d="M25.4862 59.9739L21.2853 44.9746L89.3439 25.8077L68.9022 14.3115L0.843628 33.4785L5.04452 48.4576L25.4862 59.9739Z" fill="#7BDAFF"/>
<path opacity="0.5" d="M73.5853 123.313L45.4654 131.226L37.5862 103.059L17.1244 91.563L33.9883 151.701L94.027 134.809L73.5853 123.313Z" fill="#7BDAFF"/>
<path opacity="0.5" d="M81.9677 10.6471L102.409 22.1432L108.801 25.7269L129.243 37.2432L118.871 0.258301L81.9677 10.6471Z" fill="#7BDAFF"/>
<path opacity="0.5" d="M112.459 38.8135L115.434 49.4036L135.876 60.8998L132.921 50.3096L112.459 38.8135Z" fill="#7BDAFF"/>
</g>
</svg>
