<svg width="354" height="54" viewBox="0 0 354 54" fill="none" xmlns="http://www.w3.org/2000/svg">
<g style="mix-blend-mode:multiply" opacity="0.5">
<g style="mix-blend-mode:multiply" opacity="0.5">
<g style="mix-blend-mode:multiply" opacity="0.5">
<path d="M353.945 1.27223L0.1875 0L4.14022e-05 52.1249L353.758 53.3971L353.945 1.27223Z" fill="white"/>
</g>
<g style="mix-blend-mode:multiply" opacity="0.5">
<path d="M176.555 49.1339C264.019 48.9591 334.904 39.2807 334.881 27.5164C334.857 15.7522 263.935 6.35697 176.471 6.53172C89.0068 6.70648 18.1221 16.385 18.1454 28.1492C18.1687 39.9135 89.0912 49.3086 176.555 49.1339Z" fill="white"/>
</g>
<g style="mix-blend-mode:multiply" opacity="0.5">
<path d="M176.012 49.0546C263.132 48.8805 333.738 39.2387 333.715 27.5189C333.692 15.7991 263.048 6.43947 175.928 6.61354C88.8084 6.7876 18.2026 16.4295 18.2258 28.1493C18.249 39.869 88.8925 49.2286 176.012 49.0546Z" fill="white"/>
</g>
<g style="mix-blend-mode:multiply" opacity="0.5">
<path d="M175.469 48.9346C262.245 48.7612 332.572 39.165 332.549 27.5008C332.526 15.8367 262.162 6.52148 175.386 6.69486C88.6101 6.86824 18.2831 16.4645 18.3062 28.1287C18.3293 39.7929 88.6937 49.108 175.469 48.9346Z" fill="white"/>
</g>
<g style="mix-blend-mode:multiply" opacity="0.5">
<path d="M174.927 48.8552C261.369 48.6825 331.426 39.1229 331.403 27.5032C331.38 15.8835 261.286 6.60392 174.843 6.77663C88.4005 6.94934 18.3435 16.509 18.3665 28.1287C18.3895 39.7484 88.4838 49.0279 174.927 48.8552Z" fill="white"/>
</g>
<g style="mix-blend-mode:multiply" opacity="0.5">
<path d="M174.384 48.776C260.482 48.604 330.26 39.081 330.238 27.5057C330.215 15.9305 260.399 6.68642 174.301 6.85844C88.2021 7.03047 18.424 16.5535 18.4469 28.1287C18.4698 39.7039 88.2851 48.948 174.384 48.776Z" fill="white"/>
</g>
<g style="mix-blend-mode:multiply" opacity="0.5">
<path d="M176.84 46.0988C262.598 45.5483 332.058 35.7541 331.984 24.223C331.911 12.6919 262.331 3.79045 176.574 4.34101C90.8166 4.89157 21.3563 14.6857 21.43 26.2168C21.5036 37.7479 91.0833 46.6494 176.84 46.0988Z" fill="#FEFFFF"/>
</g>
<g style="mix-blend-mode:multiply" opacity="0.5">
<path d="M173.298 48.637C258.708 48.4664 327.929 39.0166 327.906 27.5303C327.883 16.044 258.626 6.87095 173.216 7.0416C87.8054 7.21225 18.5851 16.662 18.6078 28.1483C18.6306 39.6345 87.8878 48.8077 173.298 48.637Z" fill="#FEFFFF"/>
</g>
<g style="mix-blend-mode:multiply" opacity="0.5">
<path d="M172.755 48.5576C257.822 48.3877 326.763 38.9745 326.74 27.5327C326.718 16.091 257.739 6.95345 172.673 7.12341C87.607 7.29337 18.6656 16.7065 18.6882 28.1482C18.7109 39.59 87.6891 48.7276 172.755 48.5576Z" fill="#FEFEFF"/>
</g>
<g style="mix-blend-mode:multiply" opacity="0.5">
<path d="M172.212 48.478C256.934 48.3087 325.597 38.9322 325.574 27.5349C325.552 16.1376 256.853 7.03546 172.131 7.20473C87.4086 7.37401 18.7461 16.7506 18.7686 28.1479C18.7912 39.5452 87.4903 48.6473 172.212 48.478Z" fill="#FEFEFF"/>
</g>
<g style="mix-blend-mode:multiply" opacity="0.5">
<path d="M171.669 48.3584C256.047 48.1898 324.431 38.8588 324.408 27.5172C324.386 16.1755 255.966 7.11796 171.588 7.28654C87.21 7.45513 18.8263 16.786 18.8488 28.1277C18.8712 39.4693 87.2913 48.5269 171.669 48.3584Z" fill="#FEFEFF"/>
</g>
<g style="mix-blend-mode:multiply" opacity="0.5">
<path d="M171.127 48.2792C255.161 48.1113 323.266 38.817 323.243 27.5198C323.221 16.2225 255.08 7.20046 171.046 7.36836C87.0123 7.53625 18.9075 16.8306 18.9299 28.1278C18.9523 39.425 87.0933 48.4471 171.127 48.2792Z" fill="#FDFEFF"/>
</g>
<g style="mix-blend-mode:multiply" opacity="0.5">
<path d="M170.584 48.1995C254.274 48.0323 322.1 38.7746 322.077 27.5218C322.055 16.2691 254.193 7.28246 170.503 7.44968C86.8136 7.61689 18.9878 16.8746 19.0101 28.1273C19.0323 39.3801 86.8943 48.3668 170.584 48.1995Z" fill="#FDFEFE"/>
</g>
<g style="mix-blend-mode:multiply" opacity="0.5">
<path d="M170.041 48.1401C253.387 47.9736 320.934 38.7526 320.911 27.5443C320.889 16.336 253.306 7.38499 169.961 7.55151C86.6151 7.71803 19.0682 16.9391 19.0903 28.1473C19.1125 39.3556 86.6955 48.3067 170.041 48.1401Z" fill="#FDFEFE"/>
</g>
<g style="mix-blend-mode:multiply" opacity="0.5">
<path d="M172.495 45.462C255.51 44.9291 322.749 35.4467 322.678 24.2825C322.607 13.1184 255.252 4.50008 172.237 5.03304C89.2213 5.566 21.982 15.0484 22.0533 26.2126C22.1246 37.3767 89.4795 45.995 172.495 45.462Z" fill="#FDFEFE"/>
</g>
<g style="mix-blend-mode:multiply" opacity="0.5">
<path d="M168.955 47.9817C251.624 47.8166 318.622 38.6687 318.6 27.5493C318.578 16.43 251.544 7.54992 168.876 7.71509C86.2071 7.88026 19.209 17.0282 19.231 28.1475C19.253 39.2668 86.2868 48.1469 168.955 47.9817Z" fill="#FCFDFE"/>
</g>
<g style="mix-blend-mode:multiply" opacity="0.5">
<path d="M168.412 47.8819C250.737 47.7174 317.456 38.6062 317.434 27.5313C317.412 16.4565 250.657 7.61191 168.333 7.77639C86.0085 7.94088 19.2893 17.0521 19.3112 28.127C19.3331 39.2018 86.0879 48.0464 168.412 47.8819Z" fill="#FCFDFE"/>
</g>
<g style="mix-blend-mode:multiply" opacity="0.5">
<path d="M167.869 47.7823C249.849 47.6186 316.29 38.5529 316.268 27.5337C316.246 16.5145 249.77 7.71443 167.79 7.87823C85.81 8.04202 19.3696 17.1077 19.3914 28.1269C19.4132 39.1461 85.889 47.9461 167.869 47.7823Z" fill="#FCFDFE"/>
</g>
<g style="mix-blend-mode:multiply" opacity="0.5">
<path d="M167.327 47.7027C248.963 47.5396 315.124 38.5105 315.103 27.5358C315.081 16.561 248.884 7.79644 167.248 7.95955C85.6122 8.12266 19.4507 17.1517 19.4724 28.1264C19.4942 39.1012 85.6909 47.8658 167.327 47.7027Z" fill="#FBFDFE"/>
</g>
<g style="mix-blend-mode:multiply" opacity="0.5">
<path d="M313.972 27.5033C313.933 38.4356 248.113 47.3998 166.827 47.6108C85.5417 47.8218 19.6046 39.028 19.5836 28.1157C19.5625 17.2033 85.4428 8.21909 166.749 8.00816C248.054 7.79723 313.951 16.5707 313.972 27.5033Z" fill="#FBFDFE"/>
</g>
<g style="mix-blend-mode:multiply" opacity="0.5">
<path d="M166.241 47.5641C247.189 47.4023 312.792 38.4466 312.771 27.5608C312.749 16.675 247.111 7.98146 166.163 8.14319C85.215 8.30493 19.6113 17.2607 19.6329 28.1465C19.6544 39.0323 85.293 47.7258 166.241 47.5641Z" fill="#FBFCFE"/>
</g>
<g style="mix-blend-mode:multiply" opacity="0.5">
<path d="M165.698 47.4844C246.302 47.3233 311.626 38.4042 311.605 27.5629C311.584 16.7215 246.224 8.06347 165.62 8.22451C85.0165 8.38556 19.6917 17.3047 19.7132 28.1461C19.7346 38.9874 85.0942 47.6454 165.698 47.4844Z" fill="#FAFCFE"/>
</g>
<g style="mix-blend-mode:multiply" opacity="0.5">
<path d="M165.155 47.4053C245.415 47.2449 310.46 38.3623 310.439 27.5655C310.418 16.7686 245.337 8.14596 165.078 8.30632C84.8181 8.46668 19.7722 17.3493 19.7936 28.1462C19.815 38.943 84.8955 47.5656 165.155 47.4053Z" fill="#FAFCFD"/>
</g>
<g style="mix-blend-mode:multiply" opacity="0.5">
<path d="M164.613 47.3054C244.528 47.1457 309.295 38.2998 309.274 27.5474C309.253 16.7951 244.451 8.20796 164.536 8.36763C84.6203 8.5273 19.8533 17.3733 19.8746 28.1256C19.8959 38.878 84.6973 47.4651 164.613 47.3054Z" fill="#FAFCFD"/>
</g>
<g style="mix-blend-mode:multiply" opacity="0.5">
<path d="M164.07 47.2058C243.652 47.0468 308.149 38.2465 308.128 27.5497C308.107 16.8529 243.575 8.31042 163.993 8.46942C84.4107 8.62843 19.9136 17.4288 19.9348 28.1255C19.956 38.8223 84.4874 47.3648 164.07 47.2058Z" fill="#F9FCFD"/>
</g>
<g style="mix-blend-mode:multiply" opacity="0.5">
<path d="M163.527 47.1267C242.765 46.9684 306.983 38.2047 306.962 27.5523C306.941 16.9 242.689 8.39291 163.451 8.55123C84.2123 8.70955 19.9941 17.4733 20.0152 28.1257C20.0363 38.778 84.2887 47.285 163.527 47.1267Z" fill="#F9FBFD"/>
</g>
<g style="mix-blend-mode:multiply" opacity="0.5">
<path d="M162.984 47.0469C241.878 46.8892 305.817 38.1622 305.796 27.5543C305.775 16.9465 241.802 8.47492 162.908 8.63255C84.0137 8.79018 20.0744 17.5173 20.0954 28.1252C20.1164 38.733 84.0897 47.2045 162.984 47.0469Z" fill="#F8FBFD"/>
</g>
<g style="mix-blend-mode:multiply" opacity="0.5">
<path d="M165.433 44.4005C243.985 43.8962 307.61 34.9238 307.543 24.3601C307.475 13.7964 243.741 5.64164 165.189 6.14595C86.6362 6.65026 23.0116 15.6226 23.0791 26.1863C23.1465 36.75 86.8806 44.9048 165.433 44.4005Z" fill="#F8FBFD"/>
</g>
<g style="mix-blend-mode:multiply" opacity="0.5">
<path d="M161.899 46.9084C240.104 46.7522 303.486 38.0982 303.465 27.5794C303.444 17.0605 240.029 8.65994 161.823 8.8162C83.6173 8.97245 20.2358 17.6263 20.2566 28.1452C20.2774 38.6641 83.6927 47.0647 161.899 46.9084Z" fill="#F8FAFD"/>
</g>
<g style="mix-blend-mode:multiply" opacity="0.5">
<path d="M302.334 27.5221C302.296 37.9914 239.251 46.6234 161.403 46.7662C83.5545 46.9091 20.3898 38.5681 20.3871 28.1389C20.3844 17.7098 83.4495 9.05772 161.318 8.89482C239.186 8.73192 302.311 17.1533 302.334 27.5221Z" fill="#F7FAFC"/>
</g>
<g style="mix-blend-mode:multiply" opacity="0.5">
<path d="M160.813 46.7091C238.33 46.5542 301.154 37.9825 301.133 27.5638C301.113 17.145 238.255 8.82445 160.738 8.97933C83.2202 9.13421 20.3965 17.7058 20.4171 28.1246C20.4377 38.5434 83.2949 46.864 160.813 46.7091Z" fill="#F7FAFC"/>
</g>
<g style="mix-blend-mode:multiply" opacity="0.5">
<path d="M160.27 46.6294C237.443 46.4752 299.988 37.9401 299.967 27.5658C299.947 17.1915 237.369 8.90646 160.195 9.06065C83.0217 9.21485 20.4769 17.7499 20.4974 28.1242C20.5179 38.4985 83.0961 46.7836 160.27 46.6294Z" fill="#F6FAFC"/>
</g>
<g style="mix-blend-mode:multiply" opacity="0.5">
<path d="M298.857 27.5296C298.82 37.8579 236.599 46.3721 159.776 46.5186C82.9527 46.6651 20.6318 38.4279 20.6086 28.0993C20.5854 17.7708 82.8661 9.27695 159.689 9.1103C236.513 8.94364 298.834 17.1406 298.857 27.5296Z" fill="#F6F9FC"/>
</g>
<g style="mix-blend-mode:multiply" opacity="0.5">
<path d="M159.204 46.4708C235.689 46.318 297.676 37.8562 297.656 27.5709C297.636 17.2855 235.616 9.07146 159.13 9.22428C82.6452 9.37709 20.6582 17.8389 20.6786 28.1243C20.6989 38.4096 82.7189 46.6236 159.204 46.4708Z" fill="#F5F9FC"/>
</g>
<g style="mix-blend-mode:multiply" opacity="0.5">
<path d="M158.661 46.3911C234.813 46.2389 296.531 37.8137 296.51 27.5728C296.49 17.3319 234.74 9.15341 158.588 9.30556C82.4357 9.45771 20.7186 17.8829 20.7389 28.1238C20.7591 38.3646 82.5091 46.5432 158.661 46.3911Z" fill="#F5F9FC"/>
</g>
<g style="mix-blend-mode:multiply" opacity="0.5">
<path d="M158.118 46.3318C233.926 46.1804 295.365 37.7917 295.344 27.5953C295.324 17.3989 233.853 9.25593 158.045 9.40739C82.2372 9.55885 20.799 17.9474 20.8191 28.1438C20.8393 38.3402 82.3103 46.4833 158.118 46.3318Z" fill="#F4F9FC"/>
</g>
<g style="mix-blend-mode:multiply" opacity="0.5">
<path d="M157.576 46.2326C233.039 46.0818 294.199 37.7298 294.179 27.5779C294.159 17.4259 232.967 9.31841 157.503 9.46918C82.0388 9.61996 20.8796 17.972 20.8997 28.1239C20.9198 38.2758 82.1116 46.3833 157.576 46.2326Z" fill="#F4F8FB"/>
</g>
<g style="mix-blend-mode:multiply" opacity="0.5">
<path d="M157.032 46.1327C232.152 45.9826 293.033 37.6762 293.013 27.5798C292.993 17.4834 232.08 9.42043 156.96 9.57052C81.8401 9.72061 20.9597 18.027 20.9797 28.1233C20.9997 38.2197 81.9125 46.2828 157.032 46.1327Z" fill="#F3F8FB"/>
</g>
<g style="mix-blend-mode:multiply" opacity="0.5">
<path d="M156.49 46.0534C231.266 45.904 291.867 37.6342 291.848 27.5824C291.828 17.5305 231.194 9.50293 156.418 9.65233C81.6426 9.80174 21.041 18.0715 21.0609 28.1234C21.0808 38.1753 81.7146 46.2028 156.49 46.0534Z" fill="#F3F8FB"/>
</g>
<g style="mix-blend-mode:multiply" opacity="0.5">
<path d="M155.947 45.974C230.379 45.8253 290.701 37.5922 290.681 27.5848C290.662 17.5774 230.307 9.58544 155.875 9.73415C81.4438 9.88286 21.1212 18.116 21.141 28.1233C21.1608 38.1307 81.5155 46.1227 155.947 45.974Z" fill="#F2F7FB"/>
</g>
<g style="mix-blend-mode:multiply" opacity="0.5">
<path d="M155.404 45.8943C229.492 45.7462 289.535 37.5497 289.516 27.5868C289.496 17.6239 229.42 9.66744 155.333 9.81547C81.2454 9.9635 21.2017 18.16 21.2214 28.1229C21.2411 38.0858 81.3168 46.0423 155.404 45.8943Z" fill="#F2F7FB"/>
</g>
<g style="mix-blend-mode:multiply" opacity="0.5">
<path d="M288.384 27.5523C288.349 37.4579 228.642 45.6388 154.894 45.7763C81.1464 45.9137 21.2563 38.0073 21.2919 28.1018C21.3276 18.1962 81.0343 10.0152 154.782 9.8778C228.53 9.74035 288.36 17.6264 288.384 27.5523Z" fill="#F1F7FB"/>
</g>
<g style="mix-blend-mode:multiply" opacity="0.5">
<path d="M154.318 45.7558C227.717 45.6092 287.203 37.4859 287.184 27.6119C287.164 17.738 227.647 9.85246 154.247 9.99911C80.8482 10.1458 21.3623 18.2691 21.3818 28.143C21.4014 38.017 80.919 45.9025 154.318 45.7558Z" fill="#F1F6FA"/>
</g>
<g style="mix-blend-mode:multiply" opacity="0.5">
<path d="M156.761 43.1269C229.819 42.6579 288.992 34.309 288.93 24.4793C288.867 14.6495 229.591 7.06111 156.534 7.53014C83.4765 7.99917 24.3027 16.348 24.3655 26.1778C24.4283 36.0076 83.7039 43.5959 156.761 43.1269Z" fill="#F0F6FA"/>
</g>
<g style="mix-blend-mode:multiply" opacity="0.5">
<path d="M284.887 27.56C284.852 37.3447 225.969 45.4681 153.267 45.5288C80.5646 45.5895 21.5784 37.8676 21.5532 28.1028C21.5281 18.338 80.4708 10.1945 153.193 10.1138C225.916 10.0331 284.862 17.775 284.887 27.56Z" fill="#F0F6FA"/>
</g>
<g style="mix-blend-mode:multiply" opacity="0.5">
<path d="M283.721 27.5556C283.686 37.3001 225.086 45.3038 152.725 45.4462C80.3636 45.5887 21.6589 37.8275 21.6335 28.1029C21.6082 18.3784 80.2692 10.3548 152.65 10.2124C225.031 10.07 283.716 17.8311 283.721 27.5556Z" fill="#EFF5FA"/>
</g>
<g style="mix-blend-mode:multiply" opacity="0.5">
<path d="M282.596 27.5518C282.561 37.256 224.242 45.2204 152.223 45.3641C80.2036 45.5077 21.7802 37.7879 21.7547 28.1036C21.7292 18.4193 80.1086 10.4349 152.148 10.2913C224.187 10.1477 282.631 17.8677 282.596 27.5518Z" fill="#EEF5FA"/>
</g>
<g style="mix-blend-mode:multiply" opacity="0.5">
<path d="M281.41 27.5674C281.375 37.2112 223.317 45.1363 151.64 45.2208C79.9627 45.3053 21.8204 37.667 21.7947 28.0431C21.769 18.4192 79.8669 10.454 151.564 10.3897C223.262 10.3254 281.384 17.9234 281.41 27.5674Z" fill="#EEF5FA"/>
</g>
<g style="mix-blend-mode:multiply" opacity="0.5">
<path d="M151.061 45.2386C222.407 45.096 280.228 37.2014 280.209 27.6054C280.19 18.0095 222.338 10.3459 150.992 10.4885C79.6468 10.631 21.8252 18.5257 21.8442 28.1216C21.8632 37.7176 79.7156 45.3811 151.061 45.2386Z" fill="#EDF4F9"/>
</g>
<g style="mix-blend-mode:multiply" opacity="0.5">
<path d="M279.078 27.5592C279.044 37.1225 221.549 44.9691 150.554 45.2171C79.5599 45.4651 21.9405 37.7481 21.9748 28.205C22.0091 18.6618 79.5037 10.7951 150.498 10.6478C221.492 10.5004 279.052 18.0158 279.078 27.5592Z" fill="#EDF4F9"/>
</g>
<g style="mix-blend-mode:multiply" opacity="0.5">
<path d="M149.976 45.0801C220.633 44.939 277.897 37.1175 277.878 27.6105C277.859 18.1034 220.565 10.5109 149.908 10.6521C79.2506 10.7933 21.9868 18.6147 22.0056 28.1217C22.0245 37.6287 79.3187 45.2213 149.976 45.0801Z" fill="#ECF3F9"/>
</g>
<g style="mix-blend-mode:multiply" opacity="0.5">
<path d="M149.433 44.98C219.746 44.8395 276.731 37.0638 276.712 27.6124C276.694 18.161 219.678 10.613 149.365 10.7534C79.052 10.8939 22.0672 18.6697 22.0859 28.1211C22.1046 37.5725 79.1198 45.1205 149.433 44.98Z" fill="#EBF3F9"/>
</g>
<g style="mix-blend-mode:multiply" opacity="0.5">
<path d="M275.581 27.5667C275.547 36.989 218.897 44.738 148.888 44.8688C78.879 44.9996 22.1632 37.5072 22.1569 28.0848C22.1506 18.6623 78.8407 10.9336 148.85 10.8028C218.859 10.672 275.575 18.1643 275.581 27.5667Z" fill="#EBF3F9"/>
</g>
<g style="mix-blend-mode:multiply" opacity="0.5">
<path d="M274.415 27.5828C274.381 36.9447 218.073 44.6546 148.386 44.7865C78.6979 44.9184 22.2835 37.4675 22.277 28.0853C22.2706 18.7031 78.6187 11.0336 148.306 10.8815C217.994 10.7295 274.408 18.2207 274.415 27.5828Z" fill="#EAF2F8"/>
</g>
<g style="mix-blend-mode:multiply" opacity="0.5">
<path d="M147.804 44.7421C217.096 44.6036 273.253 36.9377 273.235 27.6198C273.216 18.3018 217.029 10.8604 147.737 10.9988C78.4455 11.1373 22.2883 18.8032 22.3067 28.1211C22.3252 37.4391 78.5123 44.8805 147.804 44.7421Z" fill="#EAF2F8"/>
</g>
<g style="mix-blend-mode:multiply" opacity="0.5">
<path d="M147.262 44.6625C216.209 44.5248 272.088 36.8954 272.069 27.6219C272.051 18.3484 216.143 10.9424 147.195 11.0802C78.2475 11.2179 22.3693 18.8472 22.3876 28.1207C22.406 37.3942 78.314 44.8003 147.262 44.6625Z" fill="#E9F2F8"/>
</g>
<g style="mix-blend-mode:multiply" opacity="0.5">
<path d="M270.938 27.5903C270.905 36.8113 215.361 44.4032 146.759 44.539C78.1564 44.6748 22.5255 37.3274 22.4985 28.086C22.4714 18.8446 78.0755 11.2731 146.678 11.1373C215.28 11.0015 270.911 18.3489 270.938 27.5903Z" fill="#E8F1F8"/>
</g>
<g style="mix-blend-mode:multiply" opacity="0.5">
<path d="M269.772 27.5859C269.739 36.7666 214.477 44.3193 146.216 44.4564C77.9556 44.5934 22.6061 37.2671 22.5788 28.0861C22.5516 18.9052 77.8741 11.3527 146.135 11.2157C214.395 11.0786 269.745 18.4049 269.772 27.5859Z" fill="#E8F1F7"/>
</g>
<g style="mix-blend-mode:multiply" opacity="0.5">
<path d="M145.633 44.4039C213.548 44.2682 268.59 36.7578 268.572 27.6288C268.554 18.4999 213.483 11.2094 145.567 11.3451C77.6519 11.4808 22.6104 18.9913 22.6284 28.1202C22.6465 37.2491 77.7174 44.5396 145.633 44.4039Z" fill="#E7F0F7"/>
</g>
<g style="mix-blend-mode:multiply" opacity="0.5">
<path d="M145.09 44.3247C212.661 44.1897 267.424 36.7158 267.406 27.6313C267.388 18.5469 212.596 11.2919 145.025 11.4269C77.4534 11.5619 22.6907 19.0358 22.7087 28.1202C22.7267 37.2047 77.5185 44.4597 145.09 44.3247Z" fill="#E6F0F7"/>
</g>
<g style="mix-blend-mode:multiply" opacity="0.5">
<path d="M147.526 41.757C214.755 41.3254 269.209 33.6469 269.151 24.6067C269.093 15.5664 214.546 8.58767 147.317 9.01928C80.0879 9.45089 25.6347 17.1294 25.6924 26.1697C25.7502 35.2099 80.297 42.1887 147.526 41.757Z" fill="#E6EFF7"/>
</g>
<g style="mix-blend-mode:multiply" opacity="0.5">
<path d="M144.005 44.1657C210.888 44.032 265.092 36.6314 265.075 27.6359C265.057 18.6404 210.823 11.4564 143.94 11.5901C77.0572 11.7237 22.8523 19.1243 22.8701 28.1198C22.8879 37.1153 77.1217 44.2993 144.005 44.1657Z" fill="#E5EFF7"/>
</g>
<g style="mix-blend-mode:multiply" opacity="0.5">
<path d="M143.462 44.066C210 43.933 263.926 36.569 263.909 27.6179C263.891 18.6669 209.936 11.5184 143.397 11.6514C76.8586 11.7843 22.9326 19.1483 22.9503 28.0994C22.968 37.0504 76.9228 44.1989 143.462 44.066Z" fill="#E4EFF6"/>
</g>
<g style="mix-blend-mode:multiply" opacity="0.5">
<path d="M142.919 43.9868C209.113 43.8546 262.76 36.5271 262.743 27.6205C262.725 18.7139 209.049 11.6009 142.855 11.7332C76.6601 11.8654 23.0129 19.1929 23.0306 28.0995C23.0482 37.0061 76.7239 44.1191 142.919 43.9868Z" fill="#E4EEF6"/>
</g>
<g style="mix-blend-mode:multiply" opacity="0.5">
<path d="M261.631 27.5968C261.599 36.4554 208.267 43.7533 142.419 43.8789C76.5703 44.0045 23.1494 36.9468 23.141 28.0881C23.1327 19.2293 76.4845 11.9517 142.353 11.806C208.222 11.6604 261.602 18.738 261.631 27.5968Z" fill="#E3EEF6"/>
</g>
<g style="mix-blend-mode:multiply" opacity="0.5">
<path d="M260.486 27.5926C260.454 36.411 207.404 43.6696 141.837 43.7962C76.2697 43.9228 23.2708 36.9069 23.1819 28.0881C23.093 19.2693 76.2437 12.0313 141.831 11.8846C207.418 11.7379 260.517 18.7944 260.486 27.5926Z" fill="#E2EDF6"/>
</g>
<g style="mix-blend-mode:multiply" opacity="0.5">
<path d="M141.29 43.7483C206.464 43.6181 259.283 36.4095 259.266 27.6474C259.249 18.8854 206.401 11.8879 141.228 12.0181C76.0542 12.1483 23.2348 19.3569 23.2521 28.119C23.2695 36.881 76.117 43.8785 141.29 43.7483Z" fill="#E1EDF6"/>
</g>
<g style="mix-blend-mode:multiply" opacity="0.5">
<path d="M258.134 27.6047C258.102 36.3224 205.615 43.5227 140.792 43.6318C75.9685 43.741 23.3914 36.8071 23.3625 28.0892C23.3335 19.3713 75.9012 12.1714 140.724 12.0623C205.548 11.9531 258.125 18.8869 258.134 27.6047Z" fill="#E1ECF5"/>
</g>
<g style="mix-blend-mode:multiply" opacity="0.5">
<path d="M256.968 27.6004C256.937 36.2778 204.65 43.519 140.33 43.5494C76.0094 43.5798 23.5525 36.7673 23.5234 28.0896C23.4943 19.412 75.8406 12.2717 140.262 12.141C204.683 12.0102 256.959 19.0034 256.968 27.6004Z" fill="#E0ECF5"/>
</g>
<g style="mix-blend-mode:multiply" opacity="0.5">
<path d="M255.802 27.6164C255.771 36.2334 203.847 43.3349 139.707 43.4667C75.5672 43.5984 23.5527 36.7069 23.5234 28.0897C23.4941 19.4725 75.4986 12.3712 139.639 12.2395C203.779 12.1078 255.793 18.9993 255.802 27.6164Z" fill="#DFECF5"/>
</g>
<g style="mix-blend-mode:multiply" opacity="0.5">
<path d="M254.636 27.6121C254.606 36.1889 202.963 43.2512 139.165 43.3037C75.3671 43.3561 23.6335 36.5864 23.6041 28.0094C23.5746 19.4324 75.2976 12.3704 139.096 12.318C202.894 12.2655 254.627 18.9949 254.636 27.6121Z" fill="#DFEBF5"/>
</g>
<g style="mix-blend-mode:multiply" opacity="0.5">
<path d="M138.576 43.3307C202.029 43.2039 253.454 36.1874 253.437 27.6589C253.42 19.1304 201.968 12.3194 138.515 12.4462C75.0623 12.573 23.6373 19.5895 23.6542 28.118C23.6711 36.6465 75.1234 43.4575 138.576 43.3307Z" fill="#DEEBF4"/>
</g>
<g style="mix-blend-mode:multiply" opacity="0.5">
<path d="M138.033 43.2514C201.142 43.1253 252.288 36.1454 252.271 27.6614C252.254 19.1773 201.081 12.402 137.972 12.528C74.8636 12.6541 23.7176 19.634 23.7344 28.118C23.7512 36.602 74.9244 43.3775 138.033 43.2514Z" fill="#DDEAF4"/>
</g>
<g style="mix-blend-mode:multiply" opacity="0.5">
<path d="M251.159 27.6195C251.129 36.0553 200.291 42.9997 137.538 43.1364C74.7844 43.2732 23.8549 36.5265 23.845 28.0905C23.8352 19.6546 74.6934 12.6901 137.467 12.5736C200.24 12.4571 251.129 19.1835 251.159 27.6195Z" fill="#DCEAF4"/>
</g>
<g style="mix-blend-mode:multiply" opacity="0.5">
<path d="M136.947 43.0924C199.379 42.9677 249.976 36.061 249.959 27.6659C249.943 19.2708 199.319 12.5664 136.887 12.6911C74.4557 12.8159 23.8584 19.7225 23.8751 28.1176C23.8917 36.5127 74.5159 43.2172 136.947 43.0924Z" fill="#DCE9F4"/>
</g>
<g style="mix-blend-mode:multiply" opacity="0.5">
<path d="M136.404 42.9931C198.492 42.869 248.81 35.999 248.794 27.6484C248.777 19.2978 198.432 12.6289 136.345 12.7529C74.2573 12.877 23.9389 19.747 23.9555 28.0976C23.972 36.4482 74.3171 43.1171 136.404 42.9931Z" fill="#DBE9F3"/>
</g>
<g style="mix-blend-mode:multiply" opacity="0.5">
<path d="M247.662 27.6273C247.632 35.9222 197.638 42.769 135.91 42.8892C74.1824 43.0095 24.0964 36.4471 24.0862 28.0917C24.0761 19.7363 74.1096 12.9501 135.838 12.8298C197.565 12.7095 247.651 19.3122 247.662 27.6273Z" fill="#DAE8F3"/>
</g>
<g style="mix-blend-mode:multiply" opacity="0.5">
<path d="M246.416 27.6229C246.386 35.8775 196.674 42.6851 135.288 42.8066C73.9013 42.9281 24.0967 36.3666 24.0863 28.0918C24.0758 19.8169 73.8279 13.0297 135.214 12.9082C196.6 12.7867 246.445 19.3683 246.416 27.6229Z" fill="#D9E8F3"/>
</g>
<g style="mix-blend-mode:multiply" opacity="0.5">
<path d="M134.776 42.7346C195.831 42.6126 245.313 35.8614 245.296 27.6553C245.28 19.4493 195.772 12.8959 134.717 13.0179C73.6623 13.1399 24.1806 19.891 24.1969 28.0971C24.2131 36.3031 73.7211 42.8566 134.776 42.7346Z" fill="#D8E7F3"/>
</g>
<g style="mix-blend-mode:multiply" opacity="0.5">
<path d="M134.233 42.6749C194.944 42.5536 244.147 35.839 244.131 27.6774C244.115 19.5159 194.886 12.9979 134.175 13.1192C73.4638 13.2405 24.261 19.9551 24.2772 28.1167C24.2933 36.2783 73.5223 42.7962 134.233 42.6749Z" fill="#D8E7F2"/>
</g>
<g style="mix-blend-mode:multiply" opacity="0.5">
<path d="M243.018 27.6309C242.989 35.6842 194.102 42.4343 133.74 42.5595C73.3793 42.6847 24.4188 36.1263 24.3875 28.0728C24.3561 20.0193 73.3041 13.2896 133.665 13.1644C194.026 13.0392 242.987 19.517 243.018 27.6309Z" fill="#D7E6F2"/>
</g>
<g style="mix-blend-mode:multiply" opacity="0.5">
<path d="M241.853 27.6266C241.824 35.6798 193.218 42.3504 133.258 42.477C73.2993 42.6037 24.5596 36.1468 24.5286 27.9926C24.4977 19.8385 73.1635 13.289 133.123 13.1624C193.082 13.0357 241.821 19.553 241.853 27.6266Z" fill="#D6E6F2"/>
</g>
<g style="mix-blend-mode:multiply" opacity="0.5">
<path d="M132.625 42.4167C192.303 42.2975 240.669 35.6927 240.653 27.6645C240.638 19.6364 192.246 13.2249 132.567 13.3442C72.8889 13.4634 24.5228 20.0682 24.5387 28.0963C24.5546 36.1245 72.9464 42.536 132.625 42.4167Z" fill="#D5E5F2"/>
</g>
<g style="mix-blend-mode:multiply" opacity="0.5">
<path d="M239.521 27.6383C239.492 35.6916 191.449 42.183 132.113 42.3119C72.7772 42.4407 24.6402 36.0666 24.6288 28.0735C24.6173 20.0805 72.7003 13.5288 132.036 13.4201C191.372 13.3113 239.509 19.6654 239.521 27.6383Z" fill="#D4E5F1"/>
</g>
<g style="mix-blend-mode:multiply" opacity="0.5">
<path d="M238.375 27.634C238.346 35.5665 190.585 42.0992 131.591 42.2293C72.5964 42.3594 24.7408 36.0063 24.7291 28.0737C24.7175 20.141 72.519 13.6085 131.533 13.4986C190.548 13.3887 238.404 19.7015 238.375 27.634Z" fill="#D4E4F1"/>
</g>
<g style="mix-blend-mode:multiply" opacity="0.5">
<path d="M130.996 42.1581C189.653 42.0409 237.191 35.555 237.176 27.6714C237.16 19.7878 189.596 13.4919 130.939 13.6091C72.2822 13.7263 24.7439 20.2122 24.7595 28.0958C24.7751 35.9794 72.3387 42.2753 130.996 42.1581Z" fill="#D3E4F1"/>
</g>
<g style="mix-blend-mode:multiply" opacity="0.5">
<path d="M130.453 42.0989C188.766 41.9824 236.025 35.5331 236.01 27.694C235.994 19.8549 188.71 13.5944 130.397 13.7109C72.0837 13.8274 24.8242 20.2768 24.8397 28.1159C24.8553 35.955 72.1399 42.2154 130.453 42.0989Z" fill="#D2E3F0"/>
</g>
<g style="mix-blend-mode:multiply" opacity="0.5">
<path d="M129.911 42.0196C187.88 41.9037 234.86 35.491 234.845 27.6964C234.829 19.9018 187.824 13.6769 129.855 13.7927C71.8859 13.9086 24.9053 20.3212 24.9208 28.1159C24.9362 35.9105 71.9418 42.1354 129.911 42.0196Z" fill="#D1E3F0"/>
</g>
<g style="mix-blend-mode:multiply" opacity="0.5">
<path d="M129.368 41.9399C186.992 41.8247 233.694 35.4487 233.679 27.6985C233.663 19.9483 186.937 13.7589 129.312 13.8741C71.6874 13.9892 24.9857 20.3653 25.001 28.1154C25.0164 35.8656 71.7429 42.055 129.368 41.9399Z" fill="#D0E2F0"/>
</g>
<g style="mix-blend-mode:multiply" opacity="0.5">
<path d="M232.546 27.6532C232.518 35.3441 186.125 41.7005 128.859 41.8167C71.5933 41.9329 25.1237 35.7861 25.1113 28.075C25.0988 20.3638 71.5127 14.0276 128.798 13.9115C186.084 13.7954 232.534 19.942 232.546 27.6532Z" fill="#CFE2F0"/>
</g>
<g style="mix-blend-mode:multiply" opacity="0.5">
<path d="M128.282 41.7607C185.218 41.6469 231.362 35.3442 231.347 27.683C231.332 20.0218 185.163 13.9034 128.227 14.0172C71.2903 14.1309 25.1464 20.4338 25.1616 28.0949C25.1768 35.7561 71.3453 41.8745 128.282 41.7607Z" fill="#CEE1EF"/>
</g>
<g style="mix-blend-mode:multiply" opacity="0.5">
<path d="M230.214 27.6651C230.187 35.2754 184.356 41.5935 127.774 41.6518C71.1919 41.71 25.2847 35.6861 25.3121 28.0758C25.3395 20.4655 71.1704 14.1473 127.873 14.0895C184.576 14.0317 230.201 20.0546 230.214 27.6651Z" fill="#CEE1EF"/>
</g>
<g style="mix-blend-mode:multiply" opacity="0.5">
<path d="M127.196 41.5816C183.445 41.4692 229.031 35.2486 229.016 27.6875C229.001 20.1264 183.391 14.0879 127.142 14.2003C70.894 14.3127 25.3079 20.5334 25.3229 28.0945C25.3378 35.6556 70.9482 41.694 127.196 41.5816Z" fill="#CDE0EF"/>
</g>
<g style="mix-blend-mode:multiply" opacity="0.5">
<path d="M126.654 41.5229C182.569 41.4111 227.885 35.2271 227.87 27.7105C227.855 20.1938 182.515 14.1909 126.6 14.3026C70.6845 14.4143 25.3683 20.5984 25.3831 28.115C25.398 35.6317 70.7384 41.6346 126.654 41.5229Z" fill="#CCE0EF"/>
</g>
<g style="mix-blend-mode:multiply" opacity="0.5">
<path d="M126.111 41.4431C181.682 41.332 226.719 35.1847 226.704 27.7125C226.689 20.2403 181.628 14.2729 126.057 14.3839C70.4859 14.495 25.4486 20.6424 25.4634 28.1146C25.4782 35.5867 70.5395 41.5541 126.111 41.4431Z" fill="#CBDFEE"/>
</g>
<g style="mix-blend-mode:multiply" opacity="0.5">
<path d="M125.568 41.3434C180.795 41.233 225.553 35.1222 225.538 27.6945C225.524 20.2668 180.741 14.3349 125.514 14.4452C70.2874 14.5556 25.529 20.6664 25.5437 28.0941C25.5584 35.5218 70.3407 41.4537 125.568 41.3434Z" fill="#CADFEE"/>
</g>
<g style="mix-blend-mode:multiply" opacity="0.5">
<path d="M224.405 27.6642C224.379 35.0531 179.936 41.1145 125.062 41.2393C70.188 41.3641 25.6674 35.4459 25.6537 28.0769C25.64 20.708 70.1234 14.6266 124.997 14.5018C179.871 14.377 224.331 20.2951 224.405 27.6642Z" fill="#C9DEEE"/>
</g>
<g style="mix-blend-mode:multiply" opacity="0.5">
<path d="M223.239 27.6602C223.213 35.0088 178.971 41.0306 124.519 41.1569C70.0676 41.2832 25.7479 35.406 25.7341 28.0774C25.7202 20.7488 70.0024 14.7069 124.454 14.6007C178.906 14.4946 223.226 20.3316 223.239 27.6602Z" fill="#C8DEED"/>
</g>
<g style="mix-blend-mode:multiply" opacity="0.5">
<path d="M123.939 41.0849C178.134 40.9766 222.056 34.9847 222.041 27.7015C222.027 20.4183 178.082 14.6019 123.887 14.7102C69.6926 14.8185 25.7708 20.8105 25.7853 28.0936C25.7997 35.3768 69.7448 41.1931 123.939 41.0849Z" fill="#C7DDED"/>
</g>
<g style="mix-blend-mode:multiply" opacity="0.5">
<path d="M123.396 41.0055C177.247 40.8979 220.89 34.9426 220.875 27.704C220.861 20.4653 177.195 14.6844 123.344 14.792C69.4939 14.8996 25.8511 20.8549 25.8654 28.0936C25.8798 35.3323 69.5458 41.1131 123.396 41.0055Z" fill="#C6DCED"/>
</g>
<g style="mix-blend-mode:multiply" opacity="0.5">
<path d="M219.742 27.6676C219.716 34.8752 176.399 40.7997 122.892 40.9093C69.3852 41.0189 25.9896 35.2658 25.9753 28.0781C25.9609 20.8904 69.3182 14.9459 122.825 14.8364C176.332 14.7268 219.728 20.4799 219.742 27.6676Z" fill="#C6DCED"/>
</g>
<g style="mix-blend-mode:multiply" opacity="0.5">
<path d="M218.576 27.6838C218.551 34.8311 175.515 40.7163 122.35 40.8271C69.1847 40.9379 26.0703 35.2261 26.0558 28.0786C26.0413 20.9312 69.117 15.0461 122.282 14.9353C175.448 14.8245 218.562 20.5364 218.576 27.6838Z" fill="#C5DBEC"/>
</g>
<g style="mix-blend-mode:multiply" opacity="0.5">
<path d="M121.767 40.7673C174.585 40.6618 217.392 34.8163 217.378 27.711C217.363 20.6058 174.534 14.9314 121.716 15.0369C68.8983 15.1425 26.0922 20.9879 26.1063 28.0932C26.1203 35.1984 68.9492 40.8728 121.767 40.7673Z" fill="#C4DBEC"/>
</g>
<g style="mix-blend-mode:multiply" opacity="0.5">
<path d="M216.265 27.6755C216.239 34.7422 173.747 40.5489 121.285 40.6622C68.8232 40.7756 26.2313 35.126 26.2366 28.0793C26.2418 21.0326 68.7343 15.2058 121.216 15.0925C173.698 14.9793 216.29 20.6289 216.265 27.6755Z" fill="#C3DAEC"/>
</g>
<g style="mix-blend-mode:multiply" opacity="0.5">
<path d="M215.099 27.6915C215.074 34.6979 172.843 40.4652 120.723 40.5798C68.6027 40.6943 26.272 35.0859 26.2969 28.1601C26.3218 21.2342 68.5532 15.3662 120.673 15.2718C172.793 15.1774 215.084 20.6648 215.099 27.6915Z" fill="#C2DAEB"/>
</g>
<g style="mix-blend-mode:multiply" opacity="0.5">
<path d="M123.101 38.1284C174.9 37.7959 216.855 31.8834 216.81 24.9225C216.766 17.9616 174.739 12.5883 122.94 12.9208C71.1419 13.2534 29.187 19.1658 29.2315 26.1267C29.276 33.0876 71.3029 38.461 123.101 38.1284Z" fill="#C1D9EB"/>
</g>
<g style="mix-blend-mode:multiply" opacity="0.5">
<path d="M119.596 40.4295C171.049 40.3267 212.748 34.6367 212.735 27.7204C212.721 20.8042 170.999 15.2809 119.547 15.3837C68.094 15.4865 26.3944 21.1765 26.4081 28.0927C26.4218 35.0089 68.1435 40.5323 119.596 40.4295Z" fill="#C0D8EB"/>
</g>
<g style="mix-blend-mode:multiply" opacity="0.5">
<path d="M211.602 27.6786C211.577 34.5642 170.191 40.2137 119.096 40.332C68.0009 40.4502 26.5341 34.9456 26.5187 28.0599C26.5032 21.1742 67.9297 15.5449 119.025 15.4266C170.12 15.3084 211.586 20.8533 211.602 27.6786Z" fill="#BFD8EA"/>
</g>
<g style="mix-blend-mode:multiply" opacity="0.5">
<path d="M118.51 40.2706C169.275 40.1691 210.416 34.5523 210.403 27.7251C210.389 20.8978 169.226 15.4454 118.461 15.5468C67.6969 15.6482 26.5551 21.2651 26.5687 28.0924C26.5822 34.9196 67.7458 40.372 118.51 40.2706Z" fill="#BED7EA"/>
</g>
<g style="mix-blend-mode:multiply" opacity="0.5">
<path d="M209.27 27.6905C209.246 34.4754 168.423 40.0465 118.011 40.1672C67.5995 40.2879 26.6952 34.8457 26.6794 28.0606C26.6636 21.2756 67.5271 15.7047 117.959 15.6042C168.39 15.5037 209.255 20.8451 209.27 27.6905Z" fill="#BDD7EA"/>
</g>
<g style="mix-blend-mode:multiply" opacity="0.5">
<path d="M117.425 40.1116C167.501 40.0115 208.085 34.4679 208.072 27.7296C208.058 20.9913 167.453 15.6099 117.377 15.71C67.3005 15.81 26.7166 21.3536 26.73 28.0919C26.7433 34.8302 67.3488 40.2116 117.425 40.1116Z" fill="#BCD6E9"/>
</g>
<g style="mix-blend-mode:multiply" opacity="0.5">
<path d="M206.938 27.7022C206.914 34.3864 166.694 39.8993 116.926 40.0022C67.1572 40.105 26.8556 34.7455 26.8394 28.0612C26.8233 21.3768 67.0836 15.8641 116.872 15.7814C166.66 15.6987 206.922 21.0178 206.938 27.7022Z" fill="#BBD5E9"/>
</g>
<g style="mix-blend-mode:multiply" opacity="0.5">
<path d="M205.772 27.6982C205.748 34.3422 165.77 39.8156 116.383 39.8997C66.997 39.9839 26.9363 34.7058 26.92 28.0617C26.9037 21.4176 66.9226 15.9644 116.329 15.8602C165.736 15.7561 205.776 21.0542 205.772 27.6982Z" fill="#BAD5E9"/>
</g>
<g style="mix-blend-mode:multiply" opacity="0.5">
<path d="M115.796 39.8529C164.851 39.7549 204.607 34.3302 204.594 27.7364C204.581 21.1427 164.804 15.8769 115.749 15.9749C66.6939 16.0729 26.9377 21.4976 26.9508 28.0914C26.9638 34.6851 66.7412 39.9509 115.796 39.8529Z" fill="#B9D4E9"/>
</g>
<g style="mix-blend-mode:multiply" opacity="0.5">
<path d="M115.253 39.7734C163.964 39.676 203.441 34.2879 203.428 27.7386C203.415 21.1893 163.917 15.9589 115.206 16.0562C66.4954 16.1535 27.0181 21.5417 27.031 28.091C27.044 34.6404 66.5424 39.8707 115.253 39.7734Z" fill="#B8D4E8"/>
</g>
<g style="mix-blend-mode:multiply" opacity="0.5">
<path d="M202.295 27.7056C202.271 34.2086 163.117 39.6448 114.736 39.652C66.355 39.6592 27.1579 34.5654 27.1612 28.0623C27.1645 21.5592 66.3391 16.1231 114.7 16.1159C163.061 16.1086 202.218 21.2022 202.295 27.7056Z" fill="#B7D3E8"/>
</g>
<g style="mix-blend-mode:multiply" opacity="0.5">
<path d="M201.129 27.7016C201.106 34.1643 162.233 39.4807 114.194 39.5697C66.1541 39.6586 27.2989 34.5258 27.3221 28.063C27.3454 21.6002 66.2382 16.2839 114.258 16.1948C162.277 16.1058 201.112 21.2588 201.129 27.7016Z" fill="#B6D2E8"/>
</g>
<g style="mix-blend-mode:multiply" opacity="0.5">
<path d="M113.625 39.5355C161.303 39.4402 199.944 34.162 199.931 27.7461C199.919 21.3303 161.257 16.2064 113.579 16.3016C65.9007 16.3969 27.2601 21.6752 27.2728 28.0911C27.2855 34.5069 65.9467 39.6308 113.625 39.5355Z" fill="#B5D2E7"/>
</g>
<g style="mix-blend-mode:multiply" opacity="0.5">
<path d="M198.798 27.7133C198.775 34.0754 160.445 39.3132 113.109 39.4852C65.7725 39.6573 27.3998 34.5061 27.3824 28.1438C27.3651 21.7816 65.735 16.5439 113.071 16.3719C160.408 16.1999 198.781 21.3511 198.798 27.7133Z" fill="#B4D1E7"/>
</g>
<g style="mix-blend-mode:multiply" opacity="0.5">
<path d="M112.539 39.3563C159.529 39.2624 197.612 34.0664 197.599 27.7506C197.587 21.4348 159.484 16.3909 112.494 16.4848C65.5035 16.5787 27.4207 21.7748 27.4332 28.0906C27.4457 34.4064 65.5488 39.4502 112.539 39.3563Z" fill="#B3D1E7"/>
</g>
<g style="mix-blend-mode:multiply" opacity="0.5">
<path d="M196.466 27.725C196.444 33.9864 158.677 39.1457 112.004 39.2396C65.3316 39.3335 27.6015 34.3456 27.5236 28.0637C27.4457 21.7818 65.3128 16.6229 111.986 16.529C158.659 16.4351 196.469 21.4434 196.466 27.725Z" fill="#B2D0E6"/>
</g>
<g style="mix-blend-mode:multiply" opacity="0.5">
<path d="M195.321 27.7211C195.298 33.9422 157.793 39.0621 111.482 39.1573C65.171 39.2525 27.6418 34.2855 27.624 28.0642C27.6061 21.843 65.1314 16.703 111.442 16.6078C157.754 16.5126 195.303 21.4998 195.321 27.7211Z" fill="#B1CFE6"/>
</g>
<g style="mix-blend-mode:multiply" opacity="0.5">
<path d="M194.155 27.7167C194.132 33.8976 156.909 38.9783 110.94 39.0747C64.9702 39.1711 27.7223 34.2454 27.7043 28.0643C27.6863 21.8833 64.9501 16.8027 110.899 16.7063C156.849 16.6098 194.177 21.5358 194.155 27.7167Z" fill="#B0CFE6"/>
</g>
<g style="mix-blend-mode:multiply" opacity="0.5">
<path d="M192.989 27.7127C192.967 33.8534 156.025 38.915 110.397 38.9925C64.7695 39.07 27.8028 34.2057 27.7847 28.0649C27.7665 21.9241 64.7488 16.8828 110.356 16.7851C155.964 16.6874 192.971 21.5921 192.989 27.7127Z" fill="#AFCEE5"/>
</g>
<g style="mix-blend-mode:multiply" opacity="0.5">
<path d="M191.823 27.7285C191.801 33.7685 155.141 38.8311 109.855 38.9098C64.5689 38.9885 27.8835 34.1454 27.8651 28.065C27.8468 21.9846 64.5476 16.9625 109.813 16.8635C155.079 16.7646 191.805 21.628 191.823 27.7285Z" fill="#AECDE5"/>
</g>
<g style="mix-blend-mode:multiply" opacity="0.5">
<path d="M190.657 27.7245C190.636 33.7645 154.257 38.7475 109.312 38.8275C64.3682 38.9074 27.9439 34.1055 27.9456 28.0655C27.9472 22.0255 64.3463 17.0425 109.27 16.9624C154.195 16.8824 190.639 21.6844 190.657 27.7245Z" fill="#ADCDE5"/>
</g>
<g style="mix-blend-mode:multiply" opacity="0.5">
<path d="M108.74 38.7797C153.332 38.6906 189.472 33.7598 189.46 27.7665C189.448 21.7732 153.289 16.9869 108.697 17.076C64.1043 17.1651 27.9647 22.0958 27.9766 28.0891C27.9884 34.0825 64.1473 38.8688 108.74 38.7797Z" fill="#ACCCE4"/>
</g>
<g style="mix-blend-mode:multiply" opacity="0.5">
<path d="M188.326 27.7358C188.304 33.7758 152.488 38.5796 108.228 38.6621C63.9668 38.7445 28.1052 34.005 28.1064 28.0657C28.1077 22.1263 63.9437 17.2218 108.184 17.1192C152.425 17.0166 188.327 21.7764 188.326 27.7358Z" fill="#ABCCE4"/>
</g>
<g style="mix-blend-mode:multiply" opacity="0.5">
<path d="M187.159 27.7316C187.138 33.6306 151.604 38.4959 107.685 38.5796C63.7656 38.6632 28.1852 33.965 28.1662 28.0658C28.1472 22.1666 63.7419 17.3015 107.641 17.1977C151.54 17.0938 187.161 21.8325 187.159 27.7316Z" fill="#AACBE4"/>
</g>
<g style="mix-blend-mode:multiply" opacity="0.5">
<path d="M186.114 27.7278C186.093 33.5866 150.82 38.4126 107.243 38.4975C63.6654 38.5824 28.3663 33.9254 28.3468 28.147C28.3274 22.3687 63.6409 17.4622 107.218 17.3774C150.796 17.2925 185.995 21.8686 186.114 27.7278Z" fill="#A9CAE3"/>
</g>
<g style="mix-blend-mode:multiply" opacity="0.5">
<path d="M106.568 38.4622C149.783 38.3759 184.807 33.5915 184.796 27.7761C184.784 21.9607 149.742 17.3164 106.526 17.4027C63.31 17.4891 28.2861 22.2734 28.2976 28.0888C28.3091 33.9042 63.3517 38.5486 106.568 38.4622Z" fill="#A8CAE3"/>
</g>
<g style="mix-blend-mode:multiply" opacity="0.5">
<path d="M183.682 27.7393C183.661 33.4974 148.952 38.2448 106.058 38.3322C63.1636 38.4195 28.4269 33.8249 28.4077 27.9862C28.3885 22.1474 63.1586 17.4606 106.032 17.3731C148.906 17.2857 183.663 21.981 183.682 27.7393Z" fill="#A7C9E3"/>
</g>
<g style="mix-blend-mode:multiply" opacity="0.5">
<path d="M182.517 27.7355C182.496 33.4534 148.048 38.1615 105.515 38.2501C62.9832 38.3388 28.5077 33.7855 28.4881 28.0675C28.4684 22.3495 62.9571 17.6213 105.489 17.5528C148.021 17.4843 182.497 22.0176 182.517 27.7355Z" fill="#A6C8E2"/>
</g>
<g style="mix-blend-mode:multiply" opacity="0.5">
<path d="M181.351 27.7512C181.33 33.4086 147.143 38.0774 104.933 38.1672C62.722 38.257 28.5681 33.7249 28.5885 28.0474C28.6089 22.3698 62.7958 17.7211 105.006 17.6313C147.217 17.5415 181.331 22.0735 181.351 27.7512Z" fill="#A4C8E2"/>
</g>
<g style="mix-blend-mode:multiply" opacity="0.5">
<path d="M180.185 27.7468C180.165 33.364 146.279 38.0137 104.431 38.0847C62.5819 38.1557 28.6689 33.6849 28.649 28.0474C28.6291 22.41 62.5545 17.8007 104.403 17.7096C146.252 17.6185 180.105 22.1092 180.185 27.7468Z" fill="#A3C7E2"/>
</g>
<g style="mix-blend-mode:multiply" opacity="0.5">
<path d="M179.019 27.7429C178.999 33.3197 145.395 37.9302 103.888 38.0024C62.3809 38.0746 28.729 33.7054 28.7292 28.0479C28.7294 22.3905 62.3531 17.8808 103.86 17.7884C145.367 17.6961 179.019 22.1659 179.019 27.7429Z" fill="#A2C6E1"/>
</g>
<g style="mix-blend-mode:multiply" opacity="0.5">
<path d="M177.853 27.7586C177.833 33.2751 144.511 37.8464 103.346 37.9198C62.1802 37.9932 28.8096 33.625 28.8095 28.048C28.8095 22.4711 62.1517 17.9603 103.317 17.8869C144.482 17.8134 177.853 22.2219 177.853 27.7586Z" fill="#A1C6E1"/>
</g>
<g style="mix-blend-mode:multiply" opacity="0.5">
<path d="M102.788 37.8861C143.606 37.8045 176.687 33.2855 176.676 27.7926C176.665 22.2997 143.567 17.9129 102.749 17.9944C61.9308 18.076 28.8501 22.595 28.861 28.0879C28.8719 33.5809 61.9702 37.9677 102.788 37.8861Z" fill="#A0C5E0"/>
</g>
<g style="mix-blend-mode:multiply" opacity="0.5">
<path d="M175.542 27.7505C175.522 33.1864 142.743 37.6993 102.261 37.755C61.779 37.8108 28.9711 33.4647 28.9705 28.0488C28.9699 22.6329 61.7494 18.0999 102.231 18.0442C142.713 17.9884 175.521 22.3143 175.542 27.7505Z" fill="#9FC4E0"/>
</g>
<g style="mix-blend-mode:multiply" opacity="0.5">
<path d="M174.376 27.7463C174.357 33.1621 141.859 37.5954 101.719 37.6725C61.5785 37.7497 29.0521 33.3845 29.0512 28.0491C29.0502 22.7137 61.5278 18.3005 101.729 18.1431C141.929 17.9857 174.355 22.3504 174.376 27.7463Z" fill="#9EC4E0"/>
</g>
<g style="mix-blend-mode:multiply" opacity="0.5">
<path d="M173.21 27.7622C173.191 33.1176 141.015 37.5118 101.176 37.5698C61.3377 37.6279 29.1325 33.3848 29.1115 28.0292C29.0906 22.6736 61.3068 18.2796 101.145 18.2216C140.984 18.1635 173.189 22.4066 173.21 27.7622Z" fill="#9DC3DF"/>
</g>
<g style="mix-blend-mode:multiply" opacity="0.5">
<path d="M172.045 27.7579C172.026 33.073 140.091 37.4278 100.634 37.5678C61.1768 37.7077 29.2129 33.4251 29.1918 28.1098C29.1707 22.7945 61.1657 18.44 100.603 18.2999C140.04 18.1599 172.064 22.4628 172.045 27.7579Z" fill="#9CC2DF"/>
</g>
<g style="mix-blend-mode:multiply" opacity="0.5">
<path d="M100.074 37.4481C139.171 37.37 170.858 33.0431 170.847 27.7836C170.837 22.5242 139.134 18.3239 100.036 18.402C60.939 18.4801 29.2527 22.8071 29.2631 28.0665C29.2735 33.326 60.9767 37.5262 100.074 37.4481Z" fill="#9AC2DF"/>
</g>
<g style="mix-blend-mode:multiply" opacity="0.5">
<path d="M169.713 27.7697C169.694 32.9842 138.322 37.2605 99.5488 37.3425C60.7753 37.4245 29.3134 33.2645 29.3322 28.05C29.3509 22.8355 60.7427 18.5593 99.496 18.4772C138.249 18.3951 169.711 22.5551 169.713 27.7697Z" fill="#99C1DE"/>
</g>
<g style="mix-blend-mode:multiply" opacity="0.5">
<path d="M168.546 27.7653C168.528 32.9395 137.438 37.1766 99.006 37.2598C60.5742 37.3431 29.454 33.2246 29.4324 28.0501C29.4108 22.8757 60.5611 18.6389 98.9728 18.5556C137.384 18.4723 168.545 22.5909 168.546 27.7653Z" fill="#98C0DE"/>
</g>
<g style="mix-blend-mode:multiply" opacity="0.5">
<path d="M167.401 27.7613C167.382 32.8953 136.554 37.093 98.4638 37.1775C60.3738 37.2619 29.5348 33.1646 29.513 28.0506C29.4912 22.9366 60.36 18.7189 98.43 18.6343C136.5 18.5498 167.379 22.7077 167.401 27.7613Z" fill="#97BFDE"/>
</g>
<g style="mix-blend-mode:multiply" opacity="0.5">
<path d="M97.9021 37.1304C135.634 37.055 166.214 32.8835 166.204 27.8131C166.194 22.7427 135.598 18.6934 97.8658 18.7688C60.1338 18.8442 29.5542 23.0157 29.5642 28.0861C29.5742 33.1565 60.1702 37.2058 97.9021 37.1304Z" fill="#96BFDD"/>
</g>
<g style="mix-blend-mode:multiply" opacity="0.5">
<path d="M165.069 27.7731C165.051 32.8064 134.766 36.9456 97.3791 37.0125C59.9926 37.0794 29.6759 33.0846 29.6739 28.0512C29.6719 23.0179 59.9576 18.8787 97.3441 18.8118C134.731 18.745 165.047 22.6994 165.069 27.7731Z" fill="#95BEDD"/>
</g>
<g style="mix-blend-mode:multiply" opacity="0.5">
<path d="M164.004 27.7692C163.986 32.7622 133.982 36.8622 96.937 36.9303C59.8922 36.9984 29.8568 33.0248 29.8546 28.0518C29.8524 23.0788 59.8566 18.9587 96.9014 18.8906C133.946 18.8225 163.881 22.7957 164.004 27.7692Z" fill="#94BDDC"/>
</g>
<g style="mix-blend-mode:multiply" opacity="0.5">
<path d="M162.738 27.7847C162.72 32.7174 132.997 36.7781 96.3748 36.8477C59.7521 36.9174 29.9175 32.9847 29.9152 28.052C29.9128 23.1193 59.6354 19.0585 96.2783 18.9688C132.921 18.8792 162.736 22.8319 162.738 27.7847Z" fill="#92BDDC"/>
</g>
<g style="mix-blend-mode:multiply" opacity="0.5">
<path d="M161.572 27.7804C161.554 32.6728 132.113 36.6942 95.752 36.7648C59.3906 36.8354 29.9177 32.9443 29.9152 28.0519C29.9127 23.1594 59.3739 19.1381 95.7151 19.0674C132.056 18.9968 161.57 22.888 161.572 27.7804Z" fill="#91BCDC"/>
</g>
<g style="mix-blend-mode:multiply" opacity="0.5">
<path d="M160.406 27.7766C160.389 32.6287 131.229 36.6109 95.2094 36.6827C59.1897 36.7545 29.9982 32.8845 29.9954 28.0525C29.9927 23.2205 59.1724 19.2182 95.1719 19.1463C131.172 19.0744 160.403 22.9445 160.406 27.7766Z" fill="#90BBDB"/>
</g>
<g style="mix-blend-mode:multiply" opacity="0.5">
<path d="M159.24 27.7924C159.223 32.5841 130.345 36.5271 94.6669 36.6001C58.989 36.6731 30.0787 32.8444 30.0758 28.0526C30.0729 23.2608 58.9711 19.2978 94.6491 19.2248C130.327 19.1517 159.237 22.9804 159.24 27.7924Z" fill="#8FBADB"/>
</g>
<g style="mix-blend-mode:multiply" opacity="0.5">
<path d="M158.075 27.7884C158.057 32.5398 129.461 36.4435 94.1248 36.5178C58.7886 36.592 30.1595 32.8047 30.1364 28.0531C30.1133 23.3015 58.77 19.3779 94.1062 19.3238C129.442 19.2697 157.991 23.0366 158.075 27.7884Z" fill="#8EBADB"/>
</g>
<g style="mix-blend-mode:multiply" opacity="0.5">
<path d="M156.929 27.7841C156.912 32.4953 128.577 36.3597 93.5827 36.4352C58.5881 36.5107 30.2403 32.7444 30.217 28.0532C30.1937 23.362 58.5689 19.4776 93.5635 19.4022C128.558 19.3267 156.906 23.0728 156.929 27.7841Z" fill="#8DB9DA"/>
</g>
<g style="mix-blend-mode:multiply" opacity="0.5">
<path d="M155.763 27.7801C155.747 32.451 127.693 36.2761 93.0402 36.3528C58.3873 36.4295 30.3208 32.7045 30.2972 28.0738C30.2737 23.443 58.468 19.5782 93.0204 19.5011C127.573 19.424 155.74 23.1292 155.763 27.7801Z" fill="#8BB8DA"/>
</g>
<g style="mix-blend-mode:multiply" opacity="0.5">
<path d="M154.597 27.7961C154.581 32.4066 126.809 36.1925 92.4976 36.2704C58.1864 36.3484 30.3811 32.6646 30.3778 27.9936C30.3745 23.3227 58.1663 19.5771 92.4775 19.4992C126.789 19.4213 154.594 23.1855 154.597 27.7961Z" fill="#8AB8D9"/>
</g>
<g style="mix-blend-mode:multiply" opacity="0.5">
<path d="M91.9308 36.2163C125.888 36.1484 153.409 32.3887 153.4 27.8187C153.391 23.2486 125.856 19.5989 91.898 19.6667C57.9403 19.7345 30.4196 23.4943 30.4286 28.0644C30.4377 32.6344 57.9731 36.2841 91.9308 36.2163Z" fill="#89B7D9"/>
</g>
<g style="mix-blend-mode:multiply" opacity="0.5">
<path d="M152.266 27.7875C152.25 32.3175 125.041 36.045 91.4129 36.1053C57.7852 36.1655 30.5424 32.5643 30.5385 28.0544C30.5346 23.5445 57.7637 19.797 91.3914 19.7367C125.019 19.6764 152.262 23.2776 152.266 27.7875Z" fill="#88B6D9"/>
</g>
<g style="mix-blend-mode:multiply" opacity="0.5">
<path d="M90.8454 36.0576C124.115 35.9911 151.078 32.3136 151.069 27.8437C151.06 23.3737 124.083 19.8039 90.8133 19.8704C57.5439 19.9368 30.5809 23.6144 30.5898 28.0844C30.5986 32.5544 57.576 36.1241 90.8454 36.0576Z" fill="#87B5D8"/>
</g>
<g style="mix-blend-mode:multiply" opacity="0.5">
<path d="M149.934 27.7993C149.918 32.2286 123.273 35.8776 90.3283 35.9403C57.3839 36.0031 30.7037 32.4643 30.6995 28.0349C30.6953 23.6056 57.3813 19.9768 90.3055 19.914C123.23 19.8512 149.95 23.37 149.934 27.7993Z" fill="#85B5D8"/>
</g>
<g style="mix-blend-mode:multiply" opacity="0.5">
<path d="M148.768 27.7949C148.752 32.184 122.368 35.7534 89.7852 35.8577C57.2025 35.962 30.7836 32.4242 30.7793 28.0351C30.7749 23.6459 57.1793 20.0766 89.7619 19.9924C122.344 19.9083 148.764 23.426 148.768 27.7949Z" fill="#84B4D8"/>
</g>
<g style="mix-blend-mode:multiply" opacity="0.5">
<path d="M147.622 27.8112C147.607 32.1398 121.464 35.7705 89.3035 35.7756C57.1433 35.7807 31.0253 32.3849 30.9203 28.0357C30.8154 23.6865 57.0791 20.0764 89.2393 20.0712C121.4 20.0661 147.598 23.4622 147.622 27.8112Z" fill="#83B3D7"/>
</g>
<g style="mix-blend-mode:multiply" opacity="0.5">
<path d="M146.456 27.807C146.441 32.0954 120.6 35.6264 88.7006 35.6527C56.8016 35.6789 30.9449 32.284 30.9403 27.9956C30.9356 23.7071 56.7769 20.1761 88.6759 20.1499C120.575 20.1237 146.452 23.5186 146.456 27.807Z" fill="#82B2D7"/>
</g>
<g style="mix-blend-mode:multiply" opacity="0.5">
<path d="M145.291 27.8027C145.275 32.0508 119.716 35.5427 88.158 35.6506C56.6004 35.7586 31.0253 32.3245 31.0204 28.0763C31.0156 23.8281 56.5754 20.3564 88.133 20.2283C119.691 20.1002 145.286 23.5545 145.291 27.8027Z" fill="#81B2D6"/>
</g>
<g style="mix-blend-mode:multiply" opacity="0.5">
<path d="M144.125 27.8186C144.11 32.0063 118.832 35.459 87.6159 35.5279C56.4001 35.5968 31.1061 32.2443 31.0811 28.0363C31.056 23.8283 56.3744 20.396 87.5902 20.327C118.806 20.2581 144.12 23.6107 144.125 27.8186Z" fill="#7FB1D6"/>
</g>
<g style="mix-blend-mode:multiply" opacity="0.5">
<path d="M142.959 27.8142C142.944 31.9617 117.947 35.3751 87.0734 35.4452C56.1994 35.5154 31.1867 32.184 31.1614 28.0364C31.1361 23.8888 56.1731 20.4756 87.0471 20.4054C117.921 20.3352 142.954 23.6667 142.959 27.8142Z" fill="#7EB0D6"/>
</g>
<g style="mix-blend-mode:multiply" opacity="0.5">
<path d="M141.894 27.8108C141.879 31.8374 117.164 35.292 86.6313 35.3634C56.0989 35.4348 31.3273 32.1446 31.342 28.0374C31.3568 23.9302 56.072 20.5561 86.6043 20.5048C117.137 20.4536 141.788 23.7032 141.894 27.8108Z" fill="#7DAFD5"/>
</g>
<g style="mix-blend-mode:multiply" opacity="0.5">
<path d="M140.627 27.8265C140.613 31.8531 116.179 35.2081 85.9886 35.2807C55.7979 35.3534 31.3277 32.1044 31.3222 28.0374C31.3167 23.9705 55.7906 20.6358 85.9611 20.5832C116.132 20.5306 140.622 23.7595 140.627 27.8265Z" fill="#7CAFD5"/>
</g>
<g style="mix-blend-mode:multiply" opacity="0.5">
<path d="M139.461 27.8219C139.447 31.8485 115.315 35.1241 85.4459 35.1979C55.5769 35.2716 31.3276 32.0436 31.342 28.0371C31.3564 24.0306 55.4885 20.7147 85.3575 20.6611C115.227 20.6074 139.456 23.7951 139.461 27.8219Z" fill="#7AAED4"/>
</g>
<g style="mix-blend-mode:multiply" opacity="0.5">
<path d="M84.8742 35.1431C114.369 35.0841 138.273 31.8183 138.266 27.8487C138.258 23.8791 114.341 20.7089 84.8458 20.7678C55.3507 20.8267 31.4466 24.0925 31.4544 28.0621C31.4623 32.0317 55.3791 35.202 84.8742 35.1431Z" fill="#79ADD4"/>
</g>
<g style="mix-blend-mode:multiply" opacity="0.5">
<path d="M137.15 27.8138C137.136 31.8404 113.527 34.9769 84.3615 35.0331C55.196 35.0892 31.5695 31.9642 31.5635 28.0381C31.5575 24.1121 55.1868 20.8951 84.3322 20.8389C113.478 20.7826 137.144 23.9079 137.15 27.8138Z" fill="#78ACD4"/>
</g>
<g style="mix-blend-mode:multiply" opacity="0.5">
<path d="M135.984 27.8297C135.97 31.6952 112.643 34.8931 83.819 34.9505C54.9952 35.0079 31.5697 31.9037 31.5836 28.0381C31.5975 24.1726 54.9251 20.9747 83.7288 20.9173C112.532 20.8598 135.978 23.944 135.984 27.8297Z" fill="#77ACD3"/>
</g>
<g style="mix-blend-mode:multiply" opacity="0.5">
<path d="M83.2455 34.9049C111.719 34.848 134.796 31.7011 134.788 27.8761C134.781 24.051 111.692 20.9964 83.218 21.0532C54.7442 21.1101 31.6678 24.257 31.6753 28.0821C31.6829 31.9071 54.7716 34.9618 83.2455 34.9049Z" fill="#75ABD3"/>
</g>
<g style="mix-blend-mode:multiply" opacity="0.5">
<path d="M133.653 27.8212C133.639 31.6063 110.875 34.7256 82.7343 34.7855C54.5939 34.8454 31.8112 31.824 31.8047 28.0388C31.7982 24.2537 54.5829 21.1344 82.7031 21.0946C110.823 21.0548 133.646 24.0562 133.653 27.8212Z" fill="#74AAD2"/>
</g>
<g style="mix-blend-mode:multiply" opacity="0.5">
<path d="M132.487 27.8375C132.474 31.5621 109.991 34.6422 82.2121 34.7034C54.4335 34.7646 31.9723 31.7645 31.9857 28.0398C31.9991 24.3152 54.4822 21.2351 82.2608 21.1739C110.039 21.1128 132.481 24.0926 132.487 27.8375Z" fill="#73A9D2"/>
</g>
<g style="mix-blend-mode:multiply" opacity="0.5">
<path d="M131.321 27.833C131.308 31.5174 109.087 34.5583 81.6497 34.6207C54.2128 34.6831 31.9726 31.724 31.9658 28.0395C31.9589 24.355 54.1001 21.3139 81.6375 21.2519C109.175 21.1898 131.315 24.1486 131.321 27.833Z" fill="#72A8D2"/>
</g>
<g style="mix-blend-mode:multiply" opacity="0.5">
<path d="M130.155 27.8287C130.142 31.4728 108.202 34.4743 81.1067 34.538C54.0115 34.6016 32.0525 31.6838 32.0254 28.0396C31.9983 24.3953 53.9786 21.3939 81.0939 21.3304C108.209 21.2668 130.148 24.1845 130.155 27.8287Z" fill="#70A8D1"/>
</g>
<g style="mix-blend-mode:multiply" opacity="0.5">
<path d="M129.009 27.8449C128.996 31.4286 107.318 34.3908 80.5644 34.4556C53.8109 34.5205 32.1131 31.6439 32.106 28.04C32.0988 24.4361 53.7975 21.474 80.5509 21.4293C107.304 21.3845 129.002 24.241 129.009 27.8449Z" fill="#6FA7D1"/>
</g>
<g style="mix-blend-mode:multiply" opacity="0.5">
<path d="M80.0088 34.3882C106.418 34.3354 127.821 31.4172 127.814 27.8701C127.807 24.3231 106.392 21.4904 79.9834 21.5431C53.5743 21.5959 32.1712 24.5141 32.1782 28.0612C32.1853 31.6083 53.5997 34.4409 80.0088 34.3882Z" fill="#6EA6D0"/>
</g>
<g style="mix-blend-mode:multiply" opacity="0.5">
<path d="M126.678 27.8366C126.665 31.3398 105.55 34.2235 79.4797 34.2908C53.4096 34.3581 32.2743 31.5439 32.2667 28.0809C32.259 24.6179 53.3948 21.694 79.4649 21.6267C105.535 21.5594 126.67 24.3333 126.678 27.8366Z" fill="#6CA5D0"/>
</g>
<g style="mix-blend-mode:multiply" opacity="0.5">
<path d="M125.512 27.8524C125.5 31.2951 104.666 34.1597 78.9373 34.2081C53.2089 34.2565 32.3549 31.5037 32.3474 28.0005C32.3399 24.4973 53.1938 21.6932 78.9222 21.6448C104.651 21.5964 125.504 24.3894 125.512 27.8524Z" fill="#6BA5CF"/>
</g>
<g style="mix-blend-mode:multiply" opacity="0.5">
<path d="M124.346 27.8479C124.334 31.2504 103.781 34.0757 78.3947 34.1253C53.0081 34.1749 32.4354 31.4434 32.4275 28.0408C32.4196 24.6382 52.9923 21.813 78.3789 21.7633C103.766 21.7137 124.338 24.4252 124.346 27.8479Z" fill="#6AA4CF"/>
</g>
<g style="mix-blend-mode:multiply" opacity="0.5">
<path d="M123.18 27.8438C123.168 31.206 102.897 33.9921 77.8525 34.0429C52.8076 34.0938 32.5161 31.4035 32.5081 28.0412C32.5001 24.6789 52.7911 21.8929 77.8361 21.842C102.881 21.7912 123.172 24.562 123.18 27.8438Z" fill="#68A3CF"/>
</g>
<g style="mix-blend-mode:multiply" opacity="0.5">
<path d="M122.015 27.8401C122.003 31.162 102.013 33.9088 77.3101 33.9609C52.6069 34.013 32.5966 31.364 32.5885 28.0419C32.5803 24.7199 52.5899 21.9731 77.2931 21.921C101.996 21.8689 122.006 24.5583 122.015 27.8401Z" fill="#67A2CE"/>
</g>
<g style="mix-blend-mode:multiply" opacity="0.5">
<path d="M120.849 27.8557C120.837 31.1173 101.13 33.8247 76.7681 33.8781C52.4065 33.9314 32.6776 31.3035 32.5688 28.0415C32.4599 24.7795 52.2883 22.0724 76.6499 22.0191C101.011 21.9658 120.841 24.5538 120.849 27.8557Z" fill="#66A1CE"/>
</g>
<g style="mix-blend-mode:multiply" opacity="0.5">
<path d="M119.784 27.8522C119.772 31.0735 100.325 33.8222 76.306 33.7358C52.2866 33.6494 32.8385 31.2037 32.83 27.9823C32.8215 24.7609 52.2682 22.0122 76.2875 22.0986C100.307 22.185 119.796 24.5503 119.784 27.8522Z" fill="#65A1CD"/>
</g>
<g style="mix-blend-mode:multiply" opacity="0.5">
<path d="M118.537 27.8476C118.526 31.0287 99.3611 33.6576 75.6828 33.7335C52.0046 33.8094 32.8383 31.244 32.8297 28.0427C32.8211 24.8415 52.0059 22.2529 75.6641 22.1568C99.3223 22.0606 118.529 24.6665 118.537 27.8476Z" fill="#63A0CD"/>
</g>
<g style="mix-blend-mode:multiply" opacity="0.5">
<path d="M117.371 27.8635C117.36 31.0042 98.4766 33.5738 75.1401 33.6308C51.8036 33.6878 32.9387 31.1637 32.95 28.023C32.9613 24.8822 51.8445 22.3126 75.1809 22.2758C98.5173 22.2389 117.362 24.7226 117.371 27.8635Z" fill="#629FCC"/>
</g>
<g style="mix-blend-mode:multiply" opacity="0.5">
<path d="M116.206 27.8593C116.195 30.9598 97.5929 33.4901 74.5982 33.5483C51.6034 33.6065 32.9795 31.1236 32.9907 28.0231C33.0018 24.9226 51.6035 22.3922 74.5781 22.3541C97.5527 22.3159 116.197 24.7788 116.206 27.8593Z" fill="#619ECC"/>
</g>
<g style="mix-blend-mode:multiply" opacity="0.5">
<path d="M74.0376 33.4936C96.6723 33.4484 115.017 30.9419 115.011 27.8952C115.005 24.8485 96.6505 22.4154 74.0157 22.4606C51.381 22.5058 33.0367 25.0123 33.0428 28.059C33.0488 31.1057 51.4028 33.5389 74.0376 33.4936Z" fill="#5F9DCC"/>
</g>
<g style="mix-blend-mode:multiply" opacity="0.5">
<path d="M113.874 27.8708C113.864 30.8706 95.7647 33.3222 73.5136 33.3831C51.2626 33.444 33.1409 31.0232 33.1316 28.0233C33.1223 25.0234 51.2414 22.5719 73.4924 22.511C95.7435 22.45 113.865 24.8708 113.874 27.8708Z" fill="#5E9CCB"/>
</g>
<g style="mix-blend-mode:multiply" opacity="0.5">
<path d="M112.709 27.8667C112.698 30.8263 94.9209 33.2388 72.9714 33.3008C51.0218 33.3628 33.2217 30.9834 33.2122 28.0238C33.2027 25.0641 51 22.6517 72.9495 22.6098C94.899 22.568 112.699 24.9071 112.709 27.8667Z" fill="#5D9CCB"/>
</g>
<g style="mix-blend-mode:multiply" opacity="0.5">
<path d="M111.542 27.8626C111.532 30.7819 94.036 33.1753 72.4282 33.2184C50.8204 33.2615 33.3416 30.9437 33.3521 28.0243C33.3626 25.105 50.8583 22.7318 72.4661 22.6887C94.0739 22.6456 111.553 24.9634 111.542 27.8626Z" fill="#5B9BCA"/>
</g>
<g style="mix-blend-mode:multiply" opacity="0.5">
<path d="M110.396 27.8786C110.386 30.7375 93.1519 33.0915 71.8858 33.1359C50.6197 33.1802 33.3419 30.8832 33.3522 28.0243C33.3624 25.1654 50.5766 22.8114 71.8427 22.7671C93.1088 22.7227 110.387 25.0197 110.396 27.8786Z" fill="#5A9ACA"/>
</g>
<g style="mix-blend-mode:multiply" opacity="0.5">
<path d="M109.231 27.8742C109.221 30.6929 92.2678 33.0076 71.3434 33.0531C50.419 33.0987 33.4624 30.9036 33.4526 28.0245C33.4429 25.1454 50.3954 22.891 71.3197 22.8656C92.2441 22.8402 109.221 25.0555 109.231 27.8742Z" fill="#5899C9"/>
</g>
<g style="mix-blend-mode:multiply" opacity="0.5">
<path d="M108.065 27.8702C108.055 30.6486 91.3836 32.9241 70.8009 32.9709C50.2182 33.0177 33.5429 30.8236 33.5329 28.025C33.5228 25.2264 50.214 22.9912 70.7766 22.9444C91.3392 22.8975 108.055 25.1119 108.065 27.8702Z" fill="#5798C9"/>
</g>
<g style="mix-blend-mode:multiply" opacity="0.5">
<path d="M70.2373 32.9176C90.4743 32.8772 106.875 30.6359 106.87 27.9117C106.864 25.1875 90.4547 23.0118 70.2178 23.0523C49.9808 23.0927 33.5799 25.3339 33.5853 28.0581C33.5907 30.7824 50.0004 32.958 70.2373 32.9176Z" fill="#5697C9"/>
</g>
<g style="mix-blend-mode:multiply" opacity="0.5">
<path d="M105.713 27.8816C105.704 30.5593 89.6157 32.7563 69.6963 32.8055C49.7769 32.8547 33.6846 30.6627 33.674 28.0252C33.6634 25.3877 49.7716 23.1504 69.691 23.1012C89.6104 23.0521 105.723 25.2039 105.713 27.8816Z" fill="#5497C8"/>
</g>
<g style="mix-blend-mode:multiply" opacity="0.5">
<path d="M104.568 27.8775C104.558 30.515 88.7315 32.6727 69.1739 32.7232C49.6163 32.7737 33.7652 30.5825 33.7744 28.0256C33.7836 25.4687 49.6104 23.2305 69.168 23.2001C88.7255 23.1698 104.557 25.2602 104.568 27.8775Z" fill="#5396C8"/>
</g>
<g style="mix-blend-mode:multiply" opacity="0.5">
<path d="M103.402 27.8737C103.392 30.4709 87.8474 32.5894 68.6315 32.6411C49.4156 32.6928 33.8455 30.6033 33.8548 28.0263C33.864 25.4492 49.4091 23.3106 68.625 23.279C87.8408 23.2475 103.411 25.2967 103.402 27.8737Z" fill="#5295C7"/>
</g>
<g style="mix-blend-mode:multiply" opacity="0.5">
<path d="M102.236 27.8896C102.227 30.4264 86.9638 32.5057 68.0494 32.5585C49.135 32.6112 33.8863 30.5632 33.8955 28.0264C33.9046 25.4896 49.1681 23.4104 68.0824 23.3576C86.9968 23.3048 102.245 25.3529 102.236 27.8896Z" fill="#5094C7"/>
</g>
<g style="mix-blend-mode:multiply" opacity="0.5">
<path d="M101.07 27.8851C101.061 30.3817 86.0793 32.4217 67.5468 32.4758C49.0143 32.53 34.0067 30.5231 33.9956 28.0264C33.9845 25.5298 49.0066 23.4899 67.539 23.4559C86.0714 23.4219 101.079 25.3886 101.07 27.8851Z" fill="#4F93C6"/>
</g>
<g style="mix-blend-mode:multiply" opacity="0.5">
<path d="M99.9247 27.8812C99.9159 30.3374 85.1954 32.3381 67.0047 32.3733C48.8139 32.4086 34.0875 30.4631 34.0762 28.0269C34.0649 25.5907 48.8055 23.57 66.9962 23.5348C85.187 23.4995 99.9134 25.445 99.9247 27.8812Z" fill="#4E92C6"/>
</g>
<g style="mix-blend-mode:multiply" opacity="0.5">
<path d="M98.7589 27.897C98.7503 30.2929 84.3113 32.2543 66.4622 32.2908C48.6132 32.3273 34.1681 30.423 34.1566 28.0271C34.1451 25.6311 48.6042 23.6496 66.4533 23.6131C84.3023 23.5767 98.7474 25.5011 98.7589 27.897Z" fill="#4C92C5"/>
</g>
<g style="mix-blend-mode:multiply" opacity="0.5">
<path d="M97.6735 27.8934C97.665 30.249 83.5879 32.1916 66.0003 32.2089C48.4126 32.2261 34.329 30.3836 34.3173 28.0682C34.3055 25.7528 48.5033 23.7704 65.9905 23.7326C83.4778 23.6949 97.6819 25.5378 97.6735 27.8934Z" fill="#4B91C5"/>
</g>
<g style="mix-blend-mode:multiply" opacity="0.5">
<path d="M96.4274 27.8888C96.4191 30.2041 82.523 32.107 65.3776 32.1259C48.2321 32.1448 34.3293 30.323 34.3176 27.9875C34.3059 25.652 48.222 23.7693 65.3675 23.7504C82.5129 23.7316 96.4156 25.5936 96.4274 27.8888Z" fill="#4990C5"/>
</g>
<g style="mix-blend-mode:multiply" opacity="0.5">
<path d="M95.2613 27.9048C95.2532 30.1597 81.6388 32.0235 64.835 32.0436C48.0312 32.0637 34.4097 30.2832 34.3977 28.0282C34.3858 25.7732 48.0203 23.9096 64.8242 23.8694C81.628 23.8291 95.2494 25.6297 95.2613 27.9048Z" fill="#488FC4"/>
</g>
<g style="mix-blend-mode:multiply" opacity="0.5">
<path d="M64.2661 31.9833C80.7287 31.9504 94.0708 30.13 94.0664 27.9172C94.062 25.7045 80.7129 23.9373 64.2503 23.9702C47.7876 24.0031 34.4456 25.8236 34.4499 28.0363C34.4543 30.2491 47.8035 32.0162 64.2661 31.9833Z" fill="#478EC4"/>
</g>
<g style="mix-blend-mode:multiply" opacity="0.5">
<path d="M92.9299 27.896C92.9221 30.0704 79.8706 31.8757 63.7505 31.8178C47.6304 31.7598 34.5511 30.1222 34.5589 27.968C34.5666 25.8138 47.6182 23.9883 63.7383 24.0463C79.8584 24.1043 92.9377 25.7418 92.9299 27.896Z" fill="#458DC3"/>
</g>
<g style="mix-blend-mode:multiply" opacity="0.5">
<path d="M91.764 27.9122C91.7568 29.9255 78.9866 31.7721 63.2077 31.8361C47.4289 31.9002 34.6313 30.1831 34.6389 28.0691C34.6465 25.9551 47.4165 24.1891 63.1952 24.1452C78.9739 24.1012 91.7717 25.7781 91.764 27.9122Z" fill="#448CC3"/>
</g>
<g style="mix-blend-mode:multiply" opacity="0.5">
<path d="M90.6186 27.9079C90.6114 29.9212 78.1027 31.6882 62.6657 31.7132C47.2287 31.7383 34.7122 30.1027 34.7196 28.029C34.7271 25.9553 47.2155 24.2284 62.6525 24.2034C78.0895 24.1784 90.606 25.8341 90.6186 27.9079Z" fill="#428CC2"/>
</g>
<g style="mix-blend-mode:multiply" opacity="0.5">
<path d="M89.4521 27.9041C89.4448 29.9174 77.2179 31.6049 62.1226 31.6311C47.0273 31.6574 34.7921 30.043 34.7994 28.0297C34.8066 26.0164 47.0136 24.2885 62.1086 24.3428C77.2036 24.3971 89.4393 25.8706 89.4521 27.9041Z" fill="#418BC2"/>
</g>
<g style="mix-blend-mode:multiply" opacity="0.5">
<path d="M88.2862 27.9197C88.2789 29.9331 76.3337 31.5209 61.5801 31.5484C46.8265 31.5758 34.8726 30.0027 34.8797 28.0296C34.8868 26.0566 46.8121 24.4082 61.5657 24.3807C76.3193 24.3532 88.2732 25.9264 88.2862 27.9197Z" fill="#3F8AC1"/>
</g>
<g style="mix-blend-mode:multiply" opacity="0.5">
<path d="M87.1206 27.9156C87.1134 29.9289 75.4499 31.4372 60.9777 31.4657C46.5055 31.4942 34.8529 29.9624 34.8599 28.0095C34.867 26.0566 46.5508 24.4879 61.0029 24.4594C75.455 24.4308 87.1075 25.9827 87.1206 27.9156Z" fill="#3E89C1"/>
</g>
<g style="mix-blend-mode:multiply" opacity="0.5">
<path d="M85.9547 27.9114C85.9479 29.804 74.5657 31.3536 60.4955 31.3835C46.4253 31.4134 35.0339 29.9027 35.0206 28.0101C35.0074 26.1175 46.4298 24.568 60.4799 24.538C74.53 24.508 85.9616 26.0189 85.9547 27.9114Z" fill="#3D88C0"/>
</g>
<g style="mix-blend-mode:multiply" opacity="0.5">
<path d="M84.7891 27.9075C84.7824 29.7597 73.6817 31.2902 59.9533 31.3012C46.2248 31.3122 35.1147 29.8629 35.1012 28.0106C35.0878 26.1583 46.2287 24.6481 59.937 24.637C73.6453 24.6259 84.7957 26.0754 84.7891 27.9075Z" fill="#3B87C0"/>
</g>
<g style="mix-blend-mode:multiply" opacity="0.5">
<path d="M59.3807 31.2682C72.7573 31.2415 83.5982 29.7596 83.5947 27.9583C83.5911 26.1569 72.7444 24.7183 59.3678 24.7451C45.9912 24.7718 35.1502 26.2537 35.1538 28.055C35.1574 29.8564 46.0041 31.295 59.3807 31.2682Z" fill="#3A86C0"/>
</g>
<g style="mix-blend-mode:multiply" opacity="0.5">
<path d="M82.4572 27.9189C82.4509 29.6705 71.9132 31.1225 58.8682 31.136C45.8231 31.1495 35.356 29.7629 35.3623 28.0113C35.3686 26.2597 45.9263 24.8279 58.9513 24.7942C71.9763 24.7605 82.4635 26.1673 82.4572 27.9189Z" fill="#3885BF"/>
</g>
<g style="mix-blend-mode:multiply" opacity="0.5">
<path d="M58.2948 31.069C70.9831 31.0436 81.2663 29.6439 81.2629 27.9427C81.2596 26.2414 70.9709 24.8828 58.2826 24.9082C45.5943 24.9336 35.3111 26.3332 35.3144 28.0345C35.3178 29.7357 45.6064 31.0943 58.2948 31.069Z" fill="#3784BF"/>
</g>
<g style="mix-blend-mode:multiply" opacity="0.5">
<path d="M57.7517 30.9896C70.0959 30.965 80.1002 29.6019 80.0969 27.9452C80.0936 26.2884 70.084 24.9653 57.7398 24.99C45.3956 25.0147 35.3913 26.3777 35.3946 28.0345C35.3979 29.6913 45.4075 31.0143 57.7517 30.9896Z" fill="#3584BE"/>
</g>
<g style="mix-blend-mode:multiply" opacity="0.5">
<path d="M78.9802 27.9266C78.9744 29.5372 69.2412 30.8713 57.2413 30.8886C45.2415 30.9058 35.4975 29.6225 35.5033 28.0118C35.5091 26.4012 45.2223 25.067 57.2422 25.0498C69.2622 25.0326 78.9656 26.4165 78.9802 27.9266Z" fill="#3483BE"/>
</g>
<g style="mix-blend-mode:multiply" opacity="0.5">
<path d="M77.8144 27.9222C77.8087 29.4926 68.357 30.7875 56.6989 30.8059C45.0407 30.8244 35.5781 29.5824 35.5837 28.012C35.5894 26.4416 45.021 25.1467 56.6992 25.1283C68.3774 25.1099 77.7997 26.4122 77.8144 27.9222Z" fill="#3282BD"/>
</g>
<g style="mix-blend-mode:multiply" opacity="0.5">
<path d="M76.6485 27.9387C76.6431 29.4486 67.4729 30.7042 56.1565 30.7239C44.84 30.7436 35.6586 29.5428 35.6641 28.0127C35.6696 26.4826 44.8196 25.2471 56.1562 25.2073C67.4928 25.1676 76.654 26.4085 76.6485 27.9387Z" fill="#3181BD"/>
</g>
<g style="mix-blend-mode:multiply" opacity="0.5">
<path d="M75.5632 27.9347C75.5579 29.4044 66.6693 30.6207 55.6945 30.6416C44.7198 30.6626 35.8197 29.4829 35.825 28.0132C35.8302 26.5435 44.7189 25.3272 55.6936 25.3062C66.6684 25.2853 75.5687 26.4046 75.5632 27.9347Z" fill="#2F80BC"/>
</g>
<g style="mix-blend-mode:multiply" opacity="0.5">
<path d="M74.3171 27.9301C74.3119 29.3596 65.7048 30.5366 55.0718 30.5587C44.4387 30.5809 35.8199 29.4426 35.825 28.0131C35.8301 26.5837 44.4373 25.4067 55.0703 25.3845C65.7033 25.3624 74.3222 26.5007 74.3171 27.9301Z" fill="#2E7FBC"/>
</g>
<g style="mix-blend-mode:multiply" opacity="0.5">
<path d="M73.1512 27.9458C73.1463 29.3148 64.8207 30.4526 54.5293 30.476C44.238 30.4994 35.9004 29.4023 35.9054 28.0132C35.9104 26.624 44.2359 25.4863 54.5273 25.4629C64.8186 25.4395 73.1562 26.5566 73.1512 27.9458Z" fill="#2C7EBB"/>
</g>
<g style="mix-blend-mode:multiply" opacity="0.5">
<path d="M72.0055 27.9417C72.0007 29.2704 63.9567 30.369 53.9066 30.3932C43.8564 30.4175 35.8203 29.3417 35.8251 28.0129C35.8298 26.6841 43.8739 25.5655 53.924 25.5613C63.974 25.5572 71.9903 26.5927 72.0055 27.9417Z" fill="#2B7DBB"/>
</g>
<g style="mix-blend-mode:multiply" opacity="0.5">
<path d="M53.4293 30.334C63.0315 30.3148 70.8136 29.2536 70.8111 27.9638C70.8085 26.6739 63.0223 25.6438 53.42 25.663C43.8177 25.6822 36.0356 26.7434 36.0382 28.0332C36.0407 29.3231 43.827 30.3532 53.4293 30.334Z" fill="#2A7CBA"/>
</g>
<g style="mix-blend-mode:multiply" opacity="0.5">
<path d="M69.6733 27.9534C69.6688 29.1815 62.1677 30.2216 52.9016 30.2286C43.6354 30.2355 36.1416 29.2623 36.126 28.014C36.1103 26.7656 43.6314 25.7458 52.8977 25.7187C62.1639 25.6916 69.6577 26.7051 69.6733 27.9534Z" fill="#287BBA"/>
</g>
<g style="mix-blend-mode:multiply" opacity="0.5">
<path d="M68.5079 27.9494C68.5036 29.1373 61.284 30.1382 52.4198 30.1466C43.5556 30.155 36.3431 29.2029 36.3472 28.0754C36.3512 26.9479 43.571 25.8866 52.4353 25.8581C61.2995 25.8296 68.5122 26.7414 68.5079 27.9494Z" fill="#277BB9"/>
</g>
<g style="mix-blend-mode:multiply" opacity="0.5">
<path d="M67.3418 27.9452C67.3376 29.0928 60.3996 30.0543 51.8168 30.0637C43.234 30.0731 36.2827 29.1623 36.2869 27.9945C36.2911 26.8268 43.229 25.8853 51.8118 25.8759C60.3946 25.8665 67.3459 26.7976 67.3418 27.9452Z" fill="#257AB9"/>
</g>
<g style="mix-blend-mode:multiply" opacity="0.5">
<path d="M66.1761 27.9413C66.1721 29.0486 59.5158 29.9307 51.2749 29.901C43.0339 29.8714 36.3637 29.042 36.3676 27.9347C36.3716 26.8274 43.0279 25.9453 51.2689 25.975C59.5098 26.0046 66.1801 26.8339 66.1761 27.9413Z" fill="#2479B8"/>
</g>
<g style="mix-blend-mode:multiply" opacity="0.5">
<path d="M65.0102 27.9568C65.0065 29.0037 58.6313 29.9472 50.732 29.9188C42.8328 29.8904 36.4438 29.0822 36.4476 28.0353C36.4514 26.9884 42.8466 26.045 50.7258 26.0733C58.6049 26.1016 65.0141 26.8898 65.0102 27.9568Z" fill="#2278B8"/>
</g>
<g style="mix-blend-mode:multiply" opacity="0.5">
<path d="M63.8444 27.9524C63.8407 28.9591 57.8077 29.8031 50.1897 29.816C42.5717 29.8288 36.5244 29.0219 36.528 28.0152C36.5316 27.0085 42.5647 26.1645 50.1827 26.1516C57.8007 26.1388 63.848 26.9457 63.8444 27.9524Z" fill="#2177B7"/>
</g>
<g style="mix-blend-mode:multiply" opacity="0.5">
<path d="M62.6989 27.9486C62.6954 28.915 56.8433 29.7195 49.6475 29.7339C42.4516 29.7483 36.6052 28.9822 36.6086 28.0158C36.6121 27.0494 42.4441 26.2449 49.64 26.2305C56.8359 26.2161 62.6822 26.9821 62.6989 27.9486Z" fill="#1F76B7"/>
</g>
<g style="mix-blend-mode:multiply" opacity="0.5">
<path d="M61.493 27.9643C61.4897 28.8904 55.9193 29.6355 49.0651 29.6511C42.2109 29.6668 36.6458 28.9219 36.6491 28.0159C36.6523 27.1099 42.2028 26.3245 49.057 26.3089C55.9112 26.2933 61.4964 27.0382 61.493 27.9643Z" fill="#1E75B6"/>
</g>
<g style="mix-blend-mode:multiply" opacity="0.5">
<path d="M60.3674 27.9604C60.3642 28.8462 55.0753 29.552 48.5628 29.5689C42.0503 29.5857 36.7665 28.8822 36.7696 28.0165C36.7727 27.1507 42.0416 26.4046 48.5541 26.3878C55.0666 26.371 60.3705 27.0745 60.3674 27.9604Z" fill="#1C74B6"/>
</g>
<g style="mix-blend-mode:multiply" opacity="0.5">
<path d="M59.2015 27.9559C59.1985 28.8015 54.1911 29.4681 48.0203 29.4861C41.8495 29.5042 36.847 28.842 36.8499 28.0165C36.8529 27.191 41.8402 26.5043 48.011 26.4862C54.1818 26.4682 59.2045 27.1305 59.2015 27.9559Z" fill="#1A73B6"/>
</g>
<g style="mix-blend-mode:multiply" opacity="0.5">
<path d="M58.0359 27.9723C58.0331 28.7575 53.3073 29.3848 47.4782 29.4041C41.649 29.4234 36.9278 28.7822 36.9105 28.0171C36.8931 27.2519 41.6392 26.5845 47.4683 26.5652C53.2974 26.5459 58.0387 27.1871 58.0359 27.9723Z" fill="#1972B5"/>
</g>
<g style="mix-blend-mode:multiply" opacity="0.5">
<path d="M56.87 27.9679C56.8674 28.7128 52.423 29.3209 46.9357 29.3213C41.4484 29.3217 37.0083 28.742 36.9908 28.0172C36.9733 27.2923 41.4378 26.6642 46.9253 26.6436C52.4127 26.6231 56.8727 27.223 56.87 27.9679Z" fill="#1771B5"/>
</g>
<g style="mix-blend-mode:multiply" opacity="0.5">
<path d="M55.7043 27.9639C55.7018 28.6686 51.5391 29.2375 46.3934 29.2391C41.2478 29.2408 37.0689 28.7022 37.0714 27.9976C37.0739 27.2929 41.2366 26.7442 46.3823 26.7425C51.5279 26.7409 55.7068 27.2794 55.7043 27.9639Z" fill="#1670B4"/>
</g>
<g style="mix-blend-mode:multiply" opacity="0.5">
<path d="M54.5385 27.9797C54.5361 28.624 50.6549 29.1537 45.851 29.1565C41.047 29.1594 37.1494 28.6621 37.1518 27.9977C37.1542 27.3332 41.0554 26.8238 45.8393 26.8209C50.6231 26.818 54.5409 27.3153 54.5385 27.9797Z" fill="#146FB4"/>
</g>
<g style="mix-blend-mode:multiply" opacity="0.5">
<path d="M53.4526 27.976C53.4504 28.58 49.8507 29.0704 45.4086 29.0746C40.9664 29.0788 37.3702 28.6027 37.3724 27.9987C37.3746 27.3947 40.9944 26.9044 45.4164 26.9002C49.8384 26.8959 53.4548 27.372 53.4526 27.976Z" fill="#136EB3"/>
</g>
<g style="mix-blend-mode:multiply" opacity="0.5">
<path d="M52.2263 27.9712C52.2242 28.535 48.886 28.986 44.7655 28.9913C40.6449 28.9966 37.3099 28.5618 37.3119 27.9981C37.3139 27.4344 40.6521 27.0034 44.7727 26.978C48.8933 26.9525 52.2081 27.4276 52.2263 27.9712Z" fill="#116EB3"/>
</g>
<g style="mix-blend-mode:multiply" opacity="0.5">
<path d="M51.0606 27.9674C51.0587 28.4909 48.002 28.9026 44.2231 28.9092C40.4443 28.9157 37.3905 28.5222 37.3923 27.9987C37.3942 27.4753 40.4509 27.0836 44.2297 27.0771C48.0086 27.0706 51.0624 27.4641 51.0606 27.9674Z" fill="#106DB2"/>
</g>
<g style="mix-blend-mode:multiply" opacity="0.5">
<path d="M49.8947 27.9832C49.893 28.4462 47.1179 28.8189 43.6807 28.8266C40.2436 28.8344 37.4712 28.462 37.4728 27.9989C37.4745 27.5358 40.2496 27.1632 43.6868 27.1555C47.1239 27.1477 49.8963 27.5201 49.8947 27.9832Z" fill="#0E6CB2"/>
</g>
<g style="mix-blend-mode:multiply" opacity="0.5">
<path d="M48.7289 27.9788C48.7273 28.4016 46.2337 28.7349 43.1383 28.7439C40.0428 28.7529 37.5516 28.4218 37.5531 27.999C37.5546 27.5762 40.0482 27.2429 43.1437 27.2339C46.2391 27.2249 48.7304 27.556 48.7289 27.9788Z" fill="#0D6BB1"/>
</g>
<g style="mix-blend-mode:multiply" opacity="0.5">
<path d="M47.5632 27.9748C47.5618 28.3573 45.3498 28.6514 42.596 28.6616C39.8422 28.6718 37.6323 28.382 37.6336 27.9995C37.635 27.6169 39.8471 27.3229 42.6008 27.3328C45.3545 27.3427 47.5645 27.6124 47.5632 27.9748Z" fill="#0B6AB1"/>
</g>
<g style="mix-blend-mode:multiply" opacity="0.5">
<path d="M46.3973 27.9905C46.3962 28.3126 44.3852 28.5672 42.0536 28.5789C39.7219 28.5907 37.7129 28.3217 37.714 27.9995C37.7152 27.6774 39.7261 27.423 42.0578 27.4112C44.3894 27.3995 46.3985 27.6684 46.3973 27.9905Z" fill="#0969B0"/>
</g>
<g style="mix-blend-mode:multiply" opacity="0.5">
<path d="M45.2315 27.9863C45.2304 28.2682 43.5613 28.4836 41.5111 28.4964C39.4608 28.5092 37.7934 28.2817 37.7944 27.9998C37.7954 27.7179 39.4444 27.5024 41.5147 27.4897C43.5851 27.4771 45.2325 27.7044 45.2315 27.9863Z" fill="#0868B0"/>
</g>
<g style="mix-blend-mode:multiply" opacity="0.5">
<path d="M44.0658 27.9823C44.065 28.2239 42.6774 28.4002 40.9688 28.4142C39.2603 28.4281 37.8741 28.2419 37.8548 28.0002C38.8424 27.6008 39.9132 27.4525 40.9719 27.5685C42.6804 27.5747 44.0666 27.7608 44.0658 27.9823Z" fill="#0667AF"/>
</g>
<g style="mix-blend-mode:multiply" opacity="0.5">
<path d="M42.9202 27.9983C42.9196 28.1795 41.7934 28.3365 40.4266 28.3316C39.0599 28.3267 37.9348 28.1817 37.9354 28.0005C37.9361 27.8192 39.0622 27.6623 40.429 27.6672C41.7958 27.6721 42.9209 27.8171 42.9202 27.9983Z" fill="#0566AF"/>
</g>
<g style="mix-blend-mode:multiply" opacity="0.5">
<path d="M41.7544 27.9943C41.7538 28.1352 40.9092 28.253 39.8842 28.2493C38.8591 28.2456 38.0153 28.1418 38.0158 28.0009C38.0163 27.86 38.8609 27.7423 39.886 27.746C40.9111 27.7497 41.7549 27.8534 41.7544 27.9943Z" fill="#0365AE"/>
</g>
<g style="mix-blend-mode:multiply" opacity="0.5">
<path d="M40.5885 27.9898C40.5885 27.9898 40.0251 28.169 39.3417 28.1666C38.6583 28.1641 38.0955 28.1621 38.0961 28.0009C38.0967 27.8398 38.6595 27.8418 39.3429 27.8241C39.7653 27.7802 40.1922 27.837 40.5885 27.9898V27.9898Z" fill="#0264AE"/>
</g>
<g style="mix-blend-mode:multiply" opacity="0.5">
<path d="M39.3823 28.0059C40.0003 28.0875 40.5641 28.4017 40.9591 28.8848C41.3541 29.3678 41.5506 29.9834 41.5086 30.6063C41.4667 31.2293 41.1895 31.8129 40.7334 32.2385C40.2773 32.664 39.6765 32.8996 39.0532 32.8974C38.4298 32.8952 37.8307 32.6552 37.3777 32.2264C36.9247 31.7975 36.6517 31.212 36.6142 30.5887C36.5768 29.9655 36.7777 29.3513 37.1762 28.8712C37.5746 28.391 38.1406 28.0808 38.7592 28.0037C39.1414 27.9245 39.3825 27.9455 39.3823 28.0059Z" fill="#0063AD"/>
</g>
</g>
</g>
</svg>
